G75*
%MOIN*%
%OFA0B0*%
%FSLAX24Y24*%
%IPPOS*%
%LPD*%
%AMOC8*
5,1,8,0,0,1.08239X$1,22.5*
%
%ADD10C,0.1182*%
%ADD11C,0.0240*%
%ADD12C,0.0730*%
%ADD13R,0.0730X0.0730*%
D10*
X001848Y001528D03*
X001848Y020819D03*
X024683Y020819D03*
X024683Y001528D03*
D11*
X021220Y001150D02*
X019220Y001150D01*
X019220Y002150D02*
X021220Y002150D01*
X016220Y002150D02*
X005220Y002150D01*
X005220Y001150D02*
X016220Y001150D01*
X016220Y003650D02*
X016220Y007650D01*
X015220Y007650D02*
X015220Y003650D01*
X014220Y003650D02*
X014220Y007650D01*
X013220Y007650D02*
X013220Y003650D01*
X012220Y003650D02*
X012220Y007650D01*
X011220Y007650D02*
X011220Y003650D01*
X010220Y003650D02*
X010220Y007650D01*
X009220Y007650D02*
X009220Y003650D01*
X008220Y003650D02*
X008220Y007650D01*
X007220Y007650D02*
X007220Y003650D01*
X006220Y003650D02*
X006220Y007650D01*
X005220Y007650D02*
X005220Y003650D01*
X004220Y003650D02*
X004220Y007650D01*
X003220Y007650D02*
X003220Y003650D01*
X003220Y009650D02*
X003220Y013650D01*
X004220Y013650D02*
X004220Y009650D01*
X005220Y009650D02*
X005220Y013650D01*
X006220Y013650D02*
X006220Y009650D01*
X007220Y009650D02*
X007220Y013650D01*
X008220Y013650D02*
X008220Y009650D01*
X009220Y009650D02*
X009220Y013650D01*
X010220Y013650D02*
X010220Y009650D01*
X011220Y009650D02*
X011220Y013650D01*
X012220Y013650D02*
X012220Y009650D01*
X013220Y009650D02*
X013220Y013650D01*
X014220Y013650D02*
X014220Y009650D01*
X015220Y009650D02*
X015220Y013650D01*
X016220Y013650D02*
X016220Y009650D01*
X017220Y009650D02*
X017220Y013650D01*
X018220Y013650D02*
X018220Y009650D01*
X019220Y009650D02*
X019220Y013650D01*
X020220Y013650D02*
X020220Y009650D01*
X021220Y009650D02*
X021220Y013650D01*
X021220Y015650D02*
X003220Y015650D01*
X003220Y016650D02*
X021220Y016650D01*
D12*
X020765Y020319D03*
X019765Y020319D03*
X018765Y020319D03*
X017765Y020319D03*
X016765Y020319D03*
X015765Y020319D03*
X014765Y020319D03*
X013765Y020319D03*
X012765Y020319D03*
X011765Y020319D03*
X010765Y020319D03*
X009765Y020319D03*
X008765Y020319D03*
X007765Y020319D03*
X006765Y020319D03*
X005765Y020319D03*
X004765Y020319D03*
X004765Y021319D03*
X005765Y021319D03*
X006765Y021319D03*
X007765Y021319D03*
X008765Y021319D03*
X009765Y021319D03*
X010765Y021319D03*
X011765Y021319D03*
X012765Y021319D03*
X013765Y021319D03*
X014765Y021319D03*
X015765Y021319D03*
X016765Y021319D03*
X017765Y021319D03*
X018765Y021319D03*
X019765Y021319D03*
X020765Y021319D03*
X021765Y021319D03*
X022765Y021319D03*
X022765Y020319D03*
X021765Y020319D03*
X003765Y021319D03*
D13*
X003765Y020319D03*
M02*
