G75*
%MOIN*%
%OFA0B0*%
%FSLAX24Y24*%
%IPPOS*%
%LPD*%
%AMOC8*
5,1,8,0,0,1.08239X$1,22.5*
%
%ADD10C,0.0040*%
%ADD11C,0.0050*%
%ADD12C,0.0030*%
%ADD13C,0.0080*%
%ADD14C,0.0100*%
%ADD15C,0.0150*%
%ADD16C,0.0060*%
%ADD17R,0.0250X0.0100*%
%ADD18R,0.0300X0.0180*%
%ADD19C,0.0220*%
%ADD20C,0.0010*%
D10*
X000886Y002820D02*
X000780Y002927D01*
X000886Y003034D01*
X001100Y003034D01*
X001047Y003151D02*
X001100Y003205D01*
X001100Y003312D01*
X001047Y003365D01*
X001100Y003483D02*
X000780Y003483D01*
X000780Y003643D01*
X000833Y003696D01*
X000940Y003696D01*
X000993Y003643D01*
X000993Y003483D01*
X000993Y003590D02*
X001100Y003696D01*
X001047Y003814D02*
X001100Y003868D01*
X001100Y003975D01*
X001047Y004028D01*
X000833Y004028D01*
X000780Y003975D01*
X000780Y003868D01*
X000833Y003814D01*
X001047Y003814D01*
X001100Y004146D02*
X000780Y004146D01*
X000780Y004306D01*
X000833Y004359D01*
X000886Y004359D01*
X000940Y004306D01*
X000940Y004146D01*
X001100Y004146D02*
X001100Y004306D01*
X001047Y004359D01*
X000993Y004359D01*
X000940Y004306D01*
X001047Y004477D02*
X001100Y004531D01*
X001100Y004638D01*
X001047Y004691D01*
X000833Y004691D01*
X000780Y004638D01*
X000780Y004531D01*
X000833Y004477D01*
X001047Y004477D01*
X000780Y004809D02*
X000780Y005022D01*
X000780Y004916D02*
X001100Y004916D01*
X001486Y004969D02*
X001540Y005022D01*
X001700Y005022D01*
X001647Y005140D02*
X001593Y005194D01*
X001593Y005354D01*
X001540Y005354D02*
X001700Y005354D01*
X001700Y005194D01*
X001647Y005140D01*
X001486Y005194D02*
X001486Y005301D01*
X001540Y005354D01*
X001647Y005525D02*
X001700Y005525D01*
X001700Y005579D01*
X001647Y005579D01*
X001647Y005525D01*
X001700Y005579D02*
X001807Y005472D01*
X002030Y005201D02*
X002350Y005201D01*
X002350Y005361D01*
X002297Y005414D01*
X002190Y005414D01*
X002136Y005361D01*
X002136Y005201D01*
X002190Y005083D02*
X002136Y005030D01*
X002136Y004923D01*
X002190Y004869D01*
X002297Y004869D01*
X002350Y004923D01*
X002350Y005030D01*
X002297Y005083D01*
X002190Y005083D01*
X002136Y004753D02*
X002136Y004700D01*
X002243Y004593D01*
X002350Y004593D02*
X002136Y004593D01*
X002136Y004475D02*
X002136Y004315D01*
X002190Y004262D01*
X002297Y004262D01*
X002350Y004315D01*
X002350Y004475D01*
X002350Y004144D02*
X002350Y003984D01*
X002297Y003930D01*
X002243Y003984D01*
X002243Y004144D01*
X002190Y004144D02*
X002350Y004144D01*
X002190Y004144D02*
X002136Y004090D01*
X002136Y003984D01*
X002297Y003818D02*
X002350Y003818D01*
X002350Y003764D01*
X002297Y003764D01*
X002297Y003818D01*
X002297Y003646D02*
X002136Y003646D01*
X002297Y003646D02*
X002350Y003593D01*
X002297Y003540D01*
X002350Y003486D01*
X002297Y003433D01*
X002136Y003433D01*
X002136Y003315D02*
X002297Y003315D01*
X002350Y003262D01*
X002297Y003208D01*
X002350Y003155D01*
X002297Y003101D01*
X002136Y003101D01*
X002136Y002984D02*
X002297Y002984D01*
X002350Y002930D01*
X002297Y002877D01*
X002350Y002823D01*
X002297Y002770D01*
X002136Y002770D01*
X001700Y002820D02*
X001380Y002820D01*
X001380Y002980D01*
X001433Y003034D01*
X001540Y003034D01*
X001593Y002980D01*
X001593Y002820D01*
X001647Y003151D02*
X001593Y003205D01*
X001593Y003365D01*
X001540Y003365D02*
X001700Y003365D01*
X001700Y003205D01*
X001647Y003151D01*
X001486Y003205D02*
X001486Y003312D01*
X001540Y003365D01*
X001540Y003483D02*
X001486Y003536D01*
X001486Y003696D01*
X001593Y003643D02*
X001593Y003536D01*
X001540Y003483D01*
X001700Y003483D02*
X001700Y003643D01*
X001647Y003696D01*
X001593Y003643D01*
X001647Y003814D02*
X001593Y003868D01*
X001593Y004028D01*
X001540Y004028D02*
X001700Y004028D01*
X001700Y003868D01*
X001647Y003814D01*
X001486Y003868D02*
X001486Y003975D01*
X001540Y004028D01*
X001540Y004146D02*
X001486Y004199D01*
X001486Y004359D01*
X001380Y004359D02*
X001700Y004359D01*
X001700Y004199D01*
X001647Y004146D01*
X001540Y004146D01*
X001540Y004477D02*
X001486Y004531D01*
X001486Y004638D01*
X001540Y004691D01*
X001593Y004691D01*
X001593Y004477D01*
X001540Y004477D02*
X001647Y004477D01*
X001700Y004531D01*
X001700Y004638D01*
X001700Y004809D02*
X001486Y004809D01*
X001486Y004969D01*
X001100Y005140D02*
X001100Y005247D01*
X001100Y005194D02*
X000780Y005194D01*
X000780Y005247D02*
X000780Y005140D01*
X000833Y005361D02*
X000780Y005415D01*
X000780Y005522D01*
X000833Y005575D01*
X001047Y005575D02*
X001100Y005522D01*
X001100Y005415D01*
X001047Y005361D01*
X000833Y005361D01*
X001433Y006024D02*
X001647Y006024D01*
X001700Y006078D01*
X001700Y006184D01*
X001647Y006238D01*
X001700Y006356D02*
X001486Y006356D01*
X001380Y006463D01*
X001486Y006569D01*
X001700Y006569D01*
X001540Y006569D02*
X001540Y006356D01*
X001433Y006238D02*
X001380Y006184D01*
X001380Y006078D01*
X001433Y006024D01*
X001976Y006138D02*
X002030Y006138D01*
X002136Y006138D02*
X002350Y006138D01*
X002350Y006085D02*
X002350Y006192D01*
X002297Y006306D02*
X002350Y006359D01*
X002350Y006519D01*
X002350Y006637D02*
X002350Y006691D01*
X002297Y006691D01*
X002297Y006637D01*
X002350Y006637D01*
X002297Y006803D02*
X002350Y006856D01*
X002350Y007017D01*
X002297Y007135D02*
X002350Y007188D01*
X002350Y007295D01*
X002297Y007348D01*
X002190Y007348D01*
X002136Y007295D01*
X002136Y007188D01*
X002190Y007135D01*
X002297Y007135D01*
X002136Y007017D02*
X002136Y006856D01*
X002190Y006803D01*
X002297Y006803D01*
X002136Y006519D02*
X002136Y006359D01*
X002190Y006306D01*
X002297Y006306D01*
X002136Y006138D02*
X002136Y006085D01*
X002136Y005971D02*
X002136Y005864D01*
X002083Y005917D02*
X002297Y005917D01*
X002350Y005971D01*
X002297Y005746D02*
X002190Y005746D01*
X002136Y005692D01*
X002136Y005586D01*
X002190Y005532D01*
X002297Y005532D01*
X002350Y005586D01*
X002350Y005692D01*
X002297Y005746D01*
X002350Y007466D02*
X002136Y007466D01*
X002136Y007519D01*
X002190Y007573D01*
X002136Y007626D01*
X002190Y007680D01*
X002350Y007680D01*
X002350Y007573D02*
X002190Y007573D01*
X000833Y003365D02*
X000780Y003312D01*
X000780Y003205D01*
X000833Y003151D01*
X001047Y003151D01*
X000940Y003034D02*
X000940Y002820D01*
X000886Y002820D02*
X001100Y002820D01*
X001849Y014810D02*
X001796Y014863D01*
X001796Y015077D01*
X001849Y015130D01*
X001956Y015130D01*
X002009Y015077D01*
X002127Y015130D02*
X002127Y014810D01*
X002009Y014863D02*
X001956Y014810D01*
X001849Y014810D01*
X002127Y014970D02*
X002234Y014970D01*
X002127Y015130D02*
X002341Y015130D01*
X002459Y015077D02*
X002459Y014863D01*
X002512Y014810D01*
X002619Y014810D01*
X002672Y014863D01*
X002672Y014970D01*
X002565Y014970D01*
X002459Y015077D02*
X002512Y015130D01*
X002619Y015130D01*
X002672Y015077D01*
D11*
X025170Y015559D02*
X025245Y015559D01*
X025395Y015559D02*
X025695Y015559D01*
X025695Y015484D02*
X025695Y015634D01*
X025470Y015323D02*
X025545Y015248D01*
X025545Y015023D01*
X025695Y015023D02*
X025245Y015023D01*
X025245Y015248D01*
X025320Y015323D01*
X025470Y015323D01*
X025395Y015484D02*
X025395Y015559D01*
X025395Y016251D02*
X025245Y016401D01*
X025395Y016551D01*
X025695Y016551D01*
X025470Y016551D02*
X025470Y016251D01*
X025395Y016251D02*
X025695Y016251D01*
X025470Y016711D02*
X025470Y017012D01*
X025320Y016861D02*
X025620Y016861D01*
X025695Y017172D02*
X025245Y017472D01*
X025245Y017632D02*
X025245Y017857D01*
X025320Y017932D01*
X025395Y017932D01*
X025470Y017857D01*
X025470Y017632D01*
X025695Y017632D02*
X025695Y017857D01*
X025620Y017932D01*
X025545Y017932D01*
X025470Y017857D01*
X025470Y018093D02*
X025470Y018393D01*
X025320Y018243D02*
X025620Y018243D01*
X025695Y017632D02*
X025245Y017632D01*
X025395Y014403D02*
X025770Y014403D01*
X025845Y014328D01*
X025845Y014253D01*
X025695Y014178D02*
X025695Y014403D01*
X025695Y014178D02*
X025620Y014102D01*
X025395Y014102D01*
X025395Y013944D02*
X025395Y013869D01*
X025545Y013719D01*
X025695Y013719D02*
X025395Y013719D01*
X025395Y013560D02*
X025395Y013485D01*
X025545Y013335D01*
X025695Y013335D02*
X025395Y013335D01*
X025470Y013175D02*
X025395Y013100D01*
X025395Y012950D01*
X025470Y012875D01*
X025620Y012875D01*
X025695Y012950D01*
X025695Y013100D01*
X025545Y013175D02*
X025545Y012875D01*
X025620Y012715D02*
X025470Y012715D01*
X025395Y012640D01*
X025395Y012414D01*
X025245Y012414D02*
X025695Y012414D01*
X025695Y012640D01*
X025620Y012715D01*
X025620Y012254D02*
X025695Y012179D01*
X025695Y011954D01*
X025845Y011954D02*
X025395Y011954D01*
X025395Y012179D01*
X025470Y012254D01*
X025620Y012254D01*
X025620Y011794D02*
X025545Y011719D01*
X025545Y011569D01*
X025470Y011494D01*
X025395Y011569D01*
X025395Y011794D01*
X025620Y011794D02*
X025695Y011719D01*
X025695Y011494D01*
X025695Y011333D02*
X025470Y011333D01*
X025395Y011258D01*
X025395Y011108D01*
X025545Y011108D02*
X025545Y011333D01*
X025695Y011333D02*
X025695Y011108D01*
X025620Y011033D01*
X025545Y011108D01*
X025470Y010873D02*
X025320Y010873D01*
X025245Y010798D01*
X025245Y010573D01*
X025695Y010573D01*
X025545Y010573D02*
X025545Y010798D01*
X025470Y010873D01*
X025545Y010723D02*
X025695Y010873D01*
X025395Y009954D02*
X025395Y009879D01*
X025545Y009729D01*
X025695Y009729D02*
X025395Y009729D01*
X025470Y009569D02*
X025395Y009494D01*
X025395Y009343D01*
X025470Y009268D01*
X025620Y009268D01*
X025695Y009343D01*
X025695Y009494D01*
X025620Y009569D01*
X025470Y009569D01*
X025470Y009112D02*
X025470Y008961D01*
X025320Y009036D02*
X025245Y009112D01*
X025320Y009036D02*
X025695Y009036D01*
X025245Y008341D02*
X025245Y008041D01*
X025245Y008191D02*
X025695Y008191D01*
X025695Y007880D02*
X025395Y007880D01*
X025245Y007730D01*
X025395Y007580D01*
X025695Y007580D01*
X025695Y007420D02*
X025245Y007420D01*
X025470Y007420D02*
X025470Y007120D01*
X025695Y007120D02*
X025245Y007120D01*
X025470Y007580D02*
X025470Y007880D01*
X025395Y006499D02*
X025320Y006499D01*
X025245Y006424D01*
X025245Y006274D01*
X025320Y006199D01*
X025320Y006039D02*
X025620Y005739D01*
X025695Y005814D01*
X025695Y005964D01*
X025620Y006039D01*
X025320Y006039D01*
X025245Y005964D01*
X025245Y005814D01*
X025320Y005739D01*
X025620Y005739D01*
X025695Y005579D02*
X025695Y005278D01*
X025695Y005428D02*
X025245Y005428D01*
X025395Y005278D01*
X025395Y005118D02*
X025695Y005118D01*
X025470Y005118D02*
X025470Y004818D01*
X025395Y004818D02*
X025245Y004968D01*
X025395Y005118D01*
X025395Y004818D02*
X025695Y004818D01*
X025470Y004658D02*
X025545Y004583D01*
X025545Y004357D01*
X025695Y004357D02*
X025245Y004357D01*
X025245Y004583D01*
X025320Y004658D01*
X025470Y004658D01*
X025470Y004197D02*
X025470Y003897D01*
X025395Y003897D02*
X025245Y004047D01*
X025395Y004197D01*
X025695Y004197D01*
X025695Y003897D02*
X025395Y003897D01*
X025695Y006199D02*
X025395Y006499D01*
X025695Y006499D02*
X025695Y006199D01*
X025545Y013175D02*
X025470Y013175D01*
D12*
X003575Y014308D02*
X003530Y014263D01*
X003350Y014263D01*
X003305Y014308D01*
X003305Y014398D01*
X003350Y014443D01*
X003395Y014539D02*
X003305Y014629D01*
X003575Y014629D01*
X003575Y014539D02*
X003575Y014719D01*
X003530Y014443D02*
X003575Y014398D01*
X003575Y014308D01*
X002905Y013691D02*
X002860Y013736D01*
X002680Y013736D01*
X002860Y013556D01*
X002905Y013601D01*
X002905Y013691D01*
X002860Y013556D02*
X002680Y013556D01*
X002635Y013601D01*
X002635Y013691D01*
X002680Y013736D01*
X002860Y013463D02*
X002905Y013463D01*
X002905Y013417D01*
X002860Y013417D01*
X002860Y013463D01*
X002905Y013321D02*
X002905Y013141D01*
X002905Y013231D02*
X002635Y013231D01*
X002725Y013141D01*
X002725Y013045D02*
X002905Y012955D01*
X002725Y012865D01*
X003305Y015665D02*
X003305Y015800D01*
X003350Y015845D01*
X003440Y015845D01*
X003485Y015800D01*
X003485Y015665D01*
X003575Y015665D02*
X003305Y015665D01*
X003485Y015755D02*
X003575Y015845D01*
X003530Y015941D02*
X003575Y015986D01*
X003575Y016076D01*
X003530Y016121D01*
X003485Y016121D01*
X003440Y016076D01*
X003440Y016031D01*
X003440Y016076D02*
X003395Y016121D01*
X003350Y016121D01*
X003305Y016076D01*
X003305Y015986D01*
X003350Y015941D01*
X003315Y016565D02*
X003315Y016700D01*
X003360Y016745D01*
X003450Y016745D01*
X003495Y016700D01*
X003495Y016565D01*
X003585Y016565D02*
X003315Y016565D01*
X003495Y016655D02*
X003585Y016745D01*
X003585Y016841D02*
X003585Y017021D01*
X003585Y016931D02*
X003315Y016931D01*
X003405Y016841D01*
X003205Y019115D02*
X002935Y019115D01*
X002935Y019250D01*
X002980Y019295D01*
X003070Y019295D01*
X003115Y019250D01*
X003115Y019115D01*
X003115Y019205D02*
X003205Y019295D01*
X003205Y019391D02*
X003025Y019571D01*
X002980Y019571D01*
X002935Y019526D01*
X002935Y019436D01*
X002980Y019391D01*
X003205Y019391D02*
X003205Y019571D01*
X002639Y019435D02*
X002639Y019165D01*
X002459Y019165D02*
X002459Y019435D01*
X002549Y019345D01*
X002639Y019435D01*
X002363Y019390D02*
X002363Y019210D01*
X002318Y019165D01*
X002228Y019165D01*
X002183Y019210D01*
X002183Y019390D01*
X002228Y019435D01*
X002318Y019435D01*
X002363Y019390D01*
X002086Y019390D02*
X002086Y019300D01*
X002041Y019255D01*
X001906Y019255D01*
X001906Y019165D02*
X001906Y019435D01*
X002041Y019435D01*
X002086Y019390D01*
X001996Y019255D02*
X002086Y019165D01*
X001810Y019300D02*
X001765Y019255D01*
X001630Y019255D01*
X001630Y019165D02*
X001630Y019435D01*
X001765Y019435D01*
X001810Y019390D01*
X001810Y019300D01*
X001534Y019165D02*
X001354Y019165D01*
X001354Y019435D01*
X001534Y019435D01*
X001444Y019300D02*
X001354Y019300D01*
X001258Y019165D02*
X001078Y019165D01*
X001078Y019435D01*
X001258Y019435D01*
X001168Y019300D02*
X001078Y019300D01*
D13*
X003265Y019819D02*
X003265Y021819D01*
X023265Y021819D01*
X023265Y019819D01*
X003265Y019819D01*
X003636Y019044D02*
X003636Y018256D01*
X003745Y018374D02*
X003747Y018392D01*
X003753Y018410D01*
X003762Y018426D01*
X003774Y018439D01*
X003789Y018450D01*
X003806Y018458D01*
X003824Y018462D01*
X003842Y018462D01*
X003860Y018458D01*
X003877Y018450D01*
X003892Y018439D01*
X003904Y018426D01*
X003913Y018410D01*
X003919Y018392D01*
X003921Y018374D01*
X003919Y018356D01*
X003913Y018338D01*
X003904Y018322D01*
X003892Y018309D01*
X003877Y018298D01*
X003860Y018290D01*
X003842Y018286D01*
X003824Y018286D01*
X003806Y018290D01*
X003789Y018298D01*
X003774Y018309D01*
X003762Y018322D01*
X003753Y018338D01*
X003747Y018356D01*
X003745Y018374D01*
X004470Y018250D02*
X004470Y018600D01*
X004770Y018600D01*
X004770Y018250D01*
X004470Y018250D01*
X004570Y018750D02*
X004570Y018850D01*
X004670Y018850D01*
X004670Y018750D01*
X004570Y018750D01*
X004344Y019634D02*
X004266Y019634D01*
X004896Y019634D02*
X004974Y019634D01*
X005604Y019044D02*
X005604Y018256D01*
X006136Y018256D02*
X006136Y019044D01*
X006766Y019634D02*
X006844Y019634D01*
X007396Y019634D02*
X007474Y019634D01*
X007270Y019050D02*
X006970Y019050D01*
X006970Y018700D01*
X007270Y018700D01*
X007270Y019050D01*
X007170Y018550D02*
X007070Y018550D01*
X007070Y018450D01*
X007170Y018450D01*
X007170Y018550D01*
X007819Y018926D02*
X007821Y018944D01*
X007827Y018962D01*
X007836Y018978D01*
X007848Y018991D01*
X007863Y019002D01*
X007880Y019010D01*
X007898Y019014D01*
X007916Y019014D01*
X007934Y019010D01*
X007951Y019002D01*
X007966Y018991D01*
X007978Y018978D01*
X007987Y018962D01*
X007993Y018944D01*
X007995Y018926D01*
X007993Y018908D01*
X007987Y018890D01*
X007978Y018874D01*
X007966Y018861D01*
X007951Y018850D01*
X007934Y018842D01*
X007916Y018838D01*
X007898Y018838D01*
X007880Y018842D01*
X007863Y018850D01*
X007848Y018861D01*
X007836Y018874D01*
X007827Y018890D01*
X007821Y018908D01*
X007819Y018926D01*
X008104Y019044D02*
X008104Y018256D01*
X008636Y018256D02*
X008636Y019044D01*
X008745Y018374D02*
X008747Y018392D01*
X008753Y018410D01*
X008762Y018426D01*
X008774Y018439D01*
X008789Y018450D01*
X008806Y018458D01*
X008824Y018462D01*
X008842Y018462D01*
X008860Y018458D01*
X008877Y018450D01*
X008892Y018439D01*
X008904Y018426D01*
X008913Y018410D01*
X008919Y018392D01*
X008921Y018374D01*
X008919Y018356D01*
X008913Y018338D01*
X008904Y018322D01*
X008892Y018309D01*
X008877Y018298D01*
X008860Y018290D01*
X008842Y018286D01*
X008824Y018286D01*
X008806Y018290D01*
X008789Y018298D01*
X008774Y018309D01*
X008762Y018322D01*
X008753Y018338D01*
X008747Y018356D01*
X008745Y018374D01*
X009470Y018250D02*
X009470Y018600D01*
X009770Y018600D01*
X009770Y018250D01*
X009470Y018250D01*
X009570Y018750D02*
X009570Y018850D01*
X009670Y018850D01*
X009670Y018750D01*
X009570Y018750D01*
X009344Y019634D02*
X009266Y019634D01*
X009896Y019634D02*
X009974Y019634D01*
X010604Y019044D02*
X010604Y018256D01*
X011136Y018256D02*
X011136Y019044D01*
X011766Y019634D02*
X011844Y019634D01*
X012396Y019634D02*
X012474Y019634D01*
X012270Y019050D02*
X011970Y019050D01*
X011970Y018700D01*
X012270Y018700D01*
X012270Y019050D01*
X012170Y018550D02*
X012170Y018450D01*
X012070Y018450D01*
X012070Y018550D01*
X012170Y018550D01*
X012819Y018926D02*
X012821Y018944D01*
X012827Y018962D01*
X012836Y018978D01*
X012848Y018991D01*
X012863Y019002D01*
X012880Y019010D01*
X012898Y019014D01*
X012916Y019014D01*
X012934Y019010D01*
X012951Y019002D01*
X012966Y018991D01*
X012978Y018978D01*
X012987Y018962D01*
X012993Y018944D01*
X012995Y018926D01*
X012993Y018908D01*
X012987Y018890D01*
X012978Y018874D01*
X012966Y018861D01*
X012951Y018850D01*
X012934Y018842D01*
X012916Y018838D01*
X012898Y018838D01*
X012880Y018842D01*
X012863Y018850D01*
X012848Y018861D01*
X012836Y018874D01*
X012827Y018890D01*
X012821Y018908D01*
X012819Y018926D01*
X013104Y019044D02*
X013104Y018256D01*
X012474Y017666D02*
X012396Y017666D01*
X011844Y017666D02*
X011766Y017666D01*
X011766Y017194D02*
X011844Y017194D01*
X012396Y017194D02*
X012474Y017194D01*
X012270Y016610D02*
X011970Y016610D01*
X011970Y016260D01*
X012270Y016260D01*
X012270Y016610D01*
X012170Y016110D02*
X012170Y016010D01*
X012070Y016010D01*
X012070Y016110D01*
X012170Y016110D01*
X012819Y016486D02*
X012821Y016504D01*
X012827Y016522D01*
X012836Y016538D01*
X012848Y016551D01*
X012863Y016562D01*
X012880Y016570D01*
X012898Y016574D01*
X012916Y016574D01*
X012934Y016570D01*
X012951Y016562D01*
X012966Y016551D01*
X012978Y016538D01*
X012987Y016522D01*
X012993Y016504D01*
X012995Y016486D01*
X012993Y016468D01*
X012987Y016450D01*
X012978Y016434D01*
X012966Y016421D01*
X012951Y016410D01*
X012934Y016402D01*
X012916Y016398D01*
X012898Y016398D01*
X012880Y016402D01*
X012863Y016410D01*
X012848Y016421D01*
X012836Y016434D01*
X012827Y016450D01*
X012821Y016468D01*
X012819Y016486D01*
X013104Y016604D02*
X013104Y015816D01*
X012474Y015226D02*
X012396Y015226D01*
X012396Y014754D02*
X012474Y014754D01*
X011844Y014754D02*
X011766Y014754D01*
X011766Y015226D02*
X011844Y015226D01*
X011136Y015816D02*
X011136Y016604D01*
X010604Y016604D02*
X010604Y015816D01*
X009974Y015226D02*
X009896Y015226D01*
X009896Y014754D02*
X009974Y014754D01*
X009344Y014754D02*
X009266Y014754D01*
X009266Y015226D02*
X009344Y015226D01*
X009470Y015810D02*
X009470Y016160D01*
X009770Y016160D01*
X009770Y015810D01*
X009470Y015810D01*
X009570Y016310D02*
X009570Y016410D01*
X009670Y016410D01*
X009670Y016310D01*
X009570Y016310D01*
X008745Y015934D02*
X008747Y015952D01*
X008753Y015970D01*
X008762Y015986D01*
X008774Y015999D01*
X008789Y016010D01*
X008806Y016018D01*
X008824Y016022D01*
X008842Y016022D01*
X008860Y016018D01*
X008877Y016010D01*
X008892Y015999D01*
X008904Y015986D01*
X008913Y015970D01*
X008919Y015952D01*
X008921Y015934D01*
X008919Y015916D01*
X008913Y015898D01*
X008904Y015882D01*
X008892Y015869D01*
X008877Y015858D01*
X008860Y015850D01*
X008842Y015846D01*
X008824Y015846D01*
X008806Y015850D01*
X008789Y015858D01*
X008774Y015869D01*
X008762Y015882D01*
X008753Y015898D01*
X008747Y015916D01*
X008745Y015934D01*
X008636Y015816D02*
X008636Y016604D01*
X008104Y016604D02*
X008104Y015816D01*
X007474Y015226D02*
X007396Y015226D01*
X007396Y014754D02*
X007474Y014754D01*
X006844Y014754D02*
X006766Y014754D01*
X006766Y015226D02*
X006844Y015226D01*
X007070Y016010D02*
X007070Y016110D01*
X007170Y016110D01*
X007170Y016010D01*
X007070Y016010D01*
X006970Y016260D02*
X006970Y016610D01*
X007270Y016610D01*
X007270Y016260D01*
X006970Y016260D01*
X006136Y016604D02*
X006136Y015816D01*
X005604Y015816D02*
X005604Y016604D01*
X004974Y017194D02*
X004896Y017194D01*
X004344Y017194D02*
X004266Y017194D01*
X004266Y017666D02*
X004344Y017666D01*
X004896Y017666D02*
X004974Y017666D01*
X003636Y016604D02*
X003636Y015816D01*
X003745Y015934D02*
X003747Y015952D01*
X003753Y015970D01*
X003762Y015986D01*
X003774Y015999D01*
X003789Y016010D01*
X003806Y016018D01*
X003824Y016022D01*
X003842Y016022D01*
X003860Y016018D01*
X003877Y016010D01*
X003892Y015999D01*
X003904Y015986D01*
X003913Y015970D01*
X003919Y015952D01*
X003921Y015934D01*
X003919Y015916D01*
X003913Y015898D01*
X003904Y015882D01*
X003892Y015869D01*
X003877Y015858D01*
X003860Y015850D01*
X003842Y015846D01*
X003824Y015846D01*
X003806Y015850D01*
X003789Y015858D01*
X003774Y015869D01*
X003762Y015882D01*
X003753Y015898D01*
X003747Y015916D01*
X003745Y015934D01*
X004470Y015810D02*
X004470Y016160D01*
X004770Y016160D01*
X004770Y015810D01*
X004470Y015810D01*
X004570Y016310D02*
X004570Y016410D01*
X004670Y016410D01*
X004670Y016310D01*
X004570Y016310D01*
X004344Y015226D02*
X004266Y015226D01*
X004266Y014754D02*
X004344Y014754D01*
X004896Y014754D02*
X004974Y014754D01*
X004974Y015226D02*
X004896Y015226D01*
X005604Y014164D02*
X005604Y013376D01*
X006136Y013376D02*
X006136Y014164D01*
X006970Y014170D02*
X006970Y013820D01*
X007270Y013820D01*
X007270Y014170D01*
X006970Y014170D01*
X007070Y013670D02*
X007070Y013570D01*
X007170Y013570D01*
X007170Y013670D01*
X007070Y013670D01*
X006844Y012786D02*
X006766Y012786D01*
X006766Y012314D02*
X006844Y012314D01*
X007396Y012314D02*
X007474Y012314D01*
X007474Y012786D02*
X007396Y012786D01*
X008104Y013376D02*
X008104Y014164D01*
X007819Y014046D02*
X007821Y014064D01*
X007827Y014082D01*
X007836Y014098D01*
X007848Y014111D01*
X007863Y014122D01*
X007880Y014130D01*
X007898Y014134D01*
X007916Y014134D01*
X007934Y014130D01*
X007951Y014122D01*
X007966Y014111D01*
X007978Y014098D01*
X007987Y014082D01*
X007993Y014064D01*
X007995Y014046D01*
X007993Y014028D01*
X007987Y014010D01*
X007978Y013994D01*
X007966Y013981D01*
X007951Y013970D01*
X007934Y013962D01*
X007916Y013958D01*
X007898Y013958D01*
X007880Y013962D01*
X007863Y013970D01*
X007848Y013981D01*
X007836Y013994D01*
X007827Y014010D01*
X007821Y014028D01*
X007819Y014046D01*
X008636Y014164D02*
X008636Y013376D01*
X008745Y013494D02*
X008747Y013512D01*
X008753Y013530D01*
X008762Y013546D01*
X008774Y013559D01*
X008789Y013570D01*
X008806Y013578D01*
X008824Y013582D01*
X008842Y013582D01*
X008860Y013578D01*
X008877Y013570D01*
X008892Y013559D01*
X008904Y013546D01*
X008913Y013530D01*
X008919Y013512D01*
X008921Y013494D01*
X008919Y013476D01*
X008913Y013458D01*
X008904Y013442D01*
X008892Y013429D01*
X008877Y013418D01*
X008860Y013410D01*
X008842Y013406D01*
X008824Y013406D01*
X008806Y013410D01*
X008789Y013418D01*
X008774Y013429D01*
X008762Y013442D01*
X008753Y013458D01*
X008747Y013476D01*
X008745Y013494D01*
X009470Y013370D02*
X009470Y013720D01*
X009770Y013720D01*
X009770Y013370D01*
X009470Y013370D01*
X009344Y012786D02*
X009266Y012786D01*
X009266Y012314D02*
X009344Y012314D01*
X009896Y012314D02*
X009974Y012314D01*
X009974Y012786D02*
X009896Y012786D01*
X010604Y013376D02*
X010604Y014164D01*
X011136Y014164D02*
X011136Y013376D01*
X011766Y012786D02*
X011844Y012786D01*
X011844Y012314D02*
X011766Y012314D01*
X011970Y011730D02*
X011970Y011380D01*
X012270Y011380D01*
X012270Y011730D01*
X011970Y011730D01*
X012070Y011230D02*
X012070Y011130D01*
X012170Y011130D01*
X012170Y011230D01*
X012070Y011230D01*
X012819Y011606D02*
X012821Y011624D01*
X012827Y011642D01*
X012836Y011658D01*
X012848Y011671D01*
X012863Y011682D01*
X012880Y011690D01*
X012898Y011694D01*
X012916Y011694D01*
X012934Y011690D01*
X012951Y011682D01*
X012966Y011671D01*
X012978Y011658D01*
X012987Y011642D01*
X012993Y011624D01*
X012995Y011606D01*
X012993Y011588D01*
X012987Y011570D01*
X012978Y011554D01*
X012966Y011541D01*
X012951Y011530D01*
X012934Y011522D01*
X012916Y011518D01*
X012898Y011518D01*
X012880Y011522D01*
X012863Y011530D01*
X012848Y011541D01*
X012836Y011554D01*
X012827Y011570D01*
X012821Y011588D01*
X012819Y011606D01*
X013104Y011724D02*
X013104Y010936D01*
X012474Y010346D02*
X012396Y010346D01*
X012396Y009874D02*
X012474Y009874D01*
X011844Y009874D02*
X011766Y009874D01*
X011766Y010346D02*
X011844Y010346D01*
X011136Y010936D02*
X011136Y011724D01*
X010604Y011724D02*
X010604Y010936D01*
X009974Y010346D02*
X009896Y010346D01*
X009896Y009874D02*
X009974Y009874D01*
X009344Y009874D02*
X009266Y009874D01*
X009266Y010346D02*
X009344Y010346D01*
X009470Y010930D02*
X009470Y011280D01*
X009770Y011280D01*
X009770Y010930D01*
X009470Y010930D01*
X009570Y011430D02*
X009570Y011530D01*
X009670Y011530D01*
X009670Y011430D01*
X009570Y011430D01*
X008745Y011054D02*
X008747Y011072D01*
X008753Y011090D01*
X008762Y011106D01*
X008774Y011119D01*
X008789Y011130D01*
X008806Y011138D01*
X008824Y011142D01*
X008842Y011142D01*
X008860Y011138D01*
X008877Y011130D01*
X008892Y011119D01*
X008904Y011106D01*
X008913Y011090D01*
X008919Y011072D01*
X008921Y011054D01*
X008919Y011036D01*
X008913Y011018D01*
X008904Y011002D01*
X008892Y010989D01*
X008877Y010978D01*
X008860Y010970D01*
X008842Y010966D01*
X008824Y010966D01*
X008806Y010970D01*
X008789Y010978D01*
X008774Y010989D01*
X008762Y011002D01*
X008753Y011018D01*
X008747Y011036D01*
X008745Y011054D01*
X008636Y010936D02*
X008636Y011724D01*
X008104Y011724D02*
X008104Y010936D01*
X007474Y010346D02*
X007396Y010346D01*
X007396Y009874D02*
X007474Y009874D01*
X006844Y009874D02*
X006766Y009874D01*
X006766Y010346D02*
X006844Y010346D01*
X007070Y011130D02*
X007070Y011230D01*
X007170Y011230D01*
X007170Y011130D01*
X007070Y011130D01*
X006970Y011380D02*
X006970Y011730D01*
X007270Y011730D01*
X007270Y011380D01*
X006970Y011380D01*
X006136Y011724D02*
X006136Y010936D01*
X005604Y010936D02*
X005604Y011724D01*
X004974Y012314D02*
X004896Y012314D01*
X004896Y012786D02*
X004974Y012786D01*
X004770Y013370D02*
X004470Y013370D01*
X004470Y013720D01*
X004770Y013720D01*
X004770Y013370D01*
X004344Y012786D02*
X004266Y012786D01*
X004266Y012314D02*
X004344Y012314D01*
X003636Y011724D02*
X003636Y010936D01*
X003745Y011054D02*
X003747Y011072D01*
X003753Y011090D01*
X003762Y011106D01*
X003774Y011119D01*
X003789Y011130D01*
X003806Y011138D01*
X003824Y011142D01*
X003842Y011142D01*
X003860Y011138D01*
X003877Y011130D01*
X003892Y011119D01*
X003904Y011106D01*
X003913Y011090D01*
X003919Y011072D01*
X003921Y011054D01*
X003919Y011036D01*
X003913Y011018D01*
X003904Y011002D01*
X003892Y010989D01*
X003877Y010978D01*
X003860Y010970D01*
X003842Y010966D01*
X003824Y010966D01*
X003806Y010970D01*
X003789Y010978D01*
X003774Y010989D01*
X003762Y011002D01*
X003753Y011018D01*
X003747Y011036D01*
X003745Y011054D01*
X004470Y010930D02*
X004470Y011280D01*
X004770Y011280D01*
X004770Y010930D01*
X004470Y010930D01*
X004344Y010346D02*
X004266Y010346D01*
X004266Y009874D02*
X004344Y009874D01*
X004896Y009874D02*
X004974Y009874D01*
X004974Y010346D02*
X004896Y010346D01*
X004670Y011430D02*
X004670Y011530D01*
X004570Y011530D01*
X004570Y011430D01*
X004670Y011430D01*
X003636Y013376D02*
X003636Y014164D01*
X003745Y013494D02*
X003747Y013512D01*
X003753Y013530D01*
X003762Y013546D01*
X003774Y013559D01*
X003789Y013570D01*
X003806Y013578D01*
X003824Y013582D01*
X003842Y013582D01*
X003860Y013578D01*
X003877Y013570D01*
X003892Y013559D01*
X003904Y013546D01*
X003913Y013530D01*
X003919Y013512D01*
X003921Y013494D01*
X003919Y013476D01*
X003913Y013458D01*
X003904Y013442D01*
X003892Y013429D01*
X003877Y013418D01*
X003860Y013410D01*
X003842Y013406D01*
X003824Y013406D01*
X003806Y013410D01*
X003789Y013418D01*
X003774Y013429D01*
X003762Y013442D01*
X003753Y013458D01*
X003747Y013476D01*
X003745Y013494D01*
X004570Y013870D02*
X004570Y013970D01*
X004670Y013970D01*
X004670Y013870D01*
X004570Y013870D01*
X001664Y014665D02*
X001664Y015295D01*
X000876Y015295D02*
X000876Y014665D01*
X006766Y017194D02*
X006844Y017194D01*
X007396Y017194D02*
X007474Y017194D01*
X007474Y017666D02*
X007396Y017666D01*
X006844Y017666D02*
X006766Y017666D01*
X007819Y016486D02*
X007821Y016504D01*
X007827Y016522D01*
X007836Y016538D01*
X007848Y016551D01*
X007863Y016562D01*
X007880Y016570D01*
X007898Y016574D01*
X007916Y016574D01*
X007934Y016570D01*
X007951Y016562D01*
X007966Y016551D01*
X007978Y016538D01*
X007987Y016522D01*
X007993Y016504D01*
X007995Y016486D01*
X007993Y016468D01*
X007987Y016450D01*
X007978Y016434D01*
X007966Y016421D01*
X007951Y016410D01*
X007934Y016402D01*
X007916Y016398D01*
X007898Y016398D01*
X007880Y016402D01*
X007863Y016410D01*
X007848Y016421D01*
X007836Y016434D01*
X007827Y016450D01*
X007821Y016468D01*
X007819Y016486D01*
X009266Y017194D02*
X009344Y017194D01*
X009896Y017194D02*
X009974Y017194D01*
X009974Y017666D02*
X009896Y017666D01*
X009344Y017666D02*
X009266Y017666D01*
X011970Y014170D02*
X011970Y013820D01*
X012270Y013820D01*
X012270Y014170D01*
X011970Y014170D01*
X012070Y013670D02*
X012070Y013570D01*
X012170Y013570D01*
X012170Y013670D01*
X012070Y013670D01*
X012819Y014046D02*
X012821Y014064D01*
X012827Y014082D01*
X012836Y014098D01*
X012848Y014111D01*
X012863Y014122D01*
X012880Y014130D01*
X012898Y014134D01*
X012916Y014134D01*
X012934Y014130D01*
X012951Y014122D01*
X012966Y014111D01*
X012978Y014098D01*
X012987Y014082D01*
X012993Y014064D01*
X012995Y014046D01*
X012993Y014028D01*
X012987Y014010D01*
X012978Y013994D01*
X012966Y013981D01*
X012951Y013970D01*
X012934Y013962D01*
X012916Y013958D01*
X012898Y013958D01*
X012880Y013962D01*
X012863Y013970D01*
X012848Y013981D01*
X012836Y013994D01*
X012827Y014010D01*
X012821Y014028D01*
X012819Y014046D01*
X013104Y014164D02*
X013104Y013376D01*
X012474Y012786D02*
X012396Y012786D01*
X012396Y012314D02*
X012474Y012314D01*
X013636Y011724D02*
X013636Y010936D01*
X013745Y011054D02*
X013747Y011072D01*
X013753Y011090D01*
X013762Y011106D01*
X013774Y011119D01*
X013789Y011130D01*
X013806Y011138D01*
X013824Y011142D01*
X013842Y011142D01*
X013860Y011138D01*
X013877Y011130D01*
X013892Y011119D01*
X013904Y011106D01*
X013913Y011090D01*
X013919Y011072D01*
X013921Y011054D01*
X013919Y011036D01*
X013913Y011018D01*
X013904Y011002D01*
X013892Y010989D01*
X013877Y010978D01*
X013860Y010970D01*
X013842Y010966D01*
X013824Y010966D01*
X013806Y010970D01*
X013789Y010978D01*
X013774Y010989D01*
X013762Y011002D01*
X013753Y011018D01*
X013747Y011036D01*
X013745Y011054D01*
X014470Y010930D02*
X014470Y011280D01*
X014770Y011280D01*
X014770Y010930D01*
X014470Y010930D01*
X014344Y010346D02*
X014266Y010346D01*
X014266Y009874D02*
X014344Y009874D01*
X014896Y009874D02*
X014974Y009874D01*
X014974Y010346D02*
X014896Y010346D01*
X015604Y010936D02*
X015604Y011724D01*
X016136Y011724D02*
X016136Y010936D01*
X016766Y010346D02*
X016844Y010346D01*
X016844Y009874D02*
X016766Y009874D01*
X016970Y009290D02*
X016970Y008940D01*
X017270Y008940D01*
X017270Y009290D01*
X016970Y009290D01*
X017070Y008790D02*
X017070Y008690D01*
X017170Y008690D01*
X017170Y008790D01*
X017070Y008790D01*
X017819Y009166D02*
X017821Y009184D01*
X017827Y009202D01*
X017836Y009218D01*
X017848Y009231D01*
X017863Y009242D01*
X017880Y009250D01*
X017898Y009254D01*
X017916Y009254D01*
X017934Y009250D01*
X017951Y009242D01*
X017966Y009231D01*
X017978Y009218D01*
X017987Y009202D01*
X017993Y009184D01*
X017995Y009166D01*
X017993Y009148D01*
X017987Y009130D01*
X017978Y009114D01*
X017966Y009101D01*
X017951Y009090D01*
X017934Y009082D01*
X017916Y009078D01*
X017898Y009078D01*
X017880Y009082D01*
X017863Y009090D01*
X017848Y009101D01*
X017836Y009114D01*
X017827Y009130D01*
X017821Y009148D01*
X017819Y009166D01*
X018104Y009284D02*
X018104Y008496D01*
X018636Y008496D02*
X018636Y009284D01*
X018745Y008614D02*
X018747Y008632D01*
X018753Y008650D01*
X018762Y008666D01*
X018774Y008679D01*
X018789Y008690D01*
X018806Y008698D01*
X018824Y008702D01*
X018842Y008702D01*
X018860Y008698D01*
X018877Y008690D01*
X018892Y008679D01*
X018904Y008666D01*
X018913Y008650D01*
X018919Y008632D01*
X018921Y008614D01*
X018919Y008596D01*
X018913Y008578D01*
X018904Y008562D01*
X018892Y008549D01*
X018877Y008538D01*
X018860Y008530D01*
X018842Y008526D01*
X018824Y008526D01*
X018806Y008530D01*
X018789Y008538D01*
X018774Y008549D01*
X018762Y008562D01*
X018753Y008578D01*
X018747Y008596D01*
X018745Y008614D01*
X019470Y008490D02*
X019470Y008840D01*
X019770Y008840D01*
X019770Y008490D01*
X019470Y008490D01*
X019344Y007906D02*
X019266Y007906D01*
X019266Y007434D02*
X019344Y007434D01*
X019896Y007434D02*
X019974Y007434D01*
X019974Y007906D02*
X019896Y007906D01*
X020604Y008496D02*
X020604Y009284D01*
X021136Y009284D02*
X021136Y008496D01*
X021766Y007906D02*
X021844Y007906D01*
X021844Y007434D02*
X021766Y007434D01*
X022396Y007434D02*
X022474Y007434D01*
X022474Y007906D02*
X022396Y007906D01*
X022170Y008690D02*
X022070Y008690D01*
X022070Y008790D01*
X022170Y008790D01*
X022170Y008690D01*
X022270Y008940D02*
X021970Y008940D01*
X021970Y009290D01*
X022270Y009290D01*
X022270Y008940D01*
X022819Y009166D02*
X022821Y009184D01*
X022827Y009202D01*
X022836Y009218D01*
X022848Y009231D01*
X022863Y009242D01*
X022880Y009250D01*
X022898Y009254D01*
X022916Y009254D01*
X022934Y009250D01*
X022951Y009242D01*
X022966Y009231D01*
X022978Y009218D01*
X022987Y009202D01*
X022993Y009184D01*
X022995Y009166D01*
X022993Y009148D01*
X022987Y009130D01*
X022978Y009114D01*
X022966Y009101D01*
X022951Y009090D01*
X022934Y009082D01*
X022916Y009078D01*
X022898Y009078D01*
X022880Y009082D01*
X022863Y009090D01*
X022848Y009101D01*
X022836Y009114D01*
X022827Y009130D01*
X022821Y009148D01*
X022819Y009166D01*
X023104Y009284D02*
X023104Y008496D01*
X022474Y009874D02*
X022396Y009874D01*
X022396Y010346D02*
X022474Y010346D01*
X021844Y010346D02*
X021766Y010346D01*
X021766Y009874D02*
X021844Y009874D01*
X021136Y010936D02*
X021136Y011724D01*
X020604Y011724D02*
X020604Y010936D01*
X019974Y010346D02*
X019896Y010346D01*
X019896Y009874D02*
X019974Y009874D01*
X019344Y009874D02*
X019266Y009874D01*
X019266Y010346D02*
X019344Y010346D01*
X019470Y010930D02*
X019470Y011280D01*
X019770Y011280D01*
X019770Y010930D01*
X019470Y010930D01*
X019570Y011430D02*
X019570Y011530D01*
X019670Y011530D01*
X019670Y011430D01*
X019570Y011430D01*
X018745Y011054D02*
X018747Y011072D01*
X018753Y011090D01*
X018762Y011106D01*
X018774Y011119D01*
X018789Y011130D01*
X018806Y011138D01*
X018824Y011142D01*
X018842Y011142D01*
X018860Y011138D01*
X018877Y011130D01*
X018892Y011119D01*
X018904Y011106D01*
X018913Y011090D01*
X018919Y011072D01*
X018921Y011054D01*
X018919Y011036D01*
X018913Y011018D01*
X018904Y011002D01*
X018892Y010989D01*
X018877Y010978D01*
X018860Y010970D01*
X018842Y010966D01*
X018824Y010966D01*
X018806Y010970D01*
X018789Y010978D01*
X018774Y010989D01*
X018762Y011002D01*
X018753Y011018D01*
X018747Y011036D01*
X018745Y011054D01*
X018636Y010936D02*
X018636Y011724D01*
X018104Y011724D02*
X018104Y010936D01*
X017819Y011606D02*
X017821Y011624D01*
X017827Y011642D01*
X017836Y011658D01*
X017848Y011671D01*
X017863Y011682D01*
X017880Y011690D01*
X017898Y011694D01*
X017916Y011694D01*
X017934Y011690D01*
X017951Y011682D01*
X017966Y011671D01*
X017978Y011658D01*
X017987Y011642D01*
X017993Y011624D01*
X017995Y011606D01*
X017993Y011588D01*
X017987Y011570D01*
X017978Y011554D01*
X017966Y011541D01*
X017951Y011530D01*
X017934Y011522D01*
X017916Y011518D01*
X017898Y011518D01*
X017880Y011522D01*
X017863Y011530D01*
X017848Y011541D01*
X017836Y011554D01*
X017827Y011570D01*
X017821Y011588D01*
X017819Y011606D01*
X017270Y011730D02*
X017270Y011380D01*
X016970Y011380D01*
X016970Y011730D01*
X017270Y011730D01*
X017170Y011230D02*
X017170Y011130D01*
X017070Y011130D01*
X017070Y011230D01*
X017170Y011230D01*
X017396Y010346D02*
X017474Y010346D01*
X017474Y009874D02*
X017396Y009874D01*
X016136Y009284D02*
X016136Y008496D01*
X015604Y008496D02*
X015604Y009284D01*
X014770Y008840D02*
X014770Y008490D01*
X014470Y008490D01*
X014470Y008840D01*
X014770Y008840D01*
X014670Y008990D02*
X014670Y009090D01*
X014570Y009090D01*
X014570Y008990D01*
X014670Y008990D01*
X013745Y008614D02*
X013747Y008632D01*
X013753Y008650D01*
X013762Y008666D01*
X013774Y008679D01*
X013789Y008690D01*
X013806Y008698D01*
X013824Y008702D01*
X013842Y008702D01*
X013860Y008698D01*
X013877Y008690D01*
X013892Y008679D01*
X013904Y008666D01*
X013913Y008650D01*
X013919Y008632D01*
X013921Y008614D01*
X013919Y008596D01*
X013913Y008578D01*
X013904Y008562D01*
X013892Y008549D01*
X013877Y008538D01*
X013860Y008530D01*
X013842Y008526D01*
X013824Y008526D01*
X013806Y008530D01*
X013789Y008538D01*
X013774Y008549D01*
X013762Y008562D01*
X013753Y008578D01*
X013747Y008596D01*
X013745Y008614D01*
X013636Y008496D02*
X013636Y009284D01*
X013104Y009284D02*
X013104Y008496D01*
X012819Y009166D02*
X012821Y009184D01*
X012827Y009202D01*
X012836Y009218D01*
X012848Y009231D01*
X012863Y009242D01*
X012880Y009250D01*
X012898Y009254D01*
X012916Y009254D01*
X012934Y009250D01*
X012951Y009242D01*
X012966Y009231D01*
X012978Y009218D01*
X012987Y009202D01*
X012993Y009184D01*
X012995Y009166D01*
X012993Y009148D01*
X012987Y009130D01*
X012978Y009114D01*
X012966Y009101D01*
X012951Y009090D01*
X012934Y009082D01*
X012916Y009078D01*
X012898Y009078D01*
X012880Y009082D01*
X012863Y009090D01*
X012848Y009101D01*
X012836Y009114D01*
X012827Y009130D01*
X012821Y009148D01*
X012819Y009166D01*
X012270Y009290D02*
X012270Y008940D01*
X011970Y008940D01*
X011970Y009290D01*
X012270Y009290D01*
X012170Y008790D02*
X012170Y008690D01*
X012070Y008690D01*
X012070Y008790D01*
X012170Y008790D01*
X012396Y007906D02*
X012474Y007906D01*
X012474Y007434D02*
X012396Y007434D01*
X011844Y007434D02*
X011766Y007434D01*
X011766Y007906D02*
X011844Y007906D01*
X011136Y008496D02*
X011136Y009284D01*
X010604Y009284D02*
X010604Y008496D01*
X009770Y008490D02*
X009770Y008840D01*
X009470Y008840D01*
X009470Y008490D01*
X009770Y008490D01*
X009896Y007906D02*
X009974Y007906D01*
X009974Y007434D02*
X009896Y007434D01*
X009344Y007434D02*
X009266Y007434D01*
X009266Y007906D02*
X009344Y007906D01*
X008745Y008614D02*
X008747Y008632D01*
X008753Y008650D01*
X008762Y008666D01*
X008774Y008679D01*
X008789Y008690D01*
X008806Y008698D01*
X008824Y008702D01*
X008842Y008702D01*
X008860Y008698D01*
X008877Y008690D01*
X008892Y008679D01*
X008904Y008666D01*
X008913Y008650D01*
X008919Y008632D01*
X008921Y008614D01*
X008919Y008596D01*
X008913Y008578D01*
X008904Y008562D01*
X008892Y008549D01*
X008877Y008538D01*
X008860Y008530D01*
X008842Y008526D01*
X008824Y008526D01*
X008806Y008530D01*
X008789Y008538D01*
X008774Y008549D01*
X008762Y008562D01*
X008753Y008578D01*
X008747Y008596D01*
X008745Y008614D01*
X008636Y008496D02*
X008636Y009284D01*
X008104Y009284D02*
X008104Y008496D01*
X007819Y009166D02*
X007821Y009184D01*
X007827Y009202D01*
X007836Y009218D01*
X007848Y009231D01*
X007863Y009242D01*
X007880Y009250D01*
X007898Y009254D01*
X007916Y009254D01*
X007934Y009250D01*
X007951Y009242D01*
X007966Y009231D01*
X007978Y009218D01*
X007987Y009202D01*
X007993Y009184D01*
X007995Y009166D01*
X007993Y009148D01*
X007987Y009130D01*
X007978Y009114D01*
X007966Y009101D01*
X007951Y009090D01*
X007934Y009082D01*
X007916Y009078D01*
X007898Y009078D01*
X007880Y009082D01*
X007863Y009090D01*
X007848Y009101D01*
X007836Y009114D01*
X007827Y009130D01*
X007821Y009148D01*
X007819Y009166D01*
X007270Y009290D02*
X007270Y008940D01*
X006970Y008940D01*
X006970Y009290D01*
X007270Y009290D01*
X007170Y008790D02*
X007070Y008790D01*
X007070Y008690D01*
X007170Y008690D01*
X007170Y008790D01*
X007396Y007906D02*
X007474Y007906D01*
X007474Y007434D02*
X007396Y007434D01*
X006844Y007434D02*
X006766Y007434D01*
X006766Y007906D02*
X006844Y007906D01*
X006136Y008496D02*
X006136Y009284D01*
X005604Y009284D02*
X005604Y008496D01*
X004770Y008490D02*
X004770Y008840D01*
X004470Y008840D01*
X004470Y008490D01*
X004770Y008490D01*
X004896Y007906D02*
X004974Y007906D01*
X004974Y007434D02*
X004896Y007434D01*
X004344Y007434D02*
X004266Y007434D01*
X004266Y007906D02*
X004344Y007906D01*
X003745Y008614D02*
X003747Y008632D01*
X003753Y008650D01*
X003762Y008666D01*
X003774Y008679D01*
X003789Y008690D01*
X003806Y008698D01*
X003824Y008702D01*
X003842Y008702D01*
X003860Y008698D01*
X003877Y008690D01*
X003892Y008679D01*
X003904Y008666D01*
X003913Y008650D01*
X003919Y008632D01*
X003921Y008614D01*
X003919Y008596D01*
X003913Y008578D01*
X003904Y008562D01*
X003892Y008549D01*
X003877Y008538D01*
X003860Y008530D01*
X003842Y008526D01*
X003824Y008526D01*
X003806Y008530D01*
X003789Y008538D01*
X003774Y008549D01*
X003762Y008562D01*
X003753Y008578D01*
X003747Y008596D01*
X003745Y008614D01*
X003636Y008496D02*
X003636Y009284D01*
X004570Y009090D02*
X004670Y009090D01*
X004670Y008990D01*
X004570Y008990D01*
X004570Y009090D01*
X003636Y006844D02*
X003636Y006056D01*
X003745Y006174D02*
X003747Y006192D01*
X003753Y006210D01*
X003762Y006226D01*
X003774Y006239D01*
X003789Y006250D01*
X003806Y006258D01*
X003824Y006262D01*
X003842Y006262D01*
X003860Y006258D01*
X003877Y006250D01*
X003892Y006239D01*
X003904Y006226D01*
X003913Y006210D01*
X003919Y006192D01*
X003921Y006174D01*
X003919Y006156D01*
X003913Y006138D01*
X003904Y006122D01*
X003892Y006109D01*
X003877Y006098D01*
X003860Y006090D01*
X003842Y006086D01*
X003824Y006086D01*
X003806Y006090D01*
X003789Y006098D01*
X003774Y006109D01*
X003762Y006122D01*
X003753Y006138D01*
X003747Y006156D01*
X003745Y006174D01*
X004470Y006050D02*
X004470Y006400D01*
X004770Y006400D01*
X004770Y006050D01*
X004470Y006050D01*
X004570Y006550D02*
X004570Y006650D01*
X004670Y006650D01*
X004670Y006550D01*
X004570Y006550D01*
X005604Y006844D02*
X005604Y006056D01*
X006136Y006056D02*
X006136Y006844D01*
X006970Y006850D02*
X006970Y006500D01*
X007270Y006500D01*
X007270Y006850D01*
X006970Y006850D01*
X007070Y006350D02*
X007070Y006250D01*
X007170Y006250D01*
X007170Y006350D01*
X007070Y006350D01*
X006844Y005466D02*
X006766Y005466D01*
X006766Y004994D02*
X006844Y004994D01*
X007396Y004994D02*
X007474Y004994D01*
X007474Y005466D02*
X007396Y005466D01*
X008104Y006056D02*
X008104Y006844D01*
X007819Y006726D02*
X007821Y006744D01*
X007827Y006762D01*
X007836Y006778D01*
X007848Y006791D01*
X007863Y006802D01*
X007880Y006810D01*
X007898Y006814D01*
X007916Y006814D01*
X007934Y006810D01*
X007951Y006802D01*
X007966Y006791D01*
X007978Y006778D01*
X007987Y006762D01*
X007993Y006744D01*
X007995Y006726D01*
X007993Y006708D01*
X007987Y006690D01*
X007978Y006674D01*
X007966Y006661D01*
X007951Y006650D01*
X007934Y006642D01*
X007916Y006638D01*
X007898Y006638D01*
X007880Y006642D01*
X007863Y006650D01*
X007848Y006661D01*
X007836Y006674D01*
X007827Y006690D01*
X007821Y006708D01*
X007819Y006726D01*
X008636Y006844D02*
X008636Y006056D01*
X008745Y006174D02*
X008747Y006192D01*
X008753Y006210D01*
X008762Y006226D01*
X008774Y006239D01*
X008789Y006250D01*
X008806Y006258D01*
X008824Y006262D01*
X008842Y006262D01*
X008860Y006258D01*
X008877Y006250D01*
X008892Y006239D01*
X008904Y006226D01*
X008913Y006210D01*
X008919Y006192D01*
X008921Y006174D01*
X008919Y006156D01*
X008913Y006138D01*
X008904Y006122D01*
X008892Y006109D01*
X008877Y006098D01*
X008860Y006090D01*
X008842Y006086D01*
X008824Y006086D01*
X008806Y006090D01*
X008789Y006098D01*
X008774Y006109D01*
X008762Y006122D01*
X008753Y006138D01*
X008747Y006156D01*
X008745Y006174D01*
X009470Y006050D02*
X009470Y006400D01*
X009770Y006400D01*
X009770Y006050D01*
X009470Y006050D01*
X009570Y006550D02*
X009570Y006650D01*
X009670Y006650D01*
X009670Y006550D01*
X009570Y006550D01*
X010604Y006844D02*
X010604Y006056D01*
X011136Y006056D02*
X011136Y006844D01*
X011970Y006850D02*
X011970Y006500D01*
X012270Y006500D01*
X012270Y006850D01*
X011970Y006850D01*
X012070Y006350D02*
X012070Y006250D01*
X012170Y006250D01*
X012170Y006350D01*
X012070Y006350D01*
X012819Y006726D02*
X012821Y006744D01*
X012827Y006762D01*
X012836Y006778D01*
X012848Y006791D01*
X012863Y006802D01*
X012880Y006810D01*
X012898Y006814D01*
X012916Y006814D01*
X012934Y006810D01*
X012951Y006802D01*
X012966Y006791D01*
X012978Y006778D01*
X012987Y006762D01*
X012993Y006744D01*
X012995Y006726D01*
X012993Y006708D01*
X012987Y006690D01*
X012978Y006674D01*
X012966Y006661D01*
X012951Y006650D01*
X012934Y006642D01*
X012916Y006638D01*
X012898Y006638D01*
X012880Y006642D01*
X012863Y006650D01*
X012848Y006661D01*
X012836Y006674D01*
X012827Y006690D01*
X012821Y006708D01*
X012819Y006726D01*
X013104Y006844D02*
X013104Y006056D01*
X013636Y006056D02*
X013636Y006844D01*
X013745Y006174D02*
X013747Y006192D01*
X013753Y006210D01*
X013762Y006226D01*
X013774Y006239D01*
X013789Y006250D01*
X013806Y006258D01*
X013824Y006262D01*
X013842Y006262D01*
X013860Y006258D01*
X013877Y006250D01*
X013892Y006239D01*
X013904Y006226D01*
X013913Y006210D01*
X013919Y006192D01*
X013921Y006174D01*
X013919Y006156D01*
X013913Y006138D01*
X013904Y006122D01*
X013892Y006109D01*
X013877Y006098D01*
X013860Y006090D01*
X013842Y006086D01*
X013824Y006086D01*
X013806Y006090D01*
X013789Y006098D01*
X013774Y006109D01*
X013762Y006122D01*
X013753Y006138D01*
X013747Y006156D01*
X013745Y006174D01*
X014470Y006050D02*
X014470Y006400D01*
X014770Y006400D01*
X014770Y006050D01*
X014470Y006050D01*
X014570Y006550D02*
X014570Y006650D01*
X014670Y006650D01*
X014670Y006550D01*
X014570Y006550D01*
X014344Y007434D02*
X014266Y007434D01*
X014266Y007906D02*
X014344Y007906D01*
X014896Y007906D02*
X014974Y007906D01*
X014974Y007434D02*
X014896Y007434D01*
X015604Y006844D02*
X015604Y006056D01*
X016136Y006056D02*
X016136Y006844D01*
X016970Y006850D02*
X016970Y006500D01*
X017270Y006500D01*
X017270Y006850D01*
X016970Y006850D01*
X017070Y006350D02*
X017070Y006250D01*
X017170Y006250D01*
X017170Y006350D01*
X017070Y006350D01*
X017819Y006726D02*
X017821Y006744D01*
X017827Y006762D01*
X017836Y006778D01*
X017848Y006791D01*
X017863Y006802D01*
X017880Y006810D01*
X017898Y006814D01*
X017916Y006814D01*
X017934Y006810D01*
X017951Y006802D01*
X017966Y006791D01*
X017978Y006778D01*
X017987Y006762D01*
X017993Y006744D01*
X017995Y006726D01*
X017993Y006708D01*
X017987Y006690D01*
X017978Y006674D01*
X017966Y006661D01*
X017951Y006650D01*
X017934Y006642D01*
X017916Y006638D01*
X017898Y006638D01*
X017880Y006642D01*
X017863Y006650D01*
X017848Y006661D01*
X017836Y006674D01*
X017827Y006690D01*
X017821Y006708D01*
X017819Y006726D01*
X018104Y006844D02*
X018104Y006056D01*
X018636Y006056D02*
X018636Y006844D01*
X018745Y006174D02*
X018747Y006192D01*
X018753Y006210D01*
X018762Y006226D01*
X018774Y006239D01*
X018789Y006250D01*
X018806Y006258D01*
X018824Y006262D01*
X018842Y006262D01*
X018860Y006258D01*
X018877Y006250D01*
X018892Y006239D01*
X018904Y006226D01*
X018913Y006210D01*
X018919Y006192D01*
X018921Y006174D01*
X018919Y006156D01*
X018913Y006138D01*
X018904Y006122D01*
X018892Y006109D01*
X018877Y006098D01*
X018860Y006090D01*
X018842Y006086D01*
X018824Y006086D01*
X018806Y006090D01*
X018789Y006098D01*
X018774Y006109D01*
X018762Y006122D01*
X018753Y006138D01*
X018747Y006156D01*
X018745Y006174D01*
X019470Y006050D02*
X019470Y006400D01*
X019770Y006400D01*
X019770Y006050D01*
X019470Y006050D01*
X019570Y006550D02*
X019570Y006650D01*
X019670Y006650D01*
X019670Y006550D01*
X019570Y006550D01*
X020604Y006844D02*
X020604Y006056D01*
X021136Y006056D02*
X021136Y006844D01*
X021970Y006850D02*
X021970Y006500D01*
X022270Y006500D01*
X022270Y006850D01*
X021970Y006850D01*
X022070Y006350D02*
X022070Y006250D01*
X022170Y006250D01*
X022170Y006350D01*
X022070Y006350D01*
X022819Y006726D02*
X022821Y006744D01*
X022827Y006762D01*
X022836Y006778D01*
X022848Y006791D01*
X022863Y006802D01*
X022880Y006810D01*
X022898Y006814D01*
X022916Y006814D01*
X022934Y006810D01*
X022951Y006802D01*
X022966Y006791D01*
X022978Y006778D01*
X022987Y006762D01*
X022993Y006744D01*
X022995Y006726D01*
X022993Y006708D01*
X022987Y006690D01*
X022978Y006674D01*
X022966Y006661D01*
X022951Y006650D01*
X022934Y006642D01*
X022916Y006638D01*
X022898Y006638D01*
X022880Y006642D01*
X022863Y006650D01*
X022848Y006661D01*
X022836Y006674D01*
X022827Y006690D01*
X022821Y006708D01*
X022819Y006726D01*
X023104Y006844D02*
X023104Y006056D01*
X022474Y005466D02*
X022396Y005466D01*
X022396Y004994D02*
X022474Y004994D01*
X021844Y004994D02*
X021766Y004994D01*
X021766Y005466D02*
X021844Y005466D01*
X021970Y004410D02*
X021970Y004060D01*
X022270Y004060D01*
X022270Y004410D01*
X021970Y004410D01*
X022070Y003910D02*
X022070Y003810D01*
X022170Y003810D01*
X022170Y003910D01*
X022070Y003910D01*
X022819Y004286D02*
X022821Y004304D01*
X022827Y004322D01*
X022836Y004338D01*
X022848Y004351D01*
X022863Y004362D01*
X022880Y004370D01*
X022898Y004374D01*
X022916Y004374D01*
X022934Y004370D01*
X022951Y004362D01*
X022966Y004351D01*
X022978Y004338D01*
X022987Y004322D01*
X022993Y004304D01*
X022995Y004286D01*
X022993Y004268D01*
X022987Y004250D01*
X022978Y004234D01*
X022966Y004221D01*
X022951Y004210D01*
X022934Y004202D01*
X022916Y004198D01*
X022898Y004198D01*
X022880Y004202D01*
X022863Y004210D01*
X022848Y004221D01*
X022836Y004234D01*
X022827Y004250D01*
X022821Y004268D01*
X022819Y004286D01*
X023104Y004404D02*
X023104Y003616D01*
X023523Y003640D02*
X023523Y003760D01*
X024004Y004241D01*
X024004Y004361D01*
X023523Y004361D01*
X022474Y003026D02*
X022396Y003026D01*
X022396Y002554D02*
X022474Y002554D01*
X021844Y002554D02*
X021766Y002554D01*
X021766Y003026D02*
X021844Y003026D01*
X021136Y003616D02*
X021136Y004404D01*
X020604Y004404D02*
X020604Y003616D01*
X019770Y003610D02*
X019770Y003960D01*
X019470Y003960D01*
X019470Y003610D01*
X019770Y003610D01*
X019670Y004110D02*
X019570Y004110D01*
X019570Y004210D01*
X019670Y004210D01*
X019670Y004110D01*
X019896Y004994D02*
X019974Y004994D01*
X019974Y005466D02*
X019896Y005466D01*
X019344Y005466D02*
X019266Y005466D01*
X019266Y004994D02*
X019344Y004994D01*
X018636Y004404D02*
X018636Y003616D01*
X018745Y003734D02*
X018747Y003752D01*
X018753Y003770D01*
X018762Y003786D01*
X018774Y003799D01*
X018789Y003810D01*
X018806Y003818D01*
X018824Y003822D01*
X018842Y003822D01*
X018860Y003818D01*
X018877Y003810D01*
X018892Y003799D01*
X018904Y003786D01*
X018913Y003770D01*
X018919Y003752D01*
X018921Y003734D01*
X018919Y003716D01*
X018913Y003698D01*
X018904Y003682D01*
X018892Y003669D01*
X018877Y003658D01*
X018860Y003650D01*
X018842Y003646D01*
X018824Y003646D01*
X018806Y003650D01*
X018789Y003658D01*
X018774Y003669D01*
X018762Y003682D01*
X018753Y003698D01*
X018747Y003716D01*
X018745Y003734D01*
X018104Y003616D02*
X018104Y004404D01*
X017819Y004286D02*
X017821Y004304D01*
X017827Y004322D01*
X017836Y004338D01*
X017848Y004351D01*
X017863Y004362D01*
X017880Y004370D01*
X017898Y004374D01*
X017916Y004374D01*
X017934Y004370D01*
X017951Y004362D01*
X017966Y004351D01*
X017978Y004338D01*
X017987Y004322D01*
X017993Y004304D01*
X017995Y004286D01*
X017993Y004268D01*
X017987Y004250D01*
X017978Y004234D01*
X017966Y004221D01*
X017951Y004210D01*
X017934Y004202D01*
X017916Y004198D01*
X017898Y004198D01*
X017880Y004202D01*
X017863Y004210D01*
X017848Y004221D01*
X017836Y004234D01*
X017827Y004250D01*
X017821Y004268D01*
X017819Y004286D01*
X017270Y004410D02*
X017270Y004060D01*
X016970Y004060D01*
X016970Y004410D01*
X017270Y004410D01*
X017170Y003910D02*
X017170Y003810D01*
X017070Y003810D01*
X017070Y003910D01*
X017170Y003910D01*
X017396Y003026D02*
X017474Y003026D01*
X017474Y002554D02*
X017396Y002554D01*
X016844Y002554D02*
X016766Y002554D01*
X016766Y003026D02*
X016844Y003026D01*
X016136Y003616D02*
X016136Y004404D01*
X015604Y004404D02*
X015604Y003616D01*
X014770Y003610D02*
X014770Y003960D01*
X014470Y003960D01*
X014470Y003610D01*
X014770Y003610D01*
X014670Y004110D02*
X014670Y004210D01*
X014570Y004210D01*
X014570Y004110D01*
X014670Y004110D01*
X013745Y003734D02*
X013747Y003752D01*
X013753Y003770D01*
X013762Y003786D01*
X013774Y003799D01*
X013789Y003810D01*
X013806Y003818D01*
X013824Y003822D01*
X013842Y003822D01*
X013860Y003818D01*
X013877Y003810D01*
X013892Y003799D01*
X013904Y003786D01*
X013913Y003770D01*
X013919Y003752D01*
X013921Y003734D01*
X013919Y003716D01*
X013913Y003698D01*
X013904Y003682D01*
X013892Y003669D01*
X013877Y003658D01*
X013860Y003650D01*
X013842Y003646D01*
X013824Y003646D01*
X013806Y003650D01*
X013789Y003658D01*
X013774Y003669D01*
X013762Y003682D01*
X013753Y003698D01*
X013747Y003716D01*
X013745Y003734D01*
X013636Y003616D02*
X013636Y004404D01*
X013104Y004404D02*
X013104Y003616D01*
X012819Y004286D02*
X012821Y004304D01*
X012827Y004322D01*
X012836Y004338D01*
X012848Y004351D01*
X012863Y004362D01*
X012880Y004370D01*
X012898Y004374D01*
X012916Y004374D01*
X012934Y004370D01*
X012951Y004362D01*
X012966Y004351D01*
X012978Y004338D01*
X012987Y004322D01*
X012993Y004304D01*
X012995Y004286D01*
X012993Y004268D01*
X012987Y004250D01*
X012978Y004234D01*
X012966Y004221D01*
X012951Y004210D01*
X012934Y004202D01*
X012916Y004198D01*
X012898Y004198D01*
X012880Y004202D01*
X012863Y004210D01*
X012848Y004221D01*
X012836Y004234D01*
X012827Y004250D01*
X012821Y004268D01*
X012819Y004286D01*
X012270Y004410D02*
X012270Y004060D01*
X011970Y004060D01*
X011970Y004410D01*
X012270Y004410D01*
X012170Y003910D02*
X012170Y003810D01*
X012070Y003810D01*
X012070Y003910D01*
X012170Y003910D01*
X012396Y003026D02*
X012474Y003026D01*
X012474Y002554D02*
X012396Y002554D01*
X011844Y002554D02*
X011766Y002554D01*
X011766Y003026D02*
X011844Y003026D01*
X011136Y003616D02*
X011136Y004404D01*
X010604Y004404D02*
X010604Y003616D01*
X009770Y003610D02*
X009770Y003960D01*
X009470Y003960D01*
X009470Y003610D01*
X009770Y003610D01*
X009670Y004110D02*
X009670Y004210D01*
X009570Y004210D01*
X009570Y004110D01*
X009670Y004110D01*
X008745Y003734D02*
X008747Y003752D01*
X008753Y003770D01*
X008762Y003786D01*
X008774Y003799D01*
X008789Y003810D01*
X008806Y003818D01*
X008824Y003822D01*
X008842Y003822D01*
X008860Y003818D01*
X008877Y003810D01*
X008892Y003799D01*
X008904Y003786D01*
X008913Y003770D01*
X008919Y003752D01*
X008921Y003734D01*
X008919Y003716D01*
X008913Y003698D01*
X008904Y003682D01*
X008892Y003669D01*
X008877Y003658D01*
X008860Y003650D01*
X008842Y003646D01*
X008824Y003646D01*
X008806Y003650D01*
X008789Y003658D01*
X008774Y003669D01*
X008762Y003682D01*
X008753Y003698D01*
X008747Y003716D01*
X008745Y003734D01*
X008636Y003616D02*
X008636Y004404D01*
X008104Y004404D02*
X008104Y003616D01*
X007819Y004286D02*
X007821Y004304D01*
X007827Y004322D01*
X007836Y004338D01*
X007848Y004351D01*
X007863Y004362D01*
X007880Y004370D01*
X007898Y004374D01*
X007916Y004374D01*
X007934Y004370D01*
X007951Y004362D01*
X007966Y004351D01*
X007978Y004338D01*
X007987Y004322D01*
X007993Y004304D01*
X007995Y004286D01*
X007993Y004268D01*
X007987Y004250D01*
X007978Y004234D01*
X007966Y004221D01*
X007951Y004210D01*
X007934Y004202D01*
X007916Y004198D01*
X007898Y004198D01*
X007880Y004202D01*
X007863Y004210D01*
X007848Y004221D01*
X007836Y004234D01*
X007827Y004250D01*
X007821Y004268D01*
X007819Y004286D01*
X007270Y004410D02*
X007270Y004060D01*
X006970Y004060D01*
X006970Y004410D01*
X007270Y004410D01*
X007170Y003910D02*
X007070Y003910D01*
X007070Y003810D01*
X007170Y003810D01*
X007170Y003910D01*
X007396Y003026D02*
X007474Y003026D01*
X007474Y002554D02*
X007396Y002554D01*
X006844Y002554D02*
X006766Y002554D01*
X006766Y003026D02*
X006844Y003026D01*
X006136Y003616D02*
X006136Y004404D01*
X005604Y004404D02*
X005604Y003616D01*
X004770Y003610D02*
X004770Y003960D01*
X004470Y003960D01*
X004470Y003610D01*
X004770Y003610D01*
X004670Y004110D02*
X004670Y004210D01*
X004570Y004210D01*
X004570Y004110D01*
X004670Y004110D01*
X003745Y003734D02*
X003747Y003752D01*
X003753Y003770D01*
X003762Y003786D01*
X003774Y003799D01*
X003789Y003810D01*
X003806Y003818D01*
X003824Y003822D01*
X003842Y003822D01*
X003860Y003818D01*
X003877Y003810D01*
X003892Y003799D01*
X003904Y003786D01*
X003913Y003770D01*
X003919Y003752D01*
X003921Y003734D01*
X003919Y003716D01*
X003913Y003698D01*
X003904Y003682D01*
X003892Y003669D01*
X003877Y003658D01*
X003860Y003650D01*
X003842Y003646D01*
X003824Y003646D01*
X003806Y003650D01*
X003789Y003658D01*
X003774Y003669D01*
X003762Y003682D01*
X003753Y003698D01*
X003747Y003716D01*
X003745Y003734D01*
X003636Y003616D02*
X003636Y004404D01*
X004266Y004994D02*
X004344Y004994D01*
X004344Y005466D02*
X004266Y005466D01*
X004896Y005466D02*
X004974Y005466D01*
X004974Y004994D02*
X004896Y004994D01*
X004896Y003026D02*
X004974Y003026D01*
X004974Y002554D02*
X004896Y002554D01*
X004344Y002554D02*
X004266Y002554D01*
X004266Y003026D02*
X004344Y003026D01*
X003636Y001964D02*
X003636Y001176D01*
X003745Y001294D02*
X003747Y001312D01*
X003753Y001330D01*
X003762Y001346D01*
X003774Y001359D01*
X003789Y001370D01*
X003806Y001378D01*
X003824Y001382D01*
X003842Y001382D01*
X003860Y001378D01*
X003877Y001370D01*
X003892Y001359D01*
X003904Y001346D01*
X003913Y001330D01*
X003919Y001312D01*
X003921Y001294D01*
X003919Y001276D01*
X003913Y001258D01*
X003904Y001242D01*
X003892Y001229D01*
X003877Y001218D01*
X003860Y001210D01*
X003842Y001206D01*
X003824Y001206D01*
X003806Y001210D01*
X003789Y001218D01*
X003774Y001229D01*
X003762Y001242D01*
X003753Y001258D01*
X003747Y001276D01*
X003745Y001294D01*
X004470Y001170D02*
X004470Y001520D01*
X004770Y001520D01*
X004770Y001170D01*
X004470Y001170D01*
X004570Y001670D02*
X004570Y001770D01*
X004670Y001770D01*
X004670Y001670D01*
X004570Y001670D01*
X005604Y001964D02*
X005604Y001176D01*
X006136Y001176D02*
X006136Y001964D01*
X006970Y001970D02*
X006970Y001620D01*
X007270Y001620D01*
X007270Y001970D01*
X006970Y001970D01*
X007070Y001470D02*
X007070Y001370D01*
X007170Y001370D01*
X007170Y001470D01*
X007070Y001470D01*
X006844Y000586D02*
X006766Y000586D01*
X007396Y000586D02*
X007474Y000586D01*
X008104Y001176D02*
X008104Y001964D01*
X007819Y001846D02*
X007821Y001864D01*
X007827Y001882D01*
X007836Y001898D01*
X007848Y001911D01*
X007863Y001922D01*
X007880Y001930D01*
X007898Y001934D01*
X007916Y001934D01*
X007934Y001930D01*
X007951Y001922D01*
X007966Y001911D01*
X007978Y001898D01*
X007987Y001882D01*
X007993Y001864D01*
X007995Y001846D01*
X007993Y001828D01*
X007987Y001810D01*
X007978Y001794D01*
X007966Y001781D01*
X007951Y001770D01*
X007934Y001762D01*
X007916Y001758D01*
X007898Y001758D01*
X007880Y001762D01*
X007863Y001770D01*
X007848Y001781D01*
X007836Y001794D01*
X007827Y001810D01*
X007821Y001828D01*
X007819Y001846D01*
X008636Y001964D02*
X008636Y001176D01*
X008745Y001294D02*
X008747Y001312D01*
X008753Y001330D01*
X008762Y001346D01*
X008774Y001359D01*
X008789Y001370D01*
X008806Y001378D01*
X008824Y001382D01*
X008842Y001382D01*
X008860Y001378D01*
X008877Y001370D01*
X008892Y001359D01*
X008904Y001346D01*
X008913Y001330D01*
X008919Y001312D01*
X008921Y001294D01*
X008919Y001276D01*
X008913Y001258D01*
X008904Y001242D01*
X008892Y001229D01*
X008877Y001218D01*
X008860Y001210D01*
X008842Y001206D01*
X008824Y001206D01*
X008806Y001210D01*
X008789Y001218D01*
X008774Y001229D01*
X008762Y001242D01*
X008753Y001258D01*
X008747Y001276D01*
X008745Y001294D01*
X009470Y001170D02*
X009470Y001520D01*
X009770Y001520D01*
X009770Y001170D01*
X009470Y001170D01*
X009570Y001670D02*
X009570Y001770D01*
X009670Y001770D01*
X009670Y001670D01*
X009570Y001670D01*
X009344Y002554D02*
X009266Y002554D01*
X009266Y003026D02*
X009344Y003026D01*
X009896Y003026D02*
X009974Y003026D01*
X009974Y002554D02*
X009896Y002554D01*
X010604Y001964D02*
X010604Y001176D01*
X011136Y001176D02*
X011136Y001964D01*
X011970Y001970D02*
X011970Y001620D01*
X012270Y001620D01*
X012270Y001970D01*
X011970Y001970D01*
X012070Y001470D02*
X012070Y001370D01*
X012170Y001370D01*
X012170Y001470D01*
X012070Y001470D01*
X012819Y001846D02*
X012821Y001864D01*
X012827Y001882D01*
X012836Y001898D01*
X012848Y001911D01*
X012863Y001922D01*
X012880Y001930D01*
X012898Y001934D01*
X012916Y001934D01*
X012934Y001930D01*
X012951Y001922D01*
X012966Y001911D01*
X012978Y001898D01*
X012987Y001882D01*
X012993Y001864D01*
X012995Y001846D01*
X012993Y001828D01*
X012987Y001810D01*
X012978Y001794D01*
X012966Y001781D01*
X012951Y001770D01*
X012934Y001762D01*
X012916Y001758D01*
X012898Y001758D01*
X012880Y001762D01*
X012863Y001770D01*
X012848Y001781D01*
X012836Y001794D01*
X012827Y001810D01*
X012821Y001828D01*
X012819Y001846D01*
X013104Y001964D02*
X013104Y001176D01*
X013636Y001176D02*
X013636Y001964D01*
X013745Y001294D02*
X013747Y001312D01*
X013753Y001330D01*
X013762Y001346D01*
X013774Y001359D01*
X013789Y001370D01*
X013806Y001378D01*
X013824Y001382D01*
X013842Y001382D01*
X013860Y001378D01*
X013877Y001370D01*
X013892Y001359D01*
X013904Y001346D01*
X013913Y001330D01*
X013919Y001312D01*
X013921Y001294D01*
X013919Y001276D01*
X013913Y001258D01*
X013904Y001242D01*
X013892Y001229D01*
X013877Y001218D01*
X013860Y001210D01*
X013842Y001206D01*
X013824Y001206D01*
X013806Y001210D01*
X013789Y001218D01*
X013774Y001229D01*
X013762Y001242D01*
X013753Y001258D01*
X013747Y001276D01*
X013745Y001294D01*
X014470Y001170D02*
X014470Y001520D01*
X014770Y001520D01*
X014770Y001170D01*
X014470Y001170D01*
X014570Y001670D02*
X014570Y001770D01*
X014670Y001770D01*
X014670Y001670D01*
X014570Y001670D01*
X014344Y002554D02*
X014266Y002554D01*
X014266Y003026D02*
X014344Y003026D01*
X014896Y003026D02*
X014974Y003026D01*
X014974Y002554D02*
X014896Y002554D01*
X015604Y001964D02*
X015604Y001176D01*
X016136Y001176D02*
X016136Y001964D01*
X016970Y001970D02*
X016970Y001620D01*
X017270Y001620D01*
X017270Y001970D01*
X016970Y001970D01*
X017070Y001470D02*
X017070Y001370D01*
X017170Y001370D01*
X017170Y001470D01*
X017070Y001470D01*
X017819Y001846D02*
X017821Y001864D01*
X017827Y001882D01*
X017836Y001898D01*
X017848Y001911D01*
X017863Y001922D01*
X017880Y001930D01*
X017898Y001934D01*
X017916Y001934D01*
X017934Y001930D01*
X017951Y001922D01*
X017966Y001911D01*
X017978Y001898D01*
X017987Y001882D01*
X017993Y001864D01*
X017995Y001846D01*
X017993Y001828D01*
X017987Y001810D01*
X017978Y001794D01*
X017966Y001781D01*
X017951Y001770D01*
X017934Y001762D01*
X017916Y001758D01*
X017898Y001758D01*
X017880Y001762D01*
X017863Y001770D01*
X017848Y001781D01*
X017836Y001794D01*
X017827Y001810D01*
X017821Y001828D01*
X017819Y001846D01*
X018104Y001964D02*
X018104Y001176D01*
X018636Y001176D02*
X018636Y001964D01*
X018745Y001294D02*
X018747Y001312D01*
X018753Y001330D01*
X018762Y001346D01*
X018774Y001359D01*
X018789Y001370D01*
X018806Y001378D01*
X018824Y001382D01*
X018842Y001382D01*
X018860Y001378D01*
X018877Y001370D01*
X018892Y001359D01*
X018904Y001346D01*
X018913Y001330D01*
X018919Y001312D01*
X018921Y001294D01*
X018919Y001276D01*
X018913Y001258D01*
X018904Y001242D01*
X018892Y001229D01*
X018877Y001218D01*
X018860Y001210D01*
X018842Y001206D01*
X018824Y001206D01*
X018806Y001210D01*
X018789Y001218D01*
X018774Y001229D01*
X018762Y001242D01*
X018753Y001258D01*
X018747Y001276D01*
X018745Y001294D01*
X019470Y001170D02*
X019470Y001520D01*
X019770Y001520D01*
X019770Y001170D01*
X019470Y001170D01*
X019570Y001670D02*
X019570Y001770D01*
X019670Y001770D01*
X019670Y001670D01*
X019570Y001670D01*
X019344Y002554D02*
X019266Y002554D01*
X019266Y003026D02*
X019344Y003026D01*
X019896Y003026D02*
X019974Y003026D01*
X019974Y002554D02*
X019896Y002554D01*
X020604Y001964D02*
X020604Y001176D01*
X021136Y001176D02*
X021136Y001964D01*
X021970Y001970D02*
X021970Y001620D01*
X022270Y001620D01*
X022270Y001970D01*
X021970Y001970D01*
X022070Y001470D02*
X022070Y001370D01*
X022170Y001370D01*
X022170Y001470D01*
X022070Y001470D01*
X022819Y001846D02*
X022821Y001864D01*
X022827Y001882D01*
X022836Y001898D01*
X022848Y001911D01*
X022863Y001922D01*
X022880Y001930D01*
X022898Y001934D01*
X022916Y001934D01*
X022934Y001930D01*
X022951Y001922D01*
X022966Y001911D01*
X022978Y001898D01*
X022987Y001882D01*
X022993Y001864D01*
X022995Y001846D01*
X022993Y001828D01*
X022987Y001810D01*
X022978Y001794D01*
X022966Y001781D01*
X022951Y001770D01*
X022934Y001762D01*
X022916Y001758D01*
X022898Y001758D01*
X022880Y001762D01*
X022863Y001770D01*
X022848Y001781D01*
X022836Y001794D01*
X022827Y001810D01*
X022821Y001828D01*
X022819Y001846D01*
X023104Y001964D02*
X023104Y001176D01*
X022474Y000586D02*
X022396Y000586D01*
X021844Y000586D02*
X021766Y000586D01*
X019974Y000586D02*
X019896Y000586D01*
X019344Y000586D02*
X019266Y000586D01*
X017474Y000586D02*
X017396Y000586D01*
X016844Y000586D02*
X016766Y000586D01*
X014974Y000586D02*
X014896Y000586D01*
X014344Y000586D02*
X014266Y000586D01*
X012474Y000586D02*
X012396Y000586D01*
X011844Y000586D02*
X011766Y000586D01*
X009974Y000586D02*
X009896Y000586D01*
X009344Y000586D02*
X009266Y000586D01*
X004974Y000586D02*
X004896Y000586D01*
X004344Y000586D02*
X004266Y000586D01*
X009266Y004994D02*
X009344Y004994D01*
X009344Y005466D02*
X009266Y005466D01*
X009896Y005466D02*
X009974Y005466D01*
X009974Y004994D02*
X009896Y004994D01*
X011766Y004994D02*
X011844Y004994D01*
X011844Y005466D02*
X011766Y005466D01*
X012396Y005466D02*
X012474Y005466D01*
X012474Y004994D02*
X012396Y004994D01*
X014266Y004994D02*
X014344Y004994D01*
X014344Y005466D02*
X014266Y005466D01*
X014896Y005466D02*
X014974Y005466D01*
X014974Y004994D02*
X014896Y004994D01*
X016766Y004994D02*
X016844Y004994D01*
X016844Y005466D02*
X016766Y005466D01*
X017396Y005466D02*
X017474Y005466D01*
X017474Y004994D02*
X017396Y004994D01*
X017396Y007434D02*
X017474Y007434D01*
X017474Y007906D02*
X017396Y007906D01*
X016844Y007906D02*
X016766Y007906D01*
X016766Y007434D02*
X016844Y007434D01*
X019570Y008990D02*
X019570Y009090D01*
X019670Y009090D01*
X019670Y008990D01*
X019570Y008990D01*
X022070Y011130D02*
X022070Y011230D01*
X022170Y011230D01*
X022170Y011130D01*
X022070Y011130D01*
X021970Y011380D02*
X021970Y011730D01*
X022270Y011730D01*
X022270Y011380D01*
X021970Y011380D01*
X022819Y011606D02*
X022821Y011624D01*
X022827Y011642D01*
X022836Y011658D01*
X022848Y011671D01*
X022863Y011682D01*
X022880Y011690D01*
X022898Y011694D01*
X022916Y011694D01*
X022934Y011690D01*
X022951Y011682D01*
X022966Y011671D01*
X022978Y011658D01*
X022987Y011642D01*
X022993Y011624D01*
X022995Y011606D01*
X022993Y011588D01*
X022987Y011570D01*
X022978Y011554D01*
X022966Y011541D01*
X022951Y011530D01*
X022934Y011522D01*
X022916Y011518D01*
X022898Y011518D01*
X022880Y011522D01*
X022863Y011530D01*
X022848Y011541D01*
X022836Y011554D01*
X022827Y011570D01*
X022821Y011588D01*
X022819Y011606D01*
X023104Y011724D02*
X023104Y010936D01*
X022474Y012314D02*
X022396Y012314D01*
X022396Y012786D02*
X022474Y012786D01*
X021844Y012786D02*
X021766Y012786D01*
X021766Y012314D02*
X021844Y012314D01*
X021136Y013376D02*
X021136Y014164D01*
X020604Y014164D02*
X020604Y013376D01*
X019974Y012786D02*
X019896Y012786D01*
X019896Y012314D02*
X019974Y012314D01*
X019344Y012314D02*
X019266Y012314D01*
X019266Y012786D02*
X019344Y012786D01*
X019470Y013370D02*
X019470Y013720D01*
X019770Y013720D01*
X019770Y013370D01*
X019470Y013370D01*
X019570Y013870D02*
X019570Y013970D01*
X019670Y013970D01*
X019670Y013870D01*
X019570Y013870D01*
X018745Y013494D02*
X018747Y013512D01*
X018753Y013530D01*
X018762Y013546D01*
X018774Y013559D01*
X018789Y013570D01*
X018806Y013578D01*
X018824Y013582D01*
X018842Y013582D01*
X018860Y013578D01*
X018877Y013570D01*
X018892Y013559D01*
X018904Y013546D01*
X018913Y013530D01*
X018919Y013512D01*
X018921Y013494D01*
X018919Y013476D01*
X018913Y013458D01*
X018904Y013442D01*
X018892Y013429D01*
X018877Y013418D01*
X018860Y013410D01*
X018842Y013406D01*
X018824Y013406D01*
X018806Y013410D01*
X018789Y013418D01*
X018774Y013429D01*
X018762Y013442D01*
X018753Y013458D01*
X018747Y013476D01*
X018745Y013494D01*
X018636Y013376D02*
X018636Y014164D01*
X018104Y014164D02*
X018104Y013376D01*
X017819Y014046D02*
X017821Y014064D01*
X017827Y014082D01*
X017836Y014098D01*
X017848Y014111D01*
X017863Y014122D01*
X017880Y014130D01*
X017898Y014134D01*
X017916Y014134D01*
X017934Y014130D01*
X017951Y014122D01*
X017966Y014111D01*
X017978Y014098D01*
X017987Y014082D01*
X017993Y014064D01*
X017995Y014046D01*
X017993Y014028D01*
X017987Y014010D01*
X017978Y013994D01*
X017966Y013981D01*
X017951Y013970D01*
X017934Y013962D01*
X017916Y013958D01*
X017898Y013958D01*
X017880Y013962D01*
X017863Y013970D01*
X017848Y013981D01*
X017836Y013994D01*
X017827Y014010D01*
X017821Y014028D01*
X017819Y014046D01*
X017270Y014170D02*
X017270Y013820D01*
X016970Y013820D01*
X016970Y014170D01*
X017270Y014170D01*
X017170Y013670D02*
X017170Y013570D01*
X017070Y013570D01*
X017070Y013670D01*
X017170Y013670D01*
X017396Y012786D02*
X017474Y012786D01*
X017474Y012314D02*
X017396Y012314D01*
X016844Y012314D02*
X016766Y012314D01*
X016766Y012786D02*
X016844Y012786D01*
X016136Y013376D02*
X016136Y014164D01*
X015604Y014164D02*
X015604Y013376D01*
X014974Y012786D02*
X014896Y012786D01*
X014896Y012314D02*
X014974Y012314D01*
X014344Y012314D02*
X014266Y012314D01*
X014266Y012786D02*
X014344Y012786D01*
X014470Y013370D02*
X014470Y013720D01*
X014770Y013720D01*
X014770Y013370D01*
X014470Y013370D01*
X014570Y013870D02*
X014570Y013970D01*
X014670Y013970D01*
X014670Y013870D01*
X014570Y013870D01*
X013745Y013494D02*
X013747Y013512D01*
X013753Y013530D01*
X013762Y013546D01*
X013774Y013559D01*
X013789Y013570D01*
X013806Y013578D01*
X013824Y013582D01*
X013842Y013582D01*
X013860Y013578D01*
X013877Y013570D01*
X013892Y013559D01*
X013904Y013546D01*
X013913Y013530D01*
X013919Y013512D01*
X013921Y013494D01*
X013919Y013476D01*
X013913Y013458D01*
X013904Y013442D01*
X013892Y013429D01*
X013877Y013418D01*
X013860Y013410D01*
X013842Y013406D01*
X013824Y013406D01*
X013806Y013410D01*
X013789Y013418D01*
X013774Y013429D01*
X013762Y013442D01*
X013753Y013458D01*
X013747Y013476D01*
X013745Y013494D01*
X013636Y013376D02*
X013636Y014164D01*
X014266Y014754D02*
X014344Y014754D01*
X014344Y015226D02*
X014266Y015226D01*
X014470Y015810D02*
X014470Y016160D01*
X014770Y016160D01*
X014770Y015810D01*
X014470Y015810D01*
X014570Y016310D02*
X014570Y016410D01*
X014670Y016410D01*
X014670Y016310D01*
X014570Y016310D01*
X013745Y015934D02*
X013747Y015952D01*
X013753Y015970D01*
X013762Y015986D01*
X013774Y015999D01*
X013789Y016010D01*
X013806Y016018D01*
X013824Y016022D01*
X013842Y016022D01*
X013860Y016018D01*
X013877Y016010D01*
X013892Y015999D01*
X013904Y015986D01*
X013913Y015970D01*
X013919Y015952D01*
X013921Y015934D01*
X013919Y015916D01*
X013913Y015898D01*
X013904Y015882D01*
X013892Y015869D01*
X013877Y015858D01*
X013860Y015850D01*
X013842Y015846D01*
X013824Y015846D01*
X013806Y015850D01*
X013789Y015858D01*
X013774Y015869D01*
X013762Y015882D01*
X013753Y015898D01*
X013747Y015916D01*
X013745Y015934D01*
X013636Y015816D02*
X013636Y016604D01*
X014266Y017194D02*
X014344Y017194D01*
X014896Y017194D02*
X014974Y017194D01*
X015604Y016604D02*
X015604Y015816D01*
X016136Y015816D02*
X016136Y016604D01*
X016766Y017194D02*
X016844Y017194D01*
X017396Y017194D02*
X017474Y017194D01*
X017270Y016610D02*
X016970Y016610D01*
X016970Y016260D01*
X017270Y016260D01*
X017270Y016610D01*
X017170Y016110D02*
X017170Y016010D01*
X017070Y016010D01*
X017070Y016110D01*
X017170Y016110D01*
X017819Y016486D02*
X017821Y016504D01*
X017827Y016522D01*
X017836Y016538D01*
X017848Y016551D01*
X017863Y016562D01*
X017880Y016570D01*
X017898Y016574D01*
X017916Y016574D01*
X017934Y016570D01*
X017951Y016562D01*
X017966Y016551D01*
X017978Y016538D01*
X017987Y016522D01*
X017993Y016504D01*
X017995Y016486D01*
X017993Y016468D01*
X017987Y016450D01*
X017978Y016434D01*
X017966Y016421D01*
X017951Y016410D01*
X017934Y016402D01*
X017916Y016398D01*
X017898Y016398D01*
X017880Y016402D01*
X017863Y016410D01*
X017848Y016421D01*
X017836Y016434D01*
X017827Y016450D01*
X017821Y016468D01*
X017819Y016486D01*
X018104Y016604D02*
X018104Y015816D01*
X018636Y015816D02*
X018636Y016604D01*
X019266Y017194D02*
X019344Y017194D01*
X019896Y017194D02*
X019974Y017194D01*
X020604Y016604D02*
X020604Y015816D01*
X021136Y015816D02*
X021136Y016604D01*
X021970Y016610D02*
X021970Y016260D01*
X022270Y016260D01*
X022270Y016610D01*
X021970Y016610D01*
X022070Y016110D02*
X022070Y016010D01*
X022170Y016010D01*
X022170Y016110D01*
X022070Y016110D01*
X022819Y016486D02*
X022821Y016504D01*
X022827Y016522D01*
X022836Y016538D01*
X022848Y016551D01*
X022863Y016562D01*
X022880Y016570D01*
X022898Y016574D01*
X022916Y016574D01*
X022934Y016570D01*
X022951Y016562D01*
X022966Y016551D01*
X022978Y016538D01*
X022987Y016522D01*
X022993Y016504D01*
X022995Y016486D01*
X022993Y016468D01*
X022987Y016450D01*
X022978Y016434D01*
X022966Y016421D01*
X022951Y016410D01*
X022934Y016402D01*
X022916Y016398D01*
X022898Y016398D01*
X022880Y016402D01*
X022863Y016410D01*
X022848Y016421D01*
X022836Y016434D01*
X022827Y016450D01*
X022821Y016468D01*
X022819Y016486D01*
X023104Y016604D02*
X023104Y015816D01*
X022474Y015226D02*
X022396Y015226D01*
X022396Y014754D02*
X022474Y014754D01*
X021844Y014754D02*
X021766Y014754D01*
X021766Y015226D02*
X021844Y015226D01*
X021970Y014170D02*
X021970Y013820D01*
X022270Y013820D01*
X022270Y014170D01*
X021970Y014170D01*
X022070Y013670D02*
X022070Y013570D01*
X022170Y013570D01*
X022170Y013670D01*
X022070Y013670D01*
X022819Y014046D02*
X022821Y014064D01*
X022827Y014082D01*
X022836Y014098D01*
X022848Y014111D01*
X022863Y014122D01*
X022880Y014130D01*
X022898Y014134D01*
X022916Y014134D01*
X022934Y014130D01*
X022951Y014122D01*
X022966Y014111D01*
X022978Y014098D01*
X022987Y014082D01*
X022993Y014064D01*
X022995Y014046D01*
X022993Y014028D01*
X022987Y014010D01*
X022978Y013994D01*
X022966Y013981D01*
X022951Y013970D01*
X022934Y013962D01*
X022916Y013958D01*
X022898Y013958D01*
X022880Y013962D01*
X022863Y013970D01*
X022848Y013981D01*
X022836Y013994D01*
X022827Y014010D01*
X022821Y014028D01*
X022819Y014046D01*
X023104Y014164D02*
X023104Y013376D01*
X019974Y014754D02*
X019896Y014754D01*
X019896Y015226D02*
X019974Y015226D01*
X019770Y015810D02*
X019470Y015810D01*
X019470Y016160D01*
X019770Y016160D01*
X019770Y015810D01*
X019670Y016310D02*
X019570Y016310D01*
X019570Y016410D01*
X019670Y016410D01*
X019670Y016310D01*
X018745Y015934D02*
X018747Y015952D01*
X018753Y015970D01*
X018762Y015986D01*
X018774Y015999D01*
X018789Y016010D01*
X018806Y016018D01*
X018824Y016022D01*
X018842Y016022D01*
X018860Y016018D01*
X018877Y016010D01*
X018892Y015999D01*
X018904Y015986D01*
X018913Y015970D01*
X018919Y015952D01*
X018921Y015934D01*
X018919Y015916D01*
X018913Y015898D01*
X018904Y015882D01*
X018892Y015869D01*
X018877Y015858D01*
X018860Y015850D01*
X018842Y015846D01*
X018824Y015846D01*
X018806Y015850D01*
X018789Y015858D01*
X018774Y015869D01*
X018762Y015882D01*
X018753Y015898D01*
X018747Y015916D01*
X018745Y015934D01*
X019266Y015226D02*
X019344Y015226D01*
X019344Y014754D02*
X019266Y014754D01*
X017474Y014754D02*
X017396Y014754D01*
X017396Y015226D02*
X017474Y015226D01*
X016844Y015226D02*
X016766Y015226D01*
X016766Y014754D02*
X016844Y014754D01*
X014974Y014754D02*
X014896Y014754D01*
X014896Y015226D02*
X014974Y015226D01*
X014974Y017666D02*
X014896Y017666D01*
X014344Y017666D02*
X014266Y017666D01*
X014470Y018250D02*
X014470Y018600D01*
X014770Y018600D01*
X014770Y018250D01*
X014470Y018250D01*
X014570Y018750D02*
X014570Y018850D01*
X014670Y018850D01*
X014670Y018750D01*
X014570Y018750D01*
X013745Y018374D02*
X013747Y018392D01*
X013753Y018410D01*
X013762Y018426D01*
X013774Y018439D01*
X013789Y018450D01*
X013806Y018458D01*
X013824Y018462D01*
X013842Y018462D01*
X013860Y018458D01*
X013877Y018450D01*
X013892Y018439D01*
X013904Y018426D01*
X013913Y018410D01*
X013919Y018392D01*
X013921Y018374D01*
X013919Y018356D01*
X013913Y018338D01*
X013904Y018322D01*
X013892Y018309D01*
X013877Y018298D01*
X013860Y018290D01*
X013842Y018286D01*
X013824Y018286D01*
X013806Y018290D01*
X013789Y018298D01*
X013774Y018309D01*
X013762Y018322D01*
X013753Y018338D01*
X013747Y018356D01*
X013745Y018374D01*
X013636Y018256D02*
X013636Y019044D01*
X014266Y019634D02*
X014344Y019634D01*
X014896Y019634D02*
X014974Y019634D01*
X015604Y019044D02*
X015604Y018256D01*
X016136Y018256D02*
X016136Y019044D01*
X016766Y019634D02*
X016844Y019634D01*
X017396Y019634D02*
X017474Y019634D01*
X017270Y019050D02*
X016970Y019050D01*
X016970Y018700D01*
X017270Y018700D01*
X017270Y019050D01*
X017170Y018550D02*
X017170Y018450D01*
X017070Y018450D01*
X017070Y018550D01*
X017170Y018550D01*
X017819Y018926D02*
X017821Y018944D01*
X017827Y018962D01*
X017836Y018978D01*
X017848Y018991D01*
X017863Y019002D01*
X017880Y019010D01*
X017898Y019014D01*
X017916Y019014D01*
X017934Y019010D01*
X017951Y019002D01*
X017966Y018991D01*
X017978Y018978D01*
X017987Y018962D01*
X017993Y018944D01*
X017995Y018926D01*
X017993Y018908D01*
X017987Y018890D01*
X017978Y018874D01*
X017966Y018861D01*
X017951Y018850D01*
X017934Y018842D01*
X017916Y018838D01*
X017898Y018838D01*
X017880Y018842D01*
X017863Y018850D01*
X017848Y018861D01*
X017836Y018874D01*
X017827Y018890D01*
X017821Y018908D01*
X017819Y018926D01*
X018104Y019044D02*
X018104Y018256D01*
X018636Y018256D02*
X018636Y019044D01*
X019266Y019634D02*
X019344Y019634D01*
X019896Y019634D02*
X019974Y019634D01*
X020604Y019044D02*
X020604Y018256D01*
X021136Y018256D02*
X021136Y019044D01*
X021970Y019050D02*
X021970Y018700D01*
X022270Y018700D01*
X022270Y019050D01*
X021970Y019050D01*
X022070Y018550D02*
X022070Y018450D01*
X022170Y018450D01*
X022170Y018550D01*
X022070Y018550D01*
X022819Y018926D02*
X022821Y018944D01*
X022827Y018962D01*
X022836Y018978D01*
X022848Y018991D01*
X022863Y019002D01*
X022880Y019010D01*
X022898Y019014D01*
X022916Y019014D01*
X022934Y019010D01*
X022951Y019002D01*
X022966Y018991D01*
X022978Y018978D01*
X022987Y018962D01*
X022993Y018944D01*
X022995Y018926D01*
X022993Y018908D01*
X022987Y018890D01*
X022978Y018874D01*
X022966Y018861D01*
X022951Y018850D01*
X022934Y018842D01*
X022916Y018838D01*
X022898Y018838D01*
X022880Y018842D01*
X022863Y018850D01*
X022848Y018861D01*
X022836Y018874D01*
X022827Y018890D01*
X022821Y018908D01*
X022819Y018926D01*
X023104Y019044D02*
X023104Y018256D01*
X023523Y018340D02*
X024004Y018340D01*
X023764Y018340D02*
X023764Y019061D01*
X023523Y018820D01*
X022474Y019634D02*
X022396Y019634D01*
X021844Y019634D02*
X021766Y019634D01*
X021766Y017666D02*
X021844Y017666D01*
X022396Y017666D02*
X022474Y017666D01*
X022474Y017194D02*
X022396Y017194D01*
X021844Y017194D02*
X021766Y017194D01*
X019974Y017666D02*
X019896Y017666D01*
X019344Y017666D02*
X019266Y017666D01*
X019470Y018250D02*
X019470Y018600D01*
X019770Y018600D01*
X019770Y018250D01*
X019470Y018250D01*
X019570Y018750D02*
X019570Y018850D01*
X019670Y018850D01*
X019670Y018750D01*
X019570Y018750D01*
X018745Y018374D02*
X018747Y018392D01*
X018753Y018410D01*
X018762Y018426D01*
X018774Y018439D01*
X018789Y018450D01*
X018806Y018458D01*
X018824Y018462D01*
X018842Y018462D01*
X018860Y018458D01*
X018877Y018450D01*
X018892Y018439D01*
X018904Y018426D01*
X018913Y018410D01*
X018919Y018392D01*
X018921Y018374D01*
X018919Y018356D01*
X018913Y018338D01*
X018904Y018322D01*
X018892Y018309D01*
X018877Y018298D01*
X018860Y018290D01*
X018842Y018286D01*
X018824Y018286D01*
X018806Y018290D01*
X018789Y018298D01*
X018774Y018309D01*
X018762Y018322D01*
X018753Y018338D01*
X018747Y018356D01*
X018745Y018374D01*
X017474Y017666D02*
X017396Y017666D01*
X016844Y017666D02*
X016766Y017666D01*
X009670Y013970D02*
X009670Y013870D01*
X009570Y013870D01*
X009570Y013970D01*
X009670Y013970D01*
X007819Y011606D02*
X007821Y011624D01*
X007827Y011642D01*
X007836Y011658D01*
X007848Y011671D01*
X007863Y011682D01*
X007880Y011690D01*
X007898Y011694D01*
X007916Y011694D01*
X007934Y011690D01*
X007951Y011682D01*
X007966Y011671D01*
X007978Y011658D01*
X007987Y011642D01*
X007993Y011624D01*
X007995Y011606D01*
X007993Y011588D01*
X007987Y011570D01*
X007978Y011554D01*
X007966Y011541D01*
X007951Y011530D01*
X007934Y011522D01*
X007916Y011518D01*
X007898Y011518D01*
X007880Y011522D01*
X007863Y011530D01*
X007848Y011541D01*
X007836Y011554D01*
X007827Y011570D01*
X007821Y011588D01*
X007819Y011606D01*
X009570Y009090D02*
X009670Y009090D01*
X009670Y008990D01*
X009570Y008990D01*
X009570Y009090D01*
X014570Y011430D02*
X014570Y011530D01*
X014670Y011530D01*
X014670Y011430D01*
X014570Y011430D01*
D14*
X023770Y016200D02*
X023470Y016750D01*
X023720Y016750D01*
X023720Y017850D01*
X023820Y017850D01*
X023820Y016750D01*
X024070Y016750D01*
X023770Y016200D01*
X023767Y016206D02*
X023773Y016206D01*
X023827Y016304D02*
X023713Y016304D01*
X023660Y016403D02*
X023880Y016403D01*
X023934Y016501D02*
X023606Y016501D01*
X023552Y016600D02*
X023988Y016600D01*
X024042Y016698D02*
X023498Y016698D01*
X023720Y016797D02*
X023820Y016797D01*
X023820Y016895D02*
X023720Y016895D01*
X023720Y016994D02*
X023820Y016994D01*
X023820Y017092D02*
X023720Y017092D01*
X023720Y017191D02*
X023820Y017191D01*
X023820Y017289D02*
X023720Y017289D01*
X023720Y017388D02*
X023820Y017388D01*
X023820Y017486D02*
X023720Y017486D01*
X023720Y017585D02*
X023820Y017585D01*
X023820Y017683D02*
X023720Y017683D01*
X023720Y017782D02*
X023820Y017782D01*
X004115Y019519D02*
X003365Y019519D01*
D15*
X023444Y015169D02*
X023444Y014494D01*
X024795Y014494D01*
X024345Y014494D02*
X024345Y015169D01*
X024119Y015395D01*
X023669Y015395D01*
X023444Y015169D01*
X024345Y014944D02*
X024795Y015395D01*
X024795Y014013D02*
X023894Y014013D01*
X023444Y013563D01*
X023894Y013113D01*
X024795Y013113D01*
X024795Y012632D02*
X024795Y011731D01*
X023444Y011731D01*
X024795Y011251D02*
X024795Y010350D01*
X023444Y010350D01*
X023444Y009870D02*
X023444Y008969D01*
X024795Y008969D01*
X024795Y009870D01*
X024119Y009419D02*
X024119Y008969D01*
X023444Y008489D02*
X023444Y007588D01*
X023444Y008038D02*
X024795Y008038D01*
X024570Y007108D02*
X024345Y007108D01*
X024119Y006882D01*
X024119Y006432D01*
X023894Y006207D01*
X023669Y006207D01*
X023444Y006432D01*
X023444Y006882D01*
X023669Y007108D01*
X024570Y007108D02*
X024795Y006882D01*
X024795Y006432D01*
X024570Y006207D01*
X024119Y013113D02*
X024119Y014013D01*
D16*
X002519Y016195D02*
X002519Y018205D01*
X000659Y018205D02*
X000659Y016195D01*
D17*
X000839Y015305D03*
D18*
X003040Y015900D03*
X003050Y017200D03*
X003070Y018450D03*
D19*
X005858Y017600D02*
X005882Y017600D01*
X008358Y017600D02*
X008382Y017600D01*
X010858Y017600D02*
X010882Y017600D01*
X013358Y017600D02*
X013382Y017600D01*
X015858Y017600D02*
X015882Y017600D01*
X015858Y015210D02*
X015882Y015210D01*
X013382Y015160D02*
X013358Y015160D01*
X010882Y015160D02*
X010858Y015160D01*
X008382Y015160D02*
X008358Y015160D01*
X005882Y015160D02*
X005858Y015160D01*
X005858Y012720D02*
X005882Y012720D01*
X008358Y012720D02*
X008382Y012720D01*
X008358Y010280D02*
X008382Y010280D01*
X005882Y010280D02*
X005858Y010280D01*
X005858Y007840D02*
X005882Y007840D01*
X008358Y007840D02*
X008382Y007840D01*
X010858Y007840D02*
X010882Y007840D01*
X013358Y007840D02*
X013382Y007840D01*
X015858Y007840D02*
X015882Y007840D01*
X018358Y007840D02*
X018382Y007840D01*
X020858Y007840D02*
X020882Y007840D01*
X020858Y005400D02*
X020882Y005400D01*
X018382Y005400D02*
X018358Y005400D01*
X015882Y005400D02*
X015858Y005400D01*
X013382Y005400D02*
X013358Y005400D01*
X010882Y005400D02*
X010858Y005400D01*
X008382Y005400D02*
X008358Y005400D01*
X005882Y005400D02*
X005858Y005400D01*
X005858Y002910D02*
X005882Y002910D01*
X008358Y002910D02*
X008382Y002910D01*
X010858Y002910D02*
X010882Y002910D01*
X013358Y002910D02*
X013382Y002910D01*
X015858Y002910D02*
X015882Y002910D01*
X018358Y002910D02*
X018382Y002910D01*
X020858Y002910D02*
X020882Y002910D01*
X020858Y010280D02*
X020882Y010280D01*
X018382Y010280D02*
X018358Y010280D01*
X018358Y012720D02*
X018382Y012720D01*
X020858Y012720D02*
X020882Y012720D01*
X020858Y015160D02*
X020882Y015160D01*
X018382Y015160D02*
X018358Y015160D01*
X018358Y017650D02*
X018382Y017650D01*
X020858Y017600D02*
X020882Y017600D01*
X015882Y012720D02*
X015858Y012720D01*
X013382Y012720D02*
X013358Y012720D01*
X010882Y012720D02*
X010858Y012720D01*
X010858Y010280D02*
X010882Y010280D01*
X013358Y010280D02*
X013382Y010280D01*
X015858Y010280D02*
X015882Y010280D01*
X003052Y014500D02*
X003028Y014500D01*
D20*
X001720Y007700D02*
X001460Y007700D01*
X001460Y007630D01*
X000840Y007630D01*
X000690Y007470D01*
X000690Y006920D01*
X000850Y006760D01*
X001460Y006760D01*
X001460Y006700D01*
X001720Y006700D01*
X001720Y007080D01*
X001460Y007080D01*
X001460Y007020D01*
X001090Y006910D01*
X001090Y007020D01*
X001060Y007020D01*
X001060Y007210D01*
X001060Y007370D01*
X001090Y007370D01*
X001090Y007480D01*
X001460Y007390D01*
X001460Y007310D01*
X001720Y007310D01*
X001720Y007700D01*
X001720Y007698D02*
X001460Y007698D01*
X001460Y007690D02*
X001720Y007690D01*
X001720Y007681D02*
X001460Y007681D01*
X001460Y007673D02*
X001720Y007673D01*
X001720Y007664D02*
X001460Y007664D01*
X001460Y007656D02*
X001720Y007656D01*
X001720Y007647D02*
X001460Y007647D01*
X001460Y007639D02*
X001720Y007639D01*
X001720Y007630D02*
X001460Y007630D01*
X001416Y007401D02*
X001720Y007401D01*
X001720Y007409D02*
X001381Y007409D01*
X001346Y007418D02*
X001720Y007418D01*
X001720Y007426D02*
X001311Y007426D01*
X001276Y007435D02*
X001720Y007435D01*
X001720Y007443D02*
X001241Y007443D01*
X001206Y007452D02*
X001720Y007452D01*
X001720Y007460D02*
X001171Y007460D01*
X001136Y007469D02*
X001720Y007469D01*
X001720Y007477D02*
X001101Y007477D01*
X001090Y007477D02*
X000697Y007477D01*
X000690Y007469D02*
X001090Y007469D01*
X001090Y007460D02*
X000690Y007460D01*
X000690Y007452D02*
X001090Y007452D01*
X001090Y007443D02*
X000690Y007443D01*
X000690Y007435D02*
X001090Y007435D01*
X001090Y007426D02*
X000690Y007426D01*
X000690Y007418D02*
X001090Y007418D01*
X001090Y007409D02*
X000690Y007409D01*
X000690Y007401D02*
X001090Y007401D01*
X001090Y007392D02*
X000690Y007392D01*
X000690Y007384D02*
X001090Y007384D01*
X001090Y007375D02*
X000690Y007375D01*
X000690Y007367D02*
X001060Y007367D01*
X001060Y007358D02*
X000690Y007358D01*
X000690Y007350D02*
X001060Y007350D01*
X001060Y007341D02*
X000690Y007341D01*
X000690Y007333D02*
X001060Y007333D01*
X001060Y007324D02*
X000690Y007324D01*
X000690Y007316D02*
X000910Y007316D01*
X000910Y007320D02*
X001040Y007320D01*
X001040Y007210D01*
X001060Y007210D01*
X001040Y007210D01*
X001040Y007080D01*
X000910Y007080D01*
X000910Y007320D01*
X000910Y007307D02*
X000690Y007307D01*
X000690Y007299D02*
X000910Y007299D01*
X000910Y007290D02*
X000690Y007290D01*
X000690Y007282D02*
X000910Y007282D01*
X000910Y007273D02*
X000690Y007273D01*
X000690Y007265D02*
X000910Y007265D01*
X000910Y007256D02*
X000690Y007256D01*
X000690Y007248D02*
X000910Y007248D01*
X000910Y007239D02*
X000690Y007239D01*
X000690Y007231D02*
X000910Y007231D01*
X000910Y007222D02*
X000690Y007222D01*
X000690Y007214D02*
X000910Y007214D01*
X000910Y007205D02*
X000690Y007205D01*
X000690Y007197D02*
X000910Y007197D01*
X000910Y007188D02*
X000690Y007188D01*
X000690Y007180D02*
X000910Y007180D01*
X000910Y007171D02*
X000690Y007171D01*
X000690Y007163D02*
X000910Y007163D01*
X000910Y007154D02*
X000690Y007154D01*
X000690Y007146D02*
X000910Y007146D01*
X000910Y007137D02*
X000690Y007137D01*
X000690Y007129D02*
X000910Y007129D01*
X000910Y007120D02*
X000690Y007120D01*
X000690Y007112D02*
X000910Y007112D01*
X000910Y007103D02*
X000690Y007103D01*
X000690Y007095D02*
X000910Y007095D01*
X000910Y007086D02*
X000690Y007086D01*
X000690Y007078D02*
X001060Y007078D01*
X001060Y007086D02*
X001040Y007086D01*
X001040Y007095D02*
X001060Y007095D01*
X001060Y007103D02*
X001040Y007103D01*
X001040Y007112D02*
X001060Y007112D01*
X001060Y007120D02*
X001040Y007120D01*
X001040Y007129D02*
X001060Y007129D01*
X001060Y007137D02*
X001040Y007137D01*
X001040Y007146D02*
X001060Y007146D01*
X001060Y007154D02*
X001040Y007154D01*
X001040Y007163D02*
X001060Y007163D01*
X001060Y007171D02*
X001040Y007171D01*
X001040Y007180D02*
X001060Y007180D01*
X001060Y007188D02*
X001040Y007188D01*
X001040Y007197D02*
X001060Y007197D01*
X001060Y007205D02*
X001040Y007205D01*
X001040Y007214D02*
X001060Y007214D01*
X001060Y007222D02*
X001040Y007222D01*
X001040Y007231D02*
X001060Y007231D01*
X001060Y007239D02*
X001040Y007239D01*
X001040Y007248D02*
X001060Y007248D01*
X001060Y007256D02*
X001040Y007256D01*
X001040Y007265D02*
X001060Y007265D01*
X001060Y007273D02*
X001040Y007273D01*
X001040Y007282D02*
X001060Y007282D01*
X001060Y007290D02*
X001040Y007290D01*
X001040Y007299D02*
X001060Y007299D01*
X001060Y007307D02*
X001040Y007307D01*
X001040Y007316D02*
X001060Y007316D01*
X001060Y007069D02*
X000690Y007069D01*
X000690Y007061D02*
X001060Y007061D01*
X001060Y007052D02*
X000690Y007052D01*
X000690Y007044D02*
X001060Y007044D01*
X001060Y007035D02*
X000690Y007035D01*
X000690Y007027D02*
X001060Y007027D01*
X001090Y007018D02*
X000690Y007018D01*
X000690Y007010D02*
X001090Y007010D01*
X001090Y007001D02*
X000690Y007001D01*
X000690Y006993D02*
X001090Y006993D01*
X001090Y006984D02*
X000690Y006984D01*
X000690Y006976D02*
X001090Y006976D01*
X001090Y006967D02*
X000690Y006967D01*
X000690Y006959D02*
X001090Y006959D01*
X001090Y006950D02*
X000690Y006950D01*
X000690Y006942D02*
X001090Y006942D01*
X001090Y006933D02*
X000690Y006933D01*
X000690Y006925D02*
X001090Y006925D01*
X001090Y006916D02*
X000694Y006916D01*
X000702Y006908D02*
X001720Y006908D01*
X001720Y006916D02*
X001111Y006916D01*
X001139Y006925D02*
X001720Y006925D01*
X001720Y006933D02*
X001168Y006933D01*
X001197Y006942D02*
X001720Y006942D01*
X001720Y006950D02*
X001225Y006950D01*
X001254Y006959D02*
X001720Y006959D01*
X001720Y006967D02*
X001282Y006967D01*
X001311Y006976D02*
X001720Y006976D01*
X001720Y006984D02*
X001340Y006984D01*
X001368Y006993D02*
X001720Y006993D01*
X001720Y007001D02*
X001397Y007001D01*
X001425Y007010D02*
X001720Y007010D01*
X001720Y007018D02*
X001454Y007018D01*
X001460Y007027D02*
X001720Y007027D01*
X001720Y007035D02*
X001460Y007035D01*
X001460Y007044D02*
X001720Y007044D01*
X001720Y007052D02*
X001460Y007052D01*
X001460Y007061D02*
X001720Y007061D01*
X001720Y007069D02*
X001460Y007069D01*
X001460Y007078D02*
X001720Y007078D01*
X001720Y006899D02*
X000711Y006899D01*
X000719Y006891D02*
X001720Y006891D01*
X001720Y006882D02*
X000728Y006882D01*
X000736Y006874D02*
X001720Y006874D01*
X001720Y006865D02*
X000745Y006865D01*
X000753Y006857D02*
X001720Y006857D01*
X001720Y006848D02*
X000762Y006848D01*
X000770Y006840D02*
X001720Y006840D01*
X001720Y006831D02*
X000779Y006831D01*
X000787Y006823D02*
X001720Y006823D01*
X001720Y006814D02*
X000796Y006814D01*
X000804Y006806D02*
X001720Y006806D01*
X001720Y006797D02*
X000813Y006797D01*
X000821Y006789D02*
X001720Y006789D01*
X001720Y006780D02*
X000830Y006780D01*
X000838Y006772D02*
X001720Y006772D01*
X001720Y006763D02*
X000847Y006763D01*
X001460Y006755D02*
X001720Y006755D01*
X001720Y006746D02*
X001460Y006746D01*
X001460Y006738D02*
X001720Y006738D01*
X001720Y006729D02*
X001460Y006729D01*
X001460Y006721D02*
X001720Y006721D01*
X001720Y006712D02*
X001460Y006712D01*
X001460Y006704D02*
X001720Y006704D01*
X001720Y007316D02*
X001460Y007316D01*
X001460Y007324D02*
X001720Y007324D01*
X001720Y007333D02*
X001460Y007333D01*
X001460Y007341D02*
X001720Y007341D01*
X001720Y007350D02*
X001460Y007350D01*
X001460Y007358D02*
X001720Y007358D01*
X001720Y007367D02*
X001460Y007367D01*
X001460Y007375D02*
X001720Y007375D01*
X001720Y007384D02*
X001460Y007384D01*
X001451Y007392D02*
X001720Y007392D01*
X001720Y007486D02*
X000705Y007486D01*
X000713Y007494D02*
X001720Y007494D01*
X001720Y007503D02*
X000721Y007503D01*
X000729Y007511D02*
X001720Y007511D01*
X001720Y007520D02*
X000737Y007520D01*
X000745Y007528D02*
X001720Y007528D01*
X001720Y007537D02*
X000753Y007537D01*
X000761Y007545D02*
X001720Y007545D01*
X001720Y007554D02*
X000768Y007554D01*
X000776Y007562D02*
X001720Y007562D01*
X001720Y007571D02*
X000784Y007571D01*
X000792Y007579D02*
X001720Y007579D01*
X001720Y007588D02*
X000800Y007588D01*
X000808Y007596D02*
X001720Y007596D01*
X001720Y007605D02*
X000816Y007605D01*
X000824Y007613D02*
X001720Y007613D01*
X001720Y007622D02*
X000832Y007622D01*
M02*
