G75*
%MOIN*%
%OFA0B0*%
%FSLAX24Y24*%
%IPPOS*%
%LPD*%
%AMOC8*
5,1,8,0,0,1.08239X$1,22.5*
%
%ADD10C,0.0100*%
%ADD11C,0.0080*%
%ADD12C,0.0010*%
D10*
X003365Y019519D02*
X004115Y019519D01*
D11*
X003265Y019819D02*
X003265Y021819D01*
X023265Y021819D01*
X023265Y019819D01*
X003265Y019819D01*
D12*
X001460Y006770D02*
X001460Y006700D01*
X001720Y006700D01*
X001720Y007090D01*
X001460Y007090D01*
X001460Y007010D01*
X001090Y006920D01*
X001090Y007030D01*
X001060Y007030D01*
X001060Y007190D01*
X001040Y007190D01*
X001040Y007080D01*
X000910Y007080D01*
X000910Y007320D01*
X001040Y007320D01*
X001040Y007190D01*
X001060Y007190D01*
X001060Y007380D01*
X001090Y007380D01*
X001090Y007490D01*
X001460Y007380D01*
X001460Y007320D01*
X001720Y007320D01*
X001720Y007700D01*
X001460Y007700D01*
X001460Y007640D01*
X000850Y007640D01*
X000690Y007480D01*
X000690Y006930D01*
X000840Y006770D01*
X001460Y006770D01*
X001460Y006763D02*
X001720Y006763D01*
X001720Y006755D02*
X001460Y006755D01*
X001460Y006746D02*
X001720Y006746D01*
X001720Y006738D02*
X001460Y006738D01*
X001460Y006729D02*
X001720Y006729D01*
X001720Y006721D02*
X001460Y006721D01*
X001460Y006712D02*
X001720Y006712D01*
X001720Y006704D02*
X001460Y006704D01*
X001720Y006772D02*
X000838Y006772D01*
X000830Y006780D02*
X001720Y006780D01*
X001720Y006789D02*
X000822Y006789D01*
X000815Y006797D02*
X001720Y006797D01*
X001720Y006806D02*
X000807Y006806D01*
X000799Y006814D02*
X001720Y006814D01*
X001720Y006823D02*
X000791Y006823D01*
X000783Y006831D02*
X001720Y006831D01*
X001720Y006840D02*
X000775Y006840D01*
X000767Y006848D02*
X001720Y006848D01*
X001720Y006857D02*
X000759Y006857D01*
X000751Y006865D02*
X001720Y006865D01*
X001720Y006874D02*
X000743Y006874D01*
X000735Y006882D02*
X001720Y006882D01*
X001720Y006891D02*
X000727Y006891D01*
X000719Y006899D02*
X001720Y006899D01*
X001720Y006908D02*
X000711Y006908D01*
X000703Y006916D02*
X001720Y006916D01*
X001720Y006925D02*
X001109Y006925D01*
X001090Y006925D02*
X000695Y006925D01*
X000690Y006933D02*
X001090Y006933D01*
X001090Y006942D02*
X000690Y006942D01*
X000690Y006950D02*
X001090Y006950D01*
X001090Y006959D02*
X000690Y006959D01*
X000690Y006967D02*
X001090Y006967D01*
X001090Y006976D02*
X000690Y006976D01*
X000690Y006984D02*
X001090Y006984D01*
X001090Y006993D02*
X000690Y006993D01*
X000690Y007001D02*
X001090Y007001D01*
X001090Y007010D02*
X000690Y007010D01*
X000690Y007018D02*
X001090Y007018D01*
X001090Y007027D02*
X000690Y007027D01*
X000690Y007035D02*
X001060Y007035D01*
X001060Y007044D02*
X000690Y007044D01*
X000690Y007052D02*
X001060Y007052D01*
X001060Y007061D02*
X000690Y007061D01*
X000690Y007069D02*
X001060Y007069D01*
X001060Y007078D02*
X000690Y007078D01*
X000690Y007086D02*
X000910Y007086D01*
X000910Y007095D02*
X000690Y007095D01*
X000690Y007103D02*
X000910Y007103D01*
X000910Y007112D02*
X000690Y007112D01*
X000690Y007120D02*
X000910Y007120D01*
X000910Y007129D02*
X000690Y007129D01*
X000690Y007137D02*
X000910Y007137D01*
X000910Y007146D02*
X000690Y007146D01*
X000690Y007154D02*
X000910Y007154D01*
X000910Y007163D02*
X000690Y007163D01*
X000690Y007171D02*
X000910Y007171D01*
X000910Y007180D02*
X000690Y007180D01*
X000690Y007188D02*
X000910Y007188D01*
X000910Y007197D02*
X000690Y007197D01*
X000690Y007205D02*
X000910Y007205D01*
X000910Y007214D02*
X000690Y007214D01*
X000690Y007222D02*
X000910Y007222D01*
X000910Y007231D02*
X000690Y007231D01*
X000690Y007239D02*
X000910Y007239D01*
X000910Y007248D02*
X000690Y007248D01*
X000690Y007256D02*
X000910Y007256D01*
X000910Y007265D02*
X000690Y007265D01*
X000690Y007273D02*
X000910Y007273D01*
X000910Y007282D02*
X000690Y007282D01*
X000690Y007290D02*
X000910Y007290D01*
X000910Y007299D02*
X000690Y007299D01*
X000690Y007307D02*
X000910Y007307D01*
X000910Y007316D02*
X000690Y007316D01*
X000690Y007324D02*
X001060Y007324D01*
X001060Y007316D02*
X001040Y007316D01*
X001040Y007307D02*
X001060Y007307D01*
X001060Y007299D02*
X001040Y007299D01*
X001040Y007290D02*
X001060Y007290D01*
X001060Y007282D02*
X001040Y007282D01*
X001040Y007273D02*
X001060Y007273D01*
X001060Y007265D02*
X001040Y007265D01*
X001040Y007256D02*
X001060Y007256D01*
X001060Y007248D02*
X001040Y007248D01*
X001040Y007239D02*
X001060Y007239D01*
X001060Y007231D02*
X001040Y007231D01*
X001040Y007222D02*
X001060Y007222D01*
X001060Y007214D02*
X001040Y007214D01*
X001040Y007205D02*
X001060Y007205D01*
X001060Y007197D02*
X001040Y007197D01*
X001040Y007188D02*
X001060Y007188D01*
X001060Y007180D02*
X001040Y007180D01*
X001040Y007171D02*
X001060Y007171D01*
X001060Y007163D02*
X001040Y007163D01*
X001040Y007154D02*
X001060Y007154D01*
X001060Y007146D02*
X001040Y007146D01*
X001040Y007137D02*
X001060Y007137D01*
X001060Y007129D02*
X001040Y007129D01*
X001040Y007120D02*
X001060Y007120D01*
X001060Y007112D02*
X001040Y007112D01*
X001040Y007103D02*
X001060Y007103D01*
X001060Y007095D02*
X001040Y007095D01*
X001040Y007086D02*
X001060Y007086D01*
X001144Y006933D02*
X001720Y006933D01*
X001720Y006942D02*
X001179Y006942D01*
X001214Y006950D02*
X001720Y006950D01*
X001720Y006959D02*
X001249Y006959D01*
X001284Y006967D02*
X001720Y006967D01*
X001720Y006976D02*
X001319Y006976D01*
X001354Y006984D02*
X001720Y006984D01*
X001720Y006993D02*
X001389Y006993D01*
X001424Y007001D02*
X001720Y007001D01*
X001720Y007010D02*
X001459Y007010D01*
X001460Y007018D02*
X001720Y007018D01*
X001720Y007027D02*
X001460Y007027D01*
X001460Y007035D02*
X001720Y007035D01*
X001720Y007044D02*
X001460Y007044D01*
X001460Y007052D02*
X001720Y007052D01*
X001720Y007061D02*
X001460Y007061D01*
X001460Y007069D02*
X001720Y007069D01*
X001720Y007078D02*
X001460Y007078D01*
X001460Y007086D02*
X001720Y007086D01*
X001720Y007324D02*
X001460Y007324D01*
X001460Y007333D02*
X001720Y007333D01*
X001720Y007341D02*
X001460Y007341D01*
X001460Y007350D02*
X001720Y007350D01*
X001720Y007358D02*
X001460Y007358D01*
X001460Y007367D02*
X001720Y007367D01*
X001720Y007375D02*
X001460Y007375D01*
X001448Y007384D02*
X001720Y007384D01*
X001720Y007392D02*
X001419Y007392D01*
X001390Y007401D02*
X001720Y007401D01*
X001720Y007409D02*
X001362Y007409D01*
X001333Y007418D02*
X001720Y007418D01*
X001720Y007426D02*
X001305Y007426D01*
X001276Y007435D02*
X001720Y007435D01*
X001720Y007443D02*
X001247Y007443D01*
X001219Y007452D02*
X001720Y007452D01*
X001720Y007460D02*
X001190Y007460D01*
X001162Y007469D02*
X001720Y007469D01*
X001720Y007477D02*
X001133Y007477D01*
X001104Y007486D02*
X001720Y007486D01*
X001720Y007494D02*
X000704Y007494D01*
X000696Y007486D02*
X001090Y007486D01*
X001090Y007477D02*
X000690Y007477D01*
X000690Y007469D02*
X001090Y007469D01*
X001090Y007460D02*
X000690Y007460D01*
X000690Y007452D02*
X001090Y007452D01*
X001090Y007443D02*
X000690Y007443D01*
X000690Y007435D02*
X001090Y007435D01*
X001090Y007426D02*
X000690Y007426D01*
X000690Y007418D02*
X001090Y007418D01*
X001090Y007409D02*
X000690Y007409D01*
X000690Y007401D02*
X001090Y007401D01*
X001090Y007392D02*
X000690Y007392D01*
X000690Y007384D02*
X001090Y007384D01*
X001060Y007375D02*
X000690Y007375D01*
X000690Y007367D02*
X001060Y007367D01*
X001060Y007358D02*
X000690Y007358D01*
X000690Y007350D02*
X001060Y007350D01*
X001060Y007341D02*
X000690Y007341D01*
X000690Y007333D02*
X001060Y007333D01*
X000798Y007588D02*
X001720Y007588D01*
X001720Y007596D02*
X000806Y007596D01*
X000815Y007605D02*
X001720Y007605D01*
X001720Y007613D02*
X000823Y007613D01*
X000832Y007622D02*
X001720Y007622D01*
X001720Y007630D02*
X000840Y007630D01*
X000849Y007639D02*
X001720Y007639D01*
X001720Y007647D02*
X001460Y007647D01*
X001460Y007656D02*
X001720Y007656D01*
X001720Y007664D02*
X001460Y007664D01*
X001460Y007673D02*
X001720Y007673D01*
X001720Y007681D02*
X001460Y007681D01*
X001460Y007690D02*
X001720Y007690D01*
X001720Y007698D02*
X001460Y007698D01*
X001720Y007579D02*
X000789Y007579D01*
X000781Y007571D02*
X001720Y007571D01*
X001720Y007562D02*
X000772Y007562D01*
X000764Y007554D02*
X001720Y007554D01*
X001720Y007545D02*
X000755Y007545D01*
X000747Y007537D02*
X001720Y007537D01*
X001720Y007528D02*
X000738Y007528D01*
X000730Y007520D02*
X001720Y007520D01*
X001720Y007511D02*
X000721Y007511D01*
X000713Y007503D02*
X001720Y007503D01*
M02*
