G75*
%MOIN*%
%OFA0B0*%
%FSLAX24Y24*%
%IPPOS*%
%LPD*%
%AMOC8*
5,1,8,0,0,1.08239X$1,22.5*
%
%ADD10C,0.0650*%
%ADD11R,0.0650X0.0650*%
%ADD12C,0.0100*%
%ADD13C,0.0350*%
%ADD14C,0.0160*%
D10*
X004765Y020319D03*
X005765Y020319D03*
X006765Y020319D03*
X007765Y020319D03*
X008765Y020319D03*
X009765Y020319D03*
X010765Y020319D03*
X011765Y020319D03*
X012765Y020319D03*
X013765Y020319D03*
X014765Y020319D03*
X015765Y020319D03*
X016765Y020319D03*
X017765Y020319D03*
X018765Y020319D03*
X019765Y020319D03*
X020765Y020319D03*
X021765Y020319D03*
X022765Y020319D03*
X022765Y021319D03*
X021765Y021319D03*
X020765Y021319D03*
X019765Y021319D03*
X018765Y021319D03*
X017765Y021319D03*
X016765Y021319D03*
X015765Y021319D03*
X014765Y021319D03*
X013765Y021319D03*
X012765Y021319D03*
X011765Y021319D03*
X010765Y021319D03*
X009765Y021319D03*
X008765Y021319D03*
X007765Y021319D03*
X006765Y021319D03*
X005765Y021319D03*
X004765Y021319D03*
X003765Y021319D03*
D11*
X003765Y020319D03*
D12*
X000605Y007433D02*
X000605Y001684D01*
X000654Y001962D01*
X000875Y002345D01*
X001213Y002628D01*
X001627Y002779D01*
X002069Y002779D01*
X002483Y002628D01*
X002821Y002345D01*
X003042Y001962D01*
X003118Y001528D01*
X003042Y001093D01*
X002821Y000711D01*
X002483Y000428D01*
X002091Y000285D01*
X024439Y000285D01*
X024047Y000428D01*
X023709Y000711D01*
X023489Y001093D01*
X023412Y001528D01*
X023489Y001962D01*
X023709Y002345D01*
X024047Y002628D01*
X024462Y002779D01*
X024903Y002779D01*
X025318Y002628D01*
X025656Y002345D01*
X025876Y001962D01*
X025926Y001684D01*
X025926Y020663D01*
X025876Y020385D01*
X025656Y020003D01*
X025318Y019719D01*
X024903Y019568D01*
X024462Y019568D01*
X024047Y019719D01*
X023709Y020003D01*
X023489Y020385D01*
X023480Y020434D01*
X023480Y019771D01*
X023529Y019723D01*
X023575Y019611D01*
X023575Y019489D01*
X023529Y019377D01*
X023443Y019291D01*
X023331Y019245D01*
X023209Y019245D01*
X023097Y019291D01*
X023011Y019377D01*
X022965Y019489D01*
X022965Y019611D01*
X023011Y019723D01*
X023060Y019771D01*
X023060Y019946D01*
X023014Y019913D01*
X022948Y019879D01*
X022877Y019856D01*
X022815Y019846D01*
X022815Y020269D01*
X022715Y020269D01*
X022715Y019846D01*
X022654Y019856D01*
X022583Y019879D01*
X022516Y019913D01*
X022480Y019939D01*
X022480Y019021D01*
X022529Y018973D01*
X022575Y018861D01*
X022575Y018739D01*
X022529Y018627D01*
X022443Y018541D01*
X022331Y018495D01*
X022209Y018495D01*
X022097Y018541D01*
X022011Y018627D01*
X021965Y018739D01*
X021965Y018861D01*
X022011Y018973D01*
X022060Y019021D01*
X022060Y019971D01*
X022023Y019934D01*
X021856Y019864D01*
X021675Y019864D01*
X021508Y019934D01*
X021380Y020062D01*
X021310Y020229D01*
X021310Y020410D01*
X021380Y020577D01*
X021413Y020610D01*
X021118Y020610D01*
X021151Y020577D01*
X021220Y020410D01*
X021220Y020229D01*
X021151Y020062D01*
X021023Y019934D01*
X020856Y019864D01*
X020675Y019864D01*
X020508Y019934D01*
X020380Y020062D01*
X020310Y020229D01*
X020310Y020410D01*
X020380Y020577D01*
X020413Y020610D01*
X020118Y020610D01*
X020151Y020577D01*
X020220Y020410D01*
X020220Y020229D01*
X020151Y020062D01*
X020023Y019934D01*
X019856Y019864D01*
X019675Y019864D01*
X019508Y019934D01*
X019380Y020062D01*
X019310Y020229D01*
X019310Y020410D01*
X019380Y020577D01*
X019413Y020610D01*
X019118Y020610D01*
X019151Y020577D01*
X019220Y020410D01*
X019220Y020229D01*
X019151Y020062D01*
X019023Y019934D01*
X018856Y019864D01*
X018675Y019864D01*
X018508Y019934D01*
X018380Y020062D01*
X018310Y020229D01*
X018310Y020410D01*
X018380Y020577D01*
X018413Y020610D01*
X018118Y020610D01*
X018151Y020577D01*
X018220Y020410D01*
X018220Y020229D01*
X018151Y020062D01*
X018023Y019934D01*
X017856Y019864D01*
X017675Y019864D01*
X017508Y019934D01*
X017380Y020062D01*
X017310Y020229D01*
X017310Y020410D01*
X017380Y020577D01*
X017413Y020610D01*
X017118Y020610D01*
X017151Y020577D01*
X017220Y020410D01*
X017220Y020229D01*
X017151Y020062D01*
X017023Y019934D01*
X016856Y019864D01*
X016675Y019864D01*
X016508Y019934D01*
X016380Y020062D01*
X016310Y020229D01*
X016310Y020410D01*
X016380Y020577D01*
X016413Y020610D01*
X016141Y020610D01*
X016172Y020568D01*
X016205Y020502D01*
X016229Y020431D01*
X016238Y020369D01*
X015815Y020369D01*
X015815Y020269D01*
X015815Y019846D01*
X015877Y019856D01*
X015948Y019879D01*
X016014Y019913D01*
X016075Y019957D01*
X016128Y020010D01*
X016172Y020070D01*
X016205Y020137D01*
X016229Y020208D01*
X016238Y020269D01*
X015815Y020269D01*
X015715Y020269D01*
X015715Y019846D01*
X015654Y019856D01*
X015583Y019879D01*
X015516Y019913D01*
X015456Y019957D01*
X015403Y020010D01*
X015359Y020070D01*
X015325Y020137D01*
X015302Y020208D01*
X015292Y020269D01*
X015715Y020269D01*
X015715Y020369D01*
X015292Y020369D01*
X015302Y020431D01*
X015325Y020502D01*
X015359Y020568D01*
X015389Y020610D01*
X015118Y020610D01*
X015151Y020577D01*
X015220Y020410D01*
X015220Y020229D01*
X015151Y020062D01*
X015023Y019934D01*
X014856Y019864D01*
X014675Y019864D01*
X014508Y019934D01*
X014380Y020062D01*
X014310Y020229D01*
X014310Y020410D01*
X014380Y020577D01*
X014508Y020705D01*
X014557Y020725D01*
X014553Y020768D01*
X014560Y020776D01*
X014560Y020787D01*
X014615Y020842D01*
X014644Y020877D01*
X014508Y020934D01*
X014023Y020934D01*
X014151Y021062D01*
X014220Y021229D01*
X014310Y021229D01*
X014380Y021062D01*
X014508Y020934D01*
X014409Y021032D02*
X014122Y021032D01*
X014180Y021131D02*
X014351Y021131D01*
X014310Y021229D02*
X014310Y021410D01*
X014380Y021577D01*
X014443Y021640D01*
X014088Y021640D01*
X014151Y021577D01*
X014220Y021410D01*
X014220Y021229D01*
X014220Y021328D02*
X014310Y021328D01*
X014317Y021426D02*
X014214Y021426D01*
X014173Y021525D02*
X014358Y021525D01*
X014426Y021623D02*
X014105Y021623D01*
X013383Y022060D02*
X013260Y021937D01*
X013060Y021737D01*
X013060Y021692D01*
X013014Y021726D01*
X012948Y021759D01*
X012877Y021783D01*
X012815Y021792D01*
X012815Y021369D01*
X012715Y021369D01*
X012715Y021269D01*
X012815Y021269D01*
X012815Y020846D01*
X012877Y020856D01*
X012948Y020879D01*
X013014Y020913D01*
X013060Y020946D01*
X013060Y020911D01*
X012904Y020755D01*
X012856Y020774D01*
X012675Y020774D01*
X012508Y020705D01*
X012380Y020577D01*
X012310Y020410D01*
X012310Y020229D01*
X012380Y020062D01*
X012508Y019934D01*
X012675Y019864D01*
X012856Y019864D01*
X013023Y019934D01*
X013151Y020062D01*
X013220Y020229D01*
X013220Y020410D01*
X013201Y020458D01*
X013357Y020614D01*
X013480Y020737D01*
X013480Y020961D01*
X013508Y020934D01*
X013480Y020934D01*
X013508Y020934D02*
X013675Y020864D01*
X013856Y020864D01*
X014023Y020934D01*
X013947Y020737D02*
X014556Y020737D01*
X014608Y020835D02*
X013480Y020835D01*
X013480Y020737D02*
X013584Y020737D01*
X013508Y020705D02*
X013380Y020577D01*
X013310Y020410D01*
X013310Y020229D01*
X013380Y020062D01*
X013508Y019934D01*
X013675Y019864D01*
X013856Y019864D01*
X014023Y019934D01*
X014151Y020062D01*
X014220Y020229D01*
X014220Y020410D01*
X014151Y020577D01*
X014023Y020705D01*
X013856Y020774D01*
X013675Y020774D01*
X013508Y020705D01*
X013441Y020638D02*
X013381Y020638D01*
X013364Y020540D02*
X013283Y020540D01*
X013323Y020441D02*
X013207Y020441D01*
X013220Y020343D02*
X013310Y020343D01*
X013310Y020244D02*
X013220Y020244D01*
X013186Y020146D02*
X013345Y020146D01*
X013394Y020047D02*
X013137Y020047D01*
X013038Y019949D02*
X013493Y019949D01*
X014038Y019949D02*
X014493Y019949D01*
X014394Y020047D02*
X014137Y020047D01*
X014186Y020146D02*
X014345Y020146D01*
X014310Y020244D02*
X014220Y020244D01*
X014220Y020343D02*
X014310Y020343D01*
X014323Y020441D02*
X014207Y020441D01*
X014167Y020540D02*
X014364Y020540D01*
X014441Y020638D02*
X014090Y020638D01*
X013060Y020934D02*
X013042Y020934D01*
X012984Y020835D02*
X011902Y020835D01*
X011868Y020869D02*
X012023Y020934D01*
X012151Y021062D01*
X012220Y021229D01*
X012299Y021229D01*
X012302Y021208D02*
X012325Y021137D01*
X012359Y021070D01*
X012403Y021010D01*
X012456Y020957D01*
X012516Y020913D01*
X012583Y020879D01*
X012654Y020856D01*
X012715Y020846D01*
X012715Y021269D01*
X012292Y021269D01*
X012302Y021208D01*
X012328Y021131D02*
X012180Y021131D01*
X012220Y021229D02*
X012220Y021410D01*
X012151Y021577D01*
X012023Y021705D01*
X011856Y021774D01*
X011675Y021774D01*
X011508Y021705D01*
X011380Y021577D01*
X011310Y021410D01*
X011310Y021229D01*
X011220Y021229D01*
X011220Y021410D01*
X011151Y021577D01*
X011023Y021705D01*
X010856Y021774D01*
X010675Y021774D01*
X010508Y021705D01*
X010380Y021577D01*
X010310Y021410D01*
X010310Y021229D01*
X010232Y021229D01*
X010229Y021208D02*
X010238Y021269D01*
X009815Y021269D01*
X009815Y021369D01*
X009715Y021369D01*
X009715Y021269D01*
X009292Y021269D01*
X009302Y021208D01*
X009325Y021137D01*
X009359Y021070D01*
X009388Y021030D01*
X009119Y021030D01*
X009151Y021062D01*
X009220Y021229D01*
X009299Y021229D01*
X009220Y021229D02*
X009220Y021410D01*
X009151Y021577D01*
X009023Y021705D01*
X008856Y021774D01*
X008675Y021774D01*
X008508Y021705D01*
X008380Y021577D01*
X008310Y021410D01*
X008310Y021229D01*
X008220Y021229D01*
X008220Y021410D01*
X008151Y021577D01*
X008023Y021705D01*
X007856Y021774D01*
X007675Y021774D01*
X007508Y021705D01*
X007380Y021577D01*
X007310Y021410D01*
X007310Y021229D01*
X007220Y021229D01*
X007220Y021410D01*
X007151Y021577D01*
X007023Y021705D01*
X006856Y021774D01*
X006675Y021774D01*
X006508Y021705D01*
X006380Y021577D01*
X006310Y021410D01*
X006310Y021229D01*
X006232Y021229D01*
X006229Y021208D02*
X006238Y021269D01*
X005815Y021269D01*
X005815Y021369D01*
X005715Y021369D01*
X005715Y021269D01*
X005292Y021269D01*
X005302Y021208D01*
X005325Y021137D01*
X005359Y021070D01*
X005388Y021030D01*
X005119Y021030D01*
X005151Y021062D01*
X005220Y021229D01*
X005299Y021229D01*
X005220Y021229D02*
X005220Y021410D01*
X005151Y021577D01*
X005023Y021705D01*
X004856Y021774D01*
X004675Y021774D01*
X004508Y021705D01*
X004380Y021577D01*
X004360Y021529D01*
X004171Y021529D01*
X004151Y021577D01*
X004023Y021705D01*
X003856Y021774D01*
X003675Y021774D01*
X003508Y021705D01*
X003380Y021577D01*
X003310Y021410D01*
X003310Y021229D01*
X003046Y021229D01*
X003042Y021254D02*
X003118Y020819D01*
X003042Y020385D01*
X002821Y020003D01*
X002483Y019719D01*
X002069Y019568D01*
X001627Y019568D01*
X001213Y019719D01*
X000875Y020003D01*
X000654Y020385D01*
X000605Y020663D01*
X000605Y019466D01*
X000647Y019509D01*
X000759Y019555D01*
X000828Y019555D01*
X000833Y019560D01*
X001407Y019560D01*
X001557Y019410D01*
X001680Y019287D01*
X001680Y018810D01*
X003433Y018810D01*
X003555Y018932D01*
X003555Y019864D01*
X003386Y019864D01*
X003310Y019940D01*
X003310Y020698D01*
X003386Y020774D01*
X003627Y020774D01*
X003717Y020864D01*
X003675Y020864D01*
X003508Y020934D01*
X003098Y020934D01*
X003081Y021032D02*
X003409Y021032D01*
X003380Y021062D02*
X003508Y020934D01*
X003380Y021062D02*
X003310Y021229D01*
X003310Y021328D02*
X002999Y021328D01*
X003042Y021254D02*
X002821Y021636D01*
X002483Y021920D01*
X002091Y022062D01*
X024439Y022062D01*
X024047Y021920D01*
X023709Y021636D01*
X023489Y021254D01*
X023480Y021204D01*
X023480Y021687D01*
X023357Y021810D01*
X023107Y022060D01*
X013383Y022060D01*
X013340Y022017D02*
X002215Y022017D01*
X002484Y021919D02*
X013242Y021919D01*
X013143Y021820D02*
X002602Y021820D01*
X002719Y021722D02*
X003547Y021722D01*
X003426Y021623D02*
X002829Y021623D01*
X002885Y021525D02*
X003358Y021525D01*
X003317Y021426D02*
X002942Y021426D01*
X003064Y021131D02*
X003351Y021131D01*
X003116Y020835D02*
X003688Y020835D01*
X003349Y020737D02*
X003104Y020737D01*
X003086Y020638D02*
X003310Y020638D01*
X003310Y020540D02*
X003069Y020540D01*
X003052Y020441D02*
X003310Y020441D01*
X003310Y020343D02*
X003017Y020343D01*
X002961Y020244D02*
X003310Y020244D01*
X003310Y020146D02*
X002904Y020146D01*
X002847Y020047D02*
X003310Y020047D01*
X003310Y019949D02*
X002757Y019949D01*
X002639Y019850D02*
X003555Y019850D01*
X003555Y019752D02*
X002522Y019752D01*
X002302Y019653D02*
X003555Y019653D01*
X003555Y019555D02*
X001412Y019555D01*
X001394Y019653D02*
X000605Y019653D01*
X000605Y019555D02*
X000758Y019555D01*
X000605Y019752D02*
X001174Y019752D01*
X001057Y019850D02*
X000605Y019850D01*
X000605Y019949D02*
X000939Y019949D01*
X000849Y020047D02*
X000605Y020047D01*
X000605Y020146D02*
X000792Y020146D01*
X000735Y020244D02*
X000605Y020244D01*
X000605Y020343D02*
X000678Y020343D01*
X000644Y020441D02*
X000605Y020441D01*
X000605Y020540D02*
X000627Y020540D01*
X000609Y020638D02*
X000605Y020638D01*
X001511Y019456D02*
X003555Y019456D01*
X003555Y019358D02*
X001609Y019358D01*
X001680Y019259D02*
X003555Y019259D01*
X003555Y019161D02*
X001680Y019161D01*
X001680Y019062D02*
X003555Y019062D01*
X003555Y018964D02*
X001680Y018964D01*
X001680Y018865D02*
X003488Y018865D01*
X003787Y018570D02*
X004344Y018570D01*
X004361Y018527D02*
X004315Y018639D01*
X004315Y018761D01*
X004361Y018873D01*
X004447Y018959D01*
X004559Y019005D01*
X004681Y019005D01*
X004793Y018959D01*
X004841Y018910D01*
X010099Y018910D01*
X010147Y018959D01*
X010259Y019005D01*
X010381Y019005D01*
X010493Y018959D01*
X010541Y018910D01*
X015149Y018910D01*
X015197Y018959D01*
X015309Y019005D01*
X015431Y019005D01*
X015543Y018959D01*
X015591Y018910D01*
X020149Y018910D01*
X020197Y018959D01*
X020309Y019005D01*
X020431Y019005D01*
X020543Y018959D01*
X020591Y018910D01*
X021407Y018910D01*
X021530Y018787D01*
X021530Y018787D01*
X021557Y018760D01*
X021584Y018733D01*
X021643Y018709D01*
X021729Y018623D01*
X021775Y018511D01*
X021775Y018389D01*
X021729Y018277D01*
X021680Y018229D01*
X021680Y016273D01*
X021592Y016185D01*
X021730Y016047D01*
X021730Y013791D01*
X021779Y013743D01*
X021825Y013631D01*
X021825Y013509D01*
X021779Y013397D01*
X021730Y013349D01*
X021730Y011201D01*
X021779Y011153D01*
X021825Y011041D01*
X021825Y010919D01*
X021779Y010807D01*
X021730Y010759D01*
X021730Y009061D01*
X021734Y009056D01*
X021730Y008974D01*
X021730Y008811D01*
X021779Y008763D01*
X021825Y008651D01*
X021825Y008529D01*
X021779Y008417D01*
X021730Y008369D01*
X021730Y006321D01*
X021779Y006273D01*
X021825Y006161D01*
X021825Y006039D01*
X021779Y005927D01*
X021730Y005879D01*
X021730Y004131D01*
X021779Y004083D01*
X021825Y003971D01*
X021825Y003849D01*
X021779Y003737D01*
X021730Y003689D01*
X021730Y001583D01*
X021630Y001483D01*
X021630Y001483D01*
X021507Y001360D01*
X021080Y001360D01*
X021080Y000831D01*
X021129Y000783D01*
X021175Y000671D01*
X021175Y000549D01*
X021129Y000437D01*
X021043Y000351D01*
X020931Y000305D01*
X020809Y000305D01*
X020697Y000351D01*
X020611Y000437D01*
X020565Y000549D01*
X020565Y000671D01*
X020611Y000783D01*
X020660Y000831D01*
X020660Y001360D01*
X018791Y001360D01*
X018743Y001311D01*
X018631Y001265D01*
X018509Y001265D01*
X018397Y001311D01*
X018349Y001360D01*
X016080Y001360D01*
X016080Y000831D01*
X016129Y000783D01*
X016175Y000671D01*
X016175Y000549D01*
X016129Y000437D01*
X016043Y000351D01*
X015931Y000305D01*
X015809Y000305D01*
X015697Y000351D01*
X015611Y000437D01*
X015565Y000549D01*
X015565Y000671D01*
X015611Y000783D01*
X015660Y000831D01*
X015660Y001360D01*
X013691Y001360D01*
X013643Y001311D01*
X013531Y001265D01*
X013409Y001265D01*
X013297Y001311D01*
X013249Y001360D01*
X011080Y001360D01*
X011080Y000831D01*
X011129Y000783D01*
X011175Y000671D01*
X011175Y000549D01*
X011129Y000437D01*
X011043Y000351D01*
X010931Y000305D01*
X010809Y000305D01*
X010697Y000351D01*
X010611Y000437D01*
X010565Y000549D01*
X010565Y000671D01*
X010611Y000783D01*
X010660Y000831D01*
X010660Y001360D01*
X008791Y001360D01*
X008743Y001311D01*
X008631Y001265D01*
X008509Y001265D01*
X008397Y001311D01*
X008349Y001360D01*
X006080Y001360D01*
X006080Y000831D01*
X006129Y000783D01*
X006175Y000671D01*
X006175Y000549D01*
X006129Y000437D01*
X006043Y000351D01*
X005931Y000305D01*
X005809Y000305D01*
X005697Y000351D01*
X005611Y000437D01*
X005565Y000549D01*
X005565Y000671D01*
X005611Y000783D01*
X005660Y000831D01*
X005660Y001557D01*
X005673Y001570D01*
X005660Y001583D01*
X005660Y001839D01*
X005611Y001887D01*
X005565Y001999D01*
X005565Y002121D01*
X005611Y002233D01*
X005697Y002319D01*
X005809Y002365D01*
X005931Y002365D01*
X006043Y002319D01*
X006129Y002233D01*
X006175Y002121D01*
X006175Y001999D01*
X006129Y001887D01*
X006080Y001839D01*
X006080Y001780D01*
X008349Y001780D01*
X008397Y001829D01*
X008509Y001875D01*
X008631Y001875D01*
X008743Y001829D01*
X008791Y001780D01*
X010660Y001780D01*
X010660Y001789D01*
X010611Y001837D01*
X010565Y001949D01*
X010565Y002071D01*
X010611Y002183D01*
X010697Y002269D01*
X010809Y002315D01*
X010931Y002315D01*
X011043Y002269D01*
X011129Y002183D01*
X011175Y002071D01*
X011175Y001949D01*
X011129Y001837D01*
X011089Y001798D01*
X011107Y001780D01*
X013249Y001780D01*
X013297Y001829D01*
X013409Y001875D01*
X013531Y001875D01*
X013643Y001829D01*
X013691Y001780D01*
X015660Y001780D01*
X015660Y001839D01*
X015611Y001887D01*
X015565Y001999D01*
X015565Y002121D01*
X015611Y002233D01*
X015697Y002319D01*
X015809Y002365D01*
X015931Y002365D01*
X016043Y002319D01*
X016129Y002233D01*
X016175Y002121D01*
X016175Y001999D01*
X016129Y001887D01*
X016080Y001839D01*
X016080Y001807D01*
X016107Y001780D01*
X018349Y001780D01*
X018397Y001829D01*
X018509Y001875D01*
X018631Y001875D01*
X018743Y001829D01*
X018791Y001780D01*
X021310Y001780D01*
X021310Y003689D01*
X021261Y003737D01*
X021235Y003800D01*
X020591Y003800D01*
X020543Y003751D01*
X020431Y003705D01*
X020309Y003705D01*
X020197Y003751D01*
X020149Y003800D01*
X018741Y003800D01*
X018693Y003751D01*
X018581Y003705D01*
X018459Y003705D01*
X018347Y003751D01*
X018299Y003800D01*
X015641Y003800D01*
X015593Y003751D01*
X015481Y003705D01*
X015359Y003705D01*
X015247Y003751D01*
X015199Y003800D01*
X013791Y003800D01*
X013743Y003751D01*
X013631Y003705D01*
X013509Y003705D01*
X013397Y003751D01*
X013349Y003800D01*
X010641Y003800D01*
X010593Y003751D01*
X010481Y003705D01*
X010359Y003705D01*
X010247Y003751D01*
X010199Y003800D01*
X008741Y003800D01*
X008693Y003751D01*
X008581Y003705D01*
X008459Y003705D01*
X008347Y003751D01*
X008299Y003800D01*
X005283Y003800D01*
X005178Y003905D01*
X005159Y003905D01*
X005047Y003951D01*
X004961Y004037D01*
X004915Y004149D01*
X004915Y004271D01*
X004961Y004383D01*
X005010Y004431D01*
X005010Y006387D01*
X005056Y006433D01*
X005011Y006477D01*
X004965Y006589D01*
X004965Y006711D01*
X005011Y006823D01*
X005060Y006871D01*
X005060Y008859D01*
X005011Y008907D01*
X004965Y009019D01*
X004965Y009141D01*
X005011Y009253D01*
X005060Y009301D01*
X005060Y011317D01*
X005115Y011372D01*
X005115Y011441D01*
X005161Y011553D01*
X005247Y011639D01*
X005359Y011685D01*
X005481Y011685D01*
X005593Y011639D01*
X005641Y011590D01*
X008349Y011590D01*
X008397Y011639D01*
X008509Y011685D01*
X008631Y011685D01*
X008743Y011639D01*
X008791Y011590D01*
X010149Y011590D01*
X010197Y011639D01*
X010309Y011685D01*
X010431Y011685D01*
X010543Y011639D01*
X010591Y011590D01*
X013299Y011590D01*
X013347Y011639D01*
X013459Y011685D01*
X013581Y011685D01*
X013693Y011639D01*
X013741Y011590D01*
X015149Y011590D01*
X015197Y011639D01*
X015309Y011685D01*
X015431Y011685D01*
X015543Y011639D01*
X015591Y011590D01*
X018299Y011590D01*
X018347Y011639D01*
X018459Y011685D01*
X018581Y011685D01*
X018693Y011639D01*
X018741Y011590D01*
X020149Y011590D01*
X020197Y011639D01*
X020309Y011685D01*
X020431Y011685D01*
X020543Y011639D01*
X020591Y011590D01*
X021310Y011590D01*
X021310Y013349D01*
X021261Y013397D01*
X021215Y013509D01*
X021215Y013560D01*
X020641Y013560D01*
X020593Y013511D01*
X020481Y013465D01*
X020359Y013465D01*
X020247Y013511D01*
X020199Y013560D01*
X018741Y013560D01*
X018693Y013511D01*
X018581Y013465D01*
X018459Y013465D01*
X018347Y013511D01*
X018299Y013560D01*
X015591Y013560D01*
X015543Y013511D01*
X015431Y013465D01*
X015309Y013465D01*
X015197Y013511D01*
X015149Y013560D01*
X013691Y013560D01*
X013643Y013511D01*
X013531Y013465D01*
X013409Y013465D01*
X013297Y013511D01*
X013249Y013560D01*
X010591Y013560D01*
X010543Y013511D01*
X010431Y013465D01*
X010309Y013465D01*
X010197Y013511D01*
X010149Y013560D01*
X008741Y013560D01*
X008693Y013511D01*
X008581Y013465D01*
X008459Y013465D01*
X008347Y013511D01*
X008299Y013560D01*
X005333Y013560D01*
X005228Y013665D01*
X005209Y013665D01*
X005097Y013711D01*
X005011Y013797D01*
X004965Y013909D01*
X004965Y014031D01*
X005011Y014143D01*
X005060Y014191D01*
X005060Y016197D01*
X005065Y016202D01*
X005065Y016271D01*
X005111Y016383D01*
X005197Y016469D01*
X005309Y016515D01*
X005431Y016515D01*
X005543Y016469D01*
X005591Y016420D01*
X008199Y016420D01*
X008247Y016469D01*
X008359Y016515D01*
X008481Y016515D01*
X008593Y016469D01*
X008641Y016420D01*
X010099Y016420D01*
X010147Y016469D01*
X010259Y016515D01*
X010381Y016515D01*
X010493Y016469D01*
X010541Y016420D01*
X013249Y016420D01*
X013297Y016469D01*
X013409Y016515D01*
X013531Y016515D01*
X013643Y016469D01*
X013691Y016420D01*
X015149Y016420D01*
X015197Y016469D01*
X015309Y016515D01*
X015431Y016515D01*
X015543Y016469D01*
X015591Y016420D01*
X018299Y016420D01*
X018347Y016469D01*
X018459Y016515D01*
X018581Y016515D01*
X018693Y016469D01*
X018741Y016420D01*
X020149Y016420D01*
X020197Y016469D01*
X020309Y016515D01*
X020431Y016515D01*
X020543Y016469D01*
X020591Y016420D01*
X021049Y016420D01*
X021097Y016469D01*
X021209Y016515D01*
X021260Y016515D01*
X021260Y018229D01*
X021211Y018277D01*
X021165Y018389D01*
X021165Y018490D01*
X020591Y018490D01*
X020543Y018441D01*
X020431Y018395D01*
X020309Y018395D01*
X020197Y018441D01*
X020149Y018490D01*
X015591Y018490D01*
X015543Y018441D01*
X015431Y018395D01*
X015309Y018395D01*
X015197Y018441D01*
X015149Y018490D01*
X010541Y018490D01*
X010493Y018441D01*
X010381Y018395D01*
X010259Y018395D01*
X010147Y018441D01*
X010099Y018490D01*
X004841Y018490D01*
X004793Y018441D01*
X004681Y018395D01*
X004559Y018395D01*
X004447Y018441D01*
X004361Y018527D01*
X004418Y018471D02*
X003688Y018471D01*
X003680Y018463D02*
X003852Y018635D01*
X003975Y018758D01*
X003975Y019864D01*
X004144Y019864D01*
X004220Y019940D01*
X004220Y020610D01*
X004413Y020610D01*
X004380Y020577D01*
X004310Y020410D01*
X004310Y020229D01*
X004380Y020062D01*
X004508Y019934D01*
X004675Y019864D01*
X004856Y019864D01*
X005023Y019934D01*
X005151Y020062D01*
X005220Y020229D01*
X005220Y020410D01*
X005151Y020577D01*
X005118Y020610D01*
X005413Y020610D01*
X005380Y020577D01*
X005310Y020410D01*
X005310Y020229D01*
X005380Y020062D01*
X005508Y019934D01*
X005675Y019864D01*
X005856Y019864D01*
X006023Y019934D01*
X006151Y020062D01*
X006220Y020229D01*
X006220Y020410D01*
X006151Y020577D01*
X006118Y020610D01*
X006413Y020610D01*
X006380Y020577D01*
X006310Y020410D01*
X006310Y020229D01*
X006380Y020062D01*
X006508Y019934D01*
X006675Y019864D01*
X006856Y019864D01*
X007023Y019934D01*
X007151Y020062D01*
X007220Y020229D01*
X007220Y020410D01*
X007151Y020577D01*
X007118Y020610D01*
X007389Y020610D01*
X007359Y020568D01*
X007325Y020502D01*
X007302Y020431D01*
X007292Y020369D01*
X007715Y020369D01*
X007715Y020269D01*
X007815Y020269D01*
X007815Y019846D01*
X007877Y019856D01*
X007948Y019879D01*
X008014Y019913D01*
X008075Y019957D01*
X008128Y020010D01*
X008172Y020070D01*
X008205Y020137D01*
X008229Y020208D01*
X008238Y020269D01*
X007815Y020269D01*
X007815Y020369D01*
X008238Y020369D01*
X008229Y020431D01*
X008205Y020502D01*
X008172Y020568D01*
X008141Y020610D01*
X008413Y020610D01*
X008380Y020577D01*
X008310Y020410D01*
X008310Y020229D01*
X008380Y020062D01*
X008508Y019934D01*
X008675Y019864D01*
X008856Y019864D01*
X009023Y019934D01*
X009151Y020062D01*
X009220Y020229D01*
X009220Y020410D01*
X009151Y020577D01*
X009118Y020610D01*
X009413Y020610D01*
X009380Y020577D01*
X009310Y020410D01*
X009310Y020229D01*
X009380Y020062D01*
X009508Y019934D01*
X009675Y019864D01*
X009856Y019864D01*
X010023Y019934D01*
X010151Y020062D01*
X010220Y020229D01*
X010220Y020410D01*
X010151Y020577D01*
X010118Y020610D01*
X010413Y020610D01*
X010380Y020577D01*
X010310Y020410D01*
X010310Y020229D01*
X010380Y020062D01*
X010508Y019934D01*
X010675Y019864D01*
X010856Y019864D01*
X011023Y019934D01*
X011151Y020062D01*
X011220Y020229D01*
X011220Y020410D01*
X011151Y020577D01*
X011118Y020610D01*
X011413Y020610D01*
X011380Y020577D01*
X011310Y020410D01*
X011310Y020229D01*
X011380Y020062D01*
X011508Y019934D01*
X011675Y019864D01*
X011856Y019864D01*
X012023Y019934D01*
X012151Y020062D01*
X012220Y020229D01*
X012220Y020410D01*
X012151Y020577D01*
X012023Y020705D01*
X011980Y020723D01*
X011980Y020757D01*
X011868Y020869D01*
X012023Y020934D02*
X012488Y020934D01*
X012387Y021032D02*
X012122Y021032D01*
X012220Y021328D02*
X012715Y021328D01*
X012715Y021369D02*
X012292Y021369D01*
X012302Y021431D01*
X012325Y021502D01*
X012359Y021568D01*
X012403Y021629D01*
X012456Y021682D01*
X012516Y021726D01*
X012583Y021759D01*
X012654Y021783D01*
X012715Y021792D01*
X012715Y021369D01*
X012715Y021426D02*
X012815Y021426D01*
X012815Y021525D02*
X012715Y021525D01*
X012715Y021623D02*
X012815Y021623D01*
X012815Y021722D02*
X012715Y021722D01*
X012511Y021722D02*
X011983Y021722D01*
X012105Y021623D02*
X012399Y021623D01*
X012337Y021525D02*
X012173Y021525D01*
X012214Y021426D02*
X012301Y021426D01*
X012715Y021229D02*
X012815Y021229D01*
X012815Y021131D02*
X012715Y021131D01*
X012715Y021032D02*
X012815Y021032D01*
X012815Y020934D02*
X012715Y020934D01*
X012584Y020737D02*
X011980Y020737D01*
X012090Y020638D02*
X012441Y020638D01*
X012364Y020540D02*
X012167Y020540D01*
X012207Y020441D02*
X012323Y020441D01*
X012310Y020343D02*
X012220Y020343D01*
X012220Y020244D02*
X012310Y020244D01*
X012345Y020146D02*
X012186Y020146D01*
X012137Y020047D02*
X012394Y020047D01*
X012493Y019949D02*
X012038Y019949D01*
X011493Y019949D02*
X011038Y019949D01*
X011137Y020047D02*
X011394Y020047D01*
X011345Y020146D02*
X011186Y020146D01*
X011220Y020244D02*
X011310Y020244D01*
X011310Y020343D02*
X011220Y020343D01*
X011207Y020441D02*
X011323Y020441D01*
X011364Y020540D02*
X011167Y020540D01*
X010493Y019949D02*
X010038Y019949D01*
X010137Y020047D02*
X010394Y020047D01*
X010345Y020146D02*
X010186Y020146D01*
X010220Y020244D02*
X010310Y020244D01*
X010310Y020343D02*
X010220Y020343D01*
X010207Y020441D02*
X010323Y020441D01*
X010364Y020540D02*
X010167Y020540D01*
X009493Y019949D02*
X009038Y019949D01*
X009137Y020047D02*
X009394Y020047D01*
X009345Y020146D02*
X009186Y020146D01*
X009220Y020244D02*
X009310Y020244D01*
X009310Y020343D02*
X009220Y020343D01*
X009207Y020441D02*
X009323Y020441D01*
X009364Y020540D02*
X009167Y020540D01*
X008493Y019949D02*
X008063Y019949D01*
X008155Y020047D02*
X008394Y020047D01*
X008345Y020146D02*
X008208Y020146D01*
X008234Y020244D02*
X008310Y020244D01*
X008310Y020343D02*
X007815Y020343D01*
X007815Y020244D02*
X007715Y020244D01*
X007715Y020269D02*
X007715Y019846D01*
X007654Y019856D01*
X007583Y019879D01*
X007516Y019913D01*
X007456Y019957D01*
X007403Y020010D01*
X007359Y020070D01*
X007325Y020137D01*
X007302Y020208D01*
X007292Y020269D01*
X007715Y020269D01*
X007715Y020343D02*
X007220Y020343D01*
X007207Y020441D02*
X007305Y020441D01*
X007344Y020540D02*
X007167Y020540D01*
X007220Y020244D02*
X007296Y020244D01*
X007322Y020146D02*
X007186Y020146D01*
X007137Y020047D02*
X007376Y020047D01*
X007467Y019949D02*
X007038Y019949D01*
X006493Y019949D02*
X006038Y019949D01*
X006137Y020047D02*
X006394Y020047D01*
X006345Y020146D02*
X006186Y020146D01*
X006220Y020244D02*
X006310Y020244D01*
X006310Y020343D02*
X006220Y020343D01*
X006207Y020441D02*
X006323Y020441D01*
X006364Y020540D02*
X006167Y020540D01*
X006142Y021030D02*
X006172Y021070D01*
X006205Y021137D01*
X006229Y021208D01*
X006202Y021131D02*
X006351Y021131D01*
X006380Y021062D02*
X006411Y021030D01*
X006142Y021030D01*
X006144Y021032D02*
X006409Y021032D01*
X006380Y021062D02*
X006310Y021229D01*
X006310Y021328D02*
X005815Y021328D01*
X005815Y021369D02*
X006238Y021369D01*
X006229Y021431D01*
X006205Y021502D01*
X006172Y021568D01*
X006128Y021629D01*
X006075Y021682D01*
X006014Y021726D01*
X005948Y021759D01*
X005877Y021783D01*
X005815Y021792D01*
X005815Y021369D01*
X005815Y021426D02*
X005715Y021426D01*
X005715Y021369D02*
X005715Y021792D01*
X005654Y021783D01*
X005583Y021759D01*
X005516Y021726D01*
X005456Y021682D01*
X005403Y021629D01*
X005359Y021568D01*
X005325Y021502D01*
X005302Y021431D01*
X005292Y021369D01*
X005715Y021369D01*
X005715Y021328D02*
X005220Y021328D01*
X005214Y021426D02*
X005301Y021426D01*
X005337Y021525D02*
X005173Y021525D01*
X005105Y021623D02*
X005399Y021623D01*
X005511Y021722D02*
X004983Y021722D01*
X004547Y021722D02*
X003983Y021722D01*
X004105Y021623D02*
X004426Y021623D01*
X005180Y021131D02*
X005328Y021131D01*
X005387Y021032D02*
X005122Y021032D01*
X005715Y021525D02*
X005815Y021525D01*
X005815Y021623D02*
X005715Y021623D01*
X005715Y021722D02*
X005815Y021722D01*
X006020Y021722D02*
X006547Y021722D01*
X006426Y021623D02*
X006132Y021623D01*
X006194Y021525D02*
X006358Y021525D01*
X006317Y021426D02*
X006229Y021426D01*
X006983Y021722D02*
X007547Y021722D01*
X007426Y021623D02*
X007105Y021623D01*
X007173Y021525D02*
X007358Y021525D01*
X007317Y021426D02*
X007214Y021426D01*
X007220Y021328D02*
X007310Y021328D01*
X007310Y021229D02*
X007380Y021062D01*
X007411Y021030D01*
X007119Y021030D01*
X007151Y021062D01*
X007220Y021229D01*
X007180Y021131D02*
X007351Y021131D01*
X007409Y021032D02*
X007122Y021032D01*
X008119Y021030D02*
X008151Y021062D01*
X008220Y021229D01*
X008310Y021229D02*
X008380Y021062D01*
X008411Y021030D01*
X008119Y021030D01*
X008122Y021032D02*
X008409Y021032D01*
X008351Y021131D02*
X008180Y021131D01*
X008220Y021328D02*
X008310Y021328D01*
X008317Y021426D02*
X008214Y021426D01*
X008173Y021525D02*
X008358Y021525D01*
X008426Y021623D02*
X008105Y021623D01*
X007983Y021722D02*
X008547Y021722D01*
X008983Y021722D02*
X009511Y021722D01*
X009516Y021726D02*
X009456Y021682D01*
X009403Y021629D01*
X009359Y021568D01*
X009325Y021502D01*
X009302Y021431D01*
X009292Y021369D01*
X009715Y021369D01*
X009715Y021792D01*
X009654Y021783D01*
X009583Y021759D01*
X009516Y021726D01*
X009399Y021623D02*
X009105Y021623D01*
X009173Y021525D02*
X009337Y021525D01*
X009301Y021426D02*
X009214Y021426D01*
X009220Y021328D02*
X009715Y021328D01*
X009715Y021426D02*
X009815Y021426D01*
X009815Y021369D02*
X009815Y021792D01*
X009877Y021783D01*
X009948Y021759D01*
X010014Y021726D01*
X010075Y021682D01*
X010128Y021629D01*
X010172Y021568D01*
X010205Y021502D01*
X010229Y021431D01*
X010238Y021369D01*
X009815Y021369D01*
X009815Y021328D02*
X010310Y021328D01*
X010317Y021426D02*
X010229Y021426D01*
X010194Y021525D02*
X010358Y021525D01*
X010426Y021623D02*
X010132Y021623D01*
X010020Y021722D02*
X010547Y021722D01*
X010983Y021722D02*
X011547Y021722D01*
X011426Y021623D02*
X011105Y021623D01*
X011173Y021525D02*
X011358Y021525D01*
X011317Y021426D02*
X011214Y021426D01*
X011220Y021328D02*
X011310Y021328D01*
X011310Y021229D02*
X011380Y021062D01*
X011411Y021030D01*
X011119Y021030D01*
X011151Y021062D01*
X011220Y021229D01*
X011180Y021131D02*
X011351Y021131D01*
X011409Y021032D02*
X011122Y021032D01*
X010411Y021030D02*
X010142Y021030D01*
X010172Y021070D01*
X010205Y021137D01*
X010229Y021208D01*
X010202Y021131D02*
X010351Y021131D01*
X010380Y021062D02*
X010411Y021030D01*
X010409Y021032D02*
X010144Y021032D01*
X010380Y021062D02*
X010310Y021229D01*
X009815Y021525D02*
X009715Y021525D01*
X009715Y021623D02*
X009815Y021623D01*
X009815Y021722D02*
X009715Y021722D01*
X009328Y021131D02*
X009180Y021131D01*
X009122Y021032D02*
X009387Y021032D01*
X008364Y020540D02*
X008186Y020540D01*
X008225Y020441D02*
X008323Y020441D01*
X007815Y020146D02*
X007715Y020146D01*
X007715Y020047D02*
X007815Y020047D01*
X007815Y019949D02*
X007715Y019949D01*
X007715Y019850D02*
X007815Y019850D01*
X007839Y019850D02*
X015692Y019850D01*
X015715Y019850D02*
X015815Y019850D01*
X015839Y019850D02*
X022060Y019850D01*
X022060Y019752D02*
X003975Y019752D01*
X003975Y019850D02*
X007692Y019850D01*
X005493Y019949D02*
X005038Y019949D01*
X005137Y020047D02*
X005394Y020047D01*
X005345Y020146D02*
X005186Y020146D01*
X005220Y020244D02*
X005310Y020244D01*
X005310Y020343D02*
X005220Y020343D01*
X005207Y020441D02*
X005323Y020441D01*
X005364Y020540D02*
X005167Y020540D01*
X004493Y019949D02*
X004220Y019949D01*
X004220Y020047D02*
X004394Y020047D01*
X004345Y020146D02*
X004220Y020146D01*
X004220Y020244D02*
X004310Y020244D01*
X004310Y020343D02*
X004220Y020343D01*
X004220Y020441D02*
X004323Y020441D01*
X004364Y020540D02*
X004220Y020540D01*
X003975Y019653D02*
X022060Y019653D01*
X022060Y019555D02*
X003975Y019555D01*
X003975Y019456D02*
X022060Y019456D01*
X022060Y019358D02*
X003975Y019358D01*
X003975Y019259D02*
X022060Y019259D01*
X022060Y019161D02*
X003975Y019161D01*
X003975Y019062D02*
X022060Y019062D01*
X022008Y018964D02*
X020531Y018964D01*
X020209Y018964D02*
X015531Y018964D01*
X015209Y018964D02*
X010481Y018964D01*
X010159Y018964D02*
X004781Y018964D01*
X004459Y018964D02*
X003975Y018964D01*
X003975Y018865D02*
X004358Y018865D01*
X004317Y018767D02*
X003975Y018767D01*
X003885Y018668D02*
X004315Y018668D01*
X004822Y018471D02*
X010118Y018471D01*
X010522Y018471D02*
X015168Y018471D01*
X015572Y018471D02*
X020168Y018471D01*
X020572Y018471D02*
X021165Y018471D01*
X021172Y018373D02*
X003680Y018373D01*
X003680Y018463D02*
X003680Y017421D01*
X003729Y017373D01*
X003775Y017261D01*
X003775Y017139D01*
X003729Y017027D01*
X003643Y016941D01*
X003531Y016895D01*
X021260Y016895D01*
X021260Y016797D02*
X000605Y016797D01*
X000605Y016895D02*
X003409Y016895D01*
X003531Y016895D01*
X003409Y016895D02*
X003297Y016941D01*
X003211Y017027D01*
X003165Y017139D01*
X003165Y017261D01*
X003211Y017373D01*
X003260Y017421D01*
X003260Y018390D01*
X001383Y018390D01*
X001260Y018513D01*
X001260Y019113D01*
X001233Y019140D01*
X001105Y019140D01*
X001079Y019077D01*
X000993Y018991D01*
X000881Y018945D01*
X000759Y018945D01*
X000647Y018991D01*
X000605Y019034D01*
X000605Y014914D01*
X000610Y014863D01*
X000649Y014770D01*
X000720Y014699D01*
X000813Y014660D01*
X000864Y014655D01*
X002150Y014655D01*
X002344Y014575D01*
X002344Y014575D01*
X002493Y014426D01*
X002493Y014426D01*
X002574Y014232D01*
X002574Y008116D01*
X002493Y007921D01*
X002493Y007921D01*
X002344Y007773D01*
X002344Y007773D01*
X002150Y007692D01*
X000864Y007692D01*
X000813Y007687D01*
X000720Y007649D01*
X000649Y007577D01*
X000610Y007484D01*
X000610Y007484D01*
X000605Y007433D01*
X000606Y007439D02*
X005060Y007439D01*
X005060Y007341D02*
X000605Y007341D01*
X000605Y007242D02*
X005060Y007242D01*
X005060Y007144D02*
X000605Y007144D01*
X000605Y007045D02*
X005060Y007045D01*
X005060Y006947D02*
X000605Y006947D01*
X000605Y006848D02*
X005037Y006848D01*
X004981Y006750D02*
X000605Y006750D01*
X000605Y006651D02*
X004965Y006651D01*
X004980Y006553D02*
X000605Y006553D01*
X000605Y006454D02*
X005035Y006454D01*
X005010Y006356D02*
X000605Y006356D01*
X000605Y006257D02*
X005010Y006257D01*
X005010Y006159D02*
X000605Y006159D01*
X000605Y006060D02*
X005010Y006060D01*
X005010Y005962D02*
X000605Y005962D01*
X000605Y005863D02*
X005010Y005863D01*
X005010Y005765D02*
X000605Y005765D01*
X000605Y005666D02*
X005010Y005666D01*
X005010Y005568D02*
X000605Y005568D01*
X000605Y005469D02*
X005010Y005469D01*
X005010Y005371D02*
X000605Y005371D01*
X000605Y005272D02*
X005010Y005272D01*
X005010Y005174D02*
X000605Y005174D01*
X000605Y005075D02*
X005010Y005075D01*
X005010Y004977D02*
X000605Y004977D01*
X000605Y004878D02*
X005010Y004878D01*
X005010Y004780D02*
X000605Y004780D01*
X000605Y004681D02*
X005010Y004681D01*
X005010Y004583D02*
X000605Y004583D01*
X000605Y004484D02*
X005010Y004484D01*
X004964Y004386D02*
X000605Y004386D01*
X000605Y004287D02*
X004922Y004287D01*
X004915Y004189D02*
X000605Y004189D01*
X000605Y004090D02*
X004940Y004090D01*
X005007Y003992D02*
X000605Y003992D01*
X000605Y003893D02*
X005190Y003893D01*
X005696Y002317D02*
X002837Y002317D01*
X002894Y002219D02*
X005606Y002219D01*
X005565Y002120D02*
X002951Y002120D01*
X003008Y002022D02*
X005565Y002022D01*
X005597Y001923D02*
X003049Y001923D01*
X003066Y001825D02*
X005660Y001825D01*
X005660Y001726D02*
X003084Y001726D01*
X003101Y001628D02*
X005660Y001628D01*
X005660Y001529D02*
X003118Y001529D01*
X003101Y001431D02*
X005660Y001431D01*
X005660Y001332D02*
X003084Y001332D01*
X003067Y001234D02*
X005660Y001234D01*
X005660Y001135D02*
X003049Y001135D01*
X003009Y001037D02*
X005660Y001037D01*
X005660Y000938D02*
X002952Y000938D01*
X002895Y000840D02*
X005660Y000840D01*
X005594Y000741D02*
X002838Y000741D01*
X002739Y000643D02*
X005565Y000643D01*
X005567Y000544D02*
X002622Y000544D01*
X002504Y000446D02*
X005608Y000446D01*
X005708Y000347D02*
X002261Y000347D01*
X000612Y001726D02*
X000605Y001726D01*
X000605Y001825D02*
X000630Y001825D01*
X000647Y001923D02*
X000605Y001923D01*
X000605Y002022D02*
X000688Y002022D01*
X000745Y002120D02*
X000605Y002120D01*
X000605Y002219D02*
X000802Y002219D01*
X000859Y002317D02*
X000605Y002317D01*
X000605Y002416D02*
X000959Y002416D01*
X001077Y002514D02*
X000605Y002514D01*
X000605Y002613D02*
X001194Y002613D01*
X001440Y002711D02*
X000605Y002711D01*
X000605Y002810D02*
X021310Y002810D01*
X021310Y002908D02*
X000605Y002908D01*
X000605Y003007D02*
X021310Y003007D01*
X021310Y003105D02*
X000605Y003105D01*
X000605Y003204D02*
X021310Y003204D01*
X021310Y003302D02*
X000605Y003302D01*
X000605Y003401D02*
X021310Y003401D01*
X021310Y003499D02*
X000605Y003499D01*
X000605Y003598D02*
X021310Y003598D01*
X021303Y003696D02*
X000605Y003696D01*
X000605Y003795D02*
X008304Y003795D01*
X008736Y003795D02*
X010204Y003795D01*
X010636Y003795D02*
X013354Y003795D01*
X013786Y003795D02*
X015204Y003795D01*
X015636Y003795D02*
X018304Y003795D01*
X018736Y003795D02*
X020154Y003795D01*
X020586Y003795D02*
X021238Y003795D01*
X021737Y003696D02*
X025926Y003696D01*
X025926Y003598D02*
X021730Y003598D01*
X021730Y003499D02*
X025926Y003499D01*
X025926Y003401D02*
X021730Y003401D01*
X021730Y003302D02*
X025926Y003302D01*
X025926Y003204D02*
X021730Y003204D01*
X021730Y003105D02*
X025926Y003105D01*
X025926Y003007D02*
X021730Y003007D01*
X021730Y002908D02*
X025926Y002908D01*
X025926Y002810D02*
X021730Y002810D01*
X021730Y002711D02*
X024275Y002711D01*
X024029Y002613D02*
X021730Y002613D01*
X021730Y002514D02*
X023911Y002514D01*
X023794Y002416D02*
X021730Y002416D01*
X021730Y002317D02*
X023693Y002317D01*
X023637Y002219D02*
X021730Y002219D01*
X021730Y002120D02*
X023580Y002120D01*
X023523Y002022D02*
X021730Y002022D01*
X021730Y001923D02*
X023482Y001923D01*
X023464Y001825D02*
X021730Y001825D01*
X021730Y001726D02*
X023447Y001726D01*
X023430Y001628D02*
X021730Y001628D01*
X021676Y001529D02*
X023412Y001529D01*
X023429Y001431D02*
X021577Y001431D01*
X021310Y001825D02*
X018747Y001825D01*
X018393Y001825D02*
X016080Y001825D01*
X016143Y001923D02*
X021310Y001923D01*
X021310Y002022D02*
X016175Y002022D01*
X016175Y002120D02*
X021310Y002120D01*
X021310Y002219D02*
X016134Y002219D01*
X016044Y002317D02*
X021310Y002317D01*
X021310Y002416D02*
X002737Y002416D01*
X002619Y002514D02*
X021310Y002514D01*
X021310Y002613D02*
X002502Y002613D01*
X002256Y002711D02*
X021310Y002711D01*
X021802Y003795D02*
X025926Y003795D01*
X025926Y003893D02*
X021825Y003893D01*
X021816Y003992D02*
X025926Y003992D01*
X025926Y004090D02*
X021771Y004090D01*
X021730Y004189D02*
X025926Y004189D01*
X025926Y004287D02*
X021730Y004287D01*
X021730Y004386D02*
X025926Y004386D01*
X025926Y004484D02*
X021730Y004484D01*
X021730Y004583D02*
X025926Y004583D01*
X025926Y004681D02*
X021730Y004681D01*
X021730Y004780D02*
X025926Y004780D01*
X025926Y004878D02*
X021730Y004878D01*
X021730Y004977D02*
X025926Y004977D01*
X025926Y005075D02*
X021730Y005075D01*
X021730Y005174D02*
X025926Y005174D01*
X025926Y005272D02*
X021730Y005272D01*
X021730Y005371D02*
X025926Y005371D01*
X025926Y005469D02*
X021730Y005469D01*
X021730Y005568D02*
X025926Y005568D01*
X025926Y005666D02*
X021730Y005666D01*
X021730Y005765D02*
X025926Y005765D01*
X025926Y005863D02*
X021730Y005863D01*
X021793Y005962D02*
X025926Y005962D01*
X025926Y006060D02*
X021825Y006060D01*
X021825Y006159D02*
X025926Y006159D01*
X025926Y006257D02*
X021785Y006257D01*
X021730Y006356D02*
X025926Y006356D01*
X025926Y006454D02*
X021730Y006454D01*
X021730Y006553D02*
X025926Y006553D01*
X025926Y006651D02*
X021730Y006651D01*
X021730Y006750D02*
X025926Y006750D01*
X025926Y006848D02*
X021730Y006848D01*
X021730Y006947D02*
X025926Y006947D01*
X025926Y007045D02*
X021730Y007045D01*
X021730Y007144D02*
X025926Y007144D01*
X025926Y007242D02*
X021730Y007242D01*
X021730Y007341D02*
X025926Y007341D01*
X025926Y007439D02*
X021730Y007439D01*
X021730Y007538D02*
X025926Y007538D01*
X025926Y007636D02*
X021730Y007636D01*
X021730Y007735D02*
X025926Y007735D01*
X025926Y007833D02*
X021730Y007833D01*
X021730Y007932D02*
X025926Y007932D01*
X025926Y008030D02*
X021730Y008030D01*
X021730Y008129D02*
X025926Y008129D01*
X025926Y008227D02*
X021730Y008227D01*
X021730Y008326D02*
X025926Y008326D01*
X025926Y008424D02*
X021781Y008424D01*
X021822Y008523D02*
X025926Y008523D01*
X025926Y008621D02*
X021825Y008621D01*
X021796Y008720D02*
X025926Y008720D01*
X025926Y008818D02*
X021730Y008818D01*
X021730Y008917D02*
X025926Y008917D01*
X025926Y009015D02*
X021732Y009015D01*
X021730Y009114D02*
X025926Y009114D01*
X025926Y009212D02*
X021730Y009212D01*
X021730Y009311D02*
X025926Y009311D01*
X025926Y009409D02*
X021730Y009409D01*
X021730Y009508D02*
X025926Y009508D01*
X025926Y009606D02*
X021730Y009606D01*
X021730Y009705D02*
X025926Y009705D01*
X025926Y009803D02*
X021730Y009803D01*
X021730Y009902D02*
X025926Y009902D01*
X025926Y010000D02*
X021730Y010000D01*
X021730Y010099D02*
X025926Y010099D01*
X025926Y010197D02*
X021730Y010197D01*
X021730Y010296D02*
X025926Y010296D01*
X025926Y010394D02*
X021730Y010394D01*
X021730Y010493D02*
X025926Y010493D01*
X025926Y010591D02*
X021730Y010591D01*
X021730Y010690D02*
X025926Y010690D01*
X025926Y010788D02*
X021759Y010788D01*
X021811Y010887D02*
X025926Y010887D01*
X025926Y010985D02*
X021825Y010985D01*
X021807Y011084D02*
X025926Y011084D01*
X025926Y011182D02*
X021749Y011182D01*
X021730Y011281D02*
X025926Y011281D01*
X025926Y011379D02*
X021730Y011379D01*
X021730Y011478D02*
X025926Y011478D01*
X025926Y011576D02*
X021730Y011576D01*
X021730Y011675D02*
X025926Y011675D01*
X025926Y011773D02*
X021730Y011773D01*
X021730Y011872D02*
X025926Y011872D01*
X025926Y011970D02*
X021730Y011970D01*
X021730Y012069D02*
X025926Y012069D01*
X025926Y012167D02*
X021730Y012167D01*
X021730Y012266D02*
X025926Y012266D01*
X025926Y012364D02*
X021730Y012364D01*
X021730Y012463D02*
X025926Y012463D01*
X025926Y012561D02*
X021730Y012561D01*
X021730Y012660D02*
X025926Y012660D01*
X025926Y012758D02*
X021730Y012758D01*
X021730Y012857D02*
X025926Y012857D01*
X025926Y012955D02*
X021730Y012955D01*
X021730Y013054D02*
X025926Y013054D01*
X025926Y013152D02*
X021730Y013152D01*
X021730Y013251D02*
X025926Y013251D01*
X025926Y013349D02*
X021730Y013349D01*
X021799Y013448D02*
X025926Y013448D01*
X025926Y013546D02*
X021825Y013546D01*
X021819Y013645D02*
X025926Y013645D01*
X025926Y013743D02*
X021778Y013743D01*
X021730Y013842D02*
X025926Y013842D01*
X025926Y013940D02*
X021730Y013940D01*
X021730Y014039D02*
X025926Y014039D01*
X025926Y014137D02*
X021730Y014137D01*
X021730Y014236D02*
X025926Y014236D01*
X025926Y014334D02*
X021730Y014334D01*
X021730Y014433D02*
X025926Y014433D01*
X025926Y014531D02*
X021730Y014531D01*
X021730Y014630D02*
X025926Y014630D01*
X025926Y014728D02*
X021730Y014728D01*
X021730Y014827D02*
X025926Y014827D01*
X025926Y014925D02*
X021730Y014925D01*
X021730Y015024D02*
X025926Y015024D01*
X025926Y015122D02*
X021730Y015122D01*
X021730Y015221D02*
X025926Y015221D01*
X025926Y015319D02*
X021730Y015319D01*
X021730Y015418D02*
X025926Y015418D01*
X025926Y015516D02*
X021730Y015516D01*
X021730Y015615D02*
X025926Y015615D01*
X025926Y015713D02*
X021730Y015713D01*
X021730Y015812D02*
X025926Y015812D01*
X025926Y015910D02*
X021730Y015910D01*
X021730Y016009D02*
X025926Y016009D01*
X025926Y016107D02*
X021670Y016107D01*
X021613Y016206D02*
X025926Y016206D01*
X025926Y016304D02*
X021680Y016304D01*
X021680Y016403D02*
X025926Y016403D01*
X025926Y016501D02*
X021680Y016501D01*
X021680Y016600D02*
X025926Y016600D01*
X025926Y016698D02*
X021680Y016698D01*
X021680Y016797D02*
X025926Y016797D01*
X025926Y016895D02*
X021680Y016895D01*
X021680Y016994D02*
X025926Y016994D01*
X025926Y017092D02*
X021680Y017092D01*
X021680Y017191D02*
X025926Y017191D01*
X025926Y017289D02*
X021680Y017289D01*
X021680Y017388D02*
X025926Y017388D01*
X025926Y017486D02*
X021680Y017486D01*
X021680Y017585D02*
X025926Y017585D01*
X025926Y017683D02*
X021680Y017683D01*
X021680Y017782D02*
X025926Y017782D01*
X025926Y017880D02*
X021680Y017880D01*
X021680Y017979D02*
X025926Y017979D01*
X025926Y018077D02*
X021680Y018077D01*
X021680Y018176D02*
X025926Y018176D01*
X025926Y018274D02*
X021725Y018274D01*
X021768Y018373D02*
X025926Y018373D01*
X025926Y018471D02*
X021775Y018471D01*
X021751Y018570D02*
X022069Y018570D01*
X021995Y018668D02*
X021683Y018668D01*
X021550Y018767D02*
X021965Y018767D01*
X021967Y018865D02*
X021452Y018865D01*
X021215Y018274D02*
X003680Y018274D01*
X003680Y018176D02*
X021260Y018176D01*
X021260Y018077D02*
X003680Y018077D01*
X003680Y017979D02*
X021260Y017979D01*
X021260Y017880D02*
X003680Y017880D01*
X003680Y017782D02*
X021260Y017782D01*
X021260Y017683D02*
X003680Y017683D01*
X003680Y017585D02*
X021260Y017585D01*
X021260Y017486D02*
X003680Y017486D01*
X003714Y017388D02*
X021260Y017388D01*
X021260Y017289D02*
X003763Y017289D01*
X003775Y017191D02*
X021260Y017191D01*
X021260Y017092D02*
X003755Y017092D01*
X003695Y016994D02*
X021260Y016994D01*
X021260Y016698D02*
X000605Y016698D01*
X000605Y016600D02*
X021260Y016600D01*
X021176Y016501D02*
X020464Y016501D01*
X020276Y016501D02*
X018614Y016501D01*
X018426Y016501D02*
X015464Y016501D01*
X015276Y016501D02*
X013564Y016501D01*
X013376Y016501D02*
X010414Y016501D01*
X010226Y016501D02*
X008514Y016501D01*
X008326Y016501D02*
X005464Y016501D01*
X005276Y016501D02*
X000605Y016501D01*
X000605Y016403D02*
X005131Y016403D01*
X005079Y016304D02*
X000605Y016304D01*
X000605Y016206D02*
X005065Y016206D01*
X005060Y016107D02*
X000605Y016107D01*
X000605Y016009D02*
X005060Y016009D01*
X005060Y015910D02*
X000605Y015910D01*
X000605Y015812D02*
X005060Y015812D01*
X005060Y015713D02*
X000605Y015713D01*
X000605Y015615D02*
X005060Y015615D01*
X005060Y015516D02*
X000605Y015516D01*
X000605Y015418D02*
X005060Y015418D01*
X005060Y015319D02*
X000605Y015319D01*
X000605Y015221D02*
X005060Y015221D01*
X005060Y015122D02*
X000605Y015122D01*
X000605Y015024D02*
X005060Y015024D01*
X005060Y014925D02*
X000605Y014925D01*
X000625Y014827D02*
X005060Y014827D01*
X005060Y014728D02*
X000691Y014728D01*
X002212Y014630D02*
X005060Y014630D01*
X005060Y014531D02*
X002388Y014531D01*
X002486Y014433D02*
X005060Y014433D01*
X005060Y014334D02*
X002531Y014334D01*
X002572Y014236D02*
X005060Y014236D01*
X005009Y014137D02*
X002574Y014137D01*
X002574Y014039D02*
X004968Y014039D01*
X004965Y013940D02*
X002574Y013940D01*
X002574Y013842D02*
X004993Y013842D01*
X005066Y013743D02*
X002574Y013743D01*
X002574Y013645D02*
X005248Y013645D01*
X005334Y011675D02*
X002574Y011675D01*
X002574Y011773D02*
X021310Y011773D01*
X021310Y011675D02*
X020456Y011675D01*
X020284Y011675D02*
X018606Y011675D01*
X018434Y011675D02*
X015456Y011675D01*
X015284Y011675D02*
X013606Y011675D01*
X013434Y011675D02*
X010456Y011675D01*
X010284Y011675D02*
X008656Y011675D01*
X008484Y011675D02*
X005506Y011675D01*
X005185Y011576D02*
X002574Y011576D01*
X002574Y011478D02*
X005130Y011478D01*
X005115Y011379D02*
X002574Y011379D01*
X002574Y011281D02*
X005060Y011281D01*
X005060Y011182D02*
X002574Y011182D01*
X002574Y011084D02*
X005060Y011084D01*
X005060Y010985D02*
X002574Y010985D01*
X002574Y010887D02*
X005060Y010887D01*
X005060Y010788D02*
X002574Y010788D01*
X002574Y010690D02*
X005060Y010690D01*
X005060Y010591D02*
X002574Y010591D01*
X002574Y010493D02*
X005060Y010493D01*
X005060Y010394D02*
X002574Y010394D01*
X002574Y010296D02*
X005060Y010296D01*
X005060Y010197D02*
X002574Y010197D01*
X002574Y010099D02*
X005060Y010099D01*
X005060Y010000D02*
X002574Y010000D01*
X002574Y009902D02*
X005060Y009902D01*
X005060Y009803D02*
X002574Y009803D01*
X002574Y009705D02*
X005060Y009705D01*
X005060Y009606D02*
X002574Y009606D01*
X002574Y009508D02*
X005060Y009508D01*
X005060Y009409D02*
X002574Y009409D01*
X002574Y009311D02*
X005060Y009311D01*
X004995Y009212D02*
X002574Y009212D01*
X002574Y009114D02*
X004965Y009114D01*
X004967Y009015D02*
X002574Y009015D01*
X002574Y008917D02*
X005008Y008917D01*
X005060Y008818D02*
X002574Y008818D01*
X002574Y008720D02*
X005060Y008720D01*
X005060Y008621D02*
X002574Y008621D01*
X002574Y008523D02*
X005060Y008523D01*
X005060Y008424D02*
X002574Y008424D01*
X002574Y008326D02*
X005060Y008326D01*
X005060Y008227D02*
X002574Y008227D01*
X002574Y008129D02*
X005060Y008129D01*
X005060Y008030D02*
X002538Y008030D01*
X002497Y007932D02*
X005060Y007932D01*
X005060Y007833D02*
X002405Y007833D01*
X002252Y007735D02*
X005060Y007735D01*
X005060Y007636D02*
X000707Y007636D01*
X000632Y007538D02*
X005060Y007538D01*
X002574Y011872D02*
X021310Y011872D01*
X021310Y011970D02*
X002574Y011970D01*
X002574Y012069D02*
X021310Y012069D01*
X021310Y012167D02*
X002574Y012167D01*
X002574Y012266D02*
X021310Y012266D01*
X021310Y012364D02*
X002574Y012364D01*
X002574Y012463D02*
X021310Y012463D01*
X021310Y012561D02*
X002574Y012561D01*
X002574Y012660D02*
X021310Y012660D01*
X021310Y012758D02*
X002574Y012758D01*
X002574Y012857D02*
X021310Y012857D01*
X021310Y012955D02*
X002574Y012955D01*
X002574Y013054D02*
X021310Y013054D01*
X021310Y013152D02*
X002574Y013152D01*
X002574Y013251D02*
X021310Y013251D01*
X021310Y013349D02*
X002574Y013349D01*
X002574Y013448D02*
X021241Y013448D01*
X021215Y013546D02*
X020627Y013546D01*
X020213Y013546D02*
X018727Y013546D01*
X018313Y013546D02*
X015577Y013546D01*
X015163Y013546D02*
X013677Y013546D01*
X013263Y013546D02*
X010577Y013546D01*
X010163Y013546D02*
X008727Y013546D01*
X008313Y013546D02*
X002574Y013546D01*
X003245Y016994D02*
X000605Y016994D01*
X000605Y017092D02*
X003185Y017092D01*
X003165Y017191D02*
X000605Y017191D01*
X000605Y017289D02*
X003177Y017289D01*
X003226Y017388D02*
X000605Y017388D01*
X000605Y017486D02*
X003260Y017486D01*
X003260Y017585D02*
X000605Y017585D01*
X000605Y017683D02*
X003260Y017683D01*
X003260Y017782D02*
X000605Y017782D01*
X000605Y017880D02*
X003260Y017880D01*
X003260Y017979D02*
X000605Y017979D01*
X000605Y018077D02*
X003260Y018077D01*
X003260Y018176D02*
X000605Y018176D01*
X000605Y018274D02*
X003260Y018274D01*
X003260Y018373D02*
X000605Y018373D01*
X000605Y018471D02*
X001302Y018471D01*
X001260Y018570D02*
X000605Y018570D01*
X000605Y018668D02*
X001260Y018668D01*
X001260Y018767D02*
X000605Y018767D01*
X000605Y018865D02*
X001260Y018865D01*
X001260Y018964D02*
X000925Y018964D01*
X001063Y019062D02*
X001260Y019062D01*
X000715Y018964D02*
X000605Y018964D01*
X013020Y021722D02*
X013060Y021722D01*
X015167Y020540D02*
X015344Y020540D01*
X015305Y020441D02*
X015207Y020441D01*
X015220Y020343D02*
X015715Y020343D01*
X015715Y020244D02*
X015815Y020244D01*
X015815Y020146D02*
X015715Y020146D01*
X015715Y020047D02*
X015815Y020047D01*
X015815Y019949D02*
X015715Y019949D01*
X015467Y019949D02*
X015038Y019949D01*
X015137Y020047D02*
X015376Y020047D01*
X015322Y020146D02*
X015186Y020146D01*
X015220Y020244D02*
X015296Y020244D01*
X015815Y020343D02*
X016310Y020343D01*
X016323Y020441D02*
X016225Y020441D01*
X016186Y020540D02*
X016364Y020540D01*
X016310Y020244D02*
X016234Y020244D01*
X016208Y020146D02*
X016345Y020146D01*
X016394Y020047D02*
X016155Y020047D01*
X016063Y019949D02*
X016493Y019949D01*
X017038Y019949D02*
X017493Y019949D01*
X017394Y020047D02*
X017137Y020047D01*
X017186Y020146D02*
X017345Y020146D01*
X017310Y020244D02*
X017220Y020244D01*
X017220Y020343D02*
X017310Y020343D01*
X017323Y020441D02*
X017207Y020441D01*
X017167Y020540D02*
X017364Y020540D01*
X018038Y019949D02*
X018493Y019949D01*
X018394Y020047D02*
X018137Y020047D01*
X018186Y020146D02*
X018345Y020146D01*
X018310Y020244D02*
X018220Y020244D01*
X018220Y020343D02*
X018310Y020343D01*
X018323Y020441D02*
X018207Y020441D01*
X018167Y020540D02*
X018364Y020540D01*
X019038Y019949D02*
X019493Y019949D01*
X019394Y020047D02*
X019137Y020047D01*
X019186Y020146D02*
X019345Y020146D01*
X019310Y020244D02*
X019220Y020244D01*
X019220Y020343D02*
X019310Y020343D01*
X019323Y020441D02*
X019207Y020441D01*
X019167Y020540D02*
X019364Y020540D01*
X019388Y021030D02*
X019119Y021030D01*
X019151Y021062D01*
X019220Y021229D01*
X019299Y021229D01*
X019302Y021208D02*
X019325Y021137D01*
X019359Y021070D01*
X019388Y021030D01*
X019387Y021032D02*
X019122Y021032D01*
X019180Y021131D02*
X019328Y021131D01*
X019302Y021208D02*
X019292Y021269D01*
X019715Y021269D01*
X019715Y021369D01*
X019292Y021369D01*
X019302Y021431D01*
X019325Y021502D01*
X019359Y021568D01*
X019403Y021629D01*
X019414Y021640D01*
X019088Y021640D01*
X019151Y021577D01*
X019220Y021410D01*
X019220Y021229D01*
X019220Y021328D02*
X019715Y021328D01*
X019815Y021328D02*
X020310Y021328D01*
X020310Y021410D02*
X020310Y021229D01*
X020232Y021229D01*
X020229Y021208D02*
X020238Y021269D01*
X019815Y021269D01*
X019815Y021369D01*
X020238Y021369D01*
X020229Y021431D01*
X020205Y021502D01*
X020172Y021568D01*
X020128Y021629D01*
X020116Y021640D01*
X020443Y021640D01*
X020380Y021577D01*
X020310Y021410D01*
X020317Y021426D02*
X020229Y021426D01*
X020194Y021525D02*
X020358Y021525D01*
X020426Y021623D02*
X020132Y021623D01*
X020229Y021208D02*
X020205Y021137D01*
X020172Y021070D01*
X020142Y021030D01*
X020411Y021030D01*
X020380Y021062D01*
X020310Y021229D01*
X020351Y021131D02*
X020202Y021131D01*
X020144Y021032D02*
X020409Y021032D01*
X020364Y020540D02*
X020167Y020540D01*
X020207Y020441D02*
X020323Y020441D01*
X020310Y020343D02*
X020220Y020343D01*
X020220Y020244D02*
X020310Y020244D01*
X020345Y020146D02*
X020186Y020146D01*
X020137Y020047D02*
X020394Y020047D01*
X020493Y019949D02*
X020038Y019949D01*
X021038Y019949D02*
X021493Y019949D01*
X021394Y020047D02*
X021137Y020047D01*
X021186Y020146D02*
X021345Y020146D01*
X021310Y020244D02*
X021220Y020244D01*
X021220Y020343D02*
X021310Y020343D01*
X021323Y020441D02*
X021207Y020441D01*
X021167Y020540D02*
X021364Y020540D01*
X022038Y019949D02*
X022060Y019949D01*
X022480Y019850D02*
X022692Y019850D01*
X022715Y019850D02*
X022815Y019850D01*
X022839Y019850D02*
X023060Y019850D01*
X023040Y019752D02*
X022480Y019752D01*
X022480Y019653D02*
X022983Y019653D01*
X022965Y019555D02*
X022480Y019555D01*
X022480Y019456D02*
X022979Y019456D01*
X023031Y019358D02*
X022480Y019358D01*
X022480Y019259D02*
X023175Y019259D01*
X023365Y019259D02*
X025926Y019259D01*
X025926Y019161D02*
X022480Y019161D01*
X022480Y019062D02*
X025926Y019062D01*
X025926Y018964D02*
X022532Y018964D01*
X022573Y018865D02*
X025926Y018865D01*
X025926Y018767D02*
X022575Y018767D01*
X022545Y018668D02*
X025926Y018668D01*
X025926Y018570D02*
X022471Y018570D01*
X023509Y019358D02*
X025926Y019358D01*
X025926Y019456D02*
X023561Y019456D01*
X023575Y019555D02*
X025926Y019555D01*
X025926Y019653D02*
X025137Y019653D01*
X025357Y019752D02*
X025926Y019752D01*
X025926Y019850D02*
X025474Y019850D01*
X025591Y019949D02*
X025926Y019949D01*
X025926Y020047D02*
X025681Y020047D01*
X025738Y020146D02*
X025926Y020146D01*
X025926Y020244D02*
X025795Y020244D01*
X025852Y020343D02*
X025926Y020343D01*
X025926Y020441D02*
X025886Y020441D01*
X025904Y020540D02*
X025926Y020540D01*
X025921Y020638D02*
X025926Y020638D01*
X024229Y019653D02*
X023557Y019653D01*
X023500Y019752D02*
X024009Y019752D01*
X023891Y019850D02*
X023480Y019850D01*
X023480Y019949D02*
X023774Y019949D01*
X023684Y020047D02*
X023480Y020047D01*
X023480Y020146D02*
X023627Y020146D01*
X023570Y020244D02*
X023480Y020244D01*
X023480Y020343D02*
X023513Y020343D01*
X023060Y020692D02*
X023060Y020971D01*
X023023Y020934D01*
X022856Y020864D01*
X022675Y020864D01*
X022508Y020934D01*
X022253Y020934D01*
X022157Y021030D02*
X022119Y021030D01*
X022151Y021062D01*
X022220Y021229D01*
X022310Y021229D01*
X022380Y021062D01*
X022508Y020934D01*
X022409Y021032D02*
X022122Y021032D01*
X022157Y021030D02*
X022357Y020830D01*
X022480Y020707D01*
X022480Y020699D01*
X022516Y020726D01*
X022583Y020759D01*
X022654Y020783D01*
X022715Y020792D01*
X022715Y020369D01*
X022815Y020369D01*
X022815Y020792D01*
X022877Y020783D01*
X022948Y020759D01*
X023014Y020726D01*
X023060Y020692D01*
X023060Y020737D02*
X022993Y020737D01*
X023060Y020835D02*
X022352Y020835D01*
X022450Y020737D02*
X022538Y020737D01*
X022715Y020737D02*
X022815Y020737D01*
X022815Y020638D02*
X022715Y020638D01*
X022715Y020540D02*
X022815Y020540D01*
X022815Y020441D02*
X022715Y020441D01*
X022715Y020244D02*
X022815Y020244D01*
X022815Y020146D02*
X022715Y020146D01*
X022715Y020047D02*
X022815Y020047D01*
X022815Y019949D02*
X022715Y019949D01*
X023023Y020934D02*
X023060Y020934D01*
X023480Y021229D02*
X023484Y021229D01*
X023480Y021328D02*
X023531Y021328D01*
X023480Y021426D02*
X023588Y021426D01*
X023645Y021525D02*
X023480Y021525D01*
X023480Y021623D02*
X023702Y021623D01*
X023811Y021722D02*
X023445Y021722D01*
X023347Y021820D02*
X023929Y021820D01*
X024046Y021919D02*
X023248Y021919D01*
X023150Y022017D02*
X024315Y022017D01*
X022443Y021640D02*
X022380Y021577D01*
X022310Y021410D01*
X022310Y021229D01*
X022220Y021229D02*
X022220Y021410D01*
X022151Y021577D01*
X022088Y021640D01*
X022443Y021640D01*
X022426Y021623D02*
X022105Y021623D01*
X022173Y021525D02*
X022358Y021525D01*
X022317Y021426D02*
X022214Y021426D01*
X022220Y021328D02*
X022310Y021328D01*
X022351Y021131D02*
X022180Y021131D01*
X019399Y021623D02*
X019105Y021623D01*
X019173Y021525D02*
X019337Y021525D01*
X019301Y021426D02*
X019214Y021426D01*
X018443Y021640D02*
X018380Y021577D01*
X018310Y021410D01*
X018310Y021229D01*
X018232Y021229D01*
X018229Y021208D02*
X018238Y021269D01*
X017815Y021269D01*
X017815Y021369D01*
X018238Y021369D01*
X018229Y021431D01*
X018205Y021502D01*
X018172Y021568D01*
X018128Y021629D01*
X018116Y021640D01*
X018443Y021640D01*
X018426Y021623D02*
X018132Y021623D01*
X018194Y021525D02*
X018358Y021525D01*
X018317Y021426D02*
X018229Y021426D01*
X018310Y021328D02*
X017815Y021328D01*
X017715Y021328D02*
X017220Y021328D01*
X017220Y021410D02*
X017151Y021577D01*
X017088Y021640D01*
X017414Y021640D01*
X017403Y021629D01*
X017359Y021568D01*
X017325Y021502D01*
X017302Y021431D01*
X017292Y021369D01*
X017715Y021369D01*
X017715Y021269D01*
X017292Y021269D01*
X017302Y021208D01*
X017325Y021137D01*
X017359Y021070D01*
X017388Y021030D01*
X017119Y021030D01*
X017151Y021062D01*
X017220Y021229D01*
X017299Y021229D01*
X017220Y021229D02*
X017220Y021410D01*
X017214Y021426D02*
X017301Y021426D01*
X017337Y021525D02*
X017173Y021525D01*
X017105Y021623D02*
X017399Y021623D01*
X017328Y021131D02*
X017180Y021131D01*
X017122Y021032D02*
X017387Y021032D01*
X018142Y021030D02*
X018172Y021070D01*
X018205Y021137D01*
X018229Y021208D01*
X018202Y021131D02*
X018351Y021131D01*
X018380Y021062D02*
X018411Y021030D01*
X018142Y021030D01*
X018144Y021032D02*
X018409Y021032D01*
X018380Y021062D02*
X018310Y021229D01*
X025090Y002711D02*
X025926Y002711D01*
X025926Y002613D02*
X025337Y002613D01*
X025454Y002514D02*
X025926Y002514D01*
X025926Y002416D02*
X025571Y002416D01*
X025672Y002317D02*
X025926Y002317D01*
X025926Y002219D02*
X025729Y002219D01*
X025786Y002120D02*
X025926Y002120D01*
X025926Y002022D02*
X025842Y002022D01*
X025883Y001923D02*
X025926Y001923D01*
X025926Y001825D02*
X025901Y001825D01*
X025918Y001726D02*
X025926Y001726D01*
X024269Y000347D02*
X021032Y000347D01*
X021132Y000446D02*
X024026Y000446D01*
X023909Y000544D02*
X021173Y000544D01*
X021175Y000643D02*
X023791Y000643D01*
X023692Y000741D02*
X021146Y000741D01*
X021080Y000840D02*
X023635Y000840D01*
X023578Y000938D02*
X021080Y000938D01*
X021080Y001037D02*
X023522Y001037D01*
X023481Y001135D02*
X021080Y001135D01*
X021080Y001234D02*
X023464Y001234D01*
X023447Y001332D02*
X021080Y001332D01*
X020660Y001332D02*
X018763Y001332D01*
X018377Y001332D02*
X016080Y001332D01*
X016080Y001234D02*
X020660Y001234D01*
X020660Y001135D02*
X016080Y001135D01*
X016080Y001037D02*
X020660Y001037D01*
X020660Y000938D02*
X016080Y000938D01*
X016080Y000840D02*
X020660Y000840D01*
X020594Y000741D02*
X016146Y000741D01*
X016175Y000643D02*
X020565Y000643D01*
X020567Y000544D02*
X016173Y000544D01*
X016132Y000446D02*
X020608Y000446D01*
X020708Y000347D02*
X016032Y000347D01*
X015708Y000347D02*
X011032Y000347D01*
X011132Y000446D02*
X015608Y000446D01*
X015567Y000544D02*
X011173Y000544D01*
X011175Y000643D02*
X015565Y000643D01*
X015594Y000741D02*
X011146Y000741D01*
X011080Y000840D02*
X015660Y000840D01*
X015660Y000938D02*
X011080Y000938D01*
X011080Y001037D02*
X015660Y001037D01*
X015660Y001135D02*
X011080Y001135D01*
X011080Y001234D02*
X015660Y001234D01*
X015660Y001332D02*
X013663Y001332D01*
X013277Y001332D02*
X011080Y001332D01*
X010660Y001332D02*
X008763Y001332D01*
X008377Y001332D02*
X006080Y001332D01*
X006080Y001234D02*
X010660Y001234D01*
X010660Y001135D02*
X006080Y001135D01*
X006080Y001037D02*
X010660Y001037D01*
X010660Y000938D02*
X006080Y000938D01*
X006080Y000840D02*
X010660Y000840D01*
X010594Y000741D02*
X006146Y000741D01*
X006175Y000643D02*
X010565Y000643D01*
X010567Y000544D02*
X006173Y000544D01*
X006132Y000446D02*
X010608Y000446D01*
X010708Y000347D02*
X006032Y000347D01*
X006080Y001825D02*
X008393Y001825D01*
X008747Y001825D02*
X010624Y001825D01*
X010576Y001923D02*
X006143Y001923D01*
X006175Y002022D02*
X010565Y002022D01*
X010585Y002120D02*
X006175Y002120D01*
X006134Y002219D02*
X010647Y002219D01*
X011093Y002219D02*
X015606Y002219D01*
X015565Y002120D02*
X011155Y002120D01*
X011175Y002022D02*
X015565Y002022D01*
X015597Y001923D02*
X011164Y001923D01*
X011116Y001825D02*
X013293Y001825D01*
X013647Y001825D02*
X015660Y001825D01*
X015696Y002317D02*
X006044Y002317D01*
D13*
X005870Y002060D03*
X005870Y000610D03*
X008370Y000610D03*
X008570Y001570D03*
X010870Y002010D03*
X010870Y000610D03*
X013370Y000610D03*
X013470Y001570D03*
X015870Y002060D03*
X015870Y000610D03*
X018370Y000610D03*
X018570Y001570D03*
X020870Y000610D03*
X021520Y003910D03*
X020370Y004010D03*
X018520Y004010D03*
X018470Y006450D03*
X020370Y006450D03*
X021520Y006100D03*
X021520Y008590D03*
X020370Y008890D03*
X018520Y008890D03*
X018520Y011380D03*
X020370Y011380D03*
X021520Y010980D03*
X021520Y013570D03*
X020420Y013770D03*
X018520Y013770D03*
X018520Y016210D03*
X020370Y016210D03*
X021270Y016210D03*
X021470Y018450D03*
X022270Y018800D03*
X023270Y019550D03*
X020370Y018700D03*
X015370Y018700D03*
X015370Y016210D03*
X013470Y016210D03*
X013470Y013770D03*
X015370Y013770D03*
X015370Y011380D03*
X013520Y011380D03*
X013470Y008890D03*
X015420Y008890D03*
X015370Y006450D03*
X013470Y006450D03*
X013570Y004010D03*
X015420Y004010D03*
X010420Y004010D03*
X008520Y004010D03*
X008470Y006450D03*
X010320Y006450D03*
X010370Y008890D03*
X008570Y008890D03*
X008570Y011380D03*
X010370Y011380D03*
X010370Y013770D03*
X008520Y013770D03*
X008420Y016210D03*
X010320Y016210D03*
X010320Y018700D03*
X005370Y016210D03*
X003470Y017200D03*
X004620Y018700D03*
X000820Y019250D03*
X005270Y013970D03*
X005420Y011380D03*
X005270Y009080D03*
X005270Y006650D03*
X005220Y004210D03*
D14*
X005220Y004160D01*
X005370Y004010D01*
X008520Y004010D01*
X010420Y004010D01*
X013570Y004010D01*
X015420Y004010D01*
X018520Y004010D01*
X020370Y004010D01*
X021370Y004010D01*
X021520Y003860D01*
X021520Y003910D01*
X021520Y006100D01*
X021520Y006600D01*
X021370Y006450D01*
X020370Y006450D01*
X018470Y006450D01*
X015370Y006450D01*
X013470Y006450D01*
X010320Y006450D01*
X008470Y006450D01*
X005420Y006450D01*
X005370Y006500D01*
X005270Y006600D01*
X005270Y006650D01*
X005270Y009080D01*
X005270Y009030D01*
X005420Y008890D01*
X008570Y008890D01*
X010370Y008890D01*
X013470Y008890D01*
X015420Y008890D01*
X018520Y008890D01*
X020370Y008890D01*
X021420Y008890D01*
X021520Y008980D01*
X021520Y008590D01*
X021520Y006600D01*
X021520Y008980D02*
X021520Y010980D01*
X021520Y011480D01*
X021420Y011380D01*
X020370Y011380D01*
X018520Y011380D01*
X015370Y011380D01*
X013520Y011380D01*
X010370Y011380D01*
X008570Y011380D01*
X005420Y011380D01*
X005270Y011230D01*
X005270Y009080D01*
X005370Y006500D02*
X005370Y006450D01*
X005220Y006300D01*
X005220Y004210D01*
X005870Y002060D02*
X005870Y001670D01*
X005970Y001570D01*
X005870Y001470D01*
X005870Y000610D01*
X005970Y001570D02*
X008570Y001570D01*
X010970Y001570D01*
X010870Y001470D01*
X010870Y000610D01*
X010970Y001570D02*
X011020Y001570D01*
X010870Y001720D01*
X010870Y002010D01*
X011020Y001570D02*
X013470Y001570D01*
X015970Y001570D01*
X015870Y001470D01*
X015870Y000610D01*
X015970Y001570D02*
X016020Y001570D01*
X015870Y001720D01*
X015870Y002060D01*
X016020Y001570D02*
X018570Y001570D01*
X020970Y001570D01*
X020870Y001470D01*
X020870Y000610D01*
X020970Y001570D02*
X021420Y001570D01*
X021520Y001670D01*
X021520Y003860D01*
X021520Y011480D02*
X021520Y013570D01*
X021520Y013620D01*
X021520Y015960D01*
X021270Y016210D01*
X020370Y016210D01*
X018520Y016210D01*
X015370Y016210D01*
X013470Y016210D01*
X010320Y016210D01*
X008420Y016210D01*
X005370Y016210D01*
X005270Y016110D01*
X005270Y013970D01*
X005270Y014020D01*
X005270Y013970D02*
X005270Y013920D01*
X005420Y013770D01*
X008520Y013770D01*
X010370Y013770D01*
X013470Y013770D01*
X015370Y013770D01*
X018520Y013770D01*
X020420Y013770D01*
X021370Y013770D01*
X021520Y013620D01*
X021320Y016210D02*
X021270Y016210D01*
X021320Y016210D02*
X021470Y016360D01*
X021470Y018450D01*
X021470Y018550D01*
X021320Y018700D01*
X020370Y018700D01*
X015370Y018700D01*
X010320Y018700D01*
X004620Y018700D01*
X003765Y018845D02*
X003765Y020319D01*
X003765Y020615D01*
X003970Y020820D01*
X011620Y020820D01*
X011770Y020670D01*
X011770Y020324D01*
X011765Y020319D01*
X012765Y020319D02*
X013270Y020824D01*
X013270Y021650D01*
X013470Y021850D01*
X023020Y021850D01*
X023270Y021600D01*
X023270Y019550D01*
X022270Y018800D02*
X022270Y020620D01*
X022070Y020820D01*
X014870Y020820D01*
X014770Y020700D01*
X014770Y020324D01*
X014765Y020319D01*
X004765Y021319D02*
X003765Y021319D01*
X001470Y019200D02*
X001320Y019350D01*
X000920Y019350D01*
X000820Y019250D01*
X001470Y019200D02*
X001470Y018600D01*
X003470Y018600D01*
X003470Y017200D01*
X003470Y018600D02*
X003520Y018600D01*
X003765Y018845D01*
X005370Y006450D02*
X005420Y006450D01*
M02*
