%
M48
M72
T01C0.0150
T02C0.0400
T03C0.1102
%
T01
X5220Y4210
X5870Y2060
X5870Y610
X8370Y610
X8570Y1570
X10870Y2010
X10870Y610
X13370Y610
X13470Y1570
X15870Y2060
X15870Y610
X18370Y610
X18570Y1570
X20870Y610
X21520Y3910
X20370Y4010
X18520Y4010
X18470Y6450
X20370Y6450
X21520Y6100
X21520Y8590
X20370Y8890
X18520Y8890
X18520Y11380
X20370Y11380
X21520Y10980
X21520Y13570
X20420Y13770
X18520Y13770
X18520Y16210
X20370Y16210
X21270Y16210
X21470Y18450
X22270Y18800
X23270Y19550
X20370Y18700
X15370Y18700
X15370Y16210
X13470Y16210
X13470Y13770
X15370Y13770
X15370Y11380
X13520Y11380
X13470Y8890
X15420Y8890
X15370Y6450
X13470Y6450
X13570Y4010
X15420Y4010
X10420Y4010
X8520Y4010
X8470Y6450
X10320Y6450
X10370Y8890
X8570Y8890
X8570Y11380
X10370Y11380
X10370Y13770
X8520Y13770
X8420Y16210
X10320Y16210
X10320Y18700
X5370Y16210
X3470Y17200
X4620Y18700
X820Y19250
X5270Y13970
X5420Y11380
X5270Y9080
X5270Y6650
T02
X5765Y20319
X4765Y20319
X3765Y20319
X3765Y21319
X4765Y21319
X5765Y21319
X6765Y21319
X7765Y21319
X8765Y21319
X9765Y21319
X10765Y21319
X11765Y21319
X12765Y21319
X13765Y21319
X14765Y21319
X15765Y21319
X16765Y21319
X17765Y21319
X18765Y21319
X19765Y21319
X20765Y21319
X21765Y21319
X22765Y21319
X22765Y20319
X21765Y20319
X20765Y20319
X19765Y20319
X18765Y20319
X17765Y20319
X16765Y20319
X15765Y20319
X14765Y20319
X13765Y20319
X12765Y20319
X11765Y20319
X10765Y20319
X9765Y20319
X8765Y20319
X7765Y20319
X6765Y20319
T03
X1848Y1528
X1848Y20819
X24683Y20819
X24683Y1528
M30
