G75*
%MOIN*%
%OFA0B0*%
%FSLAX24Y24*%
%IPPOS*%
%LPD*%
%AMOC8*
5,1,8,0,0,1.08239X$1,22.5*
%
%ADD10C,0.0000*%
%ADD11C,0.0010*%
%ADD12C,0.0650*%
%ADD13R,0.0650X0.0650*%
%ADD14R,0.0240X0.0870*%
%ADD15R,0.0394X0.0433*%
%ADD16R,0.0500X0.0250*%
%ADD17R,0.0472X0.0512*%
%ADD18C,0.0100*%
%ADD19C,0.0350*%
%ADD20C,0.0160*%
D10*
X001297Y001528D02*
X001299Y001575D01*
X001305Y001621D01*
X001315Y001667D01*
X001328Y001712D01*
X001346Y001755D01*
X001367Y001797D01*
X001391Y001837D01*
X001419Y001874D01*
X001450Y001909D01*
X001484Y001942D01*
X001520Y001971D01*
X001559Y001997D01*
X001600Y002020D01*
X001643Y002039D01*
X001687Y002055D01*
X001732Y002067D01*
X001778Y002075D01*
X001825Y002079D01*
X001871Y002079D01*
X001918Y002075D01*
X001964Y002067D01*
X002009Y002055D01*
X002053Y002039D01*
X002096Y002020D01*
X002137Y001997D01*
X002176Y001971D01*
X002212Y001942D01*
X002246Y001909D01*
X002277Y001874D01*
X002305Y001837D01*
X002329Y001797D01*
X002350Y001755D01*
X002368Y001712D01*
X002381Y001667D01*
X002391Y001621D01*
X002397Y001575D01*
X002399Y001528D01*
X002397Y001481D01*
X002391Y001435D01*
X002381Y001389D01*
X002368Y001344D01*
X002350Y001301D01*
X002329Y001259D01*
X002305Y001219D01*
X002277Y001182D01*
X002246Y001147D01*
X002212Y001114D01*
X002176Y001085D01*
X002137Y001059D01*
X002096Y001036D01*
X002053Y001017D01*
X002009Y001001D01*
X001964Y000989D01*
X001918Y000981D01*
X001871Y000977D01*
X001825Y000977D01*
X001778Y000981D01*
X001732Y000989D01*
X001687Y001001D01*
X001643Y001017D01*
X001600Y001036D01*
X001559Y001059D01*
X001520Y001085D01*
X001484Y001114D01*
X001450Y001147D01*
X001419Y001182D01*
X001391Y001219D01*
X001367Y001259D01*
X001346Y001301D01*
X001328Y001344D01*
X001315Y001389D01*
X001305Y001435D01*
X001299Y001481D01*
X001297Y001528D01*
X001297Y020819D02*
X001299Y020866D01*
X001305Y020912D01*
X001315Y020958D01*
X001328Y021003D01*
X001346Y021046D01*
X001367Y021088D01*
X001391Y021128D01*
X001419Y021165D01*
X001450Y021200D01*
X001484Y021233D01*
X001520Y021262D01*
X001559Y021288D01*
X001600Y021311D01*
X001643Y021330D01*
X001687Y021346D01*
X001732Y021358D01*
X001778Y021366D01*
X001825Y021370D01*
X001871Y021370D01*
X001918Y021366D01*
X001964Y021358D01*
X002009Y021346D01*
X002053Y021330D01*
X002096Y021311D01*
X002137Y021288D01*
X002176Y021262D01*
X002212Y021233D01*
X002246Y021200D01*
X002277Y021165D01*
X002305Y021128D01*
X002329Y021088D01*
X002350Y021046D01*
X002368Y021003D01*
X002381Y020958D01*
X002391Y020912D01*
X002397Y020866D01*
X002399Y020819D01*
X002397Y020772D01*
X002391Y020726D01*
X002381Y020680D01*
X002368Y020635D01*
X002350Y020592D01*
X002329Y020550D01*
X002305Y020510D01*
X002277Y020473D01*
X002246Y020438D01*
X002212Y020405D01*
X002176Y020376D01*
X002137Y020350D01*
X002096Y020327D01*
X002053Y020308D01*
X002009Y020292D01*
X001964Y020280D01*
X001918Y020272D01*
X001871Y020268D01*
X001825Y020268D01*
X001778Y020272D01*
X001732Y020280D01*
X001687Y020292D01*
X001643Y020308D01*
X001600Y020327D01*
X001559Y020350D01*
X001520Y020376D01*
X001484Y020405D01*
X001450Y020438D01*
X001419Y020473D01*
X001391Y020510D01*
X001367Y020550D01*
X001346Y020592D01*
X001328Y020635D01*
X001315Y020680D01*
X001305Y020726D01*
X001299Y020772D01*
X001297Y020819D01*
X024132Y020819D02*
X024134Y020866D01*
X024140Y020912D01*
X024150Y020958D01*
X024163Y021003D01*
X024181Y021046D01*
X024202Y021088D01*
X024226Y021128D01*
X024254Y021165D01*
X024285Y021200D01*
X024319Y021233D01*
X024355Y021262D01*
X024394Y021288D01*
X024435Y021311D01*
X024478Y021330D01*
X024522Y021346D01*
X024567Y021358D01*
X024613Y021366D01*
X024660Y021370D01*
X024706Y021370D01*
X024753Y021366D01*
X024799Y021358D01*
X024844Y021346D01*
X024888Y021330D01*
X024931Y021311D01*
X024972Y021288D01*
X025011Y021262D01*
X025047Y021233D01*
X025081Y021200D01*
X025112Y021165D01*
X025140Y021128D01*
X025164Y021088D01*
X025185Y021046D01*
X025203Y021003D01*
X025216Y020958D01*
X025226Y020912D01*
X025232Y020866D01*
X025234Y020819D01*
X025232Y020772D01*
X025226Y020726D01*
X025216Y020680D01*
X025203Y020635D01*
X025185Y020592D01*
X025164Y020550D01*
X025140Y020510D01*
X025112Y020473D01*
X025081Y020438D01*
X025047Y020405D01*
X025011Y020376D01*
X024972Y020350D01*
X024931Y020327D01*
X024888Y020308D01*
X024844Y020292D01*
X024799Y020280D01*
X024753Y020272D01*
X024706Y020268D01*
X024660Y020268D01*
X024613Y020272D01*
X024567Y020280D01*
X024522Y020292D01*
X024478Y020308D01*
X024435Y020327D01*
X024394Y020350D01*
X024355Y020376D01*
X024319Y020405D01*
X024285Y020438D01*
X024254Y020473D01*
X024226Y020510D01*
X024202Y020550D01*
X024181Y020592D01*
X024163Y020635D01*
X024150Y020680D01*
X024140Y020726D01*
X024134Y020772D01*
X024132Y020819D01*
X024132Y001528D02*
X024134Y001575D01*
X024140Y001621D01*
X024150Y001667D01*
X024163Y001712D01*
X024181Y001755D01*
X024202Y001797D01*
X024226Y001837D01*
X024254Y001874D01*
X024285Y001909D01*
X024319Y001942D01*
X024355Y001971D01*
X024394Y001997D01*
X024435Y002020D01*
X024478Y002039D01*
X024522Y002055D01*
X024567Y002067D01*
X024613Y002075D01*
X024660Y002079D01*
X024706Y002079D01*
X024753Y002075D01*
X024799Y002067D01*
X024844Y002055D01*
X024888Y002039D01*
X024931Y002020D01*
X024972Y001997D01*
X025011Y001971D01*
X025047Y001942D01*
X025081Y001909D01*
X025112Y001874D01*
X025140Y001837D01*
X025164Y001797D01*
X025185Y001755D01*
X025203Y001712D01*
X025216Y001667D01*
X025226Y001621D01*
X025232Y001575D01*
X025234Y001528D01*
X025232Y001481D01*
X025226Y001435D01*
X025216Y001389D01*
X025203Y001344D01*
X025185Y001301D01*
X025164Y001259D01*
X025140Y001219D01*
X025112Y001182D01*
X025081Y001147D01*
X025047Y001114D01*
X025011Y001085D01*
X024972Y001059D01*
X024931Y001036D01*
X024888Y001017D01*
X024844Y001001D01*
X024799Y000989D01*
X024753Y000981D01*
X024706Y000977D01*
X024660Y000977D01*
X024613Y000981D01*
X024567Y000989D01*
X024522Y001001D01*
X024478Y001017D01*
X024435Y001036D01*
X024394Y001059D01*
X024355Y001085D01*
X024319Y001114D01*
X024285Y001147D01*
X024254Y001182D01*
X024226Y001219D01*
X024202Y001259D01*
X024181Y001301D01*
X024163Y001344D01*
X024150Y001389D01*
X024140Y001435D01*
X024134Y001481D01*
X024132Y001528D01*
D11*
X000470Y001331D02*
X000470Y007433D01*
X000472Y007472D01*
X000478Y007510D01*
X000487Y007547D01*
X000500Y007584D01*
X000517Y007619D01*
X000536Y007652D01*
X000559Y007683D01*
X000585Y007712D01*
X000614Y007738D01*
X000645Y007761D01*
X000678Y007780D01*
X000713Y007797D01*
X000750Y007810D01*
X000787Y007819D01*
X000825Y007825D01*
X000864Y007827D01*
X002045Y007827D01*
X002084Y007829D01*
X002122Y007835D01*
X002159Y007844D01*
X002196Y007857D01*
X002231Y007874D01*
X002264Y007893D01*
X002295Y007916D01*
X002324Y007942D01*
X002350Y007971D01*
X002373Y008002D01*
X002392Y008035D01*
X002409Y008070D01*
X002422Y008107D01*
X002431Y008144D01*
X002437Y008182D01*
X002439Y008221D01*
X002439Y014126D01*
X002437Y014165D01*
X002431Y014203D01*
X002422Y014240D01*
X002409Y014277D01*
X002392Y014312D01*
X002373Y014345D01*
X002350Y014376D01*
X002324Y014405D01*
X002295Y014431D01*
X002264Y014454D01*
X002231Y014473D01*
X002196Y014490D01*
X002159Y014503D01*
X002122Y014512D01*
X002084Y014518D01*
X002045Y014520D01*
X000864Y014520D01*
X000825Y014522D01*
X000787Y014528D01*
X000750Y014537D01*
X000713Y014550D01*
X000678Y014567D01*
X000645Y014586D01*
X000614Y014609D01*
X000585Y014635D01*
X000559Y014664D01*
X000536Y014695D01*
X000517Y014728D01*
X000500Y014763D01*
X000487Y014800D01*
X000478Y014837D01*
X000472Y014875D01*
X000470Y014914D01*
X000470Y021016D01*
X000472Y021082D01*
X000477Y021148D01*
X000487Y021214D01*
X000500Y021279D01*
X000516Y021343D01*
X000536Y021406D01*
X000560Y021468D01*
X000587Y021528D01*
X000617Y021587D01*
X000651Y021644D01*
X000688Y021699D01*
X000728Y021752D01*
X000770Y021803D01*
X000816Y021851D01*
X000864Y021897D01*
X000915Y021939D01*
X000968Y021979D01*
X001023Y022016D01*
X001080Y022050D01*
X001139Y022080D01*
X001199Y022107D01*
X001261Y022131D01*
X001324Y022151D01*
X001388Y022167D01*
X001453Y022180D01*
X001519Y022190D01*
X001585Y022195D01*
X001651Y022197D01*
X024879Y022197D01*
X024945Y022195D01*
X025011Y022190D01*
X025077Y022180D01*
X025142Y022167D01*
X025206Y022151D01*
X025269Y022131D01*
X025331Y022107D01*
X025391Y022080D01*
X025450Y022050D01*
X025507Y022016D01*
X025562Y021979D01*
X025615Y021939D01*
X025666Y021897D01*
X025714Y021851D01*
X025760Y021803D01*
X025802Y021752D01*
X025842Y021699D01*
X025879Y021644D01*
X025913Y021587D01*
X025943Y021528D01*
X025970Y021468D01*
X025994Y021406D01*
X026014Y021343D01*
X026030Y021279D01*
X026043Y021214D01*
X026053Y021148D01*
X026058Y021082D01*
X026060Y021016D01*
X026061Y021016D02*
X026061Y001331D01*
X026060Y001331D02*
X026058Y001265D01*
X026053Y001199D01*
X026043Y001133D01*
X026030Y001068D01*
X026014Y001004D01*
X025994Y000941D01*
X025970Y000879D01*
X025943Y000819D01*
X025913Y000760D01*
X025879Y000703D01*
X025842Y000648D01*
X025802Y000595D01*
X025760Y000544D01*
X025714Y000496D01*
X025666Y000450D01*
X025615Y000408D01*
X025562Y000368D01*
X025507Y000331D01*
X025450Y000297D01*
X025391Y000267D01*
X025331Y000240D01*
X025269Y000216D01*
X025206Y000196D01*
X025142Y000180D01*
X025077Y000167D01*
X025011Y000157D01*
X024945Y000152D01*
X024879Y000150D01*
X001651Y000150D01*
X001585Y000152D01*
X001519Y000157D01*
X001453Y000167D01*
X001388Y000180D01*
X001324Y000196D01*
X001261Y000216D01*
X001199Y000240D01*
X001139Y000267D01*
X001080Y000297D01*
X001023Y000331D01*
X000968Y000368D01*
X000915Y000408D01*
X000864Y000450D01*
X000816Y000496D01*
X000770Y000544D01*
X000728Y000595D01*
X000688Y000648D01*
X000651Y000703D01*
X000617Y000760D01*
X000587Y000819D01*
X000560Y000879D01*
X000536Y000941D01*
X000516Y001004D01*
X000500Y001068D01*
X000487Y001133D01*
X000477Y001199D01*
X000472Y001265D01*
X000470Y001331D01*
D12*
X004765Y020319D03*
X005765Y020319D03*
X006765Y020319D03*
X007765Y020319D03*
X008765Y020319D03*
X009765Y020319D03*
X010765Y020319D03*
X011765Y020319D03*
X012765Y020319D03*
X013765Y020319D03*
X014765Y020319D03*
X015765Y020319D03*
X016765Y020319D03*
X017765Y020319D03*
X018765Y020319D03*
X019765Y020319D03*
X020765Y020319D03*
X021765Y020319D03*
X022765Y020319D03*
X022765Y021319D03*
X021765Y021319D03*
X020765Y021319D03*
X019765Y021319D03*
X018765Y021319D03*
X017765Y021319D03*
X016765Y021319D03*
X015765Y021319D03*
X014765Y021319D03*
X013765Y021319D03*
X012765Y021319D03*
X011765Y021319D03*
X010765Y021319D03*
X009765Y021319D03*
X008765Y021319D03*
X007765Y021319D03*
X006765Y021319D03*
X005765Y021319D03*
X004765Y021319D03*
X003765Y021319D03*
D13*
X003765Y020319D03*
D14*
X002339Y018525D03*
X001839Y018525D03*
X001339Y018525D03*
X000839Y018525D03*
X000839Y015875D03*
X001339Y015875D03*
X001839Y015875D03*
X002339Y015875D03*
D15*
X003040Y015546D03*
X003040Y014854D03*
X003040Y014146D03*
X003040Y016254D03*
X003050Y016846D03*
X003050Y017554D03*
X003070Y018096D03*
X003070Y018804D03*
X005870Y017954D03*
X005870Y017246D03*
X005870Y015514D03*
X005870Y014806D03*
X005870Y013074D03*
X005870Y012366D03*
X005870Y010634D03*
X005870Y009926D03*
X005870Y008194D03*
X005870Y007486D03*
X005870Y005754D03*
X005870Y005046D03*
X005870Y003264D03*
X005870Y002556D03*
X008370Y002556D03*
X008370Y003264D03*
X008370Y005046D03*
X008370Y005754D03*
X008370Y007486D03*
X008370Y008194D03*
X008370Y009926D03*
X008370Y010634D03*
X008370Y012366D03*
X008370Y013074D03*
X008370Y014806D03*
X008370Y015514D03*
X008370Y017246D03*
X008370Y017954D03*
X010870Y017954D03*
X010870Y017246D03*
X010870Y015514D03*
X010870Y014806D03*
X010870Y013074D03*
X010870Y012366D03*
X010870Y010634D03*
X010870Y009926D03*
X010870Y008194D03*
X010870Y007486D03*
X010870Y005754D03*
X010870Y005046D03*
X010870Y003264D03*
X010870Y002556D03*
X013370Y002556D03*
X013370Y003264D03*
X013370Y005046D03*
X013370Y005754D03*
X013370Y007486D03*
X013370Y008194D03*
X013370Y009926D03*
X013370Y010634D03*
X013370Y012366D03*
X013370Y013074D03*
X013370Y014806D03*
X013370Y015514D03*
X013370Y017246D03*
X013370Y017954D03*
X015870Y017954D03*
X015870Y017246D03*
X015870Y015564D03*
X015870Y014856D03*
X015870Y013074D03*
X015870Y012366D03*
X015870Y010634D03*
X015870Y009926D03*
X015870Y008194D03*
X015870Y007486D03*
X015870Y005754D03*
X015870Y005046D03*
X015870Y003264D03*
X015870Y002556D03*
X018370Y002556D03*
X018370Y003264D03*
X018370Y005046D03*
X018370Y005754D03*
X018370Y007486D03*
X018370Y008194D03*
X018370Y009926D03*
X018370Y010634D03*
X018370Y012366D03*
X018370Y013074D03*
X018370Y014806D03*
X018370Y015514D03*
X018370Y017296D03*
X018370Y018004D03*
X020870Y017954D03*
X020870Y017246D03*
X020870Y015514D03*
X020870Y014806D03*
X020870Y013074D03*
X020870Y012366D03*
X020870Y010634D03*
X020870Y009926D03*
X020870Y008194D03*
X020870Y007486D03*
X020870Y005754D03*
X020870Y005046D03*
X020870Y003264D03*
X020870Y002556D03*
D16*
X001270Y014803D03*
X001270Y015157D03*
D17*
X003990Y015344D03*
X004620Y015344D03*
X005250Y015344D03*
X005250Y014636D03*
X004620Y014636D03*
X003990Y014636D03*
X003990Y012904D03*
X004620Y012904D03*
X005250Y012904D03*
X005250Y012196D03*
X004620Y012196D03*
X003990Y012196D03*
X003990Y010464D03*
X004620Y010464D03*
X005250Y010464D03*
X005250Y009756D03*
X004620Y009756D03*
X003990Y009756D03*
X003990Y008024D03*
X004620Y008024D03*
X005250Y008024D03*
X005250Y007316D03*
X004620Y007316D03*
X003990Y007316D03*
X003990Y005584D03*
X004620Y005584D03*
X005250Y005584D03*
X005250Y004876D03*
X004620Y004876D03*
X003990Y004876D03*
X003990Y003144D03*
X004620Y003144D03*
X005250Y003144D03*
X005250Y002436D03*
X004620Y002436D03*
X003990Y002436D03*
X003990Y000704D03*
X004620Y000704D03*
X005250Y000704D03*
X006490Y000704D03*
X007120Y000704D03*
X007750Y000704D03*
X008990Y000704D03*
X009620Y000704D03*
X010250Y000704D03*
X011490Y000704D03*
X012120Y000704D03*
X012750Y000704D03*
X013990Y000704D03*
X014620Y000704D03*
X015250Y000704D03*
X016490Y000704D03*
X017120Y000704D03*
X017750Y000704D03*
X018990Y000704D03*
X019620Y000704D03*
X020250Y000704D03*
X021490Y000704D03*
X022120Y000704D03*
X022750Y000704D03*
X022750Y002436D03*
X022120Y002436D03*
X021490Y002436D03*
X021490Y003144D03*
X022120Y003144D03*
X022750Y003144D03*
X022750Y004876D03*
X022120Y004876D03*
X021490Y004876D03*
X021490Y005584D03*
X022120Y005584D03*
X022750Y005584D03*
X022750Y007316D03*
X022120Y007316D03*
X021490Y007316D03*
X021490Y008024D03*
X022120Y008024D03*
X022750Y008024D03*
X022750Y009756D03*
X022120Y009756D03*
X021490Y009756D03*
X021490Y010464D03*
X022120Y010464D03*
X022750Y010464D03*
X022750Y012196D03*
X022120Y012196D03*
X021490Y012196D03*
X021490Y012904D03*
X022120Y012904D03*
X022750Y012904D03*
X022750Y014636D03*
X022120Y014636D03*
X021490Y014636D03*
X021490Y015344D03*
X022120Y015344D03*
X022750Y015344D03*
X022750Y017076D03*
X022120Y017076D03*
X021490Y017076D03*
X021490Y017784D03*
X022120Y017784D03*
X022750Y017784D03*
X022750Y019516D03*
X022120Y019516D03*
X021490Y019516D03*
X020250Y019516D03*
X019620Y019516D03*
X018990Y019516D03*
X017750Y019516D03*
X017120Y019516D03*
X016490Y019516D03*
X015250Y019516D03*
X014620Y019516D03*
X013990Y019516D03*
X012750Y019516D03*
X012120Y019516D03*
X011490Y019516D03*
X010250Y019516D03*
X009620Y019516D03*
X008990Y019516D03*
X007750Y019516D03*
X007120Y019516D03*
X006490Y019516D03*
X005250Y019516D03*
X004620Y019516D03*
X003990Y019516D03*
X003990Y017784D03*
X004620Y017784D03*
X005250Y017784D03*
X005250Y017076D03*
X004620Y017076D03*
X003990Y017076D03*
X006490Y017076D03*
X007120Y017076D03*
X007750Y017076D03*
X007750Y017784D03*
X007120Y017784D03*
X006490Y017784D03*
X008990Y017784D03*
X009620Y017784D03*
X010250Y017784D03*
X010250Y017076D03*
X009620Y017076D03*
X008990Y017076D03*
X008990Y015344D03*
X009620Y015344D03*
X010250Y015344D03*
X010250Y014636D03*
X009620Y014636D03*
X008990Y014636D03*
X007750Y014636D03*
X007120Y014636D03*
X006490Y014636D03*
X006490Y015344D03*
X007120Y015344D03*
X007750Y015344D03*
X007750Y012904D03*
X007120Y012904D03*
X006490Y012904D03*
X006490Y012196D03*
X007120Y012196D03*
X007750Y012196D03*
X008990Y012196D03*
X009620Y012196D03*
X010250Y012196D03*
X010250Y012904D03*
X009620Y012904D03*
X008990Y012904D03*
X011490Y012904D03*
X012120Y012904D03*
X012750Y012904D03*
X012750Y012196D03*
X012120Y012196D03*
X011490Y012196D03*
X011490Y010464D03*
X012120Y010464D03*
X012750Y010464D03*
X012750Y009756D03*
X012120Y009756D03*
X011490Y009756D03*
X010250Y009756D03*
X009620Y009756D03*
X008990Y009756D03*
X008990Y010464D03*
X009620Y010464D03*
X010250Y010464D03*
X007750Y010464D03*
X007120Y010464D03*
X006490Y010464D03*
X006490Y009756D03*
X007120Y009756D03*
X007750Y009756D03*
X007750Y008024D03*
X007120Y008024D03*
X006490Y008024D03*
X006490Y007316D03*
X007120Y007316D03*
X007750Y007316D03*
X008990Y007316D03*
X009620Y007316D03*
X010250Y007316D03*
X010250Y008024D03*
X009620Y008024D03*
X008990Y008024D03*
X011490Y008024D03*
X012120Y008024D03*
X012750Y008024D03*
X012750Y007316D03*
X012120Y007316D03*
X011490Y007316D03*
X011490Y005584D03*
X012120Y005584D03*
X012750Y005584D03*
X012750Y004876D03*
X012120Y004876D03*
X011490Y004876D03*
X010250Y004876D03*
X009620Y004876D03*
X008990Y004876D03*
X008990Y005584D03*
X009620Y005584D03*
X010250Y005584D03*
X010250Y003144D03*
X009620Y003144D03*
X008990Y003144D03*
X008990Y002436D03*
X009620Y002436D03*
X010250Y002436D03*
X011490Y002436D03*
X012120Y002436D03*
X012750Y002436D03*
X012750Y003144D03*
X012120Y003144D03*
X011490Y003144D03*
X013990Y003144D03*
X014620Y003144D03*
X015250Y003144D03*
X015250Y002436D03*
X014620Y002436D03*
X013990Y002436D03*
X016490Y002436D03*
X017120Y002436D03*
X017750Y002436D03*
X017750Y003144D03*
X017120Y003144D03*
X016490Y003144D03*
X016490Y004876D03*
X017120Y004876D03*
X017750Y004876D03*
X017750Y005584D03*
X017120Y005584D03*
X016490Y005584D03*
X015250Y005584D03*
X014620Y005584D03*
X013990Y005584D03*
X013990Y004876D03*
X014620Y004876D03*
X015250Y004876D03*
X015250Y007316D03*
X014620Y007316D03*
X013990Y007316D03*
X013990Y008024D03*
X014620Y008024D03*
X015250Y008024D03*
X016490Y008024D03*
X017120Y008024D03*
X017750Y008024D03*
X017750Y007316D03*
X017120Y007316D03*
X016490Y007316D03*
X018990Y007316D03*
X019620Y007316D03*
X020250Y007316D03*
X020250Y008024D03*
X019620Y008024D03*
X018990Y008024D03*
X018990Y009756D03*
X019620Y009756D03*
X020250Y009756D03*
X020250Y010464D03*
X019620Y010464D03*
X018990Y010464D03*
X017750Y010464D03*
X017120Y010464D03*
X016490Y010464D03*
X016490Y009756D03*
X017120Y009756D03*
X017750Y009756D03*
X015250Y009756D03*
X014620Y009756D03*
X013990Y009756D03*
X013990Y010464D03*
X014620Y010464D03*
X015250Y010464D03*
X015250Y012196D03*
X014620Y012196D03*
X013990Y012196D03*
X013990Y012904D03*
X014620Y012904D03*
X015250Y012904D03*
X016490Y012904D03*
X017120Y012904D03*
X017750Y012904D03*
X017750Y012196D03*
X017120Y012196D03*
X016490Y012196D03*
X018990Y012196D03*
X019620Y012196D03*
X020250Y012196D03*
X020250Y012904D03*
X019620Y012904D03*
X018990Y012904D03*
X018990Y014636D03*
X019620Y014636D03*
X020250Y014636D03*
X020250Y015344D03*
X019620Y015344D03*
X018990Y015344D03*
X017750Y015344D03*
X017120Y015344D03*
X016490Y015344D03*
X016490Y014636D03*
X017120Y014636D03*
X017750Y014636D03*
X015250Y014636D03*
X014620Y014636D03*
X013990Y014636D03*
X013990Y015344D03*
X014620Y015344D03*
X015250Y015344D03*
X015250Y017076D03*
X014620Y017076D03*
X013990Y017076D03*
X013990Y017784D03*
X014620Y017784D03*
X015250Y017784D03*
X016490Y017784D03*
X017120Y017784D03*
X017750Y017784D03*
X017750Y017076D03*
X017120Y017076D03*
X016490Y017076D03*
X018990Y017076D03*
X019620Y017076D03*
X020250Y017076D03*
X020250Y017784D03*
X019620Y017784D03*
X018990Y017784D03*
X012750Y017784D03*
X012120Y017784D03*
X011490Y017784D03*
X011490Y017076D03*
X012120Y017076D03*
X012750Y017076D03*
X012750Y015344D03*
X012120Y015344D03*
X011490Y015344D03*
X011490Y014636D03*
X012120Y014636D03*
X012750Y014636D03*
X007750Y005584D03*
X007120Y005584D03*
X006490Y005584D03*
X006490Y004876D03*
X007120Y004876D03*
X007750Y004876D03*
X007750Y003144D03*
X007120Y003144D03*
X006490Y003144D03*
X006490Y002436D03*
X007120Y002436D03*
X007750Y002436D03*
X018990Y002436D03*
X019620Y002436D03*
X020250Y002436D03*
X020250Y003144D03*
X019620Y003144D03*
X018990Y003144D03*
X018990Y004876D03*
X019620Y004876D03*
X020250Y004876D03*
X020250Y005584D03*
X019620Y005584D03*
X018990Y005584D03*
D18*
X018717Y005970D02*
X018717Y005991D01*
X018707Y006029D01*
X018687Y006063D01*
X018659Y006091D01*
X018625Y006111D01*
X018587Y006121D01*
X018418Y006121D01*
X018418Y005803D01*
X018322Y005803D01*
X018322Y006121D01*
X018153Y006121D01*
X018115Y006111D01*
X018081Y006091D01*
X018053Y006063D01*
X018033Y006029D01*
X018023Y005991D01*
X018023Y005970D01*
X017460Y005970D01*
X017435Y005945D01*
X017410Y005970D01*
X016830Y005970D01*
X016805Y005945D01*
X016780Y005970D01*
X016217Y005970D01*
X016217Y005991D01*
X016207Y006029D01*
X016187Y006063D01*
X016159Y006091D01*
X016125Y006111D01*
X016087Y006121D01*
X015918Y006121D01*
X015918Y005803D01*
X015822Y005803D01*
X015822Y006121D01*
X015653Y006121D01*
X015615Y006111D01*
X015581Y006091D01*
X015553Y006063D01*
X015533Y006029D01*
X015523Y005991D01*
X015523Y005985D01*
X015506Y005990D01*
X015300Y005990D01*
X015300Y005634D01*
X015200Y005634D01*
X015200Y005990D01*
X014994Y005990D01*
X014956Y005980D01*
X014922Y005960D01*
X014921Y005959D01*
X014910Y005970D01*
X014330Y005970D01*
X014305Y005945D01*
X014280Y005970D01*
X013717Y005970D01*
X013717Y005991D01*
X013707Y006029D01*
X013687Y006063D01*
X013659Y006091D01*
X013625Y006111D01*
X013587Y006121D01*
X013418Y006121D01*
X013418Y005803D01*
X013322Y005803D01*
X013322Y006121D01*
X013153Y006121D01*
X013115Y006111D01*
X013081Y006091D01*
X013053Y006063D01*
X013033Y006029D01*
X013023Y005991D01*
X013023Y005970D01*
X012460Y005970D01*
X012435Y005945D01*
X012410Y005970D01*
X011830Y005970D01*
X011805Y005945D01*
X011780Y005970D01*
X011217Y005970D01*
X011217Y005991D01*
X011207Y006029D01*
X011187Y006063D01*
X011159Y006091D01*
X011125Y006111D01*
X011087Y006121D01*
X010918Y006121D01*
X010918Y005803D01*
X010822Y005803D01*
X010822Y006121D01*
X010653Y006121D01*
X010615Y006111D01*
X010581Y006091D01*
X010553Y006063D01*
X010533Y006029D01*
X010523Y005991D01*
X010523Y005985D01*
X010506Y005990D01*
X010300Y005990D01*
X010300Y005634D01*
X010200Y005634D01*
X010200Y005990D01*
X009994Y005990D01*
X009956Y005980D01*
X009922Y005960D01*
X009921Y005959D01*
X009910Y005970D01*
X009330Y005970D01*
X009305Y005945D01*
X009280Y005970D01*
X008717Y005970D01*
X008717Y005991D01*
X008707Y006029D01*
X008687Y006063D01*
X008659Y006091D01*
X008625Y006111D01*
X008587Y006121D01*
X008418Y006121D01*
X008418Y005803D01*
X008322Y005803D01*
X008322Y006121D01*
X008153Y006121D01*
X008115Y006111D01*
X008081Y006091D01*
X008053Y006063D01*
X008033Y006029D01*
X008023Y005991D01*
X008023Y005970D01*
X007460Y005970D01*
X007435Y005945D01*
X007410Y005970D01*
X006830Y005970D01*
X006805Y005945D01*
X006780Y005970D01*
X006217Y005970D01*
X006217Y005991D01*
X006207Y006029D01*
X006187Y006063D01*
X006159Y006091D01*
X006125Y006111D01*
X006087Y006121D01*
X005918Y006121D01*
X005918Y005803D01*
X005822Y005803D01*
X005822Y006121D01*
X005653Y006121D01*
X005615Y006111D01*
X005581Y006091D01*
X005553Y006063D01*
X005533Y006029D01*
X005523Y005991D01*
X005523Y005985D01*
X005506Y005990D01*
X005300Y005990D01*
X005300Y005634D01*
X005200Y005634D01*
X005200Y005990D01*
X004994Y005990D01*
X004956Y005980D01*
X004922Y005960D01*
X004921Y005959D01*
X004910Y005970D01*
X004330Y005970D01*
X004305Y005945D01*
X004280Y005970D01*
X003700Y005970D01*
X003624Y005894D01*
X003624Y005274D01*
X003668Y005230D01*
X003624Y005186D01*
X003624Y004566D01*
X003700Y004490D01*
X004280Y004490D01*
X004305Y004515D01*
X004330Y004490D01*
X004910Y004490D01*
X004935Y004515D01*
X004960Y004490D01*
X005010Y004490D01*
X005010Y004431D01*
X004961Y004383D01*
X004915Y004271D01*
X004915Y004149D01*
X004961Y004037D01*
X005047Y003951D01*
X005159Y003905D01*
X005281Y003905D01*
X005393Y003951D01*
X005479Y004037D01*
X005525Y004149D01*
X005525Y004271D01*
X005479Y004383D01*
X005430Y004431D01*
X005430Y004490D01*
X005540Y004490D01*
X005616Y004566D01*
X005616Y004702D01*
X005619Y004699D01*
X006104Y004699D01*
X006104Y004600D01*
X006114Y004562D01*
X006134Y004528D01*
X006162Y004500D01*
X006196Y004480D01*
X006234Y004470D01*
X006440Y004470D01*
X006440Y004826D01*
X006540Y004826D01*
X006540Y004470D01*
X006746Y004470D01*
X006784Y004480D01*
X006818Y004500D01*
X006819Y004501D01*
X006830Y004490D01*
X007410Y004490D01*
X007435Y004515D01*
X007460Y004490D01*
X008040Y004490D01*
X008116Y004566D01*
X008116Y004702D01*
X008119Y004699D01*
X008160Y004699D01*
X008160Y004073D01*
X008215Y004018D01*
X008215Y003949D01*
X008261Y003837D01*
X008347Y003751D01*
X008459Y003705D01*
X008581Y003705D01*
X008693Y003751D01*
X008779Y003837D01*
X008825Y003949D01*
X008825Y004071D01*
X008779Y004183D01*
X008693Y004269D01*
X008581Y004315D01*
X008580Y004315D01*
X008580Y004699D01*
X008621Y004699D01*
X008624Y004702D01*
X008624Y004566D01*
X008700Y004490D01*
X009280Y004490D01*
X009305Y004515D01*
X009330Y004490D01*
X009910Y004490D01*
X009935Y004515D01*
X009960Y004490D01*
X010040Y004490D01*
X010040Y004093D01*
X010115Y004018D01*
X010115Y003949D01*
X010161Y003837D01*
X010247Y003751D01*
X010359Y003705D01*
X010481Y003705D01*
X010593Y003751D01*
X010679Y003837D01*
X010725Y003949D01*
X010725Y004071D01*
X010679Y004183D01*
X010593Y004269D01*
X010481Y004315D01*
X010460Y004315D01*
X010460Y004490D01*
X010540Y004490D01*
X010616Y004566D01*
X010616Y004702D01*
X010619Y004699D01*
X011104Y004699D01*
X011104Y004600D01*
X011114Y004562D01*
X011134Y004528D01*
X011162Y004500D01*
X011196Y004480D01*
X011234Y004470D01*
X011440Y004470D01*
X011440Y004826D01*
X011540Y004826D01*
X011540Y004470D01*
X011746Y004470D01*
X011784Y004480D01*
X011818Y004500D01*
X011819Y004501D01*
X011830Y004490D01*
X012410Y004490D01*
X012435Y004515D01*
X012460Y004490D01*
X013040Y004490D01*
X013116Y004566D01*
X013116Y004702D01*
X013119Y004699D01*
X013160Y004699D01*
X013160Y004123D01*
X013265Y004018D01*
X013265Y003949D01*
X013311Y003837D01*
X013397Y003751D01*
X013509Y003705D01*
X013631Y003705D01*
X013743Y003751D01*
X013829Y003837D01*
X013875Y003949D01*
X013875Y004071D01*
X013829Y004183D01*
X013743Y004269D01*
X013631Y004315D01*
X013580Y004315D01*
X013580Y004699D01*
X013621Y004699D01*
X013624Y004702D01*
X013624Y004566D01*
X013700Y004490D01*
X014280Y004490D01*
X014305Y004515D01*
X014330Y004490D01*
X014910Y004490D01*
X014935Y004515D01*
X014960Y004490D01*
X015040Y004490D01*
X015040Y004093D01*
X015115Y004018D01*
X015115Y003949D01*
X015161Y003837D01*
X015247Y003751D01*
X015359Y003705D01*
X015481Y003705D01*
X015593Y003751D01*
X015679Y003837D01*
X015725Y003949D01*
X015725Y004071D01*
X015679Y004183D01*
X015593Y004269D01*
X015481Y004315D01*
X015460Y004315D01*
X015460Y004490D01*
X015540Y004490D01*
X015616Y004566D01*
X015616Y004702D01*
X015619Y004699D01*
X016104Y004699D01*
X016104Y004600D01*
X016114Y004562D01*
X016134Y004528D01*
X016162Y004500D01*
X016196Y004480D01*
X016234Y004470D01*
X016440Y004470D01*
X016440Y004826D01*
X016540Y004826D01*
X016540Y004470D01*
X016746Y004470D01*
X016784Y004480D01*
X016818Y004500D01*
X016819Y004501D01*
X016830Y004490D01*
X017410Y004490D01*
X017435Y004515D01*
X017460Y004490D01*
X018040Y004490D01*
X018116Y004566D01*
X018116Y004702D01*
X018119Y004699D01*
X018160Y004699D01*
X018160Y004073D01*
X018215Y004018D01*
X018215Y003949D01*
X018261Y003837D01*
X018347Y003751D01*
X018459Y003705D01*
X018581Y003705D01*
X018693Y003751D01*
X018779Y003837D01*
X018825Y003949D01*
X018825Y004071D01*
X018779Y004183D01*
X018693Y004269D01*
X018581Y004315D01*
X018580Y004315D01*
X018580Y004699D01*
X018621Y004699D01*
X018624Y004702D01*
X018624Y004566D01*
X018700Y004490D01*
X019280Y004490D01*
X019305Y004515D01*
X019330Y004490D01*
X019910Y004490D01*
X019935Y004515D01*
X019960Y004490D01*
X020040Y004490D01*
X020040Y004043D01*
X020065Y004018D01*
X020065Y003949D01*
X020111Y003837D01*
X020197Y003751D01*
X020309Y003705D01*
X020431Y003705D01*
X020543Y003751D01*
X020629Y003837D01*
X020675Y003949D01*
X020675Y004071D01*
X020629Y004183D01*
X020543Y004269D01*
X020460Y004303D01*
X020460Y004490D01*
X020540Y004490D01*
X020616Y004566D01*
X020616Y004702D01*
X020619Y004699D01*
X021104Y004699D01*
X021104Y004600D01*
X021114Y004562D01*
X021134Y004528D01*
X021162Y004500D01*
X021196Y004480D01*
X021234Y004470D01*
X021440Y004470D01*
X021440Y004826D01*
X021540Y004826D01*
X021540Y004470D01*
X021746Y004470D01*
X021784Y004480D01*
X021818Y004500D01*
X021819Y004501D01*
X021830Y004490D01*
X022410Y004490D01*
X022435Y004515D01*
X022460Y004490D01*
X023040Y004490D01*
X023116Y004566D01*
X023116Y005186D01*
X023072Y005230D01*
X023116Y005274D01*
X023116Y005894D01*
X023040Y005970D01*
X022460Y005970D01*
X022435Y005945D01*
X022410Y005970D01*
X021830Y005970D01*
X021805Y005945D01*
X021791Y005958D01*
X021825Y006039D01*
X021825Y006161D01*
X021779Y006273D01*
X021693Y006359D01*
X021581Y006405D01*
X021459Y006405D01*
X021347Y006359D01*
X021261Y006273D01*
X021215Y006161D01*
X021215Y006039D01*
X021244Y005970D01*
X021217Y005970D01*
X021217Y005991D01*
X021207Y006029D01*
X021187Y006063D01*
X021159Y006091D01*
X021125Y006111D01*
X021087Y006121D01*
X020918Y006121D01*
X020918Y005803D01*
X020822Y005803D01*
X020822Y006121D01*
X020653Y006121D01*
X020615Y006111D01*
X020581Y006091D01*
X020553Y006063D01*
X020533Y006029D01*
X020523Y005991D01*
X020523Y005985D01*
X020506Y005990D01*
X020300Y005990D01*
X020300Y005634D01*
X020200Y005634D01*
X020200Y005990D01*
X019994Y005990D01*
X019956Y005980D01*
X019922Y005960D01*
X019921Y005959D01*
X019910Y005970D01*
X019330Y005970D01*
X019305Y005945D01*
X019280Y005970D01*
X018717Y005970D01*
X018689Y006060D02*
X020551Y006060D01*
X020543Y006191D02*
X020629Y006277D01*
X020675Y006389D01*
X020675Y006511D01*
X020629Y006623D01*
X020543Y006709D01*
X020460Y006743D01*
X020460Y006930D01*
X020540Y006930D01*
X020616Y007006D01*
X020616Y007142D01*
X020619Y007139D01*
X021104Y007139D01*
X021104Y007040D01*
X021114Y007002D01*
X021134Y006968D01*
X021162Y006940D01*
X021196Y006920D01*
X021234Y006910D01*
X021440Y006910D01*
X021440Y007266D01*
X021540Y007266D01*
X021540Y006910D01*
X021746Y006910D01*
X021784Y006920D01*
X021818Y006940D01*
X021819Y006941D01*
X021830Y006930D01*
X022410Y006930D01*
X022435Y006955D01*
X022460Y006930D01*
X023040Y006930D01*
X023116Y007006D01*
X023116Y007626D01*
X023072Y007670D01*
X023116Y007714D01*
X023116Y008334D01*
X023040Y008410D01*
X022460Y008410D01*
X022435Y008385D01*
X022410Y008410D01*
X021830Y008410D01*
X021805Y008385D01*
X021780Y008410D01*
X021771Y008410D01*
X021779Y008417D01*
X021825Y008529D01*
X021825Y008651D01*
X021779Y008763D01*
X021693Y008849D01*
X021581Y008895D01*
X021459Y008895D01*
X021347Y008849D01*
X021261Y008763D01*
X021215Y008651D01*
X021215Y008529D01*
X021261Y008417D01*
X021269Y008410D01*
X021217Y008410D01*
X021217Y008431D01*
X021207Y008469D01*
X021187Y008503D01*
X021159Y008531D01*
X021125Y008551D01*
X021087Y008561D01*
X020918Y008561D01*
X020918Y008243D01*
X020822Y008243D01*
X020822Y008561D01*
X020653Y008561D01*
X020615Y008551D01*
X020581Y008531D01*
X020553Y008503D01*
X020533Y008469D01*
X020523Y008431D01*
X020523Y008425D01*
X020506Y008430D01*
X020300Y008430D01*
X020300Y008074D01*
X020200Y008074D01*
X020200Y008430D01*
X019994Y008430D01*
X019956Y008420D01*
X019922Y008400D01*
X019921Y008399D01*
X019910Y008410D01*
X019330Y008410D01*
X019305Y008385D01*
X019280Y008410D01*
X018717Y008410D01*
X018717Y008431D01*
X018707Y008469D01*
X018687Y008503D01*
X018659Y008531D01*
X018625Y008551D01*
X018587Y008561D01*
X018418Y008561D01*
X018418Y008243D01*
X018322Y008243D01*
X018322Y008561D01*
X018153Y008561D01*
X018115Y008551D01*
X018081Y008531D01*
X018053Y008503D01*
X018033Y008469D01*
X018023Y008431D01*
X018023Y008410D01*
X017460Y008410D01*
X017435Y008385D01*
X017410Y008410D01*
X016830Y008410D01*
X016805Y008385D01*
X016780Y008410D01*
X016217Y008410D01*
X016217Y008431D01*
X016207Y008469D01*
X016187Y008503D01*
X016159Y008531D01*
X016125Y008551D01*
X016087Y008561D01*
X015918Y008561D01*
X015918Y008243D01*
X015822Y008243D01*
X015822Y008561D01*
X015653Y008561D01*
X015615Y008551D01*
X015581Y008531D01*
X015553Y008503D01*
X015533Y008469D01*
X015523Y008431D01*
X015523Y008425D01*
X015506Y008430D01*
X015300Y008430D01*
X015300Y008074D01*
X015200Y008074D01*
X015200Y008430D01*
X014994Y008430D01*
X014956Y008420D01*
X014922Y008400D01*
X014921Y008399D01*
X014910Y008410D01*
X014330Y008410D01*
X014305Y008385D01*
X014280Y008410D01*
X013717Y008410D01*
X013717Y008431D01*
X013707Y008469D01*
X013687Y008503D01*
X013659Y008531D01*
X013625Y008551D01*
X013587Y008561D01*
X013418Y008561D01*
X013418Y008243D01*
X013322Y008243D01*
X013322Y008561D01*
X013153Y008561D01*
X013115Y008551D01*
X013081Y008531D01*
X013053Y008503D01*
X013033Y008469D01*
X013023Y008431D01*
X013023Y008410D01*
X012460Y008410D01*
X012435Y008385D01*
X012410Y008410D01*
X011830Y008410D01*
X011805Y008385D01*
X011780Y008410D01*
X011217Y008410D01*
X011217Y008431D01*
X011207Y008469D01*
X011187Y008503D01*
X011159Y008531D01*
X011125Y008551D01*
X011087Y008561D01*
X010918Y008561D01*
X010918Y008243D01*
X010822Y008243D01*
X010822Y008561D01*
X010653Y008561D01*
X010615Y008551D01*
X010581Y008531D01*
X010553Y008503D01*
X010533Y008469D01*
X010523Y008431D01*
X010523Y008425D01*
X010506Y008430D01*
X010300Y008430D01*
X010300Y008074D01*
X010200Y008074D01*
X010200Y008430D01*
X009994Y008430D01*
X009956Y008420D01*
X009922Y008400D01*
X009921Y008399D01*
X009910Y008410D01*
X009330Y008410D01*
X009305Y008385D01*
X009280Y008410D01*
X008717Y008410D01*
X008717Y008431D01*
X008707Y008469D01*
X008687Y008503D01*
X008659Y008531D01*
X008625Y008551D01*
X008587Y008561D01*
X008418Y008561D01*
X008418Y008243D01*
X008322Y008243D01*
X008322Y008561D01*
X008153Y008561D01*
X008115Y008551D01*
X008081Y008531D01*
X008053Y008503D01*
X008033Y008469D01*
X008023Y008431D01*
X008023Y008410D01*
X007460Y008410D01*
X007435Y008385D01*
X007410Y008410D01*
X006830Y008410D01*
X006805Y008385D01*
X006780Y008410D01*
X006217Y008410D01*
X006217Y008431D01*
X006207Y008469D01*
X006187Y008503D01*
X006159Y008531D01*
X006125Y008551D01*
X006087Y008561D01*
X005918Y008561D01*
X005918Y008243D01*
X005822Y008243D01*
X005822Y008561D01*
X005653Y008561D01*
X005615Y008551D01*
X005581Y008531D01*
X005553Y008503D01*
X005533Y008469D01*
X005523Y008431D01*
X005523Y008425D01*
X005506Y008430D01*
X005300Y008430D01*
X005300Y008074D01*
X005200Y008074D01*
X005200Y008430D01*
X004994Y008430D01*
X004956Y008420D01*
X004922Y008400D01*
X004921Y008399D01*
X004910Y008410D01*
X004330Y008410D01*
X004305Y008385D01*
X004280Y008410D01*
X003700Y008410D01*
X003624Y008334D01*
X003624Y007714D01*
X003668Y007670D01*
X003624Y007626D01*
X003624Y007006D01*
X003700Y006930D01*
X004280Y006930D01*
X004305Y006955D01*
X004330Y006930D01*
X004910Y006930D01*
X004935Y006955D01*
X004960Y006930D01*
X005060Y006930D01*
X005060Y006871D01*
X005011Y006823D01*
X004965Y006711D01*
X004965Y006589D01*
X005011Y006477D01*
X005097Y006391D01*
X005209Y006345D01*
X005331Y006345D01*
X005443Y006391D01*
X005529Y006477D01*
X005575Y006589D01*
X005575Y006711D01*
X005529Y006823D01*
X005480Y006871D01*
X005480Y006930D01*
X005540Y006930D01*
X005616Y007006D01*
X005616Y007142D01*
X005619Y007139D01*
X006104Y007139D01*
X006104Y007040D01*
X006114Y007002D01*
X006134Y006968D01*
X006162Y006940D01*
X006196Y006920D01*
X006234Y006910D01*
X006440Y006910D01*
X006440Y007266D01*
X006540Y007266D01*
X006540Y006910D01*
X006746Y006910D01*
X006784Y006920D01*
X006818Y006940D01*
X006819Y006941D01*
X006830Y006930D01*
X007410Y006930D01*
X007435Y006955D01*
X007460Y006930D01*
X008040Y006930D01*
X008116Y007006D01*
X008116Y007142D01*
X008119Y007139D01*
X008160Y007139D01*
X008160Y006463D01*
X008165Y006458D01*
X008165Y006389D01*
X008211Y006277D01*
X008297Y006191D01*
X008409Y006145D01*
X008531Y006145D01*
X008643Y006191D01*
X008729Y006277D01*
X008775Y006389D01*
X008775Y006511D01*
X008729Y006623D01*
X008643Y006709D01*
X008580Y006735D01*
X008580Y007139D01*
X008621Y007139D01*
X008624Y007142D01*
X008624Y007006D01*
X008700Y006930D01*
X009280Y006930D01*
X009305Y006955D01*
X009330Y006930D01*
X009910Y006930D01*
X009935Y006955D01*
X009960Y006930D01*
X010040Y006930D01*
X010040Y006571D01*
X010015Y006511D01*
X010015Y006389D01*
X010061Y006277D01*
X010147Y006191D01*
X010259Y006145D01*
X010381Y006145D01*
X010493Y006191D01*
X010579Y006277D01*
X010625Y006389D01*
X010625Y006511D01*
X010579Y006623D01*
X010493Y006709D01*
X010460Y006722D01*
X010460Y006930D01*
X010540Y006930D01*
X010616Y007006D01*
X010616Y007142D01*
X010619Y007139D01*
X011104Y007139D01*
X011104Y007040D01*
X011114Y007002D01*
X011134Y006968D01*
X011162Y006940D01*
X011196Y006920D01*
X011234Y006910D01*
X011440Y006910D01*
X011440Y007266D01*
X011540Y007266D01*
X011540Y006910D01*
X011746Y006910D01*
X011784Y006920D01*
X011818Y006940D01*
X011819Y006941D01*
X011830Y006930D01*
X012410Y006930D01*
X012435Y006955D01*
X012460Y006930D01*
X013040Y006930D01*
X013116Y007006D01*
X013116Y007142D01*
X013119Y007139D01*
X013160Y007139D01*
X013160Y006463D01*
X013165Y006458D01*
X013165Y006389D01*
X013211Y006277D01*
X013297Y006191D01*
X013409Y006145D01*
X013531Y006145D01*
X013643Y006191D01*
X013729Y006277D01*
X013775Y006389D01*
X013775Y006511D01*
X013729Y006623D01*
X013643Y006709D01*
X013580Y006735D01*
X013580Y007139D01*
X013621Y007139D01*
X013624Y007142D01*
X013624Y007006D01*
X013700Y006930D01*
X014280Y006930D01*
X014305Y006955D01*
X014330Y006930D01*
X014910Y006930D01*
X014935Y006955D01*
X014960Y006930D01*
X015040Y006930D01*
X015040Y006483D01*
X015065Y006458D01*
X015065Y006389D01*
X015111Y006277D01*
X015197Y006191D01*
X015309Y006145D01*
X015431Y006145D01*
X015543Y006191D01*
X015629Y006277D01*
X015675Y006389D01*
X015675Y006511D01*
X015629Y006623D01*
X015543Y006709D01*
X015460Y006743D01*
X015460Y006930D01*
X015540Y006930D01*
X015616Y007006D01*
X015616Y007142D01*
X015619Y007139D01*
X016104Y007139D01*
X016104Y007040D01*
X016114Y007002D01*
X016134Y006968D01*
X016162Y006940D01*
X016196Y006920D01*
X016234Y006910D01*
X016440Y006910D01*
X016440Y007266D01*
X016540Y007266D01*
X016540Y006910D01*
X016746Y006910D01*
X016784Y006920D01*
X016818Y006940D01*
X016819Y006941D01*
X016830Y006930D01*
X017410Y006930D01*
X017435Y006955D01*
X017460Y006930D01*
X018040Y006930D01*
X018116Y007006D01*
X018116Y007142D01*
X018119Y007139D01*
X018160Y007139D01*
X018160Y006463D01*
X018165Y006458D01*
X018165Y006389D01*
X018211Y006277D01*
X018297Y006191D01*
X018409Y006145D01*
X018531Y006145D01*
X018643Y006191D01*
X018729Y006277D01*
X018775Y006389D01*
X018775Y006511D01*
X018729Y006623D01*
X018643Y006709D01*
X018580Y006735D01*
X018580Y007139D01*
X018621Y007139D01*
X018624Y007142D01*
X018624Y007006D01*
X018700Y006930D01*
X019280Y006930D01*
X019305Y006955D01*
X019330Y006930D01*
X019910Y006930D01*
X019935Y006955D01*
X019960Y006930D01*
X020040Y006930D01*
X020040Y006483D01*
X020065Y006458D01*
X020065Y006389D01*
X020111Y006277D01*
X020197Y006191D01*
X020309Y006145D01*
X020431Y006145D01*
X020543Y006191D01*
X020463Y006159D02*
X021215Y006159D01*
X021215Y006060D02*
X021189Y006060D01*
X021255Y006257D02*
X020608Y006257D01*
X020661Y006356D02*
X021344Y006356D01*
X021696Y006356D02*
X025926Y006356D01*
X025926Y006454D02*
X020675Y006454D01*
X020658Y006553D02*
X025926Y006553D01*
X025926Y006651D02*
X020600Y006651D01*
X020460Y006750D02*
X025926Y006750D01*
X025926Y006848D02*
X020460Y006848D01*
X020556Y006947D02*
X021155Y006947D01*
X021104Y007045D02*
X020616Y007045D01*
X020040Y006848D02*
X018580Y006848D01*
X018580Y006750D02*
X020040Y006750D01*
X020040Y006651D02*
X018700Y006651D01*
X018758Y006553D02*
X020040Y006553D01*
X020065Y006454D02*
X018775Y006454D01*
X018761Y006356D02*
X020079Y006356D01*
X020132Y006257D02*
X018708Y006257D01*
X018563Y006159D02*
X020277Y006159D01*
X020300Y005962D02*
X020200Y005962D01*
X020200Y005863D02*
X020300Y005863D01*
X020300Y005765D02*
X020200Y005765D01*
X020200Y005666D02*
X020300Y005666D01*
X019925Y005962D02*
X019918Y005962D01*
X019322Y005962D02*
X019288Y005962D01*
X018418Y005962D02*
X018322Y005962D01*
X018322Y006060D02*
X018418Y006060D01*
X018377Y006159D02*
X015463Y006159D01*
X015551Y006060D02*
X013689Y006060D01*
X013563Y006159D02*
X015277Y006159D01*
X015132Y006257D02*
X013708Y006257D01*
X013761Y006356D02*
X015079Y006356D01*
X015065Y006454D02*
X013775Y006454D01*
X013758Y006553D02*
X015040Y006553D01*
X015040Y006651D02*
X013700Y006651D01*
X013580Y006750D02*
X015040Y006750D01*
X015040Y006848D02*
X013580Y006848D01*
X013580Y006947D02*
X013684Y006947D01*
X013624Y007045D02*
X013580Y007045D01*
X013160Y007045D02*
X013116Y007045D01*
X013160Y006947D02*
X013056Y006947D01*
X013160Y006848D02*
X010460Y006848D01*
X010460Y006750D02*
X013160Y006750D01*
X013160Y006651D02*
X010550Y006651D01*
X010608Y006553D02*
X013160Y006553D01*
X013165Y006454D02*
X010625Y006454D01*
X010611Y006356D02*
X013179Y006356D01*
X013232Y006257D02*
X010558Y006257D01*
X010413Y006159D02*
X013377Y006159D01*
X013418Y006060D02*
X013322Y006060D01*
X013322Y005962D02*
X013418Y005962D01*
X013418Y005863D02*
X013322Y005863D01*
X013051Y006060D02*
X011189Y006060D01*
X010918Y006060D02*
X010822Y006060D01*
X010822Y005962D02*
X010918Y005962D01*
X010918Y005863D02*
X010822Y005863D01*
X010551Y006060D02*
X008689Y006060D01*
X008563Y006159D02*
X010227Y006159D01*
X010082Y006257D02*
X008708Y006257D01*
X008761Y006356D02*
X010029Y006356D01*
X010015Y006454D02*
X008775Y006454D01*
X008758Y006553D02*
X010032Y006553D01*
X010040Y006651D02*
X008700Y006651D01*
X008580Y006750D02*
X010040Y006750D01*
X010040Y006848D02*
X008580Y006848D01*
X008580Y006947D02*
X008684Y006947D01*
X008624Y007045D02*
X008580Y007045D01*
X008160Y007045D02*
X008116Y007045D01*
X008160Y006947D02*
X008056Y006947D01*
X008160Y006848D02*
X005503Y006848D01*
X005556Y006947D02*
X006155Y006947D01*
X006104Y007045D02*
X005616Y007045D01*
X005559Y006750D02*
X008160Y006750D01*
X008160Y006651D02*
X005575Y006651D01*
X005560Y006553D02*
X008160Y006553D01*
X008165Y006454D02*
X005505Y006454D01*
X005356Y006356D02*
X008179Y006356D01*
X008232Y006257D02*
X000605Y006257D01*
X000605Y006159D02*
X008377Y006159D01*
X008418Y006060D02*
X008322Y006060D01*
X008322Y005962D02*
X008418Y005962D01*
X008418Y005863D02*
X008322Y005863D01*
X008051Y006060D02*
X006189Y006060D01*
X005918Y006060D02*
X005822Y006060D01*
X005822Y005962D02*
X005918Y005962D01*
X005918Y005863D02*
X005822Y005863D01*
X005551Y006060D02*
X000605Y006060D01*
X000605Y005962D02*
X003692Y005962D01*
X003624Y005863D02*
X000605Y005863D01*
X000605Y005765D02*
X003624Y005765D01*
X003624Y005666D02*
X000605Y005666D01*
X000605Y005568D02*
X003624Y005568D01*
X003624Y005469D02*
X000605Y005469D01*
X000605Y005371D02*
X003624Y005371D01*
X003626Y005272D02*
X000605Y005272D01*
X000605Y005174D02*
X003624Y005174D01*
X003624Y005075D02*
X000605Y005075D01*
X000605Y004977D02*
X003624Y004977D01*
X003624Y004878D02*
X000605Y004878D01*
X000605Y004780D02*
X003624Y004780D01*
X003624Y004681D02*
X000605Y004681D01*
X000605Y004583D02*
X003624Y004583D01*
X003700Y003530D02*
X003624Y003454D01*
X003624Y002834D01*
X003668Y002790D01*
X003624Y002746D01*
X003624Y002126D01*
X003700Y002050D01*
X004280Y002050D01*
X004305Y002075D01*
X004330Y002050D01*
X004910Y002050D01*
X004935Y002075D01*
X004960Y002050D01*
X005540Y002050D01*
X005565Y002075D01*
X005565Y001999D01*
X005611Y001887D01*
X005697Y001801D01*
X005809Y001755D01*
X005931Y001755D01*
X006043Y001801D01*
X006129Y001887D01*
X006175Y001999D01*
X006175Y002053D01*
X006196Y002040D01*
X006234Y002030D01*
X006440Y002030D01*
X006440Y002386D01*
X006540Y002386D01*
X006540Y002030D01*
X006746Y002030D01*
X006784Y002040D01*
X006818Y002060D01*
X006819Y002061D01*
X006830Y002050D01*
X007410Y002050D01*
X007435Y002075D01*
X007460Y002050D01*
X008040Y002050D01*
X008116Y002126D01*
X008116Y002212D01*
X008119Y002209D01*
X008160Y002209D01*
X008160Y001683D01*
X008265Y001578D01*
X008265Y001509D01*
X008311Y001397D01*
X008397Y001311D01*
X008509Y001265D01*
X008631Y001265D01*
X008743Y001311D01*
X008829Y001397D01*
X008875Y001509D01*
X008875Y001631D01*
X008829Y001743D01*
X008743Y001829D01*
X008631Y001875D01*
X008580Y001875D01*
X008580Y002209D01*
X008621Y002209D01*
X008624Y002212D01*
X008624Y002126D01*
X008700Y002050D01*
X009280Y002050D01*
X009305Y002075D01*
X009330Y002050D01*
X009910Y002050D01*
X009935Y002075D01*
X009960Y002050D01*
X010540Y002050D01*
X010568Y002078D01*
X010565Y002071D01*
X010565Y001949D01*
X010611Y001837D01*
X010697Y001751D01*
X010809Y001705D01*
X010931Y001705D01*
X011043Y001751D01*
X011129Y001837D01*
X011175Y001949D01*
X011175Y002053D01*
X011196Y002040D01*
X011234Y002030D01*
X011440Y002030D01*
X011440Y002386D01*
X011540Y002386D01*
X011540Y002030D01*
X011746Y002030D01*
X011784Y002040D01*
X011818Y002060D01*
X011819Y002061D01*
X011830Y002050D01*
X012410Y002050D01*
X012435Y002075D01*
X012460Y002050D01*
X013040Y002050D01*
X013116Y002126D01*
X013116Y002212D01*
X013119Y002209D01*
X013160Y002209D01*
X013160Y001583D01*
X013165Y001578D01*
X013165Y001509D01*
X013211Y001397D01*
X013297Y001311D01*
X013409Y001265D01*
X013531Y001265D01*
X013643Y001311D01*
X013729Y001397D01*
X013775Y001509D01*
X013775Y001631D01*
X013729Y001743D01*
X013643Y001829D01*
X013580Y001855D01*
X013580Y002209D01*
X013621Y002209D01*
X013624Y002212D01*
X013624Y002126D01*
X013700Y002050D01*
X014280Y002050D01*
X014305Y002075D01*
X014330Y002050D01*
X014910Y002050D01*
X014935Y002075D01*
X014960Y002050D01*
X015540Y002050D01*
X015565Y002075D01*
X015565Y001999D01*
X015611Y001887D01*
X015697Y001801D01*
X015809Y001755D01*
X015931Y001755D01*
X016043Y001801D01*
X016129Y001887D01*
X016175Y001999D01*
X016175Y002053D01*
X016196Y002040D01*
X016234Y002030D01*
X016440Y002030D01*
X016440Y002386D01*
X016540Y002386D01*
X016540Y002030D01*
X016746Y002030D01*
X016784Y002040D01*
X016818Y002060D01*
X016819Y002061D01*
X016830Y002050D01*
X017410Y002050D01*
X017435Y002075D01*
X017460Y002050D01*
X018040Y002050D01*
X018116Y002126D01*
X018116Y002212D01*
X018119Y002209D01*
X018160Y002209D01*
X018160Y001683D01*
X018265Y001578D01*
X018265Y001509D01*
X018311Y001397D01*
X018397Y001311D01*
X018509Y001265D01*
X018631Y001265D01*
X018743Y001311D01*
X018780Y001349D01*
X018780Y001090D01*
X018700Y001090D01*
X018624Y001014D01*
X018624Y000394D01*
X018700Y000318D01*
X019280Y000318D01*
X019305Y000343D01*
X019330Y000318D01*
X019910Y000318D01*
X019921Y000329D01*
X019922Y000328D01*
X019956Y000308D01*
X019994Y000298D01*
X020200Y000298D01*
X020200Y000654D01*
X020300Y000654D01*
X020300Y000298D01*
X020506Y000298D01*
X020544Y000308D01*
X020578Y000328D01*
X020606Y000356D01*
X020626Y000390D01*
X020633Y000416D01*
X020697Y000351D01*
X020809Y000305D01*
X020931Y000305D01*
X021043Y000351D01*
X021124Y000433D01*
X021124Y000394D01*
X021200Y000318D01*
X021780Y000318D01*
X021805Y000343D01*
X021830Y000318D01*
X022410Y000318D01*
X022435Y000343D01*
X022460Y000318D01*
X023040Y000318D01*
X023116Y000394D01*
X023116Y001014D01*
X023040Y001090D01*
X022960Y001090D01*
X022960Y001577D01*
X022880Y001657D01*
X022757Y001780D01*
X018983Y001780D01*
X018903Y001700D01*
X018863Y001660D01*
X018829Y001743D01*
X018743Y001829D01*
X018631Y001875D01*
X018580Y001875D01*
X018580Y002209D01*
X018621Y002209D01*
X018624Y002212D01*
X018624Y002126D01*
X018700Y002050D01*
X019280Y002050D01*
X019305Y002075D01*
X019330Y002050D01*
X019910Y002050D01*
X019935Y002075D01*
X019960Y002050D01*
X020540Y002050D01*
X020616Y002126D01*
X020616Y002212D01*
X020619Y002209D01*
X021104Y002209D01*
X021104Y002160D01*
X021114Y002122D01*
X021134Y002088D01*
X021162Y002060D01*
X021196Y002040D01*
X021234Y002030D01*
X021440Y002030D01*
X021440Y002386D01*
X021540Y002386D01*
X021540Y002030D01*
X021746Y002030D01*
X021784Y002040D01*
X021818Y002060D01*
X021819Y002061D01*
X021830Y002050D01*
X022410Y002050D01*
X022435Y002075D01*
X022460Y002050D01*
X023040Y002050D01*
X023116Y002126D01*
X023116Y002746D01*
X023072Y002790D01*
X023116Y002834D01*
X023116Y003454D01*
X023040Y003530D01*
X022460Y003530D01*
X022435Y003505D01*
X022410Y003530D01*
X021830Y003530D01*
X021805Y003505D01*
X021780Y003530D01*
X021730Y003530D01*
X021730Y003689D01*
X021779Y003737D01*
X021825Y003849D01*
X021825Y003971D01*
X021779Y004083D01*
X021693Y004169D01*
X021581Y004215D01*
X021459Y004215D01*
X021347Y004169D01*
X021261Y004083D01*
X021215Y003971D01*
X021215Y003849D01*
X021261Y003737D01*
X021310Y003689D01*
X021310Y003530D01*
X021209Y003530D01*
X021207Y003539D01*
X021187Y003573D01*
X021159Y003601D01*
X021125Y003621D01*
X021087Y003631D01*
X020918Y003631D01*
X020918Y003313D01*
X020822Y003313D01*
X020822Y003631D01*
X020653Y003631D01*
X020615Y003621D01*
X020581Y003601D01*
X020553Y003573D01*
X020535Y003542D01*
X020506Y003550D01*
X020300Y003550D01*
X020300Y003194D01*
X020200Y003194D01*
X020200Y003550D01*
X019994Y003550D01*
X019956Y003540D01*
X019922Y003520D01*
X019921Y003519D01*
X019910Y003530D01*
X019330Y003530D01*
X019305Y003505D01*
X019280Y003530D01*
X018709Y003530D01*
X018707Y003539D01*
X018687Y003573D01*
X018659Y003601D01*
X018625Y003621D01*
X018587Y003631D01*
X018418Y003631D01*
X018418Y003313D01*
X018322Y003313D01*
X018322Y003631D01*
X018153Y003631D01*
X018115Y003621D01*
X018081Y003601D01*
X018053Y003573D01*
X018033Y003539D01*
X018031Y003530D01*
X017460Y003530D01*
X017435Y003505D01*
X017410Y003530D01*
X016830Y003530D01*
X016805Y003505D01*
X016780Y003530D01*
X016209Y003530D01*
X016207Y003539D01*
X016187Y003573D01*
X016159Y003601D01*
X016125Y003621D01*
X016087Y003631D01*
X015918Y003631D01*
X015918Y003313D01*
X015822Y003313D01*
X015822Y003631D01*
X015653Y003631D01*
X015615Y003621D01*
X015581Y003601D01*
X015553Y003573D01*
X015535Y003542D01*
X015506Y003550D01*
X015300Y003550D01*
X015300Y003194D01*
X015200Y003194D01*
X015200Y003550D01*
X014994Y003550D01*
X014956Y003540D01*
X014922Y003520D01*
X014921Y003519D01*
X014910Y003530D01*
X014330Y003530D01*
X014305Y003505D01*
X014280Y003530D01*
X013709Y003530D01*
X013707Y003539D01*
X013687Y003573D01*
X013659Y003601D01*
X013625Y003621D01*
X013587Y003631D01*
X013418Y003631D01*
X013418Y003313D01*
X013322Y003313D01*
X013322Y003631D01*
X013153Y003631D01*
X013115Y003621D01*
X013081Y003601D01*
X013053Y003573D01*
X013033Y003539D01*
X013031Y003530D01*
X012460Y003530D01*
X012435Y003505D01*
X012410Y003530D01*
X011830Y003530D01*
X011805Y003505D01*
X011780Y003530D01*
X011209Y003530D01*
X011207Y003539D01*
X011187Y003573D01*
X011159Y003601D01*
X011125Y003621D01*
X011087Y003631D01*
X010918Y003631D01*
X010918Y003313D01*
X010822Y003313D01*
X010822Y003631D01*
X010653Y003631D01*
X010615Y003621D01*
X010581Y003601D01*
X010553Y003573D01*
X010535Y003542D01*
X010506Y003550D01*
X010300Y003550D01*
X010300Y003194D01*
X010200Y003194D01*
X010200Y003550D01*
X009994Y003550D01*
X009956Y003540D01*
X009922Y003520D01*
X009921Y003519D01*
X009910Y003530D01*
X009330Y003530D01*
X009305Y003505D01*
X009280Y003530D01*
X008709Y003530D01*
X008707Y003539D01*
X008687Y003573D01*
X008659Y003601D01*
X008625Y003621D01*
X008587Y003631D01*
X008418Y003631D01*
X008418Y003313D01*
X008322Y003313D01*
X008322Y003631D01*
X008153Y003631D01*
X008115Y003621D01*
X008081Y003601D01*
X008053Y003573D01*
X008033Y003539D01*
X008031Y003530D01*
X007460Y003530D01*
X007435Y003505D01*
X007410Y003530D01*
X006830Y003530D01*
X006805Y003505D01*
X006780Y003530D01*
X006209Y003530D01*
X006207Y003539D01*
X006187Y003573D01*
X006159Y003601D01*
X006125Y003621D01*
X006087Y003631D01*
X005918Y003631D01*
X005918Y003313D01*
X005822Y003313D01*
X005822Y003631D01*
X005653Y003631D01*
X005615Y003621D01*
X005581Y003601D01*
X005553Y003573D01*
X005535Y003542D01*
X005506Y003550D01*
X005300Y003550D01*
X005300Y003194D01*
X005200Y003194D01*
X005200Y003550D01*
X004994Y003550D01*
X004956Y003540D01*
X004922Y003520D01*
X004921Y003519D01*
X004910Y003530D01*
X004330Y003530D01*
X004305Y003505D01*
X004280Y003530D01*
X003700Y003530D01*
X003669Y003499D02*
X000605Y003499D01*
X000605Y003401D02*
X003624Y003401D01*
X003624Y003302D02*
X000605Y003302D01*
X000605Y003204D02*
X003624Y003204D01*
X003624Y003105D02*
X000605Y003105D01*
X000605Y003007D02*
X003624Y003007D01*
X003624Y002908D02*
X000605Y002908D01*
X000605Y002810D02*
X003648Y002810D01*
X003624Y002711D02*
X002256Y002711D01*
X002069Y002779D02*
X002483Y002628D01*
X002821Y002345D01*
X003042Y001962D01*
X003118Y001528D01*
X003042Y001093D01*
X002821Y000711D01*
X002483Y000428D01*
X002091Y000285D01*
X024439Y000285D01*
X024047Y000428D01*
X023709Y000711D01*
X023489Y001093D01*
X023412Y001528D01*
X023489Y001962D01*
X023709Y002345D01*
X024047Y002628D01*
X024462Y002779D01*
X024903Y002779D01*
X025318Y002628D01*
X025656Y002345D01*
X025876Y001962D01*
X025926Y001684D01*
X025926Y020663D01*
X025876Y020385D01*
X025656Y020003D01*
X025318Y019719D01*
X024903Y019568D01*
X024462Y019568D01*
X024047Y019719D01*
X023709Y020003D01*
X023489Y020385D01*
X023412Y020819D01*
X023489Y021254D01*
X023709Y021636D01*
X024047Y021920D01*
X024439Y022062D01*
X016755Y022062D01*
X016980Y021837D01*
X016980Y021723D01*
X017023Y021705D01*
X017151Y021577D01*
X017220Y021410D01*
X017220Y021229D01*
X017299Y021229D01*
X017302Y021208D02*
X017325Y021137D01*
X017359Y021070D01*
X017403Y021010D01*
X017456Y020957D01*
X017516Y020913D01*
X017583Y020879D01*
X017654Y020856D01*
X017715Y020846D01*
X017715Y021269D01*
X017815Y021269D01*
X017815Y020846D01*
X017877Y020856D01*
X017948Y020879D01*
X018014Y020913D01*
X018075Y020957D01*
X018128Y021010D01*
X018172Y021070D01*
X018205Y021137D01*
X018229Y021208D01*
X018238Y021269D01*
X017815Y021269D01*
X017815Y021369D01*
X018238Y021369D01*
X018229Y021431D01*
X018205Y021502D01*
X018172Y021568D01*
X018128Y021629D01*
X018075Y021682D01*
X018014Y021726D01*
X017948Y021759D01*
X017877Y021783D01*
X017815Y021792D01*
X017815Y021369D01*
X017715Y021369D01*
X017715Y021269D01*
X017292Y021269D01*
X017302Y021208D01*
X017328Y021131D02*
X017180Y021131D01*
X017151Y021062D02*
X017220Y021229D01*
X017220Y021328D02*
X017715Y021328D01*
X017715Y021369D02*
X017292Y021369D01*
X017302Y021431D01*
X017325Y021502D01*
X017359Y021568D01*
X017403Y021629D01*
X017456Y021682D01*
X017516Y021726D01*
X017583Y021759D01*
X017654Y021783D01*
X017715Y021792D01*
X017715Y021369D01*
X017715Y021426D02*
X017815Y021426D01*
X017815Y021328D02*
X018310Y021328D01*
X018310Y021410D02*
X018310Y021229D01*
X018232Y021229D01*
X018310Y021229D02*
X018380Y021062D01*
X018508Y020934D01*
X018042Y020934D01*
X018144Y021032D02*
X018409Y021032D01*
X018351Y021131D02*
X018202Y021131D01*
X018229Y021426D02*
X018317Y021426D01*
X018310Y021410D02*
X018380Y021577D01*
X018508Y021705D01*
X018675Y021774D01*
X018856Y021774D01*
X019023Y021705D01*
X019151Y021577D01*
X019220Y021410D01*
X019220Y021229D01*
X019299Y021229D01*
X019302Y021208D02*
X019325Y021137D01*
X019359Y021070D01*
X019403Y021010D01*
X019456Y020957D01*
X019516Y020913D01*
X019583Y020879D01*
X019654Y020856D01*
X019715Y020846D01*
X019715Y021269D01*
X019815Y021269D01*
X019815Y020846D01*
X019877Y020856D01*
X019948Y020879D01*
X020014Y020913D01*
X020075Y020957D01*
X020128Y021010D01*
X020172Y021070D01*
X020205Y021137D01*
X020229Y021208D01*
X020238Y021269D01*
X019815Y021269D01*
X019815Y021369D01*
X020238Y021369D01*
X020229Y021431D01*
X020205Y021502D01*
X020172Y021568D01*
X020128Y021629D01*
X020075Y021682D01*
X020014Y021726D01*
X019948Y021759D01*
X019877Y021783D01*
X019815Y021792D01*
X019815Y021369D01*
X019715Y021369D01*
X019715Y021269D01*
X019292Y021269D01*
X019302Y021208D01*
X019328Y021131D02*
X019180Y021131D01*
X019151Y021062D02*
X019220Y021229D01*
X019220Y021328D02*
X019715Y021328D01*
X019715Y021369D02*
X019292Y021369D01*
X019302Y021431D01*
X019325Y021502D01*
X019359Y021568D01*
X019403Y021629D01*
X019456Y021682D01*
X019516Y021726D01*
X019583Y021759D01*
X019654Y021783D01*
X019715Y021792D01*
X019715Y021369D01*
X019715Y021426D02*
X019815Y021426D01*
X019815Y021328D02*
X020310Y021328D01*
X020310Y021410D02*
X020310Y021229D01*
X020232Y021229D01*
X020310Y021229D02*
X020380Y021062D01*
X020508Y020934D01*
X020042Y020934D01*
X020144Y021032D02*
X020409Y021032D01*
X020351Y021131D02*
X020202Y021131D01*
X020229Y021426D02*
X020317Y021426D01*
X020310Y021410D02*
X020380Y021577D01*
X020508Y021705D01*
X020675Y021774D01*
X020856Y021774D01*
X021023Y021705D01*
X021151Y021577D01*
X021220Y021410D01*
X021220Y021229D01*
X021310Y021229D01*
X021380Y021062D01*
X021508Y020934D01*
X021023Y020934D01*
X021151Y021062D01*
X021220Y021229D01*
X021310Y021229D02*
X021310Y021410D01*
X021380Y021577D01*
X021508Y021705D01*
X021675Y021774D01*
X021856Y021774D01*
X022023Y021705D01*
X022151Y021577D01*
X022220Y021410D01*
X022220Y021229D01*
X022310Y021229D01*
X022380Y021062D01*
X022508Y020934D01*
X022023Y020934D01*
X022151Y021062D01*
X022220Y021229D01*
X022310Y021229D02*
X022310Y021410D01*
X022380Y021577D01*
X022508Y021705D01*
X022675Y021774D01*
X022856Y021774D01*
X023023Y021705D01*
X023151Y021577D01*
X023220Y021410D01*
X023220Y021229D01*
X023484Y021229D01*
X023467Y021131D02*
X023180Y021131D01*
X023151Y021062D02*
X023220Y021229D01*
X023220Y021328D02*
X023531Y021328D01*
X023588Y021426D02*
X023214Y021426D01*
X023173Y021525D02*
X023645Y021525D01*
X023702Y021623D02*
X023105Y021623D01*
X022983Y021722D02*
X023811Y021722D01*
X023929Y021820D02*
X016980Y021820D01*
X016983Y021722D02*
X017511Y021722D01*
X017399Y021623D02*
X017105Y021623D01*
X017173Y021525D02*
X017337Y021525D01*
X017301Y021426D02*
X017214Y021426D01*
X017151Y021062D02*
X017023Y020934D01*
X016868Y020869D01*
X016980Y020757D01*
X016980Y020723D01*
X017023Y020705D01*
X017151Y020577D01*
X017220Y020410D01*
X017220Y020229D01*
X017151Y020062D01*
X017023Y019934D01*
X016947Y019902D01*
X017410Y019902D01*
X017435Y019877D01*
X017460Y019902D01*
X017584Y019902D01*
X017508Y019934D01*
X017380Y020062D01*
X017310Y020229D01*
X017310Y020410D01*
X017380Y020577D01*
X017508Y020705D01*
X017675Y020774D01*
X017856Y020774D01*
X018023Y020705D01*
X018151Y020577D01*
X018220Y020410D01*
X018220Y020229D01*
X018151Y020062D01*
X018023Y019934D01*
X017947Y019902D01*
X018040Y019902D01*
X018116Y019826D01*
X018116Y019210D01*
X018624Y019210D01*
X018624Y019826D01*
X018666Y019868D01*
X018508Y019934D01*
X018380Y020062D01*
X018310Y020229D01*
X018310Y020410D01*
X018380Y020577D01*
X018508Y020705D01*
X018675Y020774D01*
X018856Y020774D01*
X019023Y020705D01*
X019151Y020577D01*
X019220Y020410D01*
X019220Y020229D01*
X019151Y020062D01*
X019023Y019934D01*
X018947Y019902D01*
X019280Y019902D01*
X019305Y019877D01*
X019330Y019902D01*
X019584Y019902D01*
X019508Y019934D01*
X019380Y020062D01*
X019310Y020229D01*
X019310Y020410D01*
X019380Y020577D01*
X019508Y020705D01*
X019675Y020774D01*
X019856Y020774D01*
X020023Y020705D01*
X020151Y020577D01*
X020220Y020410D01*
X020220Y020229D01*
X020151Y020062D01*
X020023Y019934D01*
X019921Y019891D01*
X019935Y019877D01*
X019960Y019902D01*
X020540Y019902D01*
X020616Y019826D01*
X020616Y019206D01*
X020540Y019130D01*
X020460Y019130D01*
X020460Y018993D01*
X020543Y018959D01*
X020629Y018873D01*
X020675Y018761D01*
X020675Y018639D01*
X020629Y018527D01*
X020543Y018441D01*
X020431Y018395D01*
X020309Y018395D01*
X020197Y018441D01*
X020111Y018527D01*
X020065Y018639D01*
X020065Y018708D01*
X020040Y018733D01*
X020040Y019130D01*
X019960Y019130D01*
X019935Y019155D01*
X019910Y019130D01*
X019830Y019130D01*
X019830Y018713D01*
X019707Y018590D01*
X019507Y018390D01*
X017233Y018390D01*
X017110Y018513D01*
X016910Y018713D01*
X016910Y019130D01*
X016830Y019130D01*
X016819Y019141D01*
X016818Y019140D01*
X016784Y019120D01*
X016746Y019110D01*
X016540Y019110D01*
X016540Y019466D01*
X016440Y019466D01*
X016440Y019110D01*
X016234Y019110D01*
X016196Y019120D01*
X016162Y019140D01*
X016134Y019168D01*
X016114Y019202D01*
X016104Y019240D01*
X016104Y019466D01*
X016440Y019466D01*
X016440Y019566D01*
X016104Y019566D01*
X016104Y019792D01*
X016114Y019830D01*
X016134Y019864D01*
X016162Y019892D01*
X016196Y019912D01*
X016234Y019922D01*
X016440Y019922D01*
X016440Y019566D01*
X016540Y019566D01*
X016540Y019920D01*
X016508Y019934D01*
X016380Y020062D01*
X016310Y020229D01*
X016310Y020410D01*
X016380Y020577D01*
X016413Y020610D01*
X016141Y020610D01*
X016172Y020568D01*
X016205Y020502D01*
X016229Y020431D01*
X016238Y020369D01*
X015815Y020369D01*
X015815Y020269D01*
X015815Y019846D01*
X015877Y019856D01*
X015948Y019879D01*
X016014Y019913D01*
X016075Y019957D01*
X016128Y020010D01*
X016172Y020070D01*
X016205Y020137D01*
X016229Y020208D01*
X016238Y020269D01*
X015815Y020269D01*
X015715Y020269D01*
X015292Y020269D01*
X015302Y020208D01*
X015325Y020137D01*
X015359Y020070D01*
X015403Y020010D01*
X015456Y019957D01*
X015516Y019913D01*
X015538Y019902D01*
X014960Y019902D01*
X014935Y019877D01*
X014921Y019891D01*
X015023Y019934D01*
X015151Y020062D01*
X015220Y020229D01*
X015220Y020410D01*
X015151Y020577D01*
X015118Y020610D01*
X015389Y020610D01*
X015359Y020568D01*
X015325Y020502D01*
X015302Y020431D01*
X015292Y020369D01*
X015715Y020369D01*
X015715Y020269D01*
X015715Y019846D01*
X015654Y019856D01*
X015583Y019879D01*
X015542Y019900D01*
X015616Y019826D01*
X015616Y019206D01*
X015540Y019130D01*
X015460Y019130D01*
X015460Y018993D01*
X015543Y018959D01*
X015629Y018873D01*
X015675Y018761D01*
X015675Y018639D01*
X015629Y018527D01*
X015543Y018441D01*
X015431Y018395D01*
X015309Y018395D01*
X015197Y018441D01*
X015111Y018527D01*
X015065Y018639D01*
X015065Y018708D01*
X015040Y018733D01*
X015040Y019130D01*
X014960Y019130D01*
X014935Y019155D01*
X014910Y019130D01*
X014830Y019130D01*
X014830Y018663D01*
X014707Y018540D01*
X014607Y018440D01*
X012233Y018440D01*
X012110Y018563D01*
X011910Y018763D01*
X011910Y019130D01*
X011830Y019130D01*
X011819Y019141D01*
X011818Y019140D01*
X011784Y019120D01*
X011746Y019110D01*
X011540Y019110D01*
X011540Y019466D01*
X011440Y019466D01*
X011440Y019110D01*
X011234Y019110D01*
X011196Y019120D01*
X011162Y019140D01*
X011134Y019168D01*
X011114Y019202D01*
X011104Y019240D01*
X011104Y019466D01*
X011440Y019466D01*
X011440Y019566D01*
X011104Y019566D01*
X011104Y019792D01*
X011114Y019830D01*
X011134Y019864D01*
X011162Y019892D01*
X011196Y019912D01*
X011234Y019922D01*
X011440Y019922D01*
X011440Y019566D01*
X011540Y019566D01*
X011540Y019920D01*
X011508Y019934D01*
X011380Y020062D01*
X011310Y020229D01*
X011310Y020410D01*
X011380Y020577D01*
X011413Y020610D01*
X011118Y020610D01*
X011151Y020577D01*
X011220Y020410D01*
X011220Y020229D01*
X011151Y020062D01*
X011023Y019934D01*
X010856Y019864D01*
X010675Y019864D01*
X010508Y019934D01*
X010380Y020062D01*
X010310Y020229D01*
X010310Y020410D01*
X010380Y020577D01*
X010413Y020610D01*
X010118Y020610D01*
X010151Y020577D01*
X010220Y020410D01*
X010220Y020229D01*
X010151Y020062D01*
X010023Y019934D01*
X009921Y019891D01*
X009935Y019877D01*
X009960Y019902D01*
X010540Y019902D01*
X010616Y019826D01*
X010616Y019206D01*
X010540Y019130D01*
X010460Y019130D01*
X010460Y018972D01*
X010493Y018959D01*
X010579Y018873D01*
X010625Y018761D01*
X010625Y018639D01*
X010579Y018527D01*
X010493Y018441D01*
X010381Y018395D01*
X010259Y018395D01*
X010147Y018441D01*
X010061Y018527D01*
X010015Y018639D01*
X010015Y018761D01*
X010040Y018821D01*
X010040Y019130D01*
X009960Y019130D01*
X009935Y019155D01*
X009910Y019130D01*
X009830Y019130D01*
X009830Y018713D01*
X009707Y018590D01*
X009557Y018440D01*
X007183Y018440D01*
X007060Y018563D01*
X006910Y018713D01*
X006910Y019130D01*
X006830Y019130D01*
X006819Y019141D01*
X006818Y019140D01*
X006784Y019120D01*
X006746Y019110D01*
X006540Y019110D01*
X006540Y019466D01*
X006440Y019466D01*
X006440Y019110D01*
X006234Y019110D01*
X006196Y019120D01*
X006162Y019140D01*
X006134Y019168D01*
X006114Y019202D01*
X006104Y019240D01*
X006104Y019466D01*
X006440Y019466D01*
X006440Y019566D01*
X006104Y019566D01*
X006104Y019640D01*
X006007Y019640D01*
X005980Y019613D01*
X005980Y018963D01*
X005857Y018840D01*
X005200Y018183D01*
X005200Y017834D01*
X005300Y017834D01*
X005300Y018190D01*
X005506Y018190D01*
X005523Y018185D01*
X005523Y018191D01*
X005533Y018229D01*
X005553Y018263D01*
X005581Y018291D01*
X005615Y018311D01*
X005653Y018321D01*
X005822Y018321D01*
X005822Y018003D01*
X005918Y018003D01*
X005918Y018321D01*
X006087Y018321D01*
X006125Y018311D01*
X006159Y018291D01*
X006187Y018263D01*
X006207Y018229D01*
X006217Y018191D01*
X006217Y018170D01*
X006780Y018170D01*
X006805Y018145D01*
X006830Y018170D01*
X007410Y018170D01*
X007435Y018145D01*
X007460Y018170D01*
X008023Y018170D01*
X008023Y018191D01*
X008033Y018229D01*
X008053Y018263D01*
X008081Y018291D01*
X008115Y018311D01*
X008153Y018321D01*
X008322Y018321D01*
X008322Y018003D01*
X008418Y018003D01*
X008418Y018321D01*
X008587Y018321D01*
X008625Y018311D01*
X008659Y018291D01*
X008687Y018263D01*
X008707Y018229D01*
X008717Y018191D01*
X008717Y018170D01*
X009280Y018170D01*
X009305Y018145D01*
X009330Y018170D01*
X009910Y018170D01*
X009921Y018159D01*
X009922Y018160D01*
X009956Y018180D01*
X009994Y018190D01*
X010200Y018190D01*
X010200Y017834D01*
X010300Y017834D01*
X010300Y018190D01*
X010506Y018190D01*
X010523Y018185D01*
X010523Y018191D01*
X010533Y018229D01*
X010553Y018263D01*
X010581Y018291D01*
X010615Y018311D01*
X010653Y018321D01*
X010822Y018321D01*
X010822Y018003D01*
X010918Y018003D01*
X010918Y018321D01*
X011087Y018321D01*
X011125Y018311D01*
X011159Y018291D01*
X011187Y018263D01*
X011207Y018229D01*
X011217Y018191D01*
X011217Y018170D01*
X011780Y018170D01*
X011805Y018145D01*
X011830Y018170D01*
X012410Y018170D01*
X012435Y018145D01*
X012460Y018170D01*
X013023Y018170D01*
X013023Y018191D01*
X013033Y018229D01*
X013053Y018263D01*
X013081Y018291D01*
X013115Y018311D01*
X013153Y018321D01*
X013322Y018321D01*
X013322Y018003D01*
X013418Y018003D01*
X013418Y018321D01*
X013587Y018321D01*
X013625Y018311D01*
X013659Y018291D01*
X013687Y018263D01*
X013707Y018229D01*
X013717Y018191D01*
X013717Y018170D01*
X014280Y018170D01*
X014305Y018145D01*
X014330Y018170D01*
X014910Y018170D01*
X014921Y018159D01*
X014922Y018160D01*
X014956Y018180D01*
X014994Y018190D01*
X015200Y018190D01*
X015200Y017834D01*
X015300Y017834D01*
X015300Y018190D01*
X015506Y018190D01*
X015523Y018185D01*
X015523Y018191D01*
X015533Y018229D01*
X015553Y018263D01*
X015581Y018291D01*
X015615Y018311D01*
X015653Y018321D01*
X015822Y018321D01*
X015822Y018003D01*
X015918Y018003D01*
X015918Y018321D01*
X016087Y018321D01*
X016125Y018311D01*
X016159Y018291D01*
X016187Y018263D01*
X016207Y018229D01*
X016217Y018191D01*
X016217Y018170D01*
X016780Y018170D01*
X016805Y018145D01*
X016830Y018170D01*
X017410Y018170D01*
X017435Y018145D01*
X017460Y018170D01*
X018023Y018170D01*
X018023Y018241D01*
X018033Y018279D01*
X018053Y018313D01*
X018081Y018341D01*
X018115Y018361D01*
X018153Y018371D01*
X018322Y018371D01*
X018322Y018053D01*
X018418Y018053D01*
X018418Y018371D01*
X018587Y018371D01*
X018625Y018361D01*
X018659Y018341D01*
X018687Y018313D01*
X018707Y018279D01*
X018717Y018241D01*
X018717Y018170D01*
X019280Y018170D01*
X019305Y018145D01*
X019330Y018170D01*
X019910Y018170D01*
X019921Y018159D01*
X019922Y018160D01*
X019956Y018180D01*
X019994Y018190D01*
X020200Y018190D01*
X020200Y017834D01*
X020300Y017834D01*
X020300Y018190D01*
X020506Y018190D01*
X020523Y018185D01*
X020523Y018191D01*
X020533Y018229D01*
X020553Y018263D01*
X020581Y018291D01*
X020615Y018311D01*
X020653Y018321D01*
X020822Y018321D01*
X020822Y018003D01*
X020918Y018003D01*
X020918Y018321D01*
X021087Y018321D01*
X021125Y018311D01*
X021159Y018291D01*
X021187Y018263D01*
X021207Y018229D01*
X021217Y018191D01*
X021217Y018170D01*
X021260Y018170D01*
X021260Y018229D01*
X021211Y018277D01*
X021165Y018389D01*
X021165Y018511D01*
X021211Y018623D01*
X021297Y018709D01*
X021409Y018755D01*
X021531Y018755D01*
X021643Y018709D01*
X021729Y018623D01*
X021775Y018511D01*
X021775Y018389D01*
X021729Y018277D01*
X021680Y018229D01*
X021680Y018170D01*
X021780Y018170D01*
X021805Y018145D01*
X021830Y018170D01*
X022410Y018170D01*
X022435Y018145D01*
X022460Y018170D01*
X023040Y018170D01*
X023116Y018094D01*
X023116Y017474D01*
X023072Y017430D01*
X023116Y017386D01*
X023116Y016766D01*
X023040Y016690D01*
X022460Y016690D01*
X022435Y016715D01*
X022410Y016690D01*
X021830Y016690D01*
X021819Y016701D01*
X021818Y016700D01*
X021784Y016680D01*
X021746Y016670D01*
X021540Y016670D01*
X021540Y017026D01*
X021440Y017026D01*
X021440Y016670D01*
X021234Y016670D01*
X021196Y016680D01*
X021162Y016700D01*
X021134Y016728D01*
X021114Y016762D01*
X021104Y016800D01*
X021104Y016899D01*
X020619Y016899D01*
X020616Y016902D01*
X020616Y016766D01*
X020540Y016690D01*
X020460Y016690D01*
X020460Y016503D01*
X020543Y016469D01*
X020629Y016383D01*
X020675Y016271D01*
X020675Y016149D01*
X020629Y016037D01*
X020543Y015951D01*
X020431Y015905D01*
X020309Y015905D01*
X020197Y015951D01*
X020111Y016037D01*
X020065Y016149D01*
X020065Y016218D01*
X020040Y016243D01*
X020040Y016690D01*
X019960Y016690D01*
X019935Y016715D01*
X019910Y016690D01*
X019330Y016690D01*
X019305Y016715D01*
X019280Y016690D01*
X018700Y016690D01*
X018624Y016766D01*
X018624Y016952D01*
X018621Y016949D01*
X018580Y016949D01*
X018580Y016515D01*
X018581Y016515D01*
X018693Y016469D01*
X018779Y016383D01*
X018825Y016271D01*
X018825Y016149D01*
X018779Y016037D01*
X018693Y015951D01*
X018581Y015905D01*
X018459Y015905D01*
X018347Y015951D01*
X018261Y016037D01*
X018215Y016149D01*
X018215Y016218D01*
X018160Y016273D01*
X018160Y016949D01*
X018119Y016949D01*
X018116Y016952D01*
X018116Y016766D01*
X018040Y016690D01*
X017460Y016690D01*
X017435Y016715D01*
X017410Y016690D01*
X016830Y016690D01*
X016819Y016701D01*
X016818Y016700D01*
X016784Y016680D01*
X016746Y016670D01*
X016540Y016670D01*
X016540Y017026D01*
X016440Y017026D01*
X016440Y016670D01*
X016234Y016670D01*
X016196Y016680D01*
X016162Y016700D01*
X016134Y016728D01*
X016114Y016762D01*
X016104Y016800D01*
X016104Y016899D01*
X015619Y016899D01*
X015616Y016902D01*
X015616Y016766D01*
X015540Y016690D01*
X015480Y016690D01*
X015480Y016495D01*
X015543Y016469D01*
X015629Y016383D01*
X015675Y016271D01*
X015675Y016149D01*
X015629Y016037D01*
X015543Y015951D01*
X015431Y015905D01*
X015309Y015905D01*
X015197Y015951D01*
X015111Y016037D01*
X015065Y016149D01*
X015065Y016218D01*
X015060Y016223D01*
X015060Y016690D01*
X014960Y016690D01*
X014935Y016715D01*
X014910Y016690D01*
X014330Y016690D01*
X014305Y016715D01*
X014280Y016690D01*
X013700Y016690D01*
X013624Y016766D01*
X013624Y016902D01*
X013621Y016899D01*
X013580Y016899D01*
X013580Y016495D01*
X013643Y016469D01*
X013729Y016383D01*
X013775Y016271D01*
X013775Y016149D01*
X013729Y016037D01*
X013643Y015951D01*
X013531Y015905D01*
X013409Y015905D01*
X013297Y015951D01*
X013211Y016037D01*
X013165Y016149D01*
X013165Y016218D01*
X013160Y016223D01*
X013160Y016899D01*
X013119Y016899D01*
X013116Y016902D01*
X013116Y016766D01*
X013040Y016690D01*
X012460Y016690D01*
X012435Y016715D01*
X012410Y016690D01*
X011830Y016690D01*
X011819Y016701D01*
X011818Y016700D01*
X011784Y016680D01*
X011746Y016670D01*
X011540Y016670D01*
X011540Y017026D01*
X011440Y017026D01*
X011440Y016670D01*
X011234Y016670D01*
X011196Y016680D01*
X011162Y016700D01*
X011134Y016728D01*
X011114Y016762D01*
X011104Y016800D01*
X011104Y016899D01*
X010619Y016899D01*
X010616Y016902D01*
X010616Y016766D01*
X010540Y016690D01*
X010480Y016690D01*
X010480Y016474D01*
X010493Y016469D01*
X010579Y016383D01*
X010625Y016271D01*
X010625Y016149D01*
X010579Y016037D01*
X010493Y015951D01*
X010381Y015905D01*
X010259Y015905D01*
X010147Y015951D01*
X010061Y016037D01*
X010015Y016149D01*
X010015Y016271D01*
X010060Y016379D01*
X010060Y016690D01*
X009960Y016690D01*
X009935Y016715D01*
X009910Y016690D01*
X009330Y016690D01*
X009305Y016715D01*
X009280Y016690D01*
X008700Y016690D01*
X008624Y016766D01*
X008624Y016902D01*
X008621Y016899D01*
X008580Y016899D01*
X008580Y016474D01*
X008593Y016469D01*
X008679Y016383D01*
X008725Y016271D01*
X008725Y016149D01*
X008679Y016037D01*
X008593Y015951D01*
X008481Y015905D01*
X008359Y015905D01*
X008247Y015951D01*
X008161Y016037D01*
X008115Y016149D01*
X008115Y016271D01*
X008160Y016379D01*
X008160Y016899D01*
X008119Y016899D01*
X008116Y016902D01*
X008116Y016766D01*
X008040Y016690D01*
X007460Y016690D01*
X007435Y016715D01*
X007410Y016690D01*
X006830Y016690D01*
X006819Y016701D01*
X006818Y016700D01*
X006784Y016680D01*
X006746Y016670D01*
X006540Y016670D01*
X006540Y017026D01*
X006440Y017026D01*
X006440Y016670D01*
X006234Y016670D01*
X006196Y016680D01*
X006162Y016700D01*
X006134Y016728D01*
X006114Y016762D01*
X006104Y016800D01*
X006104Y016899D01*
X005619Y016899D01*
X005616Y016902D01*
X005616Y016766D01*
X005540Y016690D01*
X005460Y016690D01*
X005460Y016503D01*
X005543Y016469D01*
X005629Y016383D01*
X005675Y016271D01*
X005675Y016149D01*
X005629Y016037D01*
X005543Y015951D01*
X005431Y015905D01*
X005309Y015905D01*
X005197Y015951D01*
X005111Y016037D01*
X005065Y016149D01*
X005065Y016218D01*
X005040Y016243D01*
X005040Y016690D01*
X004960Y016690D01*
X004935Y016715D01*
X004910Y016690D01*
X004330Y016690D01*
X004305Y016715D01*
X004280Y016690D01*
X003700Y016690D01*
X003680Y016710D01*
X003680Y015713D01*
X003557Y015590D01*
X003457Y015490D01*
X003367Y015490D01*
X003367Y015275D01*
X003292Y015200D01*
X003367Y015125D01*
X003367Y014584D01*
X003291Y014508D01*
X003273Y014508D01*
X003295Y014502D01*
X003329Y014482D01*
X003357Y014454D01*
X003377Y014420D01*
X003387Y014382D01*
X003387Y014194D01*
X003088Y014194D01*
X003088Y014097D01*
X003088Y013779D01*
X003257Y013779D01*
X003295Y013789D01*
X003329Y013809D01*
X003357Y013837D01*
X003377Y013871D01*
X003387Y013909D01*
X003387Y014097D01*
X003088Y014097D01*
X002992Y014097D01*
X002992Y013779D01*
X002823Y013779D01*
X002785Y013789D01*
X002751Y013809D01*
X002723Y013837D01*
X002703Y013871D01*
X002693Y013909D01*
X002693Y014097D01*
X002992Y014097D01*
X002992Y014194D01*
X002693Y014194D01*
X002693Y014382D01*
X002703Y014420D01*
X002723Y014454D01*
X002751Y014482D01*
X002785Y014502D01*
X002807Y014508D01*
X002789Y014508D01*
X002713Y014584D01*
X002713Y015046D01*
X002607Y014940D01*
X001670Y014940D01*
X001670Y014815D01*
X001283Y014815D01*
X001283Y014790D01*
X001670Y014790D01*
X001670Y014658D01*
X001669Y014655D01*
X002150Y014655D01*
X002344Y014575D01*
X002344Y014575D01*
X002493Y014426D01*
X002493Y014426D01*
X002574Y014232D01*
X002574Y008116D01*
X002493Y007921D01*
X002493Y007921D01*
X002344Y007773D01*
X002344Y007773D01*
X002150Y007692D01*
X000864Y007692D01*
X000813Y007687D01*
X000720Y007649D01*
X000649Y007577D01*
X000610Y007484D01*
X000610Y007484D01*
X000605Y007433D01*
X000605Y001684D01*
X000654Y001962D01*
X000875Y002345D01*
X001213Y002628D01*
X001627Y002779D01*
X002069Y002779D01*
X002502Y002613D02*
X003624Y002613D01*
X003624Y002514D02*
X002619Y002514D01*
X002737Y002416D02*
X003624Y002416D01*
X003624Y002317D02*
X002837Y002317D01*
X002894Y002219D02*
X003624Y002219D01*
X003630Y002120D02*
X002951Y002120D01*
X003008Y002022D02*
X005565Y002022D01*
X005597Y001923D02*
X003049Y001923D01*
X003066Y001825D02*
X005674Y001825D01*
X006066Y001825D02*
X008160Y001825D01*
X008160Y001923D02*
X006143Y001923D01*
X006175Y002022D02*
X008160Y002022D01*
X008160Y002120D02*
X008110Y002120D01*
X008160Y001726D02*
X003084Y001726D01*
X003101Y001628D02*
X003931Y001628D01*
X003903Y001600D02*
X003780Y001477D01*
X003780Y001090D01*
X003700Y001090D01*
X003624Y001014D01*
X003624Y000394D01*
X003700Y000318D01*
X004280Y000318D01*
X004305Y000343D01*
X004330Y000318D01*
X004910Y000318D01*
X004921Y000329D01*
X004922Y000328D01*
X004956Y000308D01*
X004994Y000298D01*
X005200Y000298D01*
X005200Y000654D01*
X005300Y000654D01*
X005300Y000298D01*
X005506Y000298D01*
X005544Y000308D01*
X005578Y000328D01*
X005606Y000356D01*
X005626Y000390D01*
X005633Y000416D01*
X005697Y000351D01*
X005809Y000305D01*
X005931Y000305D01*
X006043Y000351D01*
X006124Y000433D01*
X006124Y000394D01*
X006200Y000318D01*
X006780Y000318D01*
X006805Y000343D01*
X006830Y000318D01*
X007410Y000318D01*
X007435Y000343D01*
X007460Y000318D01*
X008040Y000318D01*
X008116Y000394D01*
X008116Y001014D01*
X008040Y001090D01*
X007980Y001090D01*
X007980Y001457D01*
X007857Y001580D01*
X007857Y001580D01*
X007757Y001680D01*
X003983Y001680D01*
X003903Y001600D01*
X003832Y001529D02*
X003118Y001529D01*
X003101Y001431D02*
X003780Y001431D01*
X003780Y001332D02*
X003084Y001332D01*
X003067Y001234D02*
X003780Y001234D01*
X003780Y001135D02*
X003049Y001135D01*
X003009Y001037D02*
X003647Y001037D01*
X003624Y000938D02*
X002952Y000938D01*
X002895Y000840D02*
X003624Y000840D01*
X003624Y000741D02*
X002838Y000741D01*
X002739Y000643D02*
X003624Y000643D01*
X003624Y000544D02*
X002622Y000544D01*
X002504Y000446D02*
X003624Y000446D01*
X003671Y000347D02*
X002261Y000347D01*
X000612Y001726D02*
X000605Y001726D01*
X000605Y001825D02*
X000630Y001825D01*
X000647Y001923D02*
X000605Y001923D01*
X000605Y002022D02*
X000688Y002022D01*
X000745Y002120D02*
X000605Y002120D01*
X000605Y002219D02*
X000802Y002219D01*
X000859Y002317D02*
X000605Y002317D01*
X000605Y002416D02*
X000959Y002416D01*
X001077Y002514D02*
X000605Y002514D01*
X000605Y002613D02*
X001194Y002613D01*
X001440Y002711D02*
X000605Y002711D01*
X000605Y003598D02*
X005578Y003598D01*
X005822Y003598D02*
X005918Y003598D01*
X005918Y003499D02*
X005822Y003499D01*
X005822Y003401D02*
X005918Y003401D01*
X006162Y003598D02*
X008078Y003598D01*
X008322Y003598D02*
X008418Y003598D01*
X008418Y003499D02*
X008322Y003499D01*
X008322Y003401D02*
X008418Y003401D01*
X008662Y003598D02*
X010578Y003598D01*
X010636Y003795D02*
X013354Y003795D01*
X013288Y003893D02*
X010702Y003893D01*
X010725Y003992D02*
X013265Y003992D01*
X013193Y004090D02*
X010717Y004090D01*
X010673Y004189D02*
X013160Y004189D01*
X013160Y004287D02*
X010548Y004287D01*
X010460Y004386D02*
X013160Y004386D01*
X013160Y004484D02*
X011790Y004484D01*
X011540Y004484D02*
X011440Y004484D01*
X011440Y004583D02*
X011540Y004583D01*
X011540Y004681D02*
X011440Y004681D01*
X011440Y004780D02*
X011540Y004780D01*
X011104Y004681D02*
X010616Y004681D01*
X010616Y004583D02*
X011109Y004583D01*
X011190Y004484D02*
X010460Y004484D01*
X010040Y004484D02*
X008580Y004484D01*
X008580Y004386D02*
X010040Y004386D01*
X010040Y004287D02*
X008648Y004287D01*
X008773Y004189D02*
X010040Y004189D01*
X010043Y004090D02*
X008817Y004090D01*
X008825Y003992D02*
X010115Y003992D01*
X010138Y003893D02*
X008802Y003893D01*
X008736Y003795D02*
X010204Y003795D01*
X010200Y003499D02*
X010300Y003499D01*
X010300Y003401D02*
X010200Y003401D01*
X010200Y003302D02*
X010300Y003302D01*
X010300Y003204D02*
X010200Y003204D01*
X010822Y003401D02*
X010918Y003401D01*
X010918Y003499D02*
X010822Y003499D01*
X010822Y003598D02*
X010918Y003598D01*
X011162Y003598D02*
X013078Y003598D01*
X013322Y003598D02*
X013418Y003598D01*
X013418Y003499D02*
X013322Y003499D01*
X013322Y003401D02*
X013418Y003401D01*
X013662Y003598D02*
X015578Y003598D01*
X015636Y003795D02*
X018304Y003795D01*
X018238Y003893D02*
X015702Y003893D01*
X015725Y003992D02*
X018215Y003992D01*
X018160Y004090D02*
X015717Y004090D01*
X015673Y004189D02*
X018160Y004189D01*
X018160Y004287D02*
X015548Y004287D01*
X015460Y004386D02*
X018160Y004386D01*
X018160Y004484D02*
X016790Y004484D01*
X016540Y004484D02*
X016440Y004484D01*
X016440Y004583D02*
X016540Y004583D01*
X016540Y004681D02*
X016440Y004681D01*
X016440Y004780D02*
X016540Y004780D01*
X016104Y004681D02*
X015616Y004681D01*
X015616Y004583D02*
X016109Y004583D01*
X016190Y004484D02*
X015460Y004484D01*
X015040Y004484D02*
X013580Y004484D01*
X013580Y004386D02*
X015040Y004386D01*
X015040Y004287D02*
X013698Y004287D01*
X013823Y004189D02*
X015040Y004189D01*
X015043Y004090D02*
X013867Y004090D01*
X013875Y003992D02*
X015115Y003992D01*
X015138Y003893D02*
X013852Y003893D01*
X013786Y003795D02*
X015204Y003795D01*
X015200Y003499D02*
X015300Y003499D01*
X015300Y003401D02*
X015200Y003401D01*
X015200Y003302D02*
X015300Y003302D01*
X015300Y003204D02*
X015200Y003204D01*
X015822Y003401D02*
X015918Y003401D01*
X015918Y003499D02*
X015822Y003499D01*
X015822Y003598D02*
X015918Y003598D01*
X016162Y003598D02*
X018078Y003598D01*
X018322Y003598D02*
X018418Y003598D01*
X018418Y003499D02*
X018322Y003499D01*
X018322Y003401D02*
X018418Y003401D01*
X018662Y003598D02*
X020578Y003598D01*
X020586Y003795D02*
X021238Y003795D01*
X021215Y003893D02*
X020652Y003893D01*
X020675Y003992D02*
X021224Y003992D01*
X021269Y004090D02*
X020667Y004090D01*
X020623Y004189D02*
X021395Y004189D01*
X021645Y004189D02*
X025926Y004189D01*
X025926Y004287D02*
X020498Y004287D01*
X020460Y004386D02*
X025926Y004386D01*
X025926Y004484D02*
X021790Y004484D01*
X021540Y004484D02*
X021440Y004484D01*
X021440Y004583D02*
X021540Y004583D01*
X021540Y004681D02*
X021440Y004681D01*
X021440Y004780D02*
X021540Y004780D01*
X021104Y004681D02*
X020616Y004681D01*
X020616Y004583D02*
X021109Y004583D01*
X021190Y004484D02*
X020460Y004484D01*
X020040Y004484D02*
X018580Y004484D01*
X018580Y004386D02*
X020040Y004386D01*
X020040Y004287D02*
X018648Y004287D01*
X018773Y004189D02*
X020040Y004189D01*
X020040Y004090D02*
X018817Y004090D01*
X018825Y003992D02*
X020065Y003992D01*
X020088Y003893D02*
X018802Y003893D01*
X018736Y003795D02*
X020154Y003795D01*
X020200Y003499D02*
X020300Y003499D01*
X020300Y003401D02*
X020200Y003401D01*
X020200Y003302D02*
X020300Y003302D01*
X020300Y003204D02*
X020200Y003204D01*
X020822Y003401D02*
X020918Y003401D01*
X020918Y003499D02*
X020822Y003499D01*
X020822Y003598D02*
X020918Y003598D01*
X021162Y003598D02*
X021310Y003598D01*
X021303Y003696D02*
X000605Y003696D01*
X000605Y003795D02*
X008304Y003795D01*
X008238Y003893D02*
X000605Y003893D01*
X000605Y003992D02*
X005007Y003992D01*
X004940Y004090D02*
X000605Y004090D01*
X000605Y004189D02*
X004915Y004189D01*
X004922Y004287D02*
X000605Y004287D01*
X000605Y004386D02*
X004964Y004386D01*
X005010Y004484D02*
X000605Y004484D01*
X000605Y006356D02*
X005184Y006356D01*
X005035Y006454D02*
X000605Y006454D01*
X000605Y006553D02*
X004980Y006553D01*
X004965Y006651D02*
X000605Y006651D01*
X000605Y006750D02*
X004981Y006750D01*
X005037Y006848D02*
X000605Y006848D01*
X000605Y006947D02*
X003684Y006947D01*
X003624Y007045D02*
X000605Y007045D01*
X000605Y007144D02*
X003624Y007144D01*
X003624Y007242D02*
X000605Y007242D01*
X000605Y007341D02*
X003624Y007341D01*
X003624Y007439D02*
X000606Y007439D01*
X000632Y007538D02*
X003624Y007538D01*
X003634Y007636D02*
X000707Y007636D01*
X002252Y007735D02*
X003624Y007735D01*
X003624Y007833D02*
X002405Y007833D01*
X002497Y007932D02*
X003624Y007932D01*
X003624Y008030D02*
X002538Y008030D01*
X002574Y008129D02*
X003624Y008129D01*
X003624Y008227D02*
X002574Y008227D01*
X002574Y008326D02*
X003624Y008326D01*
X003700Y009370D02*
X004280Y009370D01*
X004305Y009395D01*
X004330Y009370D01*
X004910Y009370D01*
X004935Y009395D01*
X004960Y009370D01*
X005060Y009370D01*
X005060Y009301D01*
X005011Y009253D01*
X004965Y009141D01*
X004965Y009019D01*
X005011Y008907D01*
X005097Y008821D01*
X005209Y008775D01*
X005331Y008775D01*
X005443Y008821D01*
X005529Y008907D01*
X005575Y009019D01*
X005575Y009141D01*
X005529Y009253D01*
X005480Y009301D01*
X005480Y009370D01*
X005540Y009370D01*
X005616Y009446D01*
X005616Y009582D01*
X005619Y009579D01*
X006104Y009579D01*
X006104Y009480D01*
X006114Y009442D01*
X006134Y009408D01*
X006162Y009380D01*
X006196Y009360D01*
X006234Y009350D01*
X006440Y009350D01*
X006440Y009706D01*
X006540Y009706D01*
X006540Y009350D01*
X006746Y009350D01*
X006784Y009360D01*
X006818Y009380D01*
X006819Y009381D01*
X006830Y009370D01*
X007410Y009370D01*
X007435Y009395D01*
X007460Y009370D01*
X008040Y009370D01*
X008116Y009446D01*
X008116Y009582D01*
X008119Y009579D01*
X008160Y009579D01*
X008160Y009164D01*
X008158Y009162D01*
X008160Y009077D01*
X008160Y008993D01*
X008162Y008991D01*
X008162Y008988D01*
X008223Y008930D01*
X008265Y008888D01*
X008265Y008829D01*
X008311Y008717D01*
X008397Y008631D01*
X008509Y008585D01*
X008631Y008585D01*
X008743Y008631D01*
X008829Y008717D01*
X008875Y008829D01*
X008875Y008951D01*
X008829Y009063D01*
X008743Y009149D01*
X008631Y009195D01*
X008580Y009195D01*
X008580Y009579D01*
X008621Y009579D01*
X008624Y009582D01*
X008624Y009446D01*
X008700Y009370D01*
X009280Y009370D01*
X009305Y009395D01*
X009330Y009370D01*
X009910Y009370D01*
X009935Y009395D01*
X009960Y009370D01*
X010040Y009370D01*
X010040Y009082D01*
X010036Y009078D01*
X010040Y008996D01*
X010040Y008913D01*
X010044Y008909D01*
X010044Y008904D01*
X010065Y008885D01*
X010065Y008829D01*
X010111Y008717D01*
X010197Y008631D01*
X010309Y008585D01*
X010431Y008585D01*
X010543Y008631D01*
X010629Y008717D01*
X010675Y008829D01*
X010675Y008951D01*
X010629Y009063D01*
X010543Y009149D01*
X010460Y009183D01*
X010460Y009370D01*
X010540Y009370D01*
X010616Y009446D01*
X010616Y009582D01*
X010619Y009579D01*
X011104Y009579D01*
X011104Y009480D01*
X011114Y009442D01*
X011134Y009408D01*
X011162Y009380D01*
X011196Y009360D01*
X011234Y009350D01*
X011440Y009350D01*
X011440Y009706D01*
X011540Y009706D01*
X011540Y009350D01*
X011746Y009350D01*
X011784Y009360D01*
X011818Y009380D01*
X011819Y009381D01*
X011830Y009370D01*
X012410Y009370D01*
X012435Y009395D01*
X012460Y009370D01*
X013040Y009370D01*
X013116Y009446D01*
X013116Y009582D01*
X013119Y009579D01*
X013160Y009579D01*
X013160Y009061D01*
X013156Y009056D01*
X013160Y008974D01*
X013160Y008893D01*
X013165Y008888D01*
X013165Y008882D01*
X013165Y008829D01*
X013211Y008717D01*
X013297Y008631D01*
X013409Y008585D01*
X013531Y008585D01*
X013643Y008631D01*
X013729Y008717D01*
X013775Y008829D01*
X013775Y008951D01*
X013729Y009063D01*
X013643Y009149D01*
X013580Y009175D01*
X013580Y009579D01*
X013621Y009579D01*
X013624Y009582D01*
X013624Y009446D01*
X013700Y009370D01*
X014280Y009370D01*
X014305Y009395D01*
X014330Y009370D01*
X014910Y009370D01*
X014935Y009395D01*
X014960Y009370D01*
X015040Y009370D01*
X015040Y009133D01*
X015037Y009131D01*
X015040Y009047D01*
X015040Y008963D01*
X015043Y008960D01*
X015043Y008957D01*
X015104Y008899D01*
X015115Y008888D01*
X015115Y008829D01*
X015161Y008717D01*
X015247Y008631D01*
X015359Y008585D01*
X015481Y008585D01*
X015593Y008631D01*
X015679Y008717D01*
X015725Y008829D01*
X015725Y008951D01*
X015679Y009063D01*
X015593Y009149D01*
X015481Y009195D01*
X015460Y009195D01*
X015460Y009370D01*
X015540Y009370D01*
X015616Y009446D01*
X015616Y009582D01*
X015619Y009579D01*
X016104Y009579D01*
X016104Y009480D01*
X016114Y009442D01*
X016134Y009408D01*
X016162Y009380D01*
X016196Y009360D01*
X016234Y009350D01*
X016440Y009350D01*
X016440Y009706D01*
X016540Y009706D01*
X016540Y009350D01*
X016746Y009350D01*
X016784Y009360D01*
X016818Y009380D01*
X016819Y009381D01*
X016830Y009370D01*
X017410Y009370D01*
X017435Y009395D01*
X017460Y009370D01*
X018040Y009370D01*
X018116Y009446D01*
X018116Y009582D01*
X018119Y009579D01*
X018160Y009579D01*
X018160Y009113D01*
X018157Y009110D01*
X018160Y009026D01*
X018160Y008943D01*
X018163Y008940D01*
X018163Y008936D01*
X018215Y008887D01*
X018215Y008829D01*
X018261Y008717D01*
X018347Y008631D01*
X018459Y008585D01*
X018581Y008585D01*
X018693Y008631D01*
X018779Y008717D01*
X018825Y008829D01*
X018825Y008951D01*
X018779Y009063D01*
X018693Y009149D01*
X018581Y009195D01*
X018580Y009195D01*
X018580Y009579D01*
X018621Y009579D01*
X018624Y009582D01*
X018624Y009446D01*
X018700Y009370D01*
X019280Y009370D01*
X019305Y009395D01*
X019330Y009370D01*
X019910Y009370D01*
X019935Y009395D01*
X019960Y009370D01*
X020040Y009370D01*
X020040Y009082D01*
X020036Y009078D01*
X020040Y008996D01*
X020040Y008913D01*
X020044Y008909D01*
X020044Y008904D01*
X020065Y008885D01*
X020065Y008829D01*
X020111Y008717D01*
X020197Y008631D01*
X020309Y008585D01*
X020431Y008585D01*
X020543Y008631D01*
X020629Y008717D01*
X020675Y008829D01*
X020675Y008951D01*
X020629Y009063D01*
X020543Y009149D01*
X020460Y009183D01*
X020460Y009370D01*
X020540Y009370D01*
X020616Y009446D01*
X020616Y009582D01*
X020619Y009579D01*
X021104Y009579D01*
X021104Y009480D01*
X021114Y009442D01*
X021134Y009408D01*
X021162Y009380D01*
X021196Y009360D01*
X021234Y009350D01*
X021440Y009350D01*
X021440Y009706D01*
X021540Y009706D01*
X021540Y009350D01*
X021746Y009350D01*
X021784Y009360D01*
X021818Y009380D01*
X021819Y009381D01*
X021830Y009370D01*
X022410Y009370D01*
X022435Y009395D01*
X022460Y009370D01*
X023040Y009370D01*
X023116Y009446D01*
X023116Y010066D01*
X023072Y010110D01*
X023116Y010154D01*
X023116Y010774D01*
X023040Y010850D01*
X022460Y010850D01*
X022435Y010825D01*
X022410Y010850D01*
X021830Y010850D01*
X021805Y010825D01*
X021791Y010838D01*
X021825Y010919D01*
X021825Y011041D01*
X021779Y011153D01*
X021693Y011239D01*
X021581Y011285D01*
X021459Y011285D01*
X021347Y011239D01*
X021261Y011153D01*
X021215Y011041D01*
X021215Y010919D01*
X021244Y010850D01*
X021217Y010850D01*
X021217Y010871D01*
X021207Y010909D01*
X021187Y010943D01*
X021159Y010971D01*
X021125Y010991D01*
X021087Y011001D01*
X020918Y011001D01*
X020918Y010683D01*
X020822Y010683D01*
X020822Y011001D01*
X020653Y011001D01*
X020615Y010991D01*
X020581Y010971D01*
X020553Y010943D01*
X020533Y010909D01*
X020523Y010871D01*
X020523Y010865D01*
X020506Y010870D01*
X020300Y010870D01*
X020300Y010514D01*
X020200Y010514D01*
X020200Y010870D01*
X019994Y010870D01*
X019956Y010860D01*
X019922Y010840D01*
X019921Y010839D01*
X019910Y010850D01*
X019330Y010850D01*
X019305Y010825D01*
X019280Y010850D01*
X018717Y010850D01*
X018717Y010871D01*
X018707Y010909D01*
X018687Y010943D01*
X018659Y010971D01*
X018625Y010991D01*
X018587Y011001D01*
X018418Y011001D01*
X018418Y010683D01*
X018322Y010683D01*
X018322Y011001D01*
X018153Y011001D01*
X018115Y010991D01*
X018081Y010971D01*
X018053Y010943D01*
X018033Y010909D01*
X018023Y010871D01*
X018023Y010850D01*
X017460Y010850D01*
X017435Y010825D01*
X017410Y010850D01*
X016830Y010850D01*
X016805Y010825D01*
X016780Y010850D01*
X016217Y010850D01*
X016217Y010871D01*
X016207Y010909D01*
X016187Y010943D01*
X016159Y010971D01*
X016125Y010991D01*
X016087Y011001D01*
X015918Y011001D01*
X015918Y010683D01*
X015822Y010683D01*
X015822Y011001D01*
X015653Y011001D01*
X015615Y010991D01*
X015581Y010971D01*
X015553Y010943D01*
X015533Y010909D01*
X015523Y010871D01*
X015523Y010865D01*
X015506Y010870D01*
X015300Y010870D01*
X015300Y010514D01*
X015200Y010514D01*
X015200Y010870D01*
X014994Y010870D01*
X014956Y010860D01*
X014922Y010840D01*
X014921Y010839D01*
X014910Y010850D01*
X014330Y010850D01*
X014305Y010825D01*
X014280Y010850D01*
X013717Y010850D01*
X013717Y010871D01*
X013707Y010909D01*
X013687Y010943D01*
X013659Y010971D01*
X013625Y010991D01*
X013587Y011001D01*
X013418Y011001D01*
X013418Y010683D01*
X013322Y010683D01*
X013322Y011001D01*
X013153Y011001D01*
X013115Y010991D01*
X013081Y010971D01*
X013053Y010943D01*
X013033Y010909D01*
X013023Y010871D01*
X013023Y010850D01*
X012460Y010850D01*
X012435Y010825D01*
X012410Y010850D01*
X011830Y010850D01*
X011805Y010825D01*
X011780Y010850D01*
X011217Y010850D01*
X011217Y010871D01*
X011207Y010909D01*
X011187Y010943D01*
X011159Y010971D01*
X011125Y010991D01*
X011087Y011001D01*
X010918Y011001D01*
X010918Y010683D01*
X010822Y010683D01*
X010822Y011001D01*
X010653Y011001D01*
X010615Y010991D01*
X010581Y010971D01*
X010553Y010943D01*
X010533Y010909D01*
X010523Y010871D01*
X010523Y010865D01*
X010506Y010870D01*
X010300Y010870D01*
X010300Y010514D01*
X010200Y010514D01*
X010200Y010870D01*
X009994Y010870D01*
X009956Y010860D01*
X009922Y010840D01*
X009921Y010839D01*
X009910Y010850D01*
X009330Y010850D01*
X009305Y010825D01*
X009280Y010850D01*
X008717Y010850D01*
X008717Y010871D01*
X008707Y010909D01*
X008687Y010943D01*
X008659Y010971D01*
X008625Y010991D01*
X008587Y011001D01*
X008418Y011001D01*
X008418Y010683D01*
X008322Y010683D01*
X008322Y011001D01*
X008153Y011001D01*
X008115Y010991D01*
X008081Y010971D01*
X008053Y010943D01*
X008033Y010909D01*
X008023Y010871D01*
X008023Y010850D01*
X007460Y010850D01*
X007435Y010825D01*
X007410Y010850D01*
X006830Y010850D01*
X006805Y010825D01*
X006780Y010850D01*
X006217Y010850D01*
X006217Y010871D01*
X006207Y010909D01*
X006187Y010943D01*
X006159Y010971D01*
X006125Y010991D01*
X006087Y011001D01*
X005918Y011001D01*
X005918Y010683D01*
X005822Y010683D01*
X005822Y011001D01*
X005653Y011001D01*
X005615Y010991D01*
X005581Y010971D01*
X005553Y010943D01*
X005533Y010909D01*
X005523Y010871D01*
X005523Y010865D01*
X005506Y010870D01*
X005300Y010870D01*
X005300Y010514D01*
X005200Y010514D01*
X005200Y010870D01*
X004994Y010870D01*
X004956Y010860D01*
X004922Y010840D01*
X004921Y010839D01*
X004910Y010850D01*
X004330Y010850D01*
X004305Y010825D01*
X004280Y010850D01*
X003700Y010850D01*
X003624Y010774D01*
X003624Y010154D01*
X003668Y010110D01*
X003624Y010066D01*
X003624Y009446D01*
X003700Y009370D01*
X003661Y009409D02*
X002574Y009409D01*
X002574Y009311D02*
X005060Y009311D01*
X004995Y009212D02*
X002574Y009212D01*
X002574Y009114D02*
X004965Y009114D01*
X004967Y009015D02*
X002574Y009015D01*
X002574Y008917D02*
X005008Y008917D01*
X005105Y008818D02*
X002574Y008818D01*
X002574Y008720D02*
X008310Y008720D01*
X008270Y008818D02*
X005435Y008818D01*
X005532Y008917D02*
X008236Y008917D01*
X008160Y009015D02*
X005573Y009015D01*
X005575Y009114D02*
X008159Y009114D01*
X008160Y009212D02*
X005545Y009212D01*
X005480Y009311D02*
X008160Y009311D01*
X008160Y009409D02*
X008079Y009409D01*
X008116Y009508D02*
X008160Y009508D01*
X008580Y009508D02*
X008624Y009508D01*
X008661Y009409D02*
X008580Y009409D01*
X008580Y009311D02*
X010040Y009311D01*
X010040Y009212D02*
X008580Y009212D01*
X008778Y009114D02*
X010040Y009114D01*
X010039Y009015D02*
X008848Y009015D01*
X008875Y008917D02*
X010040Y008917D01*
X010070Y008818D02*
X008870Y008818D01*
X008830Y008720D02*
X010110Y008720D01*
X010222Y008621D02*
X008718Y008621D01*
X008667Y008523D02*
X010573Y008523D01*
X010518Y008621D02*
X013322Y008621D01*
X013322Y008523D02*
X013418Y008523D01*
X013418Y008424D02*
X013322Y008424D01*
X013322Y008326D02*
X013418Y008326D01*
X013717Y008424D02*
X014973Y008424D01*
X015200Y008424D02*
X015300Y008424D01*
X015300Y008326D02*
X015200Y008326D01*
X015200Y008227D02*
X015300Y008227D01*
X015300Y008129D02*
X015200Y008129D01*
X015272Y008621D02*
X013618Y008621D01*
X013667Y008523D02*
X015573Y008523D01*
X015568Y008621D02*
X018372Y008621D01*
X018418Y008523D02*
X018322Y008523D01*
X018322Y008424D02*
X018418Y008424D01*
X018418Y008326D02*
X018322Y008326D01*
X018023Y008424D02*
X016217Y008424D01*
X016167Y008523D02*
X018073Y008523D01*
X018260Y008720D02*
X015680Y008720D01*
X015720Y008818D02*
X018220Y008818D01*
X018184Y008917D02*
X015725Y008917D01*
X015698Y009015D02*
X018160Y009015D01*
X018160Y009114D02*
X015628Y009114D01*
X015460Y009212D02*
X018160Y009212D01*
X018160Y009311D02*
X015460Y009311D01*
X015579Y009409D02*
X016133Y009409D01*
X016104Y009508D02*
X015616Y009508D01*
X015040Y009311D02*
X013580Y009311D01*
X013580Y009409D02*
X013661Y009409D01*
X013624Y009508D02*
X013580Y009508D01*
X013580Y009212D02*
X015040Y009212D01*
X015038Y009114D02*
X013678Y009114D01*
X013748Y009015D02*
X015040Y009015D01*
X015085Y008917D02*
X013775Y008917D01*
X013770Y008818D02*
X015120Y008818D01*
X015160Y008720D02*
X013730Y008720D01*
X013210Y008720D02*
X010630Y008720D01*
X010670Y008818D02*
X013170Y008818D01*
X013165Y008882D02*
X013165Y008882D01*
X013160Y008917D02*
X010675Y008917D01*
X010648Y009015D02*
X013158Y009015D01*
X013160Y009114D02*
X010578Y009114D01*
X010460Y009212D02*
X013160Y009212D01*
X013160Y009311D02*
X010460Y009311D01*
X010579Y009409D02*
X011133Y009409D01*
X011104Y009508D02*
X010616Y009508D01*
X011440Y009508D02*
X011540Y009508D01*
X011540Y009606D02*
X011440Y009606D01*
X011440Y009705D02*
X011540Y009705D01*
X011540Y009409D02*
X011440Y009409D01*
X011167Y008523D02*
X013073Y008523D01*
X013023Y008424D02*
X011217Y008424D01*
X010918Y008424D02*
X010822Y008424D01*
X010822Y008326D02*
X010918Y008326D01*
X010918Y008523D02*
X010822Y008523D01*
X010300Y008424D02*
X010200Y008424D01*
X010200Y008326D02*
X010300Y008326D01*
X010300Y008227D02*
X010200Y008227D01*
X010200Y008129D02*
X010300Y008129D01*
X009973Y008424D02*
X008717Y008424D01*
X008418Y008424D02*
X008322Y008424D01*
X008322Y008326D02*
X008418Y008326D01*
X008418Y008523D02*
X008322Y008523D01*
X008422Y008621D02*
X002574Y008621D01*
X002574Y008523D02*
X005573Y008523D01*
X005822Y008523D02*
X005918Y008523D01*
X005918Y008424D02*
X005822Y008424D01*
X005822Y008326D02*
X005918Y008326D01*
X006217Y008424D02*
X008023Y008424D01*
X008073Y008523D02*
X006167Y008523D01*
X005300Y008424D02*
X005200Y008424D01*
X005200Y008326D02*
X005300Y008326D01*
X005300Y008227D02*
X005200Y008227D01*
X005200Y008129D02*
X005300Y008129D01*
X004973Y008424D02*
X002574Y008424D01*
X002574Y009508D02*
X003624Y009508D01*
X003624Y009606D02*
X002574Y009606D01*
X002574Y009705D02*
X003624Y009705D01*
X003624Y009803D02*
X002574Y009803D01*
X002574Y009902D02*
X003624Y009902D01*
X003624Y010000D02*
X002574Y010000D01*
X002574Y010099D02*
X003656Y010099D01*
X003624Y010197D02*
X002574Y010197D01*
X002574Y010296D02*
X003624Y010296D01*
X003624Y010394D02*
X002574Y010394D01*
X002574Y010493D02*
X003624Y010493D01*
X003624Y010591D02*
X002574Y010591D01*
X002574Y010690D02*
X003624Y010690D01*
X003638Y010788D02*
X002574Y010788D01*
X002574Y010887D02*
X005527Y010887D01*
X005606Y010985D02*
X002574Y010985D01*
X002574Y011084D02*
X005339Y011084D01*
X005359Y011075D02*
X005481Y011075D01*
X005593Y011121D01*
X005679Y011207D01*
X005725Y011319D01*
X005725Y011441D01*
X005679Y011553D01*
X005593Y011639D01*
X005481Y011685D01*
X005460Y011685D01*
X005460Y011810D01*
X005540Y011810D01*
X005616Y011886D01*
X005616Y012022D01*
X005619Y012019D01*
X006104Y012019D01*
X006104Y011920D01*
X006114Y011882D01*
X006134Y011848D01*
X006162Y011820D01*
X006196Y011800D01*
X006234Y011790D01*
X006440Y011790D01*
X006440Y012146D01*
X006540Y012146D01*
X006540Y011790D01*
X006746Y011790D01*
X006784Y011800D01*
X006818Y011820D01*
X006819Y011821D01*
X006830Y011810D01*
X007410Y011810D01*
X007435Y011835D01*
X007460Y011810D01*
X008040Y011810D01*
X008116Y011886D01*
X008116Y012022D01*
X008119Y012019D01*
X008160Y012019D01*
X008160Y011493D01*
X008265Y011388D01*
X008265Y011319D01*
X008311Y011207D01*
X008397Y011121D01*
X008509Y011075D01*
X008631Y011075D01*
X008743Y011121D01*
X008829Y011207D01*
X008875Y011319D01*
X008875Y011441D01*
X008829Y011553D01*
X008743Y011639D01*
X008631Y011685D01*
X008580Y011685D01*
X008580Y012019D01*
X008621Y012019D01*
X008624Y012022D01*
X008624Y011886D01*
X008700Y011810D01*
X009280Y011810D01*
X009305Y011835D01*
X009330Y011810D01*
X009910Y011810D01*
X009935Y011835D01*
X009960Y011810D01*
X010040Y011810D01*
X010040Y011413D01*
X010065Y011388D01*
X010065Y011319D01*
X010111Y011207D01*
X010197Y011121D01*
X010309Y011075D01*
X010431Y011075D01*
X010543Y011121D01*
X010629Y011207D01*
X010675Y011319D01*
X010675Y011441D01*
X010629Y011553D01*
X010543Y011639D01*
X010460Y011673D01*
X010460Y011810D01*
X010540Y011810D01*
X010616Y011886D01*
X010616Y012022D01*
X010619Y012019D01*
X011104Y012019D01*
X011104Y011920D01*
X011114Y011882D01*
X011134Y011848D01*
X011162Y011820D01*
X011196Y011800D01*
X011234Y011790D01*
X011440Y011790D01*
X011440Y012146D01*
X011540Y012146D01*
X011540Y011790D01*
X011746Y011790D01*
X011784Y011800D01*
X011818Y011820D01*
X011819Y011821D01*
X011830Y011810D01*
X012410Y011810D01*
X012435Y011835D01*
X012460Y011810D01*
X013040Y011810D01*
X013116Y011886D01*
X013116Y012022D01*
X013119Y012019D01*
X013160Y012019D01*
X013160Y011443D01*
X013215Y011388D01*
X013215Y011319D01*
X013261Y011207D01*
X013347Y011121D01*
X013459Y011075D01*
X013581Y011075D01*
X013693Y011121D01*
X013779Y011207D01*
X013825Y011319D01*
X013825Y011441D01*
X013779Y011553D01*
X013693Y011639D01*
X013581Y011685D01*
X013580Y011685D01*
X013580Y012019D01*
X013621Y012019D01*
X013624Y012022D01*
X013624Y011886D01*
X013700Y011810D01*
X014280Y011810D01*
X014305Y011835D01*
X014330Y011810D01*
X014910Y011810D01*
X014935Y011835D01*
X014960Y011810D01*
X015040Y011810D01*
X015040Y011413D01*
X015065Y011388D01*
X015065Y011319D01*
X015111Y011207D01*
X015197Y011121D01*
X015309Y011075D01*
X015431Y011075D01*
X015543Y011121D01*
X015629Y011207D01*
X015675Y011319D01*
X015675Y011441D01*
X015629Y011553D01*
X015543Y011639D01*
X015460Y011673D01*
X015460Y011810D01*
X015540Y011810D01*
X015616Y011886D01*
X015616Y012022D01*
X015619Y012019D01*
X016104Y012019D01*
X016104Y011920D01*
X016114Y011882D01*
X016134Y011848D01*
X016162Y011820D01*
X016196Y011800D01*
X016234Y011790D01*
X016440Y011790D01*
X016440Y012146D01*
X016540Y012146D01*
X016540Y011790D01*
X016746Y011790D01*
X016784Y011800D01*
X016818Y011820D01*
X016819Y011821D01*
X016830Y011810D01*
X017410Y011810D01*
X017435Y011835D01*
X017460Y011810D01*
X018040Y011810D01*
X018116Y011886D01*
X018116Y012022D01*
X018119Y012019D01*
X018160Y012019D01*
X018160Y011443D01*
X018215Y011388D01*
X018215Y011319D01*
X018261Y011207D01*
X018347Y011121D01*
X018459Y011075D01*
X018581Y011075D01*
X018693Y011121D01*
X018779Y011207D01*
X018825Y011319D01*
X018825Y011441D01*
X018779Y011553D01*
X018693Y011639D01*
X018581Y011685D01*
X018580Y011685D01*
X018580Y012019D01*
X018621Y012019D01*
X018624Y012022D01*
X018624Y011886D01*
X018700Y011810D01*
X019280Y011810D01*
X019305Y011835D01*
X019330Y011810D01*
X019910Y011810D01*
X019935Y011835D01*
X019960Y011810D01*
X020040Y011810D01*
X020040Y011413D01*
X020065Y011388D01*
X020065Y011319D01*
X020111Y011207D01*
X020197Y011121D01*
X020309Y011075D01*
X020431Y011075D01*
X020543Y011121D01*
X020629Y011207D01*
X020675Y011319D01*
X020675Y011441D01*
X020629Y011553D01*
X020543Y011639D01*
X020460Y011673D01*
X020460Y011810D01*
X020540Y011810D01*
X020616Y011886D01*
X020616Y012022D01*
X020619Y012019D01*
X021104Y012019D01*
X021104Y011920D01*
X021114Y011882D01*
X021134Y011848D01*
X021162Y011820D01*
X021196Y011800D01*
X021234Y011790D01*
X021440Y011790D01*
X021440Y012146D01*
X021540Y012146D01*
X021540Y011790D01*
X021746Y011790D01*
X021784Y011800D01*
X021818Y011820D01*
X021819Y011821D01*
X021830Y011810D01*
X022410Y011810D01*
X022435Y011835D01*
X022460Y011810D01*
X023040Y011810D01*
X023116Y011886D01*
X023116Y012506D01*
X023072Y012550D01*
X023116Y012594D01*
X023116Y013214D01*
X023040Y013290D01*
X022460Y013290D01*
X022435Y013265D01*
X022410Y013290D01*
X021830Y013290D01*
X021805Y013265D01*
X021780Y013290D01*
X021730Y013290D01*
X021730Y013349D01*
X021779Y013397D01*
X021825Y013509D01*
X021825Y013631D01*
X021779Y013743D01*
X021693Y013829D01*
X021581Y013875D01*
X021459Y013875D01*
X021347Y013829D01*
X021261Y013743D01*
X021215Y013631D01*
X021215Y013509D01*
X021261Y013397D01*
X021310Y013349D01*
X021310Y013290D01*
X021217Y013290D01*
X021217Y013311D01*
X021207Y013349D01*
X021187Y013383D01*
X021159Y013411D01*
X021125Y013431D01*
X021087Y013441D01*
X020918Y013441D01*
X020918Y013123D01*
X020822Y013123D01*
X020822Y013441D01*
X020653Y013441D01*
X020615Y013431D01*
X020581Y013411D01*
X020553Y013383D01*
X020533Y013349D01*
X020523Y013311D01*
X020523Y013305D01*
X020506Y013310D01*
X020300Y013310D01*
X020300Y012954D01*
X020200Y012954D01*
X020200Y013310D01*
X019994Y013310D01*
X019956Y013300D01*
X019922Y013280D01*
X019921Y013279D01*
X019910Y013290D01*
X019330Y013290D01*
X019305Y013265D01*
X019280Y013290D01*
X018717Y013290D01*
X018717Y013311D01*
X018707Y013349D01*
X018687Y013383D01*
X018659Y013411D01*
X018625Y013431D01*
X018587Y013441D01*
X018418Y013441D01*
X018418Y013123D01*
X018322Y013123D01*
X018322Y013441D01*
X018153Y013441D01*
X018115Y013431D01*
X018081Y013411D01*
X018053Y013383D01*
X018033Y013349D01*
X018023Y013311D01*
X018023Y013290D01*
X017460Y013290D01*
X017435Y013265D01*
X017410Y013290D01*
X016830Y013290D01*
X016805Y013265D01*
X016780Y013290D01*
X016217Y013290D01*
X016217Y013311D01*
X016207Y013349D01*
X016187Y013383D01*
X016159Y013411D01*
X016125Y013431D01*
X016087Y013441D01*
X015918Y013441D01*
X015918Y013123D01*
X015822Y013123D01*
X015822Y013441D01*
X015653Y013441D01*
X015615Y013431D01*
X015581Y013411D01*
X015553Y013383D01*
X015533Y013349D01*
X015523Y013311D01*
X015523Y013305D01*
X015506Y013310D01*
X015300Y013310D01*
X015300Y012954D01*
X015200Y012954D01*
X015200Y013310D01*
X014994Y013310D01*
X014956Y013300D01*
X014922Y013280D01*
X014921Y013279D01*
X014910Y013290D01*
X014330Y013290D01*
X014305Y013265D01*
X014280Y013290D01*
X013717Y013290D01*
X013717Y013311D01*
X013707Y013349D01*
X013687Y013383D01*
X013659Y013411D01*
X013625Y013431D01*
X013587Y013441D01*
X013418Y013441D01*
X013418Y013123D01*
X013322Y013123D01*
X013322Y013441D01*
X013153Y013441D01*
X013115Y013431D01*
X013081Y013411D01*
X013053Y013383D01*
X013033Y013349D01*
X013023Y013311D01*
X013023Y013290D01*
X012460Y013290D01*
X012435Y013265D01*
X012410Y013290D01*
X011830Y013290D01*
X011805Y013265D01*
X011780Y013290D01*
X011217Y013290D01*
X011217Y013311D01*
X011207Y013349D01*
X011187Y013383D01*
X011159Y013411D01*
X011125Y013431D01*
X011087Y013441D01*
X010918Y013441D01*
X010918Y013123D01*
X010822Y013123D01*
X010822Y013441D01*
X010653Y013441D01*
X010615Y013431D01*
X010581Y013411D01*
X010553Y013383D01*
X010533Y013349D01*
X010523Y013311D01*
X010523Y013305D01*
X010506Y013310D01*
X010300Y013310D01*
X010300Y012954D01*
X010200Y012954D01*
X010200Y013310D01*
X009994Y013310D01*
X009956Y013300D01*
X009922Y013280D01*
X009921Y013279D01*
X009910Y013290D01*
X009330Y013290D01*
X009305Y013265D01*
X009280Y013290D01*
X008717Y013290D01*
X008717Y013311D01*
X008707Y013349D01*
X008687Y013383D01*
X008659Y013411D01*
X008625Y013431D01*
X008587Y013441D01*
X008418Y013441D01*
X008418Y013123D01*
X008322Y013123D01*
X008322Y013441D01*
X008153Y013441D01*
X008115Y013431D01*
X008081Y013411D01*
X008053Y013383D01*
X008033Y013349D01*
X008023Y013311D01*
X008023Y013290D01*
X007460Y013290D01*
X007435Y013265D01*
X007410Y013290D01*
X006830Y013290D01*
X006805Y013265D01*
X006780Y013290D01*
X006217Y013290D01*
X006217Y013311D01*
X006207Y013349D01*
X006187Y013383D01*
X006159Y013411D01*
X006125Y013431D01*
X006087Y013441D01*
X005918Y013441D01*
X005918Y013123D01*
X005822Y013123D01*
X005822Y013441D01*
X005653Y013441D01*
X005615Y013431D01*
X005581Y013411D01*
X005553Y013383D01*
X005533Y013349D01*
X005523Y013311D01*
X005523Y013305D01*
X005506Y013310D01*
X005300Y013310D01*
X005300Y012954D01*
X005200Y012954D01*
X005200Y013310D01*
X004994Y013310D01*
X004956Y013300D01*
X004922Y013280D01*
X004921Y013279D01*
X004910Y013290D01*
X004330Y013290D01*
X004305Y013265D01*
X004280Y013290D01*
X003700Y013290D01*
X003624Y013214D01*
X003624Y012594D01*
X003668Y012550D01*
X003624Y012506D01*
X003624Y011886D01*
X003700Y011810D01*
X004280Y011810D01*
X004305Y011835D01*
X004330Y011810D01*
X004910Y011810D01*
X004935Y011835D01*
X004960Y011810D01*
X005040Y011810D01*
X005040Y011463D01*
X005115Y011388D01*
X005115Y011319D01*
X005161Y011207D01*
X005247Y011121D01*
X005359Y011075D01*
X005501Y011084D02*
X008489Y011084D01*
X008418Y010985D02*
X008322Y010985D01*
X008322Y010887D02*
X008418Y010887D01*
X008418Y010788D02*
X008322Y010788D01*
X008322Y010690D02*
X008418Y010690D01*
X008713Y010887D02*
X010527Y010887D01*
X010606Y010985D02*
X008634Y010985D01*
X008651Y011084D02*
X010289Y011084D01*
X010451Y011084D02*
X013439Y011084D01*
X013418Y010985D02*
X013322Y010985D01*
X013322Y010887D02*
X013418Y010887D01*
X013418Y010788D02*
X013322Y010788D01*
X013322Y010690D02*
X013418Y010690D01*
X013713Y010887D02*
X015527Y010887D01*
X015606Y010985D02*
X013634Y010985D01*
X013601Y011084D02*
X015289Y011084D01*
X015451Y011084D02*
X018439Y011084D01*
X018418Y010985D02*
X018322Y010985D01*
X018322Y010887D02*
X018418Y010887D01*
X018418Y010788D02*
X018322Y010788D01*
X018322Y010690D02*
X018418Y010690D01*
X018713Y010887D02*
X020527Y010887D01*
X020606Y010985D02*
X018634Y010985D01*
X018601Y011084D02*
X020289Y011084D01*
X020451Y011084D02*
X021233Y011084D01*
X021215Y010985D02*
X021134Y010985D01*
X021213Y010887D02*
X021229Y010887D01*
X020918Y010887D02*
X020822Y010887D01*
X020822Y010985D02*
X020918Y010985D01*
X020918Y010788D02*
X020822Y010788D01*
X020822Y010690D02*
X020918Y010690D01*
X020300Y010690D02*
X020200Y010690D01*
X020200Y010788D02*
X020300Y010788D01*
X020300Y010591D02*
X020200Y010591D01*
X020137Y011182D02*
X018753Y011182D01*
X018809Y011281D02*
X020081Y011281D01*
X020065Y011379D02*
X018825Y011379D01*
X018810Y011478D02*
X020040Y011478D01*
X020040Y011576D02*
X018755Y011576D01*
X018606Y011675D02*
X020040Y011675D01*
X020040Y011773D02*
X018580Y011773D01*
X018580Y011872D02*
X018639Y011872D01*
X018624Y011970D02*
X018580Y011970D01*
X018160Y011970D02*
X018116Y011970D01*
X018101Y011872D02*
X018160Y011872D01*
X018160Y011773D02*
X015460Y011773D01*
X015460Y011675D02*
X018160Y011675D01*
X018160Y011576D02*
X015605Y011576D01*
X015660Y011478D02*
X018160Y011478D01*
X018215Y011379D02*
X015675Y011379D01*
X015659Y011281D02*
X018231Y011281D01*
X018287Y011182D02*
X015603Y011182D01*
X015822Y010985D02*
X015918Y010985D01*
X015918Y010887D02*
X015822Y010887D01*
X015822Y010788D02*
X015918Y010788D01*
X015918Y010690D02*
X015822Y010690D01*
X016213Y010887D02*
X018027Y010887D01*
X018106Y010985D02*
X016134Y010985D01*
X015300Y010788D02*
X015200Y010788D01*
X015200Y010690D02*
X015300Y010690D01*
X015300Y010591D02*
X015200Y010591D01*
X015137Y011182D02*
X013753Y011182D01*
X013809Y011281D02*
X015081Y011281D01*
X015065Y011379D02*
X013825Y011379D01*
X013810Y011478D02*
X015040Y011478D01*
X015040Y011576D02*
X013755Y011576D01*
X013606Y011675D02*
X015040Y011675D01*
X015040Y011773D02*
X013580Y011773D01*
X013580Y011872D02*
X013639Y011872D01*
X013624Y011970D02*
X013580Y011970D01*
X013160Y011970D02*
X013116Y011970D01*
X013101Y011872D02*
X013160Y011872D01*
X013160Y011773D02*
X010460Y011773D01*
X010460Y011675D02*
X013160Y011675D01*
X013160Y011576D02*
X010605Y011576D01*
X010660Y011478D02*
X013160Y011478D01*
X013215Y011379D02*
X010675Y011379D01*
X010659Y011281D02*
X013231Y011281D01*
X013287Y011182D02*
X010603Y011182D01*
X010822Y010985D02*
X010918Y010985D01*
X010918Y010887D02*
X010822Y010887D01*
X010822Y010788D02*
X010918Y010788D01*
X010918Y010690D02*
X010822Y010690D01*
X011213Y010887D02*
X013027Y010887D01*
X013106Y010985D02*
X011134Y010985D01*
X010300Y010788D02*
X010200Y010788D01*
X010200Y010690D02*
X010300Y010690D01*
X010300Y010591D02*
X010200Y010591D01*
X010137Y011182D02*
X008803Y011182D01*
X008859Y011281D02*
X010081Y011281D01*
X010065Y011379D02*
X008875Y011379D01*
X008860Y011478D02*
X010040Y011478D01*
X010040Y011576D02*
X008805Y011576D01*
X008656Y011675D02*
X010040Y011675D01*
X010040Y011773D02*
X008580Y011773D01*
X008580Y011872D02*
X008639Y011872D01*
X008624Y011970D02*
X008580Y011970D01*
X008160Y011970D02*
X008116Y011970D01*
X008101Y011872D02*
X008160Y011872D01*
X008160Y011773D02*
X005460Y011773D01*
X005506Y011675D02*
X008160Y011675D01*
X008160Y011576D02*
X005655Y011576D01*
X005710Y011478D02*
X008175Y011478D01*
X008265Y011379D02*
X005725Y011379D01*
X005709Y011281D02*
X008281Y011281D01*
X008337Y011182D02*
X005653Y011182D01*
X005822Y010985D02*
X005918Y010985D01*
X005918Y010887D02*
X005822Y010887D01*
X005822Y010788D02*
X005918Y010788D01*
X005918Y010690D02*
X005822Y010690D01*
X006213Y010887D02*
X008027Y010887D01*
X008106Y010985D02*
X006134Y010985D01*
X005300Y010788D02*
X005200Y010788D01*
X005200Y010690D02*
X005300Y010690D01*
X005300Y010591D02*
X005200Y010591D01*
X005187Y011182D02*
X002574Y011182D01*
X002574Y011281D02*
X005131Y011281D01*
X005115Y011379D02*
X002574Y011379D01*
X002574Y011478D02*
X005040Y011478D01*
X005040Y011576D02*
X002574Y011576D01*
X002574Y011675D02*
X005040Y011675D01*
X005040Y011773D02*
X002574Y011773D01*
X002574Y011872D02*
X003639Y011872D01*
X003624Y011970D02*
X002574Y011970D01*
X002574Y012069D02*
X003624Y012069D01*
X003624Y012167D02*
X002574Y012167D01*
X002574Y012266D02*
X003624Y012266D01*
X003624Y012364D02*
X002574Y012364D01*
X002574Y012463D02*
X003624Y012463D01*
X003657Y012561D02*
X002574Y012561D01*
X002574Y012660D02*
X003624Y012660D01*
X003624Y012758D02*
X002574Y012758D01*
X002574Y012857D02*
X003624Y012857D01*
X003624Y012955D02*
X002574Y012955D01*
X002574Y013054D02*
X003624Y013054D01*
X003624Y013152D02*
X002574Y013152D01*
X002574Y013251D02*
X003661Y013251D01*
X003359Y013842D02*
X004993Y013842D01*
X005011Y013797D02*
X005097Y013711D01*
X005209Y013665D01*
X005331Y013665D01*
X005443Y013711D01*
X005529Y013797D01*
X005575Y013909D01*
X005575Y014031D01*
X005529Y014143D01*
X005480Y014191D01*
X005480Y014250D01*
X005540Y014250D01*
X005616Y014326D01*
X005616Y014462D01*
X005619Y014459D01*
X006104Y014459D01*
X006104Y014360D01*
X006114Y014322D01*
X006134Y014288D01*
X006162Y014260D01*
X006196Y014240D01*
X006234Y014230D01*
X006440Y014230D01*
X006440Y014586D01*
X006540Y014586D01*
X006540Y014230D01*
X006746Y014230D01*
X006784Y014240D01*
X006818Y014260D01*
X006819Y014261D01*
X006830Y014250D01*
X007410Y014250D01*
X007435Y014275D01*
X007460Y014250D01*
X008040Y014250D01*
X008116Y014326D01*
X008116Y014462D01*
X008119Y014459D01*
X008160Y014459D01*
X008160Y013833D01*
X008215Y013778D01*
X008215Y013709D01*
X008261Y013597D01*
X008347Y013511D01*
X008459Y013465D01*
X008581Y013465D01*
X008693Y013511D01*
X008779Y013597D01*
X008825Y013709D01*
X008825Y013831D01*
X008779Y013943D01*
X008693Y014029D01*
X008581Y014075D01*
X008580Y014075D01*
X008580Y014459D01*
X008621Y014459D01*
X008624Y014462D01*
X008624Y014326D01*
X008700Y014250D01*
X009280Y014250D01*
X009305Y014275D01*
X009330Y014250D01*
X009910Y014250D01*
X009935Y014275D01*
X009960Y014250D01*
X010040Y014250D01*
X010040Y013803D01*
X010065Y013778D01*
X010065Y013709D01*
X010111Y013597D01*
X010197Y013511D01*
X010309Y013465D01*
X010431Y013465D01*
X010543Y013511D01*
X010629Y013597D01*
X010675Y013709D01*
X010675Y013831D01*
X010629Y013943D01*
X010543Y014029D01*
X010460Y014063D01*
X010460Y014250D01*
X010540Y014250D01*
X010616Y014326D01*
X010616Y014462D01*
X010619Y014459D01*
X011104Y014459D01*
X011104Y014360D01*
X011114Y014322D01*
X011134Y014288D01*
X011162Y014260D01*
X011196Y014240D01*
X011234Y014230D01*
X011440Y014230D01*
X011440Y014586D01*
X011540Y014586D01*
X011540Y014230D01*
X011746Y014230D01*
X011784Y014240D01*
X011818Y014260D01*
X011819Y014261D01*
X011830Y014250D01*
X012410Y014250D01*
X012435Y014275D01*
X012460Y014250D01*
X013040Y014250D01*
X013116Y014326D01*
X013116Y014462D01*
X013119Y014459D01*
X013160Y014459D01*
X013160Y013783D01*
X013165Y013778D01*
X013165Y013709D01*
X013211Y013597D01*
X013297Y013511D01*
X013409Y013465D01*
X013531Y013465D01*
X013643Y013511D01*
X013729Y013597D01*
X013775Y013709D01*
X013775Y013831D01*
X013729Y013943D01*
X013643Y014029D01*
X013580Y014055D01*
X013580Y014459D01*
X013621Y014459D01*
X013624Y014462D01*
X013624Y014326D01*
X013700Y014250D01*
X014280Y014250D01*
X014305Y014275D01*
X014330Y014250D01*
X014910Y014250D01*
X014935Y014275D01*
X014960Y014250D01*
X015040Y014250D01*
X015040Y013803D01*
X015065Y013778D01*
X015065Y013709D01*
X015111Y013597D01*
X015197Y013511D01*
X015309Y013465D01*
X015431Y013465D01*
X015543Y013511D01*
X015629Y013597D01*
X015675Y013709D01*
X015675Y013831D01*
X015629Y013943D01*
X015543Y014029D01*
X015460Y014063D01*
X015460Y014250D01*
X015540Y014250D01*
X015616Y014326D01*
X015616Y014512D01*
X015619Y014509D01*
X016104Y014509D01*
X016104Y014360D01*
X016114Y014322D01*
X016134Y014288D01*
X016162Y014260D01*
X016196Y014240D01*
X016234Y014230D01*
X016440Y014230D01*
X016440Y014586D01*
X016540Y014586D01*
X016540Y014230D01*
X016746Y014230D01*
X016784Y014240D01*
X016818Y014260D01*
X016819Y014261D01*
X016830Y014250D01*
X017410Y014250D01*
X017435Y014275D01*
X017460Y014250D01*
X018040Y014250D01*
X018116Y014326D01*
X018116Y014462D01*
X018119Y014459D01*
X018160Y014459D01*
X018160Y013833D01*
X018215Y013778D01*
X018215Y013709D01*
X018261Y013597D01*
X018347Y013511D01*
X018459Y013465D01*
X018581Y013465D01*
X018693Y013511D01*
X018779Y013597D01*
X018825Y013709D01*
X018825Y013831D01*
X018779Y013943D01*
X018693Y014029D01*
X018581Y014075D01*
X018580Y014075D01*
X018580Y014459D01*
X018621Y014459D01*
X018624Y014462D01*
X018624Y014326D01*
X018700Y014250D01*
X019280Y014250D01*
X019305Y014275D01*
X019330Y014250D01*
X019910Y014250D01*
X019935Y014275D01*
X019960Y014250D01*
X020040Y014250D01*
X020040Y013853D01*
X020115Y013778D01*
X020115Y013709D01*
X020161Y013597D01*
X020247Y013511D01*
X020359Y013465D01*
X020481Y013465D01*
X020593Y013511D01*
X020679Y013597D01*
X020725Y013709D01*
X020725Y013831D01*
X020679Y013943D01*
X020593Y014029D01*
X020481Y014075D01*
X020460Y014075D01*
X020460Y014250D01*
X020540Y014250D01*
X020616Y014326D01*
X020616Y014462D01*
X020619Y014459D01*
X021104Y014459D01*
X021104Y014360D01*
X021114Y014322D01*
X021134Y014288D01*
X021162Y014260D01*
X021196Y014240D01*
X021234Y014230D01*
X021440Y014230D01*
X021440Y014586D01*
X021540Y014586D01*
X021540Y014230D01*
X021746Y014230D01*
X021784Y014240D01*
X021818Y014260D01*
X021819Y014261D01*
X021830Y014250D01*
X022410Y014250D01*
X022435Y014275D01*
X022460Y014250D01*
X023040Y014250D01*
X023116Y014326D01*
X023116Y014946D01*
X023072Y014990D01*
X023116Y015034D01*
X023116Y015654D01*
X023040Y015730D01*
X022460Y015730D01*
X022435Y015705D01*
X022410Y015730D01*
X021830Y015730D01*
X021805Y015705D01*
X021780Y015730D01*
X021730Y015730D01*
X021730Y016047D01*
X021575Y016202D01*
X021575Y016271D01*
X021529Y016383D01*
X021443Y016469D01*
X021331Y016515D01*
X021209Y016515D01*
X021097Y016469D01*
X021011Y016383D01*
X020965Y016271D01*
X020965Y016149D01*
X021011Y016037D01*
X021097Y015951D01*
X021209Y015905D01*
X021278Y015905D01*
X021310Y015873D01*
X021310Y015730D01*
X021217Y015730D01*
X021217Y015751D01*
X021207Y015789D01*
X021187Y015823D01*
X021159Y015851D01*
X021125Y015871D01*
X021087Y015881D01*
X020918Y015881D01*
X020918Y015563D01*
X020822Y015563D01*
X020822Y015881D01*
X020653Y015881D01*
X020615Y015871D01*
X020581Y015851D01*
X020553Y015823D01*
X020533Y015789D01*
X020523Y015751D01*
X020523Y015745D01*
X020506Y015750D01*
X020300Y015750D01*
X020300Y015394D01*
X020200Y015394D01*
X020200Y015750D01*
X019994Y015750D01*
X019956Y015740D01*
X019922Y015720D01*
X019921Y015719D01*
X019910Y015730D01*
X019330Y015730D01*
X019305Y015705D01*
X019280Y015730D01*
X018717Y015730D01*
X018717Y015751D01*
X018707Y015789D01*
X018687Y015823D01*
X018659Y015851D01*
X018625Y015871D01*
X018587Y015881D01*
X018418Y015881D01*
X018418Y015563D01*
X018322Y015563D01*
X018322Y015881D01*
X018153Y015881D01*
X018115Y015871D01*
X018081Y015851D01*
X018053Y015823D01*
X018033Y015789D01*
X018023Y015751D01*
X018023Y015730D01*
X017460Y015730D01*
X017435Y015705D01*
X017410Y015730D01*
X016830Y015730D01*
X016805Y015705D01*
X016780Y015730D01*
X016217Y015730D01*
X016217Y015801D01*
X016207Y015839D01*
X016187Y015873D01*
X016159Y015901D01*
X016125Y015921D01*
X016087Y015931D01*
X015918Y015931D01*
X015918Y015613D01*
X015822Y015613D01*
X015822Y015931D01*
X015653Y015931D01*
X015615Y015921D01*
X015581Y015901D01*
X015553Y015873D01*
X015533Y015839D01*
X015523Y015801D01*
X015523Y015745D01*
X015506Y015750D01*
X015300Y015750D01*
X015300Y015394D01*
X015200Y015394D01*
X015200Y015750D01*
X014994Y015750D01*
X014956Y015740D01*
X014922Y015720D01*
X014921Y015719D01*
X014910Y015730D01*
X014330Y015730D01*
X014305Y015705D01*
X014280Y015730D01*
X013717Y015730D01*
X013717Y015751D01*
X013707Y015789D01*
X013687Y015823D01*
X013659Y015851D01*
X013625Y015871D01*
X013587Y015881D01*
X013418Y015881D01*
X013418Y015563D01*
X013322Y015563D01*
X013322Y015881D01*
X013153Y015881D01*
X013115Y015871D01*
X013081Y015851D01*
X013053Y015823D01*
X013033Y015789D01*
X013023Y015751D01*
X013023Y015730D01*
X012460Y015730D01*
X012435Y015705D01*
X012410Y015730D01*
X011830Y015730D01*
X011805Y015705D01*
X011780Y015730D01*
X011217Y015730D01*
X011217Y015751D01*
X011207Y015789D01*
X011187Y015823D01*
X011159Y015851D01*
X011125Y015871D01*
X011087Y015881D01*
X010918Y015881D01*
X010918Y015563D01*
X010822Y015563D01*
X010822Y015881D01*
X010653Y015881D01*
X010615Y015871D01*
X010581Y015851D01*
X010553Y015823D01*
X010533Y015789D01*
X010523Y015751D01*
X010523Y015745D01*
X010506Y015750D01*
X010300Y015750D01*
X010300Y015394D01*
X010200Y015394D01*
X010200Y015750D01*
X009994Y015750D01*
X009956Y015740D01*
X009922Y015720D01*
X009921Y015719D01*
X009910Y015730D01*
X009330Y015730D01*
X009305Y015705D01*
X009280Y015730D01*
X008717Y015730D01*
X008717Y015751D01*
X008707Y015789D01*
X008687Y015823D01*
X008659Y015851D01*
X008625Y015871D01*
X008587Y015881D01*
X008418Y015881D01*
X008418Y015563D01*
X008322Y015563D01*
X008322Y015881D01*
X008153Y015881D01*
X008115Y015871D01*
X008081Y015851D01*
X008053Y015823D01*
X008033Y015789D01*
X008023Y015751D01*
X008023Y015730D01*
X007460Y015730D01*
X007435Y015705D01*
X007410Y015730D01*
X006830Y015730D01*
X006805Y015705D01*
X006780Y015730D01*
X006217Y015730D01*
X006217Y015751D01*
X006207Y015789D01*
X006187Y015823D01*
X006159Y015851D01*
X006125Y015871D01*
X006087Y015881D01*
X005918Y015881D01*
X005918Y015563D01*
X005822Y015563D01*
X005822Y015881D01*
X005653Y015881D01*
X005615Y015871D01*
X005581Y015851D01*
X005553Y015823D01*
X005533Y015789D01*
X005523Y015751D01*
X005523Y015745D01*
X005506Y015750D01*
X005300Y015750D01*
X005300Y015394D01*
X005200Y015394D01*
X005200Y015750D01*
X004994Y015750D01*
X004956Y015740D01*
X004922Y015720D01*
X004921Y015719D01*
X004910Y015730D01*
X004330Y015730D01*
X004305Y015705D01*
X004280Y015730D01*
X003700Y015730D01*
X003624Y015654D01*
X003624Y015034D01*
X003668Y014990D01*
X003624Y014946D01*
X003624Y014326D01*
X003700Y014250D01*
X004280Y014250D01*
X004305Y014275D01*
X004330Y014250D01*
X004910Y014250D01*
X004935Y014275D01*
X004960Y014250D01*
X005060Y014250D01*
X005060Y014191D01*
X005011Y014143D01*
X004965Y014031D01*
X004965Y013909D01*
X005011Y013797D01*
X005066Y013743D02*
X002574Y013743D01*
X002574Y013645D02*
X008242Y013645D01*
X008215Y013743D02*
X005474Y013743D01*
X005547Y013842D02*
X008160Y013842D01*
X008160Y013940D02*
X005575Y013940D01*
X005572Y014039D02*
X008160Y014039D01*
X008160Y014137D02*
X005531Y014137D01*
X005480Y014236D02*
X006214Y014236D01*
X006111Y014334D02*
X005616Y014334D01*
X005616Y014433D02*
X006104Y014433D01*
X006440Y014433D02*
X006540Y014433D01*
X006540Y014531D02*
X006440Y014531D01*
X006440Y014334D02*
X006540Y014334D01*
X006540Y014236D02*
X006440Y014236D01*
X006766Y014236D02*
X008160Y014236D01*
X008160Y014334D02*
X008116Y014334D01*
X008116Y014433D02*
X008160Y014433D01*
X008580Y014433D02*
X008624Y014433D01*
X008624Y014334D02*
X008580Y014334D01*
X008580Y014236D02*
X010040Y014236D01*
X010040Y014137D02*
X008580Y014137D01*
X008669Y014039D02*
X010040Y014039D01*
X010040Y013940D02*
X008780Y013940D01*
X008820Y013842D02*
X010040Y013842D01*
X010065Y013743D02*
X008825Y013743D01*
X008798Y013645D02*
X010092Y013645D01*
X010163Y013546D02*
X008727Y013546D01*
X008706Y013349D02*
X010534Y013349D01*
X010577Y013546D02*
X013263Y013546D01*
X013192Y013645D02*
X010648Y013645D01*
X010675Y013743D02*
X013165Y013743D01*
X013160Y013842D02*
X010670Y013842D01*
X010630Y013940D02*
X013160Y013940D01*
X013160Y014039D02*
X010519Y014039D01*
X010460Y014137D02*
X013160Y014137D01*
X013160Y014236D02*
X011766Y014236D01*
X011540Y014236D02*
X011440Y014236D01*
X011440Y014334D02*
X011540Y014334D01*
X011540Y014433D02*
X011440Y014433D01*
X011440Y014531D02*
X011540Y014531D01*
X011214Y014236D02*
X010460Y014236D01*
X010616Y014334D02*
X011111Y014334D01*
X011104Y014433D02*
X010616Y014433D01*
X010300Y015418D02*
X010200Y015418D01*
X010200Y015516D02*
X010300Y015516D01*
X010300Y015615D02*
X010200Y015615D01*
X010200Y015713D02*
X010300Y015713D01*
X010247Y015910D02*
X008493Y015910D01*
X008418Y015812D02*
X008322Y015812D01*
X008322Y015713D02*
X008418Y015713D01*
X008418Y015615D02*
X008322Y015615D01*
X008047Y015812D02*
X006193Y015812D01*
X005918Y015812D02*
X005822Y015812D01*
X005822Y015713D02*
X005918Y015713D01*
X005918Y015615D02*
X005822Y015615D01*
X005547Y015812D02*
X003680Y015812D01*
X003680Y015910D02*
X005297Y015910D01*
X005443Y015910D02*
X008347Y015910D01*
X008190Y016009D02*
X005600Y016009D01*
X005657Y016107D02*
X008133Y016107D01*
X008115Y016206D02*
X005675Y016206D01*
X005661Y016304D02*
X008129Y016304D01*
X008160Y016403D02*
X005609Y016403D01*
X005464Y016501D02*
X008160Y016501D01*
X008160Y016600D02*
X005460Y016600D01*
X005548Y016698D02*
X006166Y016698D01*
X006105Y016797D02*
X005616Y016797D01*
X005616Y016895D02*
X006104Y016895D01*
X006440Y016895D02*
X006540Y016895D01*
X006540Y016797D02*
X006440Y016797D01*
X006440Y016698D02*
X006540Y016698D01*
X006815Y016698D02*
X006822Y016698D01*
X006540Y016994D02*
X006440Y016994D01*
X007418Y016698D02*
X007452Y016698D01*
X008048Y016698D02*
X008160Y016698D01*
X008160Y016797D02*
X008116Y016797D01*
X008116Y016895D02*
X008160Y016895D01*
X008580Y016895D02*
X008624Y016895D01*
X008624Y016797D02*
X008580Y016797D01*
X008580Y016698D02*
X008692Y016698D01*
X008580Y016600D02*
X010060Y016600D01*
X010060Y016501D02*
X008580Y016501D01*
X008659Y016403D02*
X010060Y016403D01*
X010029Y016304D02*
X008711Y016304D01*
X008725Y016206D02*
X010015Y016206D01*
X010033Y016107D02*
X008707Y016107D01*
X008650Y016009D02*
X010090Y016009D01*
X010393Y015910D02*
X013397Y015910D01*
X013418Y015812D02*
X013322Y015812D01*
X013322Y015713D02*
X013418Y015713D01*
X013418Y015615D02*
X013322Y015615D01*
X013047Y015812D02*
X011193Y015812D01*
X010918Y015812D02*
X010822Y015812D01*
X010822Y015713D02*
X010918Y015713D01*
X010918Y015615D02*
X010822Y015615D01*
X010547Y015812D02*
X008693Y015812D01*
X009297Y015713D02*
X009313Y015713D01*
X009288Y016698D02*
X009322Y016698D01*
X009918Y016698D02*
X009952Y016698D01*
X010480Y016600D02*
X013160Y016600D01*
X013160Y016698D02*
X013048Y016698D01*
X013116Y016797D02*
X013160Y016797D01*
X013160Y016895D02*
X013116Y016895D01*
X013580Y016895D02*
X013624Y016895D01*
X013624Y016797D02*
X013580Y016797D01*
X013580Y016698D02*
X013692Y016698D01*
X013580Y016600D02*
X015060Y016600D01*
X015060Y016501D02*
X013580Y016501D01*
X013709Y016403D02*
X015060Y016403D01*
X015060Y016304D02*
X013761Y016304D01*
X013775Y016206D02*
X015065Y016206D01*
X015083Y016107D02*
X013757Y016107D01*
X013700Y016009D02*
X015140Y016009D01*
X015297Y015910D02*
X013543Y015910D01*
X013693Y015812D02*
X015526Y015812D01*
X015597Y015910D02*
X015443Y015910D01*
X015600Y016009D02*
X018290Y016009D01*
X018233Y016107D02*
X015657Y016107D01*
X015675Y016206D02*
X018215Y016206D01*
X018160Y016304D02*
X015661Y016304D01*
X015609Y016403D02*
X018160Y016403D01*
X018160Y016501D02*
X015480Y016501D01*
X015480Y016600D02*
X018160Y016600D01*
X018160Y016698D02*
X018048Y016698D01*
X018116Y016797D02*
X018160Y016797D01*
X018160Y016895D02*
X018116Y016895D01*
X018580Y016895D02*
X018624Y016895D01*
X018624Y016797D02*
X018580Y016797D01*
X018580Y016698D02*
X018692Y016698D01*
X018580Y016600D02*
X020040Y016600D01*
X020040Y016501D02*
X018614Y016501D01*
X018759Y016403D02*
X020040Y016403D01*
X020040Y016304D02*
X018811Y016304D01*
X018825Y016206D02*
X020065Y016206D01*
X020083Y016107D02*
X018807Y016107D01*
X018750Y016009D02*
X020140Y016009D01*
X020297Y015910D02*
X018593Y015910D01*
X018693Y015812D02*
X020547Y015812D01*
X020443Y015910D02*
X021197Y015910D01*
X021193Y015812D02*
X021310Y015812D01*
X021040Y016009D02*
X020600Y016009D01*
X020657Y016107D02*
X020983Y016107D01*
X020965Y016206D02*
X020675Y016206D01*
X020661Y016304D02*
X020979Y016304D01*
X021031Y016403D02*
X020609Y016403D01*
X020464Y016501D02*
X021176Y016501D01*
X021364Y016501D02*
X025926Y016501D01*
X025926Y016403D02*
X021509Y016403D01*
X021561Y016304D02*
X025926Y016304D01*
X025926Y016206D02*
X021575Y016206D01*
X021670Y016107D02*
X025926Y016107D01*
X025926Y016009D02*
X021730Y016009D01*
X021730Y015910D02*
X025926Y015910D01*
X025926Y015812D02*
X021730Y015812D01*
X021797Y015713D02*
X021813Y015713D01*
X022427Y015713D02*
X022443Y015713D01*
X023057Y015713D02*
X025926Y015713D01*
X025926Y015615D02*
X023116Y015615D01*
X023116Y015516D02*
X025926Y015516D01*
X025926Y015418D02*
X023116Y015418D01*
X023116Y015319D02*
X025926Y015319D01*
X025926Y015221D02*
X023116Y015221D01*
X023116Y015122D02*
X025926Y015122D01*
X025926Y015024D02*
X023106Y015024D01*
X023116Y014925D02*
X025926Y014925D01*
X025926Y014827D02*
X023116Y014827D01*
X023116Y014728D02*
X025926Y014728D01*
X025926Y014630D02*
X023116Y014630D01*
X023116Y014531D02*
X025926Y014531D01*
X025926Y014433D02*
X023116Y014433D01*
X023116Y014334D02*
X025926Y014334D01*
X025926Y014236D02*
X021766Y014236D01*
X021540Y014236D02*
X021440Y014236D01*
X021440Y014334D02*
X021540Y014334D01*
X021540Y014433D02*
X021440Y014433D01*
X021440Y014531D02*
X021540Y014531D01*
X021214Y014236D02*
X020460Y014236D01*
X020460Y014137D02*
X025926Y014137D01*
X025926Y014039D02*
X020569Y014039D01*
X020680Y013940D02*
X025926Y013940D01*
X025926Y013842D02*
X021661Y013842D01*
X021778Y013743D02*
X025926Y013743D01*
X025926Y013645D02*
X021819Y013645D01*
X021825Y013546D02*
X025926Y013546D01*
X025926Y013448D02*
X021799Y013448D01*
X021730Y013349D02*
X025926Y013349D01*
X025926Y013251D02*
X023079Y013251D01*
X023116Y013152D02*
X025926Y013152D01*
X025926Y013054D02*
X023116Y013054D01*
X023116Y012955D02*
X025926Y012955D01*
X025926Y012857D02*
X023116Y012857D01*
X023116Y012758D02*
X025926Y012758D01*
X025926Y012660D02*
X023116Y012660D01*
X023083Y012561D02*
X025926Y012561D01*
X025926Y012463D02*
X023116Y012463D01*
X023116Y012364D02*
X025926Y012364D01*
X025926Y012266D02*
X023116Y012266D01*
X023116Y012167D02*
X025926Y012167D01*
X025926Y012069D02*
X023116Y012069D01*
X023116Y011970D02*
X025926Y011970D01*
X025926Y011872D02*
X023101Y011872D01*
X023102Y010788D02*
X025926Y010788D01*
X025926Y010690D02*
X023116Y010690D01*
X023116Y010591D02*
X025926Y010591D01*
X025926Y010493D02*
X023116Y010493D01*
X023116Y010394D02*
X025926Y010394D01*
X025926Y010296D02*
X023116Y010296D01*
X023116Y010197D02*
X025926Y010197D01*
X025926Y010099D02*
X023084Y010099D01*
X023116Y010000D02*
X025926Y010000D01*
X025926Y009902D02*
X023116Y009902D01*
X023116Y009803D02*
X025926Y009803D01*
X025926Y009705D02*
X023116Y009705D01*
X023116Y009606D02*
X025926Y009606D01*
X025926Y009508D02*
X023116Y009508D01*
X023079Y009409D02*
X025926Y009409D01*
X025926Y009311D02*
X020460Y009311D01*
X020460Y009212D02*
X025926Y009212D01*
X025926Y009114D02*
X020578Y009114D01*
X020648Y009015D02*
X025926Y009015D01*
X025926Y008917D02*
X020675Y008917D01*
X020670Y008818D02*
X021317Y008818D01*
X021244Y008720D02*
X020630Y008720D01*
X020518Y008621D02*
X021215Y008621D01*
X021218Y008523D02*
X021167Y008523D01*
X021217Y008424D02*
X021259Y008424D01*
X020918Y008424D02*
X020822Y008424D01*
X020822Y008326D02*
X020918Y008326D01*
X020918Y008523D02*
X020822Y008523D01*
X020573Y008523D02*
X018667Y008523D01*
X018668Y008621D02*
X020222Y008621D01*
X020110Y008720D02*
X018780Y008720D01*
X018820Y008818D02*
X020070Y008818D01*
X020040Y008917D02*
X018825Y008917D01*
X018798Y009015D02*
X020039Y009015D01*
X020040Y009114D02*
X018728Y009114D01*
X018580Y009212D02*
X020040Y009212D01*
X020040Y009311D02*
X018580Y009311D01*
X018580Y009409D02*
X018661Y009409D01*
X018624Y009508D02*
X018580Y009508D01*
X018160Y009508D02*
X018116Y009508D01*
X018079Y009409D02*
X018160Y009409D01*
X018717Y008424D02*
X019973Y008424D01*
X020200Y008424D02*
X020300Y008424D01*
X020300Y008326D02*
X020200Y008326D01*
X020200Y008227D02*
X020300Y008227D01*
X020300Y008129D02*
X020200Y008129D01*
X021440Y007242D02*
X021540Y007242D01*
X021540Y007144D02*
X021440Y007144D01*
X021440Y007045D02*
X021540Y007045D01*
X021540Y006947D02*
X021440Y006947D01*
X021785Y006257D02*
X025926Y006257D01*
X025926Y006159D02*
X021825Y006159D01*
X021825Y006060D02*
X025926Y006060D01*
X025926Y005962D02*
X023048Y005962D01*
X023116Y005863D02*
X025926Y005863D01*
X025926Y005765D02*
X023116Y005765D01*
X023116Y005666D02*
X025926Y005666D01*
X025926Y005568D02*
X023116Y005568D01*
X023116Y005469D02*
X025926Y005469D01*
X025926Y005371D02*
X023116Y005371D01*
X023114Y005272D02*
X025926Y005272D01*
X025926Y005174D02*
X023116Y005174D01*
X023116Y005075D02*
X025926Y005075D01*
X025926Y004977D02*
X023116Y004977D01*
X023116Y004878D02*
X025926Y004878D01*
X025926Y004780D02*
X023116Y004780D01*
X023116Y004681D02*
X025926Y004681D01*
X025926Y004583D02*
X023116Y004583D01*
X023071Y003499D02*
X025926Y003499D01*
X025926Y003401D02*
X023116Y003401D01*
X023116Y003302D02*
X025926Y003302D01*
X025926Y003204D02*
X023116Y003204D01*
X023116Y003105D02*
X025926Y003105D01*
X025926Y003007D02*
X023116Y003007D01*
X023116Y002908D02*
X025926Y002908D01*
X025926Y002810D02*
X023092Y002810D01*
X023116Y002711D02*
X024275Y002711D01*
X024029Y002613D02*
X023116Y002613D01*
X023116Y002514D02*
X023911Y002514D01*
X023794Y002416D02*
X023116Y002416D01*
X023116Y002317D02*
X023693Y002317D01*
X023637Y002219D02*
X023116Y002219D01*
X023110Y002120D02*
X023580Y002120D01*
X023523Y002022D02*
X018580Y002022D01*
X018580Y002120D02*
X018630Y002120D01*
X018580Y001923D02*
X023482Y001923D01*
X023464Y001825D02*
X018747Y001825D01*
X018836Y001726D02*
X018929Y001726D01*
X018780Y001332D02*
X018763Y001332D01*
X018780Y001234D02*
X017980Y001234D01*
X017980Y001332D02*
X018377Y001332D01*
X018298Y001431D02*
X017980Y001431D01*
X017980Y001457D02*
X017880Y001557D01*
X017757Y001680D01*
X013983Y001680D01*
X013903Y001600D01*
X013780Y001477D01*
X013780Y001090D01*
X013700Y001090D01*
X013624Y001014D01*
X013624Y000394D01*
X013700Y000318D01*
X014280Y000318D01*
X014305Y000343D01*
X014330Y000318D01*
X014910Y000318D01*
X014921Y000329D01*
X014922Y000328D01*
X014956Y000308D01*
X014994Y000298D01*
X015200Y000298D01*
X015200Y000654D01*
X015300Y000654D01*
X015300Y000298D01*
X015506Y000298D01*
X015544Y000308D01*
X015578Y000328D01*
X015606Y000356D01*
X015626Y000390D01*
X015633Y000416D01*
X015697Y000351D01*
X015809Y000305D01*
X015931Y000305D01*
X016043Y000351D01*
X016124Y000433D01*
X016124Y000394D01*
X016200Y000318D01*
X016780Y000318D01*
X016805Y000343D01*
X016830Y000318D01*
X017410Y000318D01*
X017435Y000343D01*
X017460Y000318D01*
X018040Y000318D01*
X018116Y000394D01*
X018116Y001014D01*
X018040Y001090D01*
X017980Y001090D01*
X017980Y001457D01*
X017908Y001529D02*
X018265Y001529D01*
X018216Y001628D02*
X017809Y001628D01*
X018160Y001726D02*
X013736Y001726D01*
X013775Y001628D02*
X013931Y001628D01*
X013832Y001529D02*
X013775Y001529D01*
X013780Y001431D02*
X013742Y001431D01*
X013780Y001332D02*
X013663Y001332D01*
X013780Y001234D02*
X012930Y001234D01*
X012930Y001332D02*
X013277Y001332D01*
X013198Y001431D02*
X012906Y001431D01*
X012930Y001407D02*
X012830Y001507D01*
X012707Y001630D01*
X009083Y001630D01*
X008903Y001450D01*
X008780Y001327D01*
X008780Y001090D01*
X008700Y001090D01*
X008624Y001014D01*
X008624Y000394D01*
X008700Y000318D01*
X009280Y000318D01*
X009305Y000343D01*
X009330Y000318D01*
X009910Y000318D01*
X009921Y000329D01*
X009922Y000328D01*
X009956Y000308D01*
X009994Y000298D01*
X010200Y000298D01*
X010200Y000654D01*
X010300Y000654D01*
X010300Y000298D01*
X010506Y000298D01*
X010544Y000308D01*
X010578Y000328D01*
X010606Y000356D01*
X010626Y000390D01*
X010633Y000416D01*
X010697Y000351D01*
X010809Y000305D01*
X010931Y000305D01*
X011043Y000351D01*
X011124Y000433D01*
X011124Y000394D01*
X011200Y000318D01*
X011780Y000318D01*
X011805Y000343D01*
X011830Y000318D01*
X012410Y000318D01*
X012435Y000343D01*
X012460Y000318D01*
X013040Y000318D01*
X013116Y000394D01*
X013116Y001014D01*
X013040Y001090D01*
X012930Y001090D01*
X012930Y001407D01*
X012808Y001529D02*
X013165Y001529D01*
X013160Y001628D02*
X012709Y001628D01*
X013160Y001726D02*
X010981Y001726D01*
X011116Y001825D02*
X013160Y001825D01*
X013160Y001923D02*
X011164Y001923D01*
X011175Y002022D02*
X013160Y002022D01*
X013160Y002120D02*
X013110Y002120D01*
X013580Y002120D02*
X013630Y002120D01*
X013580Y002022D02*
X015565Y002022D01*
X015597Y001923D02*
X013580Y001923D01*
X013647Y001825D02*
X015674Y001825D01*
X016066Y001825D02*
X018160Y001825D01*
X018160Y001923D02*
X016143Y001923D01*
X016175Y002022D02*
X018160Y002022D01*
X018160Y002120D02*
X018110Y002120D01*
X017980Y001135D02*
X018780Y001135D01*
X018647Y001037D02*
X018093Y001037D01*
X018116Y000938D02*
X018624Y000938D01*
X018624Y000840D02*
X018116Y000840D01*
X018116Y000741D02*
X018624Y000741D01*
X018624Y000643D02*
X018116Y000643D01*
X018116Y000544D02*
X018624Y000544D01*
X018624Y000446D02*
X018116Y000446D01*
X018069Y000347D02*
X018671Y000347D01*
X020200Y000347D02*
X020300Y000347D01*
X020300Y000446D02*
X020200Y000446D01*
X020200Y000544D02*
X020300Y000544D01*
X020300Y000643D02*
X020200Y000643D01*
X020597Y000347D02*
X020708Y000347D01*
X021032Y000347D02*
X021171Y000347D01*
X022960Y001135D02*
X023481Y001135D01*
X023464Y001234D02*
X022960Y001234D01*
X022960Y001332D02*
X023447Y001332D01*
X023429Y001431D02*
X022960Y001431D01*
X022960Y001529D02*
X023412Y001529D01*
X023430Y001628D02*
X022909Y001628D01*
X022811Y001726D02*
X023447Y001726D01*
X023522Y001037D02*
X023093Y001037D01*
X023116Y000938D02*
X023578Y000938D01*
X023635Y000840D02*
X023116Y000840D01*
X023116Y000741D02*
X023692Y000741D01*
X023791Y000643D02*
X023116Y000643D01*
X023116Y000544D02*
X023909Y000544D01*
X024026Y000446D02*
X023116Y000446D01*
X023069Y000347D02*
X024269Y000347D01*
X025918Y001726D02*
X025926Y001726D01*
X025926Y001825D02*
X025901Y001825D01*
X025883Y001923D02*
X025926Y001923D01*
X025926Y002022D02*
X025842Y002022D01*
X025786Y002120D02*
X025926Y002120D01*
X025926Y002219D02*
X025729Y002219D01*
X025672Y002317D02*
X025926Y002317D01*
X025926Y002416D02*
X025571Y002416D01*
X025454Y002514D02*
X025926Y002514D01*
X025926Y002613D02*
X025337Y002613D01*
X025090Y002711D02*
X025926Y002711D01*
X025926Y003598D02*
X021730Y003598D01*
X021737Y003696D02*
X025926Y003696D01*
X025926Y003795D02*
X021802Y003795D01*
X021825Y003893D02*
X025926Y003893D01*
X025926Y003992D02*
X021816Y003992D01*
X021771Y004090D02*
X025926Y004090D01*
X025926Y006947D02*
X023056Y006947D01*
X023116Y007045D02*
X025926Y007045D01*
X025926Y007144D02*
X023116Y007144D01*
X023116Y007242D02*
X025926Y007242D01*
X025926Y007341D02*
X023116Y007341D01*
X023116Y007439D02*
X025926Y007439D01*
X025926Y007538D02*
X023116Y007538D01*
X023106Y007636D02*
X025926Y007636D01*
X025926Y007735D02*
X023116Y007735D01*
X023116Y007833D02*
X025926Y007833D01*
X025926Y007932D02*
X023116Y007932D01*
X023116Y008030D02*
X025926Y008030D01*
X025926Y008129D02*
X023116Y008129D01*
X023116Y008227D02*
X025926Y008227D01*
X025926Y008326D02*
X023116Y008326D01*
X021822Y008523D02*
X025926Y008523D01*
X025926Y008621D02*
X021825Y008621D01*
X021796Y008720D02*
X025926Y008720D01*
X025926Y008818D02*
X021723Y008818D01*
X021781Y008424D02*
X025926Y008424D01*
X025926Y010887D02*
X021811Y010887D01*
X021825Y010985D02*
X025926Y010985D01*
X025926Y011084D02*
X021807Y011084D01*
X021749Y011182D02*
X025926Y011182D01*
X025926Y011281D02*
X021591Y011281D01*
X021449Y011281D02*
X020659Y011281D01*
X020675Y011379D02*
X025926Y011379D01*
X025926Y011478D02*
X020660Y011478D01*
X020605Y011576D02*
X025926Y011576D01*
X025926Y011675D02*
X020460Y011675D01*
X020460Y011773D02*
X025926Y011773D01*
X021540Y011872D02*
X021440Y011872D01*
X021440Y011970D02*
X021540Y011970D01*
X021540Y012069D02*
X021440Y012069D01*
X021104Y011970D02*
X020616Y011970D01*
X020601Y011872D02*
X021120Y011872D01*
X021291Y011182D02*
X020603Y011182D01*
X021440Y009705D02*
X021540Y009705D01*
X021540Y009606D02*
X021440Y009606D01*
X021440Y009508D02*
X021540Y009508D01*
X021540Y009409D02*
X021440Y009409D01*
X021133Y009409D02*
X020579Y009409D01*
X020616Y009508D02*
X021104Y009508D01*
X019944Y006947D02*
X019926Y006947D01*
X019314Y006947D02*
X019296Y006947D01*
X018684Y006947D02*
X018580Y006947D01*
X018580Y007045D02*
X018624Y007045D01*
X018160Y007045D02*
X018116Y007045D01*
X018160Y006947D02*
X018056Y006947D01*
X018160Y006848D02*
X015460Y006848D01*
X015460Y006750D02*
X018160Y006750D01*
X018160Y006651D02*
X015600Y006651D01*
X015658Y006553D02*
X018160Y006553D01*
X018165Y006454D02*
X015675Y006454D01*
X015661Y006356D02*
X018179Y006356D01*
X018232Y006257D02*
X015608Y006257D01*
X015822Y006060D02*
X015918Y006060D01*
X015918Y005962D02*
X015822Y005962D01*
X015822Y005863D02*
X015918Y005863D01*
X016189Y006060D02*
X018051Y006060D01*
X018322Y005863D02*
X018418Y005863D01*
X017452Y005962D02*
X017418Y005962D01*
X016822Y005962D02*
X016788Y005962D01*
X016540Y006947D02*
X016440Y006947D01*
X016440Y007045D02*
X016540Y007045D01*
X016540Y007144D02*
X016440Y007144D01*
X016440Y007242D02*
X016540Y007242D01*
X016104Y007045D02*
X015616Y007045D01*
X015556Y006947D02*
X016155Y006947D01*
X014944Y006947D02*
X014926Y006947D01*
X014314Y006947D02*
X014296Y006947D01*
X014288Y005962D02*
X014322Y005962D01*
X014918Y005962D02*
X014925Y005962D01*
X015200Y005962D02*
X015300Y005962D01*
X015300Y005863D02*
X015200Y005863D01*
X015200Y005765D02*
X015300Y005765D01*
X015300Y005666D02*
X015200Y005666D01*
X013624Y004681D02*
X013580Y004681D01*
X013580Y004583D02*
X013624Y004583D01*
X013160Y004583D02*
X013116Y004583D01*
X013116Y004681D02*
X013160Y004681D01*
X012452Y005962D02*
X012418Y005962D01*
X011822Y005962D02*
X011788Y005962D01*
X011540Y006947D02*
X011440Y006947D01*
X011440Y007045D02*
X011540Y007045D01*
X011540Y007144D02*
X011440Y007144D01*
X011440Y007242D02*
X011540Y007242D01*
X011104Y007045D02*
X010616Y007045D01*
X010556Y006947D02*
X011155Y006947D01*
X009944Y006947D02*
X009926Y006947D01*
X009314Y006947D02*
X009296Y006947D01*
X009288Y005962D02*
X009322Y005962D01*
X009918Y005962D02*
X009925Y005962D01*
X010200Y005962D02*
X010300Y005962D01*
X010300Y005863D02*
X010200Y005863D01*
X010200Y005765D02*
X010300Y005765D01*
X010300Y005666D02*
X010200Y005666D01*
X008624Y004681D02*
X008580Y004681D01*
X008580Y004583D02*
X008624Y004583D01*
X008160Y004583D02*
X008116Y004583D01*
X008116Y004681D02*
X008160Y004681D01*
X008160Y004484D02*
X006790Y004484D01*
X006540Y004484D02*
X006440Y004484D01*
X006440Y004583D02*
X006540Y004583D01*
X006540Y004681D02*
X006440Y004681D01*
X006440Y004780D02*
X006540Y004780D01*
X006104Y004681D02*
X005616Y004681D01*
X005616Y004583D02*
X006109Y004583D01*
X006190Y004484D02*
X005430Y004484D01*
X005476Y004386D02*
X008160Y004386D01*
X008160Y004287D02*
X005518Y004287D01*
X005525Y004189D02*
X008160Y004189D01*
X008160Y004090D02*
X005500Y004090D01*
X005433Y003992D02*
X008215Y003992D01*
X006540Y002317D02*
X006440Y002317D01*
X006440Y002219D02*
X006540Y002219D01*
X006540Y002120D02*
X006440Y002120D01*
X007809Y001628D02*
X008216Y001628D01*
X008265Y001529D02*
X007908Y001529D01*
X007980Y001431D02*
X008298Y001431D01*
X008377Y001332D02*
X007980Y001332D01*
X007980Y001234D02*
X008780Y001234D01*
X008785Y001332D02*
X008763Y001332D01*
X008842Y001431D02*
X008884Y001431D01*
X008875Y001529D02*
X008982Y001529D01*
X009081Y001628D02*
X008875Y001628D01*
X008836Y001726D02*
X010759Y001726D01*
X010624Y001825D02*
X008747Y001825D01*
X008580Y001923D02*
X010576Y001923D01*
X010565Y002022D02*
X008580Y002022D01*
X008580Y002120D02*
X008630Y002120D01*
X008780Y001135D02*
X007980Y001135D01*
X008093Y001037D02*
X008647Y001037D01*
X008624Y000938D02*
X008116Y000938D01*
X008116Y000840D02*
X008624Y000840D01*
X008624Y000741D02*
X008116Y000741D01*
X008116Y000643D02*
X008624Y000643D01*
X008624Y000544D02*
X008116Y000544D01*
X008116Y000446D02*
X008624Y000446D01*
X008671Y000347D02*
X008069Y000347D01*
X006171Y000347D02*
X006032Y000347D01*
X005708Y000347D02*
X005597Y000347D01*
X005300Y000347D02*
X005200Y000347D01*
X005200Y000446D02*
X005300Y000446D01*
X005300Y000544D02*
X005200Y000544D01*
X005200Y000643D02*
X005300Y000643D01*
X005300Y003204D02*
X005200Y003204D01*
X005200Y003302D02*
X005300Y003302D01*
X005300Y003401D02*
X005200Y003401D01*
X005200Y003499D02*
X005300Y003499D01*
X005300Y005666D02*
X005200Y005666D01*
X005200Y005765D02*
X005300Y005765D01*
X005300Y005863D02*
X005200Y005863D01*
X005200Y005962D02*
X005300Y005962D01*
X004925Y005962D02*
X004918Y005962D01*
X004322Y005962D02*
X004288Y005962D01*
X004296Y006947D02*
X004314Y006947D01*
X004926Y006947D02*
X004944Y006947D01*
X006440Y006947D02*
X006540Y006947D01*
X006540Y007045D02*
X006440Y007045D01*
X006440Y007144D02*
X006540Y007144D01*
X006540Y007242D02*
X006440Y007242D01*
X007426Y006947D02*
X007444Y006947D01*
X007418Y005962D02*
X007452Y005962D01*
X006822Y005962D02*
X006788Y005962D01*
X006540Y009409D02*
X006440Y009409D01*
X006440Y009508D02*
X006540Y009508D01*
X006540Y009606D02*
X006440Y009606D01*
X006440Y009705D02*
X006540Y009705D01*
X006104Y009508D02*
X005616Y009508D01*
X005579Y009409D02*
X006133Y009409D01*
X006120Y011872D02*
X005601Y011872D01*
X005616Y011970D02*
X006104Y011970D01*
X006440Y011970D02*
X006540Y011970D01*
X006540Y011872D02*
X006440Y011872D01*
X006440Y012069D02*
X006540Y012069D01*
X005918Y013152D02*
X005822Y013152D01*
X005822Y013251D02*
X005918Y013251D01*
X005918Y013349D02*
X005822Y013349D01*
X005534Y013349D02*
X002574Y013349D01*
X002574Y013448D02*
X021241Y013448D01*
X021215Y013546D02*
X020627Y013546D01*
X020698Y013645D02*
X021221Y013645D01*
X021262Y013743D02*
X020725Y013743D01*
X020720Y013842D02*
X021379Y013842D01*
X021310Y013349D02*
X021206Y013349D01*
X020918Y013349D02*
X020822Y013349D01*
X020822Y013251D02*
X020918Y013251D01*
X020918Y013152D02*
X020822Y013152D01*
X020534Y013349D02*
X018706Y013349D01*
X018727Y013546D02*
X020213Y013546D01*
X020142Y013645D02*
X018798Y013645D01*
X018825Y013743D02*
X020115Y013743D01*
X020051Y013842D02*
X018820Y013842D01*
X018780Y013940D02*
X020040Y013940D01*
X020040Y014039D02*
X018669Y014039D01*
X018580Y014137D02*
X020040Y014137D01*
X020040Y014236D02*
X018580Y014236D01*
X018580Y014334D02*
X018624Y014334D01*
X018624Y014433D02*
X018580Y014433D01*
X018160Y014433D02*
X018116Y014433D01*
X018116Y014334D02*
X018160Y014334D01*
X018160Y014236D02*
X016766Y014236D01*
X016540Y014236D02*
X016440Y014236D01*
X016440Y014334D02*
X016540Y014334D01*
X016540Y014433D02*
X016440Y014433D01*
X016440Y014531D02*
X016540Y014531D01*
X016214Y014236D02*
X015460Y014236D01*
X015460Y014137D02*
X018160Y014137D01*
X018160Y014039D02*
X015519Y014039D01*
X015630Y013940D02*
X018160Y013940D01*
X018160Y013842D02*
X015670Y013842D01*
X015675Y013743D02*
X018215Y013743D01*
X018242Y013645D02*
X015648Y013645D01*
X015577Y013546D02*
X018313Y013546D01*
X018322Y013349D02*
X018418Y013349D01*
X018418Y013251D02*
X018322Y013251D01*
X018322Y013152D02*
X018418Y013152D01*
X018034Y013349D02*
X016206Y013349D01*
X015918Y013349D02*
X015822Y013349D01*
X015822Y013251D02*
X015918Y013251D01*
X015918Y013152D02*
X015822Y013152D01*
X015534Y013349D02*
X013706Y013349D01*
X013677Y013546D02*
X015163Y013546D01*
X015092Y013645D02*
X013748Y013645D01*
X013775Y013743D02*
X015065Y013743D01*
X015040Y013842D02*
X013770Y013842D01*
X013730Y013940D02*
X015040Y013940D01*
X015040Y014039D02*
X013619Y014039D01*
X013580Y014137D02*
X015040Y014137D01*
X015040Y014236D02*
X013580Y014236D01*
X013580Y014334D02*
X013624Y014334D01*
X013624Y014433D02*
X013580Y014433D01*
X013160Y014433D02*
X013116Y014433D01*
X013116Y014334D02*
X013160Y014334D01*
X013034Y013349D02*
X011206Y013349D01*
X010918Y013349D02*
X010822Y013349D01*
X010822Y013251D02*
X010918Y013251D01*
X010918Y013152D02*
X010822Y013152D01*
X010300Y013152D02*
X010200Y013152D01*
X010200Y013054D02*
X010300Y013054D01*
X010300Y012955D02*
X010200Y012955D01*
X010200Y013251D02*
X010300Y013251D01*
X011440Y012069D02*
X011540Y012069D01*
X011540Y011970D02*
X011440Y011970D01*
X011440Y011872D02*
X011540Y011872D01*
X011120Y011872D02*
X010601Y011872D01*
X010616Y011970D02*
X011104Y011970D01*
X013322Y013152D02*
X013418Y013152D01*
X013418Y013251D02*
X013322Y013251D01*
X013322Y013349D02*
X013418Y013349D01*
X015200Y013251D02*
X015300Y013251D01*
X015300Y013152D02*
X015200Y013152D01*
X015200Y013054D02*
X015300Y013054D01*
X015300Y012955D02*
X015200Y012955D01*
X015616Y011970D02*
X016104Y011970D01*
X016120Y011872D02*
X015601Y011872D01*
X016440Y011872D02*
X016540Y011872D01*
X016540Y011970D02*
X016440Y011970D01*
X016440Y012069D02*
X016540Y012069D01*
X016111Y014334D02*
X015616Y014334D01*
X015616Y014433D02*
X016104Y014433D01*
X015300Y015418D02*
X015200Y015418D01*
X015200Y015516D02*
X015300Y015516D01*
X015300Y015615D02*
X015200Y015615D01*
X015200Y015713D02*
X015300Y015713D01*
X015822Y015713D02*
X015918Y015713D01*
X015918Y015615D02*
X015822Y015615D01*
X015822Y015812D02*
X015918Y015812D01*
X015918Y015910D02*
X015822Y015910D01*
X016143Y015910D02*
X018447Y015910D01*
X018418Y015812D02*
X018322Y015812D01*
X018322Y015713D02*
X018418Y015713D01*
X018418Y015615D02*
X018322Y015615D01*
X018047Y015812D02*
X016214Y015812D01*
X016797Y015713D02*
X016813Y015713D01*
X017427Y015713D02*
X017443Y015713D01*
X017418Y016698D02*
X017452Y016698D01*
X016822Y016698D02*
X016815Y016698D01*
X016540Y016698D02*
X016440Y016698D01*
X016440Y016797D02*
X016540Y016797D01*
X016540Y016895D02*
X016440Y016895D01*
X016440Y016994D02*
X016540Y016994D01*
X016104Y016895D02*
X015616Y016895D01*
X015616Y016797D02*
X016105Y016797D01*
X016166Y016698D02*
X015548Y016698D01*
X014952Y016698D02*
X014918Y016698D01*
X014322Y016698D02*
X014288Y016698D01*
X014297Y015713D02*
X014313Y015713D01*
X013240Y016009D02*
X010550Y016009D01*
X010607Y016107D02*
X013183Y016107D01*
X013165Y016206D02*
X010625Y016206D01*
X010611Y016304D02*
X013160Y016304D01*
X013160Y016403D02*
X010559Y016403D01*
X010480Y016501D02*
X013160Y016501D01*
X012452Y016698D02*
X012418Y016698D01*
X011822Y016698D02*
X011815Y016698D01*
X011540Y016698D02*
X011440Y016698D01*
X011440Y016797D02*
X011540Y016797D01*
X011540Y016895D02*
X011440Y016895D01*
X011440Y016994D02*
X011540Y016994D01*
X011104Y016895D02*
X010616Y016895D01*
X010616Y016797D02*
X011105Y016797D01*
X011166Y016698D02*
X010548Y016698D01*
X011797Y015713D02*
X011813Y015713D01*
X012427Y015713D02*
X012443Y015713D01*
X013322Y018077D02*
X013418Y018077D01*
X013418Y018176D02*
X013322Y018176D01*
X013322Y018274D02*
X013418Y018274D01*
X013676Y018274D02*
X015564Y018274D01*
X015572Y018471D02*
X017152Y018471D01*
X017053Y018570D02*
X015646Y018570D01*
X015675Y018668D02*
X016955Y018668D01*
X016910Y018767D02*
X015673Y018767D01*
X015632Y018865D02*
X016910Y018865D01*
X016910Y018964D02*
X015531Y018964D01*
X015460Y019062D02*
X016910Y019062D01*
X016540Y019161D02*
X016440Y019161D01*
X016440Y019259D02*
X016540Y019259D01*
X016540Y019358D02*
X016440Y019358D01*
X016440Y019456D02*
X016540Y019456D01*
X016440Y019555D02*
X015616Y019555D01*
X015616Y019653D02*
X016104Y019653D01*
X016104Y019752D02*
X015616Y019752D01*
X015592Y019850D02*
X015692Y019850D01*
X015715Y019850D02*
X015815Y019850D01*
X015839Y019850D02*
X016126Y019850D01*
X016063Y019949D02*
X016493Y019949D01*
X016540Y019850D02*
X016440Y019850D01*
X016440Y019752D02*
X016540Y019752D01*
X016540Y019653D02*
X016440Y019653D01*
X016104Y019456D02*
X015616Y019456D01*
X015616Y019358D02*
X016104Y019358D01*
X016104Y019259D02*
X015616Y019259D01*
X015570Y019161D02*
X016141Y019161D01*
X015815Y019949D02*
X015715Y019949D01*
X015715Y020047D02*
X015815Y020047D01*
X015815Y020146D02*
X015715Y020146D01*
X015715Y020244D02*
X015815Y020244D01*
X015815Y020343D02*
X016310Y020343D01*
X016323Y020441D02*
X016225Y020441D01*
X016186Y020540D02*
X016364Y020540D01*
X016310Y020244D02*
X016234Y020244D01*
X016208Y020146D02*
X016345Y020146D01*
X016394Y020047D02*
X016155Y020047D01*
X015715Y020343D02*
X015220Y020343D01*
X015207Y020441D02*
X015305Y020441D01*
X015344Y020540D02*
X015167Y020540D01*
X015220Y020244D02*
X015296Y020244D01*
X015322Y020146D02*
X015186Y020146D01*
X015137Y020047D02*
X015376Y020047D01*
X015467Y019949D02*
X015038Y019949D01*
X015040Y019062D02*
X014830Y019062D01*
X014830Y018964D02*
X015040Y018964D01*
X015040Y018865D02*
X014830Y018865D01*
X014830Y018767D02*
X015040Y018767D01*
X015065Y018668D02*
X014830Y018668D01*
X014737Y018570D02*
X015094Y018570D01*
X015168Y018471D02*
X014638Y018471D01*
X014949Y018176D02*
X013717Y018176D01*
X013064Y018274D02*
X011176Y018274D01*
X011217Y018176D02*
X013023Y018176D01*
X012202Y018471D02*
X010522Y018471D01*
X010596Y018570D02*
X012103Y018570D01*
X012005Y018668D02*
X010625Y018668D01*
X010623Y018767D02*
X011910Y018767D01*
X011910Y018865D02*
X010582Y018865D01*
X010481Y018964D02*
X011910Y018964D01*
X011910Y019062D02*
X010460Y019062D01*
X010570Y019161D02*
X011141Y019161D01*
X011104Y019259D02*
X010616Y019259D01*
X010616Y019358D02*
X011104Y019358D01*
X011104Y019456D02*
X010616Y019456D01*
X010616Y019555D02*
X011440Y019555D01*
X011440Y019653D02*
X011540Y019653D01*
X011540Y019752D02*
X011440Y019752D01*
X011440Y019850D02*
X011540Y019850D01*
X011493Y019949D02*
X011038Y019949D01*
X011126Y019850D02*
X010592Y019850D01*
X010616Y019752D02*
X011104Y019752D01*
X011104Y019653D02*
X010616Y019653D01*
X010493Y019949D02*
X010038Y019949D01*
X010137Y020047D02*
X010394Y020047D01*
X010345Y020146D02*
X010186Y020146D01*
X010220Y020244D02*
X010310Y020244D01*
X010310Y020343D02*
X010220Y020343D01*
X010207Y020441D02*
X010323Y020441D01*
X010364Y020540D02*
X010167Y020540D01*
X010142Y021030D02*
X010172Y021070D01*
X010205Y021137D01*
X010229Y021208D01*
X010238Y021269D01*
X009815Y021269D01*
X009815Y021369D01*
X010238Y021369D01*
X010229Y021431D01*
X010205Y021502D01*
X010172Y021568D01*
X010128Y021629D01*
X010075Y021682D01*
X010063Y021690D01*
X010493Y021690D01*
X010380Y021577D01*
X010310Y021410D01*
X010310Y021229D01*
X010232Y021229D01*
X010310Y021229D02*
X010380Y021062D01*
X010411Y021030D01*
X010142Y021030D01*
X010144Y021032D02*
X010409Y021032D01*
X010351Y021131D02*
X010202Y021131D01*
X010310Y021328D02*
X009815Y021328D01*
X009715Y021328D02*
X009220Y021328D01*
X009220Y021410D02*
X009151Y021577D01*
X009038Y021690D01*
X009467Y021690D01*
X009456Y021682D01*
X009403Y021629D01*
X009359Y021568D01*
X009325Y021502D01*
X009302Y021431D01*
X009292Y021369D01*
X009715Y021369D01*
X009715Y021269D01*
X009292Y021269D01*
X009302Y021208D01*
X009325Y021137D01*
X009359Y021070D01*
X009388Y021030D01*
X009119Y021030D01*
X009151Y021062D01*
X009220Y021229D01*
X009299Y021229D01*
X009220Y021229D02*
X009220Y021410D01*
X009214Y021426D02*
X009301Y021426D01*
X009337Y021525D02*
X009173Y021525D01*
X009105Y021623D02*
X009399Y021623D01*
X009328Y021131D02*
X009180Y021131D01*
X009122Y021032D02*
X009387Y021032D01*
X010194Y021525D02*
X010358Y021525D01*
X010317Y021426D02*
X010229Y021426D01*
X010132Y021623D02*
X010426Y021623D01*
X011167Y020540D02*
X011364Y020540D01*
X011323Y020441D02*
X011207Y020441D01*
X011220Y020343D02*
X011310Y020343D01*
X011310Y020244D02*
X011220Y020244D01*
X011186Y020146D02*
X011345Y020146D01*
X011394Y020047D02*
X011137Y020047D01*
X011440Y019456D02*
X011540Y019456D01*
X011540Y019358D02*
X011440Y019358D01*
X011440Y019259D02*
X011540Y019259D01*
X011540Y019161D02*
X011440Y019161D01*
X010918Y018274D02*
X010822Y018274D01*
X010822Y018176D02*
X010918Y018176D01*
X010918Y018077D02*
X010822Y018077D01*
X010564Y018274D02*
X008676Y018274D01*
X008717Y018176D02*
X009949Y018176D01*
X010200Y018176D02*
X010300Y018176D01*
X010300Y018077D02*
X010200Y018077D01*
X010200Y017979D02*
X010300Y017979D01*
X010300Y017880D02*
X010200Y017880D01*
X010118Y018471D02*
X009588Y018471D01*
X009687Y018570D02*
X010044Y018570D01*
X010015Y018668D02*
X009785Y018668D01*
X009830Y018767D02*
X010017Y018767D01*
X010040Y018865D02*
X009830Y018865D01*
X009830Y018964D02*
X010040Y018964D01*
X010040Y019062D02*
X009830Y019062D01*
X008666Y019868D02*
X008624Y019826D01*
X008624Y019210D01*
X008116Y019210D01*
X008116Y019826D01*
X008040Y019902D01*
X007993Y019902D01*
X008014Y019913D01*
X008075Y019957D01*
X008128Y020010D01*
X008172Y020070D01*
X008205Y020137D01*
X008229Y020208D01*
X008238Y020269D01*
X007815Y020269D01*
X007815Y020369D01*
X008238Y020369D01*
X008229Y020431D01*
X008205Y020502D01*
X008172Y020568D01*
X008141Y020610D01*
X008413Y020610D01*
X008380Y020577D01*
X008310Y020410D01*
X008310Y020229D01*
X008380Y020062D01*
X008508Y019934D01*
X008666Y019868D01*
X008648Y019850D02*
X008092Y019850D01*
X008116Y019752D02*
X008624Y019752D01*
X008624Y019653D02*
X008116Y019653D01*
X008116Y019555D02*
X008624Y019555D01*
X008624Y019456D02*
X008116Y019456D01*
X008116Y019358D02*
X008624Y019358D01*
X008624Y019259D02*
X008116Y019259D01*
X007460Y019902D02*
X007435Y019877D01*
X007410Y019902D01*
X006947Y019902D01*
X007023Y019934D01*
X007151Y020062D01*
X007220Y020229D01*
X007220Y020410D01*
X007151Y020577D01*
X007118Y020610D01*
X007389Y020610D01*
X007359Y020568D01*
X007325Y020502D01*
X007302Y020431D01*
X007292Y020369D01*
X007715Y020369D01*
X007715Y020269D01*
X007292Y020269D01*
X007302Y020208D01*
X007325Y020137D01*
X007359Y020070D01*
X007403Y020010D01*
X007456Y019957D01*
X007516Y019913D01*
X007538Y019902D01*
X007460Y019902D01*
X007467Y019949D02*
X007038Y019949D01*
X007137Y020047D02*
X007376Y020047D01*
X007322Y020146D02*
X007186Y020146D01*
X007220Y020244D02*
X007296Y020244D01*
X007220Y020343D02*
X007715Y020343D01*
X007815Y020343D02*
X008310Y020343D01*
X008323Y020441D02*
X008225Y020441D01*
X008186Y020540D02*
X008364Y020540D01*
X008310Y020244D02*
X008234Y020244D01*
X008208Y020146D02*
X008345Y020146D01*
X008394Y020047D02*
X008155Y020047D01*
X008063Y019949D02*
X008493Y019949D01*
X007344Y020540D02*
X007167Y020540D01*
X007207Y020441D02*
X007305Y020441D01*
X006540Y019920D02*
X006540Y019566D01*
X006440Y019566D01*
X006440Y019922D01*
X006439Y019922D01*
X006479Y019962D01*
X006508Y019934D01*
X006540Y019920D01*
X006493Y019949D02*
X006466Y019949D01*
X006440Y019850D02*
X006540Y019850D01*
X006540Y019752D02*
X006440Y019752D01*
X006440Y019653D02*
X006540Y019653D01*
X006440Y019555D02*
X005980Y019555D01*
X005980Y019456D02*
X006104Y019456D01*
X006104Y019358D02*
X005980Y019358D01*
X005980Y019259D02*
X006104Y019259D01*
X006141Y019161D02*
X005980Y019161D01*
X005980Y019062D02*
X006910Y019062D01*
X006910Y018964D02*
X005980Y018964D01*
X005882Y018865D02*
X006910Y018865D01*
X006910Y018767D02*
X005784Y018767D01*
X005685Y018668D02*
X006955Y018668D01*
X007053Y018570D02*
X005587Y018570D01*
X005488Y018471D02*
X007152Y018471D01*
X008023Y018176D02*
X006217Y018176D01*
X006176Y018274D02*
X008064Y018274D01*
X008322Y018274D02*
X008418Y018274D01*
X008418Y018176D02*
X008322Y018176D01*
X008322Y018077D02*
X008418Y018077D01*
X006540Y019161D02*
X006440Y019161D01*
X006440Y019259D02*
X006540Y019259D01*
X006540Y019358D02*
X006440Y019358D01*
X006440Y019456D02*
X006540Y019456D01*
X006060Y020668D02*
X006023Y020705D01*
X005856Y020774D01*
X005675Y020774D01*
X005508Y020705D01*
X005480Y020677D01*
X005480Y020887D01*
X005196Y021171D01*
X005220Y021229D01*
X005299Y021229D01*
X005302Y021208D02*
X005325Y021137D01*
X005359Y021070D01*
X005403Y021010D01*
X005456Y020957D01*
X005516Y020913D01*
X005583Y020879D01*
X005654Y020856D01*
X005715Y020846D01*
X005715Y021269D01*
X005815Y021269D01*
X005815Y020846D01*
X005877Y020856D01*
X005948Y020879D01*
X006014Y020913D01*
X006075Y020957D01*
X006128Y021010D01*
X006172Y021070D01*
X006205Y021137D01*
X006229Y021208D01*
X006238Y021269D01*
X005815Y021269D01*
X005815Y021369D01*
X006238Y021369D01*
X006229Y021431D01*
X006205Y021502D01*
X006172Y021568D01*
X006128Y021629D01*
X006075Y021682D01*
X006063Y021690D01*
X006493Y021690D01*
X006380Y021577D01*
X006310Y021410D01*
X006310Y021229D01*
X006232Y021229D01*
X006310Y021229D02*
X006380Y021062D01*
X006411Y021030D01*
X006283Y021030D01*
X006183Y020930D01*
X006060Y020807D01*
X006060Y020668D01*
X006060Y020737D02*
X005947Y020737D01*
X006088Y020835D02*
X005480Y020835D01*
X005480Y020737D02*
X005584Y020737D01*
X005488Y020934D02*
X005433Y020934D01*
X005387Y021032D02*
X005335Y021032D01*
X005328Y021131D02*
X005236Y021131D01*
X005220Y021229D02*
X005220Y021410D01*
X005151Y021577D01*
X005038Y021690D01*
X005467Y021690D01*
X005456Y021682D01*
X005403Y021629D01*
X005359Y021568D01*
X005325Y021502D01*
X005302Y021431D01*
X005292Y021369D01*
X005715Y021369D01*
X005715Y021269D01*
X005292Y021269D01*
X005302Y021208D01*
X005220Y021328D02*
X005715Y021328D01*
X005715Y021229D02*
X005815Y021229D01*
X005815Y021131D02*
X005715Y021131D01*
X005715Y021032D02*
X005815Y021032D01*
X005815Y020934D02*
X005715Y020934D01*
X006042Y020934D02*
X006187Y020934D01*
X006183Y020930D02*
X006183Y020930D01*
X006144Y021032D02*
X006409Y021032D01*
X006351Y021131D02*
X006202Y021131D01*
X006310Y021328D02*
X005815Y021328D01*
X006229Y021426D02*
X006317Y021426D01*
X006358Y021525D02*
X006194Y021525D01*
X006132Y021623D02*
X006426Y021623D01*
X005399Y021623D02*
X005105Y021623D01*
X005173Y021525D02*
X005337Y021525D01*
X005301Y021426D02*
X005214Y021426D01*
X004620Y019516D02*
X004620Y019100D01*
X005390Y018373D02*
X021172Y018373D01*
X021165Y018471D02*
X020572Y018471D01*
X020646Y018570D02*
X021189Y018570D01*
X021257Y018668D02*
X020675Y018668D01*
X020673Y018767D02*
X021965Y018767D01*
X021965Y018739D02*
X022011Y018627D01*
X022097Y018541D01*
X022209Y018495D01*
X022331Y018495D01*
X022443Y018541D01*
X022529Y018627D01*
X022575Y018739D01*
X022575Y018861D01*
X022529Y018973D01*
X022443Y019059D01*
X022331Y019105D01*
X022330Y019105D01*
X022330Y019130D01*
X022410Y019130D01*
X022435Y019155D01*
X022460Y019130D01*
X023040Y019130D01*
X023116Y019206D01*
X023116Y019284D01*
X023209Y019245D01*
X023331Y019245D01*
X023443Y019291D01*
X023529Y019377D01*
X023575Y019489D01*
X023575Y019611D01*
X023529Y019723D01*
X023443Y019809D01*
X023331Y019855D01*
X023209Y019855D01*
X023116Y019816D01*
X023116Y019826D01*
X023040Y019902D01*
X022993Y019902D01*
X023014Y019913D01*
X023075Y019957D01*
X023128Y020010D01*
X023172Y020070D01*
X023205Y020137D01*
X023229Y020208D01*
X023238Y020269D01*
X022815Y020269D01*
X022815Y020369D01*
X022715Y020369D01*
X022715Y020269D01*
X022292Y020269D01*
X022302Y020208D01*
X022325Y020137D01*
X022359Y020070D01*
X022403Y020010D01*
X022456Y019957D01*
X022516Y019913D01*
X022538Y019902D01*
X022460Y019902D01*
X022435Y019877D01*
X022410Y019902D01*
X021947Y019902D01*
X022023Y019934D01*
X022151Y020062D01*
X022220Y020229D01*
X022220Y020410D01*
X022151Y020577D01*
X022023Y020705D01*
X021856Y020774D01*
X021675Y020774D01*
X021508Y020705D01*
X021380Y020577D01*
X021310Y020410D01*
X021310Y020229D01*
X021380Y020062D01*
X021508Y019934D01*
X021540Y019920D01*
X021540Y019566D01*
X021440Y019566D01*
X021440Y019466D01*
X021540Y019466D01*
X021540Y019110D01*
X021746Y019110D01*
X021784Y019120D01*
X021818Y019140D01*
X021819Y019141D01*
X021830Y019130D01*
X021910Y019130D01*
X021910Y018863D01*
X021965Y018808D01*
X021965Y018739D01*
X021995Y018668D02*
X021683Y018668D01*
X021751Y018570D02*
X022069Y018570D01*
X021775Y018471D02*
X025926Y018471D01*
X025926Y018373D02*
X021768Y018373D01*
X021725Y018274D02*
X025926Y018274D01*
X025926Y018176D02*
X021680Y018176D01*
X021260Y018176D02*
X021217Y018176D01*
X021215Y018274D02*
X021176Y018274D01*
X020918Y018274D02*
X020822Y018274D01*
X020822Y018176D02*
X020918Y018176D01*
X020918Y018077D02*
X020822Y018077D01*
X020564Y018274D02*
X018708Y018274D01*
X018717Y018176D02*
X019949Y018176D01*
X020200Y018176D02*
X020300Y018176D01*
X020300Y018077D02*
X020200Y018077D01*
X020200Y017979D02*
X020300Y017979D01*
X020300Y017880D02*
X020200Y017880D01*
X020168Y018471D02*
X019588Y018471D01*
X019687Y018570D02*
X020094Y018570D01*
X020065Y018668D02*
X019785Y018668D01*
X019830Y018767D02*
X020040Y018767D01*
X020040Y018865D02*
X019830Y018865D01*
X019830Y018964D02*
X020040Y018964D01*
X020040Y019062D02*
X019830Y019062D01*
X020460Y019062D02*
X021910Y019062D01*
X021910Y018964D02*
X020531Y018964D01*
X020632Y018865D02*
X021910Y018865D01*
X021540Y019161D02*
X021440Y019161D01*
X021440Y019110D02*
X021440Y019466D01*
X021104Y019466D01*
X021104Y019240D01*
X021114Y019202D01*
X021134Y019168D01*
X021162Y019140D01*
X021196Y019120D01*
X021234Y019110D01*
X021440Y019110D01*
X021440Y019259D02*
X021540Y019259D01*
X021540Y019358D02*
X021440Y019358D01*
X021440Y019456D02*
X021540Y019456D01*
X021440Y019555D02*
X020616Y019555D01*
X020616Y019653D02*
X021104Y019653D01*
X021104Y019566D02*
X021440Y019566D01*
X021440Y019922D01*
X021234Y019922D01*
X021196Y019912D01*
X021162Y019892D01*
X021134Y019864D01*
X021114Y019830D01*
X021104Y019792D01*
X021104Y019566D01*
X021104Y019456D02*
X020616Y019456D01*
X020616Y019358D02*
X021104Y019358D01*
X021104Y019259D02*
X020616Y019259D01*
X020570Y019161D02*
X021141Y019161D01*
X021440Y019653D02*
X021540Y019653D01*
X021540Y019752D02*
X021440Y019752D01*
X021440Y019850D02*
X021540Y019850D01*
X021493Y019949D02*
X021038Y019949D01*
X021023Y019934D02*
X021151Y020062D01*
X021220Y020229D01*
X021220Y020410D01*
X021151Y020577D01*
X021023Y020705D01*
X020856Y020774D01*
X020675Y020774D01*
X020508Y020705D01*
X020380Y020577D01*
X020310Y020410D01*
X020310Y020229D01*
X020380Y020062D01*
X020508Y019934D01*
X020675Y019864D01*
X020856Y019864D01*
X021023Y019934D01*
X021126Y019850D02*
X020592Y019850D01*
X020616Y019752D02*
X021104Y019752D01*
X021137Y020047D02*
X021394Y020047D01*
X021345Y020146D02*
X021186Y020146D01*
X021220Y020244D02*
X021310Y020244D01*
X021310Y020343D02*
X021220Y020343D01*
X021207Y020441D02*
X021323Y020441D01*
X021364Y020540D02*
X021167Y020540D01*
X021090Y020638D02*
X021441Y020638D01*
X021584Y020737D02*
X020947Y020737D01*
X020856Y020864D02*
X020675Y020864D01*
X020508Y020934D01*
X020584Y020737D02*
X019947Y020737D01*
X020090Y020638D02*
X020441Y020638D01*
X020364Y020540D02*
X020167Y020540D01*
X020207Y020441D02*
X020323Y020441D01*
X020310Y020343D02*
X020220Y020343D01*
X020220Y020244D02*
X020310Y020244D01*
X020345Y020146D02*
X020186Y020146D01*
X020137Y020047D02*
X020394Y020047D01*
X020493Y019949D02*
X020038Y019949D01*
X019493Y019949D02*
X019038Y019949D01*
X019137Y020047D02*
X019394Y020047D01*
X019345Y020146D02*
X019186Y020146D01*
X019220Y020244D02*
X019310Y020244D01*
X019310Y020343D02*
X019220Y020343D01*
X019207Y020441D02*
X019323Y020441D01*
X019364Y020540D02*
X019167Y020540D01*
X019090Y020638D02*
X019441Y020638D01*
X019584Y020737D02*
X018947Y020737D01*
X018856Y020864D02*
X019023Y020934D01*
X019151Y021062D01*
X019122Y021032D02*
X019387Y021032D01*
X019488Y020934D02*
X019023Y020934D01*
X018856Y020864D02*
X018675Y020864D01*
X018508Y020934D01*
X018584Y020737D02*
X017947Y020737D01*
X018090Y020638D02*
X018441Y020638D01*
X018364Y020540D02*
X018167Y020540D01*
X018207Y020441D02*
X018323Y020441D01*
X018310Y020343D02*
X018220Y020343D01*
X018220Y020244D02*
X018310Y020244D01*
X018345Y020146D02*
X018186Y020146D01*
X018137Y020047D02*
X018394Y020047D01*
X018493Y019949D02*
X018038Y019949D01*
X018092Y019850D02*
X018648Y019850D01*
X018624Y019752D02*
X018116Y019752D01*
X018116Y019653D02*
X018624Y019653D01*
X018624Y019555D02*
X018116Y019555D01*
X018116Y019456D02*
X018624Y019456D01*
X018624Y019358D02*
X018116Y019358D01*
X018116Y019259D02*
X018624Y019259D01*
X018418Y018274D02*
X018322Y018274D01*
X018322Y018176D02*
X018418Y018176D01*
X018418Y018077D02*
X018322Y018077D01*
X018023Y018176D02*
X016217Y018176D01*
X016176Y018274D02*
X018032Y018274D01*
X019288Y016698D02*
X019322Y016698D01*
X019918Y016698D02*
X019952Y016698D01*
X020460Y016600D02*
X025926Y016600D01*
X025926Y016698D02*
X023048Y016698D01*
X023116Y016797D02*
X025926Y016797D01*
X025926Y016895D02*
X023116Y016895D01*
X023116Y016994D02*
X025926Y016994D01*
X025926Y017092D02*
X023116Y017092D01*
X023116Y017191D02*
X025926Y017191D01*
X025926Y017289D02*
X023116Y017289D01*
X023114Y017388D02*
X025926Y017388D01*
X025926Y017486D02*
X023116Y017486D01*
X023116Y017585D02*
X025926Y017585D01*
X025926Y017683D02*
X023116Y017683D01*
X023116Y017782D02*
X025926Y017782D01*
X025926Y017880D02*
X023116Y017880D01*
X023116Y017979D02*
X025926Y017979D01*
X025926Y018077D02*
X023116Y018077D01*
X022471Y018570D02*
X025926Y018570D01*
X025926Y018668D02*
X022545Y018668D01*
X022575Y018767D02*
X025926Y018767D01*
X025926Y018865D02*
X022573Y018865D01*
X022532Y018964D02*
X025926Y018964D01*
X025926Y019062D02*
X022434Y019062D01*
X023070Y019161D02*
X025926Y019161D01*
X025926Y019259D02*
X023365Y019259D01*
X023509Y019358D02*
X025926Y019358D01*
X025926Y019456D02*
X023561Y019456D01*
X023575Y019555D02*
X025926Y019555D01*
X025926Y019653D02*
X025137Y019653D01*
X025357Y019752D02*
X025926Y019752D01*
X025926Y019850D02*
X025474Y019850D01*
X025591Y019949D02*
X025926Y019949D01*
X025926Y020047D02*
X025681Y020047D01*
X025738Y020146D02*
X025926Y020146D01*
X025926Y020244D02*
X025795Y020244D01*
X025852Y020343D02*
X025926Y020343D01*
X025926Y020441D02*
X025886Y020441D01*
X025904Y020540D02*
X025926Y020540D01*
X025921Y020638D02*
X025926Y020638D01*
X024229Y019653D02*
X023557Y019653D01*
X023500Y019752D02*
X024009Y019752D01*
X023891Y019850D02*
X023343Y019850D01*
X023197Y019850D02*
X023092Y019850D01*
X023063Y019949D02*
X023774Y019949D01*
X023684Y020047D02*
X023155Y020047D01*
X023208Y020146D02*
X023627Y020146D01*
X023570Y020244D02*
X023234Y020244D01*
X023238Y020369D02*
X022815Y020369D01*
X022815Y020792D01*
X022877Y020783D01*
X022948Y020759D01*
X023014Y020726D01*
X023075Y020682D01*
X023128Y020629D01*
X023172Y020568D01*
X023205Y020502D01*
X023229Y020431D01*
X023238Y020369D01*
X023225Y020441D02*
X023479Y020441D01*
X023461Y020540D02*
X023186Y020540D01*
X023118Y020638D02*
X023444Y020638D01*
X023427Y020737D02*
X022993Y020737D01*
X022815Y020737D02*
X022715Y020737D01*
X022715Y020792D02*
X022654Y020783D01*
X022583Y020759D01*
X022516Y020726D01*
X022456Y020682D01*
X022403Y020629D01*
X022359Y020568D01*
X022325Y020502D01*
X022302Y020431D01*
X022292Y020369D01*
X022715Y020369D01*
X022715Y020792D01*
X022675Y020864D02*
X022856Y020864D01*
X023023Y020934D01*
X023151Y021062D01*
X023122Y021032D02*
X023450Y021032D01*
X023432Y020934D02*
X023023Y020934D01*
X022675Y020864D02*
X022508Y020934D01*
X022409Y021032D02*
X022122Y021032D01*
X022180Y021131D02*
X022351Y021131D01*
X022310Y021328D02*
X022220Y021328D01*
X022214Y021426D02*
X022317Y021426D01*
X022358Y021525D02*
X022173Y021525D01*
X022105Y021623D02*
X022426Y021623D01*
X022547Y021722D02*
X021983Y021722D01*
X021547Y021722D02*
X020983Y021722D01*
X021105Y021623D02*
X021426Y021623D01*
X021358Y021525D02*
X021173Y021525D01*
X021214Y021426D02*
X021317Y021426D01*
X021310Y021328D02*
X021220Y021328D01*
X021180Y021131D02*
X021351Y021131D01*
X021409Y021032D02*
X021122Y021032D01*
X021023Y020934D02*
X020856Y020864D01*
X021508Y020934D02*
X021675Y020864D01*
X021856Y020864D01*
X022023Y020934D01*
X021947Y020737D02*
X022538Y020737D01*
X022412Y020638D02*
X022090Y020638D01*
X022167Y020540D02*
X022344Y020540D01*
X022305Y020441D02*
X022207Y020441D01*
X022220Y020343D02*
X022715Y020343D01*
X022715Y020441D02*
X022815Y020441D01*
X022815Y020343D02*
X023513Y020343D01*
X023415Y020835D02*
X016902Y020835D01*
X016980Y020737D02*
X017584Y020737D01*
X017441Y020638D02*
X017090Y020638D01*
X017167Y020540D02*
X017364Y020540D01*
X017323Y020441D02*
X017207Y020441D01*
X017220Y020343D02*
X017310Y020343D01*
X017310Y020244D02*
X017220Y020244D01*
X017186Y020146D02*
X017345Y020146D01*
X017394Y020047D02*
X017137Y020047D01*
X017038Y019949D02*
X017493Y019949D01*
X017488Y020934D02*
X017023Y020934D01*
X017122Y021032D02*
X017387Y021032D01*
X017715Y021032D02*
X017815Y021032D01*
X017815Y020934D02*
X017715Y020934D01*
X017715Y021131D02*
X017815Y021131D01*
X017815Y021229D02*
X017715Y021229D01*
X017715Y021525D02*
X017815Y021525D01*
X017815Y021623D02*
X017715Y021623D01*
X017715Y021722D02*
X017815Y021722D01*
X018020Y021722D02*
X018547Y021722D01*
X018426Y021623D02*
X018132Y021623D01*
X018194Y021525D02*
X018358Y021525D01*
X018983Y021722D02*
X019511Y021722D01*
X019399Y021623D02*
X019105Y021623D01*
X019173Y021525D02*
X019337Y021525D01*
X019301Y021426D02*
X019214Y021426D01*
X019715Y021525D02*
X019815Y021525D01*
X019815Y021623D02*
X019715Y021623D01*
X019715Y021722D02*
X019815Y021722D01*
X020020Y021722D02*
X020547Y021722D01*
X020426Y021623D02*
X020132Y021623D01*
X020194Y021525D02*
X020358Y021525D01*
X019815Y021229D02*
X019715Y021229D01*
X019715Y021131D02*
X019815Y021131D01*
X019815Y021032D02*
X019715Y021032D01*
X019715Y020934D02*
X019815Y020934D01*
X022038Y019949D02*
X022467Y019949D01*
X022376Y020047D02*
X022137Y020047D01*
X022186Y020146D02*
X022322Y020146D01*
X022296Y020244D02*
X022220Y020244D01*
X022715Y020540D02*
X022815Y020540D01*
X022815Y020638D02*
X022715Y020638D01*
X023116Y019259D02*
X023175Y019259D01*
X021540Y016994D02*
X021440Y016994D01*
X021440Y016895D02*
X021540Y016895D01*
X021540Y016797D02*
X021440Y016797D01*
X021440Y016698D02*
X021540Y016698D01*
X021815Y016698D02*
X021822Y016698D01*
X022418Y016698D02*
X022452Y016698D01*
X021166Y016698D02*
X020548Y016698D01*
X020616Y016797D02*
X021105Y016797D01*
X021104Y016895D02*
X020616Y016895D01*
X020822Y015812D02*
X020918Y015812D01*
X020918Y015713D02*
X020822Y015713D01*
X020822Y015615D02*
X020918Y015615D01*
X020300Y015615D02*
X020200Y015615D01*
X020200Y015713D02*
X020300Y015713D01*
X020300Y015516D02*
X020200Y015516D01*
X020200Y015418D02*
X020300Y015418D01*
X019313Y015713D02*
X019297Y015713D01*
X020616Y014433D02*
X021104Y014433D01*
X021111Y014334D02*
X020616Y014334D01*
X020300Y013251D02*
X020200Y013251D01*
X020200Y013152D02*
X020300Y013152D01*
X020300Y013054D02*
X020200Y013054D01*
X020200Y012955D02*
X020300Y012955D01*
X016540Y009705D02*
X016440Y009705D01*
X016440Y009606D02*
X016540Y009606D01*
X016540Y009508D02*
X016440Y009508D01*
X016440Y009409D02*
X016540Y009409D01*
X015918Y008523D02*
X015822Y008523D01*
X015822Y008424D02*
X015918Y008424D01*
X015918Y008326D02*
X015822Y008326D01*
X017426Y006947D02*
X017444Y006947D01*
X018116Y004681D02*
X018160Y004681D01*
X018160Y004583D02*
X018116Y004583D01*
X018580Y004583D02*
X018624Y004583D01*
X018624Y004681D02*
X018580Y004681D01*
X020822Y005863D02*
X020918Y005863D01*
X020918Y005962D02*
X020822Y005962D01*
X020822Y006060D02*
X020918Y006060D01*
X021793Y005962D02*
X021822Y005962D01*
X022418Y005962D02*
X022452Y005962D01*
X022426Y006947D02*
X022444Y006947D01*
X021540Y002317D02*
X021440Y002317D01*
X021440Y002219D02*
X021540Y002219D01*
X021540Y002120D02*
X021440Y002120D01*
X021115Y002120D02*
X020610Y002120D01*
X016540Y002120D02*
X016440Y002120D01*
X016440Y002219D02*
X016540Y002219D01*
X016540Y002317D02*
X016440Y002317D01*
X015300Y000643D02*
X015200Y000643D01*
X015200Y000544D02*
X015300Y000544D01*
X015300Y000446D02*
X015200Y000446D01*
X015200Y000347D02*
X015300Y000347D01*
X015597Y000347D02*
X015708Y000347D01*
X016032Y000347D02*
X016171Y000347D01*
X013671Y000347D02*
X013069Y000347D01*
X013116Y000446D02*
X013624Y000446D01*
X013624Y000544D02*
X013116Y000544D01*
X013116Y000643D02*
X013624Y000643D01*
X013624Y000741D02*
X013116Y000741D01*
X013116Y000840D02*
X013624Y000840D01*
X013624Y000938D02*
X013116Y000938D01*
X013093Y001037D02*
X013647Y001037D01*
X013780Y001135D02*
X012930Y001135D01*
X011540Y002120D02*
X011440Y002120D01*
X011440Y002219D02*
X011540Y002219D01*
X011540Y002317D02*
X011440Y002317D01*
X010300Y000643D02*
X010200Y000643D01*
X010200Y000544D02*
X010300Y000544D01*
X010300Y000446D02*
X010200Y000446D01*
X010200Y000347D02*
X010300Y000347D01*
X010597Y000347D02*
X010708Y000347D01*
X011032Y000347D02*
X011171Y000347D01*
X012426Y006947D02*
X012444Y006947D01*
X013079Y009409D02*
X013160Y009409D01*
X013160Y009508D02*
X013116Y009508D01*
X008418Y013152D02*
X008322Y013152D01*
X008322Y013251D02*
X008418Y013251D01*
X008418Y013349D02*
X008322Y013349D01*
X008313Y013546D02*
X002574Y013546D01*
X002574Y013842D02*
X002721Y013842D01*
X002693Y013940D02*
X002574Y013940D01*
X002574Y014039D02*
X002693Y014039D01*
X002574Y014137D02*
X002992Y014137D01*
X003088Y014137D02*
X005009Y014137D01*
X004968Y014039D02*
X003387Y014039D01*
X003387Y013940D02*
X004965Y013940D01*
X005060Y014236D02*
X003387Y014236D01*
X003387Y014334D02*
X003624Y014334D01*
X003624Y014433D02*
X003369Y014433D01*
X003314Y014531D02*
X003624Y014531D01*
X003624Y014630D02*
X003367Y014630D01*
X003367Y014728D02*
X003624Y014728D01*
X003624Y014827D02*
X003367Y014827D01*
X003367Y014925D02*
X003624Y014925D01*
X003634Y015024D02*
X003367Y015024D01*
X003367Y015122D02*
X003624Y015122D01*
X003624Y015221D02*
X003312Y015221D01*
X003367Y015319D02*
X003624Y015319D01*
X003624Y015418D02*
X003367Y015418D01*
X003483Y015516D02*
X003624Y015516D01*
X003624Y015615D02*
X003582Y015615D01*
X003680Y015713D02*
X003683Y015713D01*
X003680Y016009D02*
X005140Y016009D01*
X005083Y016107D02*
X003680Y016107D01*
X003680Y016206D02*
X005065Y016206D01*
X005040Y016304D02*
X003680Y016304D01*
X003680Y016403D02*
X005040Y016403D01*
X005040Y016501D02*
X003680Y016501D01*
X003680Y016600D02*
X005040Y016600D01*
X004952Y016698D02*
X004918Y016698D01*
X004322Y016698D02*
X004288Y016698D01*
X003692Y016698D02*
X003680Y016698D01*
X003165Y017192D02*
X002799Y017192D01*
X002723Y017116D01*
X002723Y016594D01*
X002557Y016760D01*
X001757Y016760D01*
X001580Y016937D01*
X001580Y018027D01*
X001589Y018036D01*
X001589Y019014D01*
X001513Y019090D01*
X001165Y019090D01*
X001089Y019014D01*
X001052Y019051D01*
X001079Y019077D01*
X001125Y019189D01*
X001125Y019311D01*
X001079Y019423D01*
X000993Y019509D01*
X000881Y019555D01*
X000759Y019555D01*
X000647Y019509D01*
X000605Y019466D01*
X000605Y020663D01*
X000654Y020385D01*
X000875Y020003D01*
X001213Y019719D01*
X001627Y019568D01*
X001891Y019568D01*
X001860Y019537D01*
X001660Y019337D01*
X001660Y019163D01*
X001660Y019084D01*
X001589Y019014D01*
X001589Y018036D01*
X001660Y017965D01*
X001660Y017713D01*
X001906Y017467D01*
X002029Y017344D01*
X002723Y017344D01*
X002723Y017284D01*
X002799Y017208D01*
X003165Y017208D01*
X003165Y017192D01*
X002798Y017191D02*
X001580Y017191D01*
X001580Y017289D02*
X002723Y017289D01*
X002723Y017092D02*
X001580Y017092D01*
X001580Y016994D02*
X002723Y016994D01*
X002723Y016895D02*
X001622Y016895D01*
X001720Y016797D02*
X002723Y016797D01*
X002723Y016698D02*
X002619Y016698D01*
X002717Y016600D02*
X002723Y016600D01*
X002329Y015885D02*
X001849Y015885D01*
X001849Y015865D01*
X002069Y015865D01*
X002329Y015865D01*
X002329Y015885D01*
X001829Y015885D02*
X001829Y015865D01*
X001569Y015865D01*
X001349Y015865D01*
X001349Y015885D01*
X001329Y015885D01*
X001329Y016460D01*
X001200Y016460D01*
X001161Y016450D01*
X001127Y016430D01*
X001099Y016402D01*
X001089Y016385D01*
X001079Y016402D01*
X001051Y016430D01*
X001017Y016450D01*
X000979Y016460D01*
X000849Y016460D01*
X000849Y015885D01*
X000829Y015885D01*
X000829Y016460D01*
X000700Y016460D01*
X000661Y016450D01*
X000627Y016430D01*
X000605Y016408D01*
X000605Y018020D01*
X000665Y017960D01*
X001013Y017960D01*
X001089Y018036D01*
X001089Y019014D01*
X001089Y018036D01*
X001160Y017965D01*
X001160Y016763D01*
X001460Y016463D01*
X001463Y016460D01*
X001349Y016460D01*
X001349Y015885D01*
X001829Y015885D01*
X001349Y015910D02*
X001329Y015910D01*
X001329Y015885D02*
X001329Y015865D01*
X001069Y015865D01*
X000849Y015865D01*
X000849Y015290D01*
X000890Y015290D01*
X000890Y015003D01*
X000880Y014986D01*
X000870Y014948D01*
X000870Y014815D01*
X001257Y014815D01*
X001257Y014790D01*
X000870Y014790D01*
X000870Y014658D01*
X000871Y014655D01*
X000864Y014655D01*
X000813Y014660D01*
X000720Y014699D01*
X000649Y014770D01*
X000610Y014863D01*
X000605Y014914D01*
X000605Y015342D01*
X000627Y015320D01*
X000661Y015300D01*
X000700Y015290D01*
X000829Y015290D01*
X000829Y015865D01*
X000849Y015865D01*
X000849Y015885D01*
X001329Y015885D01*
X001329Y016009D02*
X001349Y016009D01*
X001349Y016107D02*
X001329Y016107D01*
X001329Y016206D02*
X001349Y016206D01*
X001349Y016304D02*
X001329Y016304D01*
X001329Y016403D02*
X001349Y016403D01*
X001422Y016501D02*
X000605Y016501D01*
X000605Y016600D02*
X001323Y016600D01*
X001225Y016698D02*
X000605Y016698D01*
X000605Y016797D02*
X001160Y016797D01*
X001160Y016895D02*
X000605Y016895D01*
X000605Y016994D02*
X001160Y016994D01*
X001160Y017092D02*
X000605Y017092D01*
X000605Y017191D02*
X001160Y017191D01*
X001160Y017289D02*
X000605Y017289D01*
X000605Y017388D02*
X001160Y017388D01*
X001160Y017486D02*
X000605Y017486D01*
X000605Y017585D02*
X001160Y017585D01*
X001160Y017683D02*
X000605Y017683D01*
X000605Y017782D02*
X001160Y017782D01*
X001160Y017880D02*
X000605Y017880D01*
X000605Y017979D02*
X000647Y017979D01*
X001032Y017979D02*
X001147Y017979D01*
X001089Y018077D02*
X001089Y018077D01*
X001089Y018176D02*
X001089Y018176D01*
X001089Y018274D02*
X001089Y018274D01*
X001089Y018373D02*
X001089Y018373D01*
X001089Y018471D02*
X001089Y018471D01*
X001089Y018570D02*
X001089Y018570D01*
X001089Y018668D02*
X001089Y018668D01*
X001089Y018767D02*
X001089Y018767D01*
X001089Y018865D02*
X001089Y018865D01*
X001089Y018964D02*
X001089Y018964D01*
X001063Y019062D02*
X001138Y019062D01*
X001113Y019161D02*
X001660Y019161D01*
X001660Y019259D02*
X001125Y019259D01*
X001106Y019358D02*
X001681Y019358D01*
X001779Y019456D02*
X001045Y019456D01*
X000882Y019555D02*
X001878Y019555D01*
X001394Y019653D02*
X000605Y019653D01*
X000605Y019555D02*
X000758Y019555D01*
X000605Y019752D02*
X001174Y019752D01*
X001057Y019850D02*
X000605Y019850D01*
X000605Y019949D02*
X000939Y019949D01*
X000849Y020047D02*
X000605Y020047D01*
X000605Y020146D02*
X000792Y020146D01*
X000735Y020244D02*
X000605Y020244D01*
X000605Y020343D02*
X000678Y020343D01*
X000644Y020441D02*
X000605Y020441D01*
X000605Y020540D02*
X000627Y020540D01*
X000609Y020638D02*
X000605Y020638D01*
X001541Y019062D02*
X001638Y019062D01*
X001589Y018964D02*
X001589Y018964D01*
X001589Y018865D02*
X001589Y018865D01*
X001589Y018767D02*
X001589Y018767D01*
X001589Y018668D02*
X001589Y018668D01*
X001589Y018570D02*
X001589Y018570D01*
X001589Y018471D02*
X001589Y018471D01*
X001589Y018373D02*
X001589Y018373D01*
X001589Y018274D02*
X001589Y018274D01*
X001589Y018176D02*
X001589Y018176D01*
X001589Y018077D02*
X001589Y018077D01*
X001580Y017979D02*
X001647Y017979D01*
X001660Y017880D02*
X001580Y017880D01*
X001580Y017782D02*
X001660Y017782D01*
X001690Y017683D02*
X001580Y017683D01*
X001580Y017585D02*
X001788Y017585D01*
X001887Y017486D02*
X001580Y017486D01*
X001580Y017388D02*
X001985Y017388D01*
X001100Y016403D02*
X001079Y016403D01*
X000849Y016403D02*
X000829Y016403D01*
X000829Y016304D02*
X000849Y016304D01*
X000849Y016206D02*
X000829Y016206D01*
X000829Y016107D02*
X000849Y016107D01*
X000849Y016009D02*
X000829Y016009D01*
X000829Y015910D02*
X000849Y015910D01*
X000849Y015812D02*
X000829Y015812D01*
X000829Y015713D02*
X000849Y015713D01*
X000849Y015615D02*
X000829Y015615D01*
X000829Y015516D02*
X000849Y015516D01*
X000849Y015418D02*
X000829Y015418D01*
X000829Y015319D02*
X000849Y015319D01*
X000890Y015221D02*
X000605Y015221D01*
X000605Y015319D02*
X000628Y015319D01*
X000605Y015122D02*
X000890Y015122D01*
X000890Y015024D02*
X000605Y015024D01*
X000605Y014925D02*
X000870Y014925D01*
X000870Y014827D02*
X000625Y014827D01*
X000691Y014728D02*
X000870Y014728D01*
X001670Y014728D02*
X002713Y014728D01*
X002713Y014630D02*
X002212Y014630D01*
X002388Y014531D02*
X002766Y014531D01*
X002711Y014433D02*
X002486Y014433D01*
X002531Y014334D02*
X002693Y014334D01*
X002693Y014236D02*
X002572Y014236D01*
X002992Y014039D02*
X003088Y014039D01*
X003088Y013940D02*
X002992Y013940D01*
X002992Y013842D02*
X003088Y013842D01*
X002713Y014827D02*
X001670Y014827D01*
X001670Y014925D02*
X002713Y014925D01*
X002713Y015024D02*
X002691Y015024D01*
X004297Y015713D02*
X004313Y015713D01*
X005200Y015713D02*
X005300Y015713D01*
X005300Y015615D02*
X005200Y015615D01*
X005200Y015516D02*
X005300Y015516D01*
X005300Y015418D02*
X005200Y015418D01*
X006797Y015713D02*
X006813Y015713D01*
X007427Y015713D02*
X007443Y015713D01*
X005918Y018077D02*
X005822Y018077D01*
X005822Y018176D02*
X005918Y018176D01*
X005918Y018274D02*
X005822Y018274D01*
X005564Y018274D02*
X005291Y018274D01*
X005300Y018176D02*
X005200Y018176D01*
X005200Y018077D02*
X005300Y018077D01*
X005300Y017979D02*
X005200Y017979D01*
X005200Y017880D02*
X005300Y017880D01*
X006206Y013349D02*
X008034Y013349D01*
X005300Y013251D02*
X005200Y013251D01*
X005200Y013152D02*
X005300Y013152D01*
X005300Y013054D02*
X005200Y013054D01*
X005200Y012955D02*
X005300Y012955D01*
X012119Y021030D02*
X012151Y021062D01*
X012220Y021229D01*
X012299Y021229D01*
X012302Y021208D02*
X012325Y021137D01*
X012359Y021070D01*
X012388Y021030D01*
X012119Y021030D01*
X012122Y021032D02*
X012387Y021032D01*
X012328Y021131D02*
X012180Y021131D01*
X012220Y021229D02*
X012220Y021410D01*
X012151Y021577D01*
X012038Y021690D01*
X012467Y021690D01*
X012456Y021682D01*
X012403Y021629D01*
X012359Y021568D01*
X012325Y021502D01*
X012302Y021431D01*
X012292Y021369D01*
X012715Y021369D01*
X012715Y021269D01*
X012292Y021269D01*
X012302Y021208D01*
X012220Y021328D02*
X012715Y021328D01*
X012815Y021328D02*
X013310Y021328D01*
X013310Y021410D02*
X013310Y021229D01*
X013232Y021229D01*
X013229Y021208D02*
X013238Y021269D01*
X012815Y021269D01*
X012815Y021369D01*
X013238Y021369D01*
X013229Y021431D01*
X013205Y021502D01*
X013172Y021568D01*
X013128Y021629D01*
X013075Y021682D01*
X013063Y021690D01*
X013493Y021690D01*
X013380Y021577D01*
X013310Y021410D01*
X013317Y021426D02*
X013229Y021426D01*
X013194Y021525D02*
X013358Y021525D01*
X013426Y021623D02*
X013132Y021623D01*
X013229Y021208D02*
X013205Y021137D01*
X013172Y021070D01*
X013142Y021030D01*
X013411Y021030D01*
X013380Y021062D01*
X013310Y021229D01*
X013351Y021131D02*
X013202Y021131D01*
X013144Y021032D02*
X013409Y021032D01*
X012399Y021623D02*
X012105Y021623D01*
X012173Y021525D02*
X012337Y021525D01*
X012301Y021426D02*
X012214Y021426D01*
X015200Y018176D02*
X015300Y018176D01*
X015300Y018077D02*
X015200Y018077D01*
X015200Y017979D02*
X015300Y017979D01*
X015300Y017880D02*
X015200Y017880D01*
X015822Y018077D02*
X015918Y018077D01*
X015918Y018176D02*
X015822Y018176D01*
X015822Y018274D02*
X015918Y018274D01*
X016898Y021919D02*
X024046Y021919D01*
X024315Y022017D02*
X016800Y022017D01*
D19*
X015370Y018700D03*
X015370Y016210D03*
X013470Y016210D03*
X013470Y013770D03*
X015370Y013770D03*
X015370Y011380D03*
X013520Y011380D03*
X013470Y008890D03*
X015420Y008890D03*
X015370Y006450D03*
X013470Y006450D03*
X013570Y004010D03*
X015420Y004010D03*
X015870Y002060D03*
X015870Y000610D03*
X013370Y000610D03*
X013470Y001570D03*
X010870Y002010D03*
X010870Y000610D03*
X008570Y001570D03*
X008370Y000610D03*
X005870Y000610D03*
X005870Y002060D03*
X005220Y004210D03*
X005270Y006650D03*
X005270Y009080D03*
X005420Y011380D03*
X005270Y013970D03*
X005370Y016210D03*
X003470Y017200D03*
X004620Y018700D03*
X000820Y019250D03*
X008420Y016210D03*
X010320Y016210D03*
X010370Y013770D03*
X008520Y013770D03*
X008570Y011380D03*
X010370Y011380D03*
X010370Y008890D03*
X008570Y008890D03*
X008470Y006450D03*
X010320Y006450D03*
X010420Y004010D03*
X008520Y004010D03*
X018520Y004010D03*
X020370Y004010D03*
X021520Y003910D03*
X021520Y006100D03*
X020370Y006450D03*
X018470Y006450D03*
X018520Y008890D03*
X020370Y008890D03*
X021520Y008590D03*
X021520Y010980D03*
X020370Y011380D03*
X018520Y011380D03*
X018520Y013770D03*
X020420Y013770D03*
X021520Y013570D03*
X021270Y016210D03*
X020370Y016210D03*
X018520Y016210D03*
X020370Y018700D03*
X021470Y018450D03*
X022270Y018800D03*
X023270Y019550D03*
X010320Y018700D03*
X018570Y001570D03*
X018370Y000610D03*
X020870Y000610D03*
D20*
X020904Y000644D01*
X021490Y000704D01*
X021970Y001220D02*
X022120Y001070D01*
X022120Y000704D01*
X021970Y001220D02*
X019770Y001220D01*
X019620Y001070D01*
X019620Y000704D01*
X018990Y000704D02*
X018990Y001490D01*
X019070Y001570D01*
X022670Y001570D01*
X022750Y001490D01*
X022750Y000704D01*
X022750Y002436D02*
X022750Y003144D01*
X022120Y003144D02*
X022120Y002436D01*
X021490Y003144D02*
X021520Y003174D01*
X021520Y003910D01*
X021490Y003144D02*
X020870Y002556D01*
X020250Y002436D01*
X019620Y002436D02*
X019620Y003144D01*
X018990Y003144D02*
X018990Y002436D01*
X018370Y002556D02*
X018370Y001770D01*
X018570Y001570D01*
X017770Y001370D02*
X017670Y001470D01*
X014070Y001470D01*
X013990Y001390D01*
X013990Y000704D01*
X014620Y000704D02*
X014620Y001070D01*
X014770Y001220D01*
X016970Y001220D01*
X017120Y001070D01*
X017120Y000704D01*
X017750Y000704D02*
X017770Y000664D01*
X017770Y001370D01*
X017750Y002436D02*
X017750Y003144D01*
X017120Y003144D02*
X017120Y002436D01*
X016490Y003144D02*
X015870Y002556D01*
X015870Y002060D01*
X015870Y002556D02*
X015250Y002436D01*
X014620Y002436D02*
X014620Y003144D01*
X013990Y003144D02*
X013990Y002436D01*
X013370Y002556D02*
X013370Y001670D01*
X013470Y001570D01*
X012720Y001320D02*
X012620Y001420D01*
X009170Y001420D01*
X008990Y001240D01*
X008990Y000704D01*
X009620Y000704D02*
X009670Y000694D01*
X009670Y001070D01*
X009770Y001170D01*
X011970Y001170D01*
X012120Y001020D01*
X012120Y000704D01*
X012720Y000674D02*
X012720Y001320D01*
X012750Y000704D02*
X012720Y000674D01*
X011490Y000704D02*
X010904Y000644D01*
X010870Y000610D01*
X010870Y002010D02*
X010870Y002556D01*
X010250Y002436D01*
X010870Y002556D02*
X011490Y003144D01*
X012120Y003144D02*
X012120Y002436D01*
X012750Y002436D02*
X012750Y003144D01*
X013570Y004010D02*
X013370Y004210D01*
X013370Y005046D01*
X013990Y004876D02*
X013990Y005584D01*
X014620Y005584D02*
X014620Y004876D01*
X015250Y004876D02*
X015250Y004180D01*
X015420Y004010D01*
X015250Y004876D02*
X015870Y005046D01*
X016490Y005584D01*
X017120Y005584D02*
X017120Y004876D01*
X017750Y004876D02*
X017750Y005584D01*
X018370Y005046D02*
X018370Y004160D01*
X018520Y004010D01*
X018990Y004876D02*
X018990Y005584D01*
X019620Y005584D02*
X019620Y004876D01*
X020250Y004876D02*
X020250Y004130D01*
X020370Y004010D01*
X020870Y005046D02*
X021490Y005584D01*
X021520Y005614D01*
X021520Y006100D01*
X022120Y005584D02*
X022120Y004876D01*
X022750Y004876D02*
X022750Y005584D01*
X022750Y007316D02*
X022750Y008024D01*
X022120Y008024D02*
X022120Y007316D01*
X021490Y008024D02*
X021520Y008054D01*
X021520Y008590D01*
X021490Y008024D02*
X020870Y007486D01*
X020250Y007316D02*
X020250Y006570D01*
X020370Y006450D01*
X019620Y007316D02*
X019620Y008024D01*
X018990Y008024D02*
X018990Y007316D01*
X018370Y007486D02*
X018370Y006550D01*
X018470Y006450D01*
X017750Y007316D02*
X017750Y008024D01*
X017120Y008024D02*
X017120Y007316D01*
X016490Y008024D02*
X015870Y007486D01*
X015250Y007316D01*
X015250Y006570D01*
X015370Y006450D01*
X014620Y007316D02*
X014620Y008024D01*
X013990Y008024D02*
X013990Y007316D01*
X013370Y007486D02*
X013370Y006550D01*
X013470Y006450D01*
X012750Y005584D02*
X012750Y004876D01*
X012120Y004876D02*
X012120Y005584D01*
X011490Y005584D02*
X010870Y005046D01*
X010250Y004876D01*
X010250Y004180D01*
X010420Y004010D01*
X009620Y003144D02*
X009620Y002436D01*
X008990Y002436D02*
X008990Y003144D01*
X008370Y002556D02*
X008370Y001770D01*
X008570Y001570D01*
X007770Y001370D02*
X007670Y001470D01*
X004070Y001470D01*
X003990Y001390D01*
X003990Y000704D01*
X004620Y000704D02*
X004620Y001020D01*
X004770Y001170D01*
X007020Y001170D01*
X007120Y001070D01*
X007120Y000704D01*
X007750Y000704D02*
X007770Y000664D01*
X007770Y001370D01*
X007750Y002436D02*
X007750Y003144D01*
X007120Y003144D02*
X007120Y002436D01*
X006490Y003144D02*
X005870Y002556D01*
X005870Y002060D01*
X005870Y002556D02*
X005250Y002436D01*
X004620Y002436D02*
X004620Y003144D01*
X003990Y003144D02*
X003990Y002436D01*
X005220Y004210D02*
X005220Y004836D01*
X005250Y004876D01*
X005870Y005046D01*
X006490Y005584D01*
X007120Y005584D02*
X007120Y004876D01*
X007750Y004876D02*
X007750Y005584D01*
X008370Y005046D02*
X008370Y004160D01*
X008520Y004010D01*
X008990Y004876D02*
X008990Y005584D01*
X009620Y005584D02*
X009620Y004876D01*
X010320Y006450D02*
X010250Y006520D01*
X010250Y007316D01*
X010870Y007486D01*
X011490Y008024D01*
X012120Y008024D02*
X012120Y007316D01*
X012750Y007316D02*
X012750Y008024D01*
X013470Y008890D02*
X013370Y008980D01*
X013370Y009926D01*
X013990Y009756D02*
X013990Y010464D01*
X014620Y010464D02*
X014620Y009756D01*
X015250Y009756D02*
X015250Y009050D01*
X015420Y008890D01*
X015250Y009756D02*
X015870Y009926D01*
X016490Y010464D01*
X017120Y010464D02*
X017120Y009756D01*
X017750Y009756D02*
X017750Y010464D01*
X018370Y009926D02*
X018370Y009030D01*
X018520Y008890D01*
X018990Y009756D02*
X018990Y010464D01*
X019620Y010464D02*
X019620Y009756D01*
X020250Y009756D02*
X020250Y009000D01*
X020370Y008890D01*
X020870Y009926D02*
X021490Y010464D01*
X021520Y010464D01*
X021520Y010980D01*
X022120Y010464D02*
X022120Y009756D01*
X022750Y009756D02*
X022750Y010464D01*
X022750Y012196D02*
X022750Y012904D01*
X022120Y012904D02*
X022120Y012196D01*
X021520Y012904D02*
X021490Y012904D01*
X020870Y012366D01*
X020250Y012196D02*
X020250Y011500D01*
X020370Y011380D01*
X019620Y012196D02*
X019620Y012904D01*
X018990Y012904D02*
X018990Y012196D01*
X018370Y012366D02*
X018370Y011530D01*
X018520Y011380D01*
X017750Y012196D02*
X017750Y012904D01*
X017120Y012904D02*
X017120Y012196D01*
X016490Y012904D02*
X015870Y012366D01*
X015250Y012196D01*
X015250Y011500D01*
X015370Y011380D01*
X014620Y012196D02*
X014620Y012904D01*
X013990Y012904D02*
X013990Y012196D01*
X013370Y012366D02*
X013370Y011530D01*
X013520Y011380D01*
X012750Y012196D02*
X012750Y012904D01*
X012120Y012904D02*
X012120Y012196D01*
X011490Y012904D02*
X010870Y012366D01*
X010250Y012196D01*
X010250Y011500D01*
X010370Y011380D01*
X009620Y012196D02*
X009620Y012904D01*
X008990Y012904D02*
X008990Y012196D01*
X008370Y012366D02*
X008370Y011580D01*
X008570Y011380D01*
X008990Y010464D02*
X008990Y009756D01*
X009620Y009756D02*
X009620Y010464D01*
X010250Y009756D02*
X010870Y009926D01*
X011490Y010464D01*
X012120Y010464D02*
X012120Y009756D01*
X012750Y009756D02*
X012750Y010464D01*
X010250Y009756D02*
X010250Y009000D01*
X010370Y008890D01*
X009620Y008024D02*
X009620Y007316D01*
X008990Y007316D02*
X008990Y008024D01*
X008370Y007486D02*
X008370Y006550D01*
X008470Y006450D01*
X007750Y007316D02*
X007750Y008024D01*
X007120Y008024D02*
X007120Y007316D01*
X006490Y008024D02*
X005870Y007486D01*
X005250Y007316D01*
X005270Y007306D01*
X005270Y006650D01*
X004620Y007316D02*
X004620Y008024D01*
X003990Y008024D02*
X003990Y007316D01*
X003990Y005584D02*
X003990Y004876D01*
X004620Y004876D02*
X004620Y005584D01*
X008370Y009080D02*
X008570Y008890D01*
X008370Y009080D02*
X008370Y009926D01*
X007750Y009756D02*
X007750Y010464D01*
X007120Y010464D02*
X007120Y009756D01*
X006490Y010464D02*
X005870Y009926D01*
X005250Y009756D01*
X005270Y009746D01*
X005270Y009080D01*
X004620Y009756D02*
X004620Y010464D01*
X003990Y010464D02*
X003990Y009756D01*
X005420Y011380D02*
X005250Y011550D01*
X005250Y012196D01*
X005870Y012366D01*
X006490Y012904D01*
X007120Y012904D02*
X007120Y012196D01*
X007750Y012196D02*
X007750Y012904D01*
X008520Y013770D02*
X008370Y013920D01*
X008370Y014806D01*
X007750Y014636D02*
X007750Y015344D01*
X007120Y015344D02*
X007120Y014636D01*
X006490Y015344D02*
X005870Y014806D01*
X005250Y014636D01*
X005270Y014626D01*
X005270Y013970D01*
X004620Y014636D02*
X004620Y015344D01*
X003990Y015344D02*
X003990Y014636D01*
X003040Y014854D02*
X003040Y015546D01*
X003074Y015700D01*
X003370Y015700D01*
X003470Y015800D01*
X003470Y016750D01*
X003374Y016846D01*
X003050Y016846D01*
X003074Y016850D01*
X003370Y016850D01*
X003470Y016950D01*
X003470Y017200D01*
X003470Y018404D01*
X003070Y018804D01*
X003370Y019200D02*
X002470Y019200D01*
X002339Y019069D01*
X002339Y018525D01*
X002768Y018096D01*
X003070Y018096D01*
X003050Y017554D02*
X002116Y017554D01*
X001870Y017800D01*
X001870Y018494D01*
X001839Y018525D01*
X001870Y018555D01*
X001870Y019250D01*
X002070Y019450D01*
X003120Y019450D01*
X003270Y019600D01*
X003270Y021650D01*
X003520Y021900D01*
X016620Y021900D01*
X016770Y021750D01*
X016770Y021324D01*
X016765Y021319D01*
X016620Y020820D02*
X006370Y020820D01*
X006270Y020720D01*
X006270Y020050D01*
X006070Y019850D01*
X005920Y019850D01*
X005770Y019700D01*
X005770Y019050D01*
X005070Y018350D01*
X004220Y018350D01*
X003370Y019200D01*
X004620Y018700D02*
X004970Y018700D01*
X005120Y018850D01*
X005120Y019386D01*
X005250Y019516D01*
X005270Y019536D01*
X005270Y020800D01*
X004765Y021305D01*
X004765Y021319D01*
X007120Y019516D02*
X007120Y018800D01*
X007270Y018650D01*
X009470Y018650D01*
X009620Y018800D01*
X009620Y019516D01*
X008990Y019516D02*
X008990Y019220D01*
X008770Y019000D01*
X007970Y019000D01*
X007770Y019200D01*
X007770Y019496D01*
X007750Y019516D01*
X007750Y017784D02*
X007750Y017076D01*
X007120Y017076D02*
X007120Y017784D01*
X006490Y017784D02*
X005870Y017246D01*
X005250Y017076D01*
X005250Y016330D01*
X005370Y016210D01*
X004620Y017076D02*
X004620Y017784D01*
X003990Y017784D02*
X003990Y017076D01*
X003040Y016254D02*
X002870Y016084D01*
X002870Y016050D01*
X002670Y016050D01*
X002670Y016350D01*
X002470Y016550D01*
X001670Y016550D01*
X001370Y016850D01*
X001370Y018494D01*
X001339Y018525D01*
X000839Y018525D02*
X000820Y018544D01*
X000820Y019250D01*
X002670Y016050D02*
X002670Y015300D01*
X002520Y015150D01*
X001277Y015150D01*
X001270Y015157D01*
X003990Y012904D02*
X003990Y012196D01*
X004620Y012196D02*
X004620Y012904D01*
X008370Y016260D02*
X008420Y016210D01*
X008370Y016260D02*
X008370Y017246D01*
X008370Y016360D01*
X008990Y017076D02*
X008990Y017784D01*
X009620Y017784D02*
X009620Y017076D01*
X010250Y017076D02*
X010270Y017046D01*
X010270Y016260D01*
X010320Y016210D01*
X010250Y017076D02*
X010870Y017246D01*
X011490Y017784D01*
X012120Y017784D02*
X012120Y017076D01*
X012750Y017076D02*
X012750Y017784D01*
X013370Y017246D02*
X013370Y016310D01*
X013470Y016210D01*
X013370Y016360D02*
X013370Y017246D01*
X013990Y017076D02*
X013990Y017784D01*
X014620Y017784D02*
X014620Y017076D01*
X015250Y017076D02*
X015270Y017046D01*
X015270Y016310D01*
X015370Y016210D01*
X015250Y017076D02*
X015870Y017246D01*
X016490Y017784D01*
X017120Y017784D02*
X017120Y017076D01*
X017750Y017076D02*
X017750Y017784D01*
X018370Y017296D02*
X018370Y016360D01*
X018520Y016210D01*
X018990Y015344D02*
X018990Y014636D01*
X019620Y014636D02*
X019620Y015344D01*
X020250Y014636D02*
X020250Y013940D01*
X020420Y013770D01*
X021520Y013570D02*
X021520Y012904D01*
X022120Y014636D02*
X022120Y015344D01*
X021520Y015374D02*
X021520Y015960D01*
X021270Y016210D01*
X021520Y015374D02*
X021490Y015344D01*
X020870Y014806D01*
X020370Y016210D02*
X020250Y016330D01*
X020250Y017076D01*
X020270Y017046D01*
X020870Y017246D02*
X021490Y017784D01*
X021470Y017784D01*
X021470Y018450D01*
X022120Y018950D02*
X022120Y019516D01*
X022750Y019516D02*
X023236Y019516D01*
X023270Y019550D01*
X022270Y018800D02*
X022120Y018950D01*
X022120Y017784D02*
X022120Y017076D01*
X022750Y017076D02*
X022750Y017784D01*
X020370Y018700D02*
X020250Y018820D01*
X020250Y019516D01*
X019620Y019516D02*
X019620Y018800D01*
X019420Y018600D01*
X017320Y018600D01*
X017120Y018800D01*
X017120Y019516D01*
X017750Y019516D02*
X017770Y019496D01*
X017770Y019100D01*
X017870Y019000D01*
X018920Y019000D01*
X018990Y019120D01*
X018990Y019516D01*
X018990Y017784D02*
X018990Y017076D01*
X019620Y017076D02*
X019620Y017784D01*
X017750Y015344D02*
X017750Y014636D01*
X017120Y014636D02*
X017120Y015344D01*
X016490Y015344D02*
X015870Y014856D01*
X015250Y014636D01*
X015250Y013890D01*
X015370Y013770D01*
X014620Y014636D02*
X014620Y015344D01*
X013990Y015344D02*
X013990Y014636D01*
X013370Y014806D02*
X013370Y013870D01*
X013470Y013770D01*
X012750Y014636D02*
X012750Y015344D01*
X012120Y015344D02*
X012120Y014636D01*
X011490Y015344D02*
X010870Y014806D01*
X010250Y014636D01*
X010250Y013890D01*
X010370Y013770D01*
X009620Y014636D02*
X009620Y015344D01*
X008990Y015344D02*
X008990Y014636D01*
X010320Y018700D02*
X010250Y018770D01*
X010250Y019516D01*
X012120Y019516D02*
X012120Y018850D01*
X012320Y018650D01*
X014520Y018650D01*
X014620Y018750D01*
X014620Y019516D01*
X013990Y019516D02*
X013990Y019170D01*
X013870Y019050D01*
X012870Y019050D01*
X012750Y019170D01*
X012750Y019516D01*
X015250Y019516D02*
X015250Y018820D01*
X015370Y018700D01*
X016765Y020319D02*
X016770Y020324D01*
X016770Y020670D01*
X016620Y020820D01*
X022750Y015344D02*
X022750Y014636D01*
X018520Y013770D02*
X018370Y013920D01*
X018370Y014806D01*
X016490Y000704D02*
X015904Y000644D01*
X015870Y000610D01*
X006490Y000704D02*
X005904Y000644D01*
X005870Y000610D01*
M02*
